M48
; DRILL file {KiCad (5.1.10)-1} date 10/06/21 14:43:27
; FORMAT={-:-/ absolute / metric / decimal}
; #@! TF.CreationDate,2021-10-06T14:43:27-05:00
; #@! TF.GenerationSoftware,Kicad,Pcbnew,(5.1.10)-1
; #@! TF.FileFunction,Plated,1,2,PTH
FMAT,2
METRIC
T1C0.750
T2C0.800
T3C1.000
T4C1.100
T5C1.220
T6C1.420
T7C1.430
T8C2.100
%
G90
G05
T1
X143.5Y-50.5
X143.5Y-58.12
X145.75Y-84.0
X145.75Y-91.62
X155.25Y-83.88
X155.25Y-91.5
X157.5Y-50.5
X157.5Y-58.12
T2
X144.0Y-72.75
X144.0Y-94.59
X144.0Y-104.75
X145.0Y-122.75
X145.0Y-125.25
X146.75Y-110.38
X146.75Y-112.92
X146.75Y-115.46
X146.75Y-118.0
X147.5Y-52.75
X147.5Y-55.25
X148.0Y-95.84
X148.0Y-106.0
X149.0Y-72.75
X151.75Y-72.75
X152.5Y-96.0
X152.5Y-106.16
X153.5Y-52.75
X153.5Y-55.25
X154.37Y-110.38
X154.37Y-112.92
X154.37Y-115.46
X154.37Y-118.0
X156.0Y-122.75
X156.0Y-125.25
X156.25Y-129.34
X156.25Y-139.5
X156.75Y-72.75
X156.75Y-94.5
X156.75Y-104.66
T3
X145.25Y-44.5
X145.25Y-47.04
X147.79Y-44.5
X147.79Y-47.04
X148.082Y-69.596
X150.33Y-44.5
X150.33Y-47.04
X150.582Y-69.596
X152.87Y-44.5
X152.87Y-47.04
X153.082Y-69.596
X155.41Y-44.5
X155.41Y-47.04
T5
X147.72Y-139.46
X153.28Y-154.53
T6
X147.72Y-136.36
X153.28Y-151.43
T7
X147.72Y-128.06
X153.28Y-143.13
T8
X150.575Y-76.675
X150.575Y-81.375
X150.575Y-86.075
T4
X145.782Y-62.446G85X145.782Y-61.746
G05
X155.382Y-62.446G85X155.382Y-61.746
G05
T0
M30
