%FSLAX45Y45*%
G04 Gerber Fmt 4.5, Leading zero omitted, Abs format (unit mm)*
G04 Created by KiCad (PCBNEW (5.1.10)-1) date 2021-10-10 13:11:33*
%MOMM*%
%LPD*%
G01*
G04 APERTURE LIST*
%TA.AperFunction,Profile*%
%ADD10C,0.500000*%
%TD*%
%ADD11C,0.200000*%
%ADD12C,0.300000*%
G04 APERTURE END LIST*
D10*
X14150000Y-15630000D02*
X14150000Y-4220000D01*
X15950000Y-15630000D02*
X14150000Y-15630000D01*
X15950000Y-4220000D02*
X15950000Y-15630000D01*
X14150000Y-4220000D02*
X15950000Y-4220000D01*
D11*
D12*
X14411428Y-16120714D02*
X14411428Y-15820714D01*
X14482857Y-15820714D01*
X14525714Y-15835000D01*
X14554286Y-15863571D01*
X14568571Y-15892143D01*
X14582857Y-15949286D01*
X14582857Y-15992143D01*
X14568571Y-16049286D01*
X14554286Y-16077857D01*
X14525714Y-16106429D01*
X14482857Y-16120714D01*
X14411428Y-16120714D01*
X14711428Y-16120714D02*
X14711428Y-15920714D01*
X14711428Y-15977857D02*
X14725714Y-15949286D01*
X14740000Y-15935000D01*
X14768571Y-15920714D01*
X14797143Y-15920714D01*
X14897143Y-16120714D02*
X14897143Y-15920714D01*
X14897143Y-15820714D02*
X14882857Y-15835000D01*
X14897143Y-15849286D01*
X14911428Y-15835000D01*
X14897143Y-15820714D01*
X14897143Y-15849286D01*
X15082857Y-16120714D02*
X15054286Y-16106429D01*
X15040000Y-16077857D01*
X15040000Y-15820714D01*
X15240000Y-16120714D02*
X15211428Y-16106429D01*
X15197143Y-16077857D01*
X15197143Y-15820714D01*
X15582857Y-16120714D02*
X15582857Y-15820714D01*
X15682857Y-16035000D01*
X15782857Y-15820714D01*
X15782857Y-16120714D01*
X16054286Y-16120714D02*
X16054286Y-15963571D01*
X16040000Y-15935000D01*
X16011428Y-15920714D01*
X15954286Y-15920714D01*
X15925714Y-15935000D01*
X16054286Y-16106429D02*
X16025714Y-16120714D01*
X15954286Y-16120714D01*
X15925714Y-16106429D01*
X15911428Y-16077857D01*
X15911428Y-16049286D01*
X15925714Y-16020714D01*
X15954286Y-16006429D01*
X16025714Y-16006429D01*
X16054286Y-15992143D01*
X16197143Y-15920714D02*
X16197143Y-16220714D01*
X16197143Y-15935000D02*
X16225714Y-15920714D01*
X16282857Y-15920714D01*
X16311428Y-15935000D01*
X16325714Y-15949286D01*
X16340000Y-15977857D01*
X16340000Y-16063571D01*
X16325714Y-16092143D01*
X16311428Y-16106429D01*
X16282857Y-16120714D01*
X16225714Y-16120714D01*
X16197143Y-16106429D01*
X16468571Y-16092143D02*
X16482857Y-16106429D01*
X16468571Y-16120714D01*
X16454286Y-16106429D01*
X16468571Y-16092143D01*
X16468571Y-16120714D01*
X16468571Y-15935000D02*
X16482857Y-15949286D01*
X16468571Y-15963571D01*
X16454286Y-15949286D01*
X16468571Y-15935000D01*
X16468571Y-15963571D01*
M02*
