G04 #@! TF.GenerationSoftware,KiCad,Pcbnew,(5.1.10)-1*
G04 #@! TF.CreationDate,2021-10-10T13:11:30-05:00*
G04 #@! TF.ProjectId,Slew Limiter Board,536c6577-204c-4696-9d69-74657220426f,1.0*
G04 #@! TF.SameCoordinates,Original*
G04 #@! TF.FileFunction,Legend,Top*
G04 #@! TF.FilePolarity,Positive*
%FSLAX46Y46*%
G04 Gerber Fmt 4.6, Leading zero omitted, Abs format (unit mm)*
G04 Created by KiCad (PCBNEW (5.1.10)-1) date 2021-10-10 13:11:30*
%MOMM*%
%LPD*%
G01*
G04 APERTURE LIST*
%ADD10C,0.120000*%
%ADD11C,0.150000*%
%ADD12C,2.130000*%
%ADD13R,1.930000X1.830000*%
%ADD14R,1.800000X1.800000*%
%ADD15C,1.800000*%
%ADD16O,2.720000X3.240000*%
%ADD17O,1.600000X1.600000*%
%ADD18C,1.600000*%
%ADD19O,1.700000X1.700000*%
%ADD20R,1.700000X1.700000*%
%ADD21R,1.500000X1.500000*%
%ADD22O,1.500000X1.500000*%
%ADD23R,1.600000X1.600000*%
%ADD24O,2.400000X1.600000*%
%ADD25R,2.400000X1.600000*%
%ADD26C,3.100000*%
G04 APERTURE END LIST*
D10*
X152220000Y-137480000D02*
X152220000Y-126980000D01*
X143220000Y-137480000D02*
X143220000Y-126980000D01*
X143220000Y-126980000D02*
X147220000Y-126980000D01*
X148220000Y-126980000D02*
X152220000Y-126980000D01*
X143220000Y-137480000D02*
X147370000Y-137480000D01*
X148070000Y-137480000D02*
X152220000Y-137480000D01*
X149520000Y-132980000D02*
G75*
G03*
X149520000Y-132980000I-1800000J0D01*
G01*
X148780000Y-140460000D02*
X148780000Y-139660000D01*
X148780000Y-140460000D02*
X147920000Y-140460000D01*
X152242000Y-68716000D02*
X151412000Y-68716000D01*
X149792000Y-68716000D02*
X149262000Y-68716000D01*
X146892000Y-68716000D02*
X145712000Y-68716000D01*
X155452000Y-68716000D02*
X155452000Y-63996000D01*
X145712000Y-60186000D02*
X145712000Y-57126000D01*
X145702000Y-68716000D02*
X145702000Y-63996000D01*
X155452000Y-60186000D02*
X155452000Y-57126000D01*
X155452000Y-68716000D02*
X153962000Y-68716000D01*
X155452000Y-57126000D02*
X145712000Y-57126000D01*
X147145000Y-87725000D02*
X147145000Y-75025000D01*
X147145000Y-75025000D02*
X154005000Y-75025000D01*
X154005000Y-75035000D02*
X154005000Y-87725000D01*
X154005000Y-87725000D02*
X147155000Y-87725000D01*
X147155000Y-87725000D02*
X147155000Y-87715000D01*
X157780000Y-152550000D02*
X157780000Y-142050000D01*
X148780000Y-152550000D02*
X148780000Y-142050000D01*
X148780000Y-142050000D02*
X152780000Y-142050000D01*
X153780000Y-142050000D02*
X157780000Y-142050000D01*
X148780000Y-152550000D02*
X152930000Y-152550000D01*
X153630000Y-152550000D02*
X157780000Y-152550000D01*
X155080000Y-148050000D02*
G75*
G03*
X155080000Y-148050000I-1800000J0D01*
G01*
X154340000Y-155530000D02*
X154340000Y-154730000D01*
X154340000Y-155530000D02*
X153480000Y-155530000D01*
D11*
X151416666Y-137832380D02*
X151416666Y-138546666D01*
X151369047Y-138689523D01*
X151273809Y-138784761D01*
X151130952Y-138832380D01*
X151035714Y-138832380D01*
X152416666Y-138832380D02*
X151845238Y-138832380D01*
X152130952Y-138832380D02*
X152130952Y-137832380D01*
X152035714Y-137975238D01*
X151940476Y-138070476D01*
X151845238Y-138118095D01*
X143894380Y-63481238D02*
X143418190Y-63814571D01*
X143894380Y-64052666D02*
X142894380Y-64052666D01*
X142894380Y-63671714D01*
X142942000Y-63576476D01*
X142989619Y-63528857D01*
X143084857Y-63481238D01*
X143227714Y-63481238D01*
X143322952Y-63528857D01*
X143370571Y-63576476D01*
X143418190Y-63671714D01*
X143418190Y-64052666D01*
X142894380Y-63195523D02*
X143894380Y-62862190D01*
X142894380Y-62528857D01*
X143894380Y-61671714D02*
X143894380Y-62243142D01*
X143894380Y-61957428D02*
X142894380Y-61957428D01*
X143037238Y-62052666D01*
X143132476Y-62147904D01*
X143180095Y-62243142D01*
X149575000Y-89078571D02*
X149682142Y-89114285D01*
X149860714Y-89114285D01*
X149932142Y-89078571D01*
X149967857Y-89042857D01*
X150003571Y-88971428D01*
X150003571Y-88900000D01*
X149967857Y-88828571D01*
X149932142Y-88792857D01*
X149860714Y-88757142D01*
X149717857Y-88721428D01*
X149646428Y-88685714D01*
X149610714Y-88650000D01*
X149575000Y-88578571D01*
X149575000Y-88507142D01*
X149610714Y-88435714D01*
X149646428Y-88400000D01*
X149717857Y-88364285D01*
X149896428Y-88364285D01*
X150003571Y-88400000D01*
X150253571Y-88364285D02*
X150432142Y-89114285D01*
X150575000Y-88578571D01*
X150717857Y-89114285D01*
X150896428Y-88364285D01*
X151575000Y-89114285D02*
X151146428Y-89114285D01*
X151360714Y-89114285D02*
X151360714Y-88364285D01*
X151289285Y-88471428D01*
X151217857Y-88542857D01*
X151146428Y-88578571D01*
X156976666Y-152902380D02*
X156976666Y-153616666D01*
X156929047Y-153759523D01*
X156833809Y-153854761D01*
X156690952Y-153902380D01*
X156595714Y-153902380D01*
X157405238Y-152997619D02*
X157452857Y-152950000D01*
X157548095Y-152902380D01*
X157786190Y-152902380D01*
X157881428Y-152950000D01*
X157929047Y-152997619D01*
X157976666Y-153092857D01*
X157976666Y-153188095D01*
X157929047Y-153330952D01*
X157357619Y-153902380D01*
X157976666Y-153902380D01*
%LPC*%
D12*
X147720000Y-128060000D03*
D13*
X147720000Y-139460000D03*
D12*
X147720000Y-136360000D03*
D14*
X148082000Y-69596000D03*
D15*
X150582000Y-69596000D03*
X153082000Y-69596000D03*
D16*
X155382000Y-62096000D03*
X145782000Y-62096000D03*
D17*
X152500000Y-106160000D03*
D18*
X152500000Y-96000000D03*
X156750000Y-72750000D03*
X151750000Y-72750000D03*
X149000000Y-72750000D03*
X144000000Y-72750000D03*
D19*
X155410000Y-47040000D03*
X155410000Y-44500000D03*
X152870000Y-47040000D03*
X152870000Y-44500000D03*
X150330000Y-47040000D03*
X150330000Y-44500000D03*
X147790000Y-47040000D03*
X147790000Y-44500000D03*
X145250000Y-47040000D03*
D20*
X145250000Y-44500000D03*
D17*
X156250000Y-129340000D03*
D18*
X156250000Y-139500000D03*
D17*
X156750000Y-94500000D03*
D18*
X156750000Y-104660000D03*
D17*
X148000000Y-95840000D03*
D18*
X148000000Y-106000000D03*
D17*
X144000000Y-94590000D03*
D18*
X144000000Y-104750000D03*
D21*
X157500000Y-58120000D03*
D22*
X157500000Y-50500000D03*
D21*
X143500000Y-50500000D03*
D22*
X143500000Y-58120000D03*
X145750000Y-91620000D03*
D21*
X145750000Y-84000000D03*
D22*
X155250000Y-83880000D03*
D21*
X155250000Y-91500000D03*
D23*
X153500000Y-55250000D03*
D18*
X153500000Y-52750000D03*
D23*
X147500000Y-52750000D03*
D18*
X147500000Y-55250000D03*
X145000000Y-125250000D03*
D23*
X145000000Y-122750000D03*
D18*
X156000000Y-125250000D03*
D23*
X156000000Y-122750000D03*
D24*
X154370000Y-118000000D03*
X146750000Y-110380000D03*
X154370000Y-115460000D03*
X146750000Y-112920000D03*
X154370000Y-112920000D03*
X146750000Y-115460000D03*
X154370000Y-110380000D03*
D25*
X146750000Y-118000000D03*
D26*
X150575000Y-81375000D03*
X150575000Y-86075000D03*
X150575000Y-76675000D03*
D12*
X153280000Y-143130000D03*
D13*
X153280000Y-154530000D03*
D12*
X153280000Y-151430000D03*
M02*
