G04 #@! TF.GenerationSoftware,KiCad,Pcbnew,(5.1.10)-1*
G04 #@! TF.CreationDate,2021-10-10T13:11:30-05:00*
G04 #@! TF.ProjectId,Slew Limiter Board,536c6577-204c-4696-9d69-74657220426f,1.0*
G04 #@! TF.SameCoordinates,Original*
G04 #@! TF.FileFunction,Copper,L1,Top*
G04 #@! TF.FilePolarity,Positive*
%FSLAX46Y46*%
G04 Gerber Fmt 4.6, Leading zero omitted, Abs format (unit mm)*
G04 Created by KiCad (PCBNEW (5.1.10)-1) date 2021-10-10 13:11:30*
%MOMM*%
%LPD*%
G01*
G04 APERTURE LIST*
G04 #@! TA.AperFunction,ComponentPad*
%ADD10C,2.130000*%
G04 #@! TD*
G04 #@! TA.AperFunction,ComponentPad*
%ADD11R,1.930000X1.830000*%
G04 #@! TD*
G04 #@! TA.AperFunction,ComponentPad*
%ADD12R,1.800000X1.800000*%
G04 #@! TD*
G04 #@! TA.AperFunction,ComponentPad*
%ADD13C,1.800000*%
G04 #@! TD*
G04 #@! TA.AperFunction,ComponentPad*
%ADD14O,2.720000X3.240000*%
G04 #@! TD*
G04 #@! TA.AperFunction,ComponentPad*
%ADD15O,1.600000X1.600000*%
G04 #@! TD*
G04 #@! TA.AperFunction,ComponentPad*
%ADD16C,1.600000*%
G04 #@! TD*
G04 #@! TA.AperFunction,ComponentPad*
%ADD17O,1.700000X1.700000*%
G04 #@! TD*
G04 #@! TA.AperFunction,ComponentPad*
%ADD18R,1.700000X1.700000*%
G04 #@! TD*
G04 #@! TA.AperFunction,ComponentPad*
%ADD19R,1.500000X1.500000*%
G04 #@! TD*
G04 #@! TA.AperFunction,ComponentPad*
%ADD20O,1.500000X1.500000*%
G04 #@! TD*
G04 #@! TA.AperFunction,ComponentPad*
%ADD21R,1.600000X1.600000*%
G04 #@! TD*
G04 #@! TA.AperFunction,ComponentPad*
%ADD22O,2.400000X1.600000*%
G04 #@! TD*
G04 #@! TA.AperFunction,ComponentPad*
%ADD23R,2.400000X1.600000*%
G04 #@! TD*
G04 #@! TA.AperFunction,ComponentPad*
%ADD24C,3.100000*%
G04 #@! TD*
G04 #@! TA.AperFunction,Conductor*
%ADD25C,0.889000*%
G04 #@! TD*
G04 #@! TA.AperFunction,Conductor*
%ADD26C,0.508000*%
G04 #@! TD*
G04 #@! TA.AperFunction,Conductor*
%ADD27C,0.254000*%
G04 #@! TD*
G04 #@! TA.AperFunction,Conductor*
%ADD28C,1.000000*%
G04 #@! TD*
G04 APERTURE END LIST*
D10*
X147720000Y-128060000D03*
D11*
X147720000Y-139460000D03*
D10*
X147720000Y-136360000D03*
D12*
X148082000Y-69596000D03*
D13*
X150582000Y-69596000D03*
X153082000Y-69596000D03*
D14*
X155382000Y-62096000D03*
X145782000Y-62096000D03*
D15*
X152500000Y-106160000D03*
D16*
X152500000Y-96000000D03*
X156750000Y-72750000D03*
X151750000Y-72750000D03*
X149000000Y-72750000D03*
X144000000Y-72750000D03*
D17*
X155410000Y-47040000D03*
X155410000Y-44500000D03*
X152870000Y-47040000D03*
X152870000Y-44500000D03*
X150330000Y-47040000D03*
X150330000Y-44500000D03*
X147790000Y-47040000D03*
X147790000Y-44500000D03*
X145250000Y-47040000D03*
D18*
X145250000Y-44500000D03*
D15*
X156250000Y-129340000D03*
D16*
X156250000Y-139500000D03*
D15*
X156750000Y-94500000D03*
D16*
X156750000Y-104660000D03*
D15*
X148000000Y-95840000D03*
D16*
X148000000Y-106000000D03*
D15*
X144000000Y-94590000D03*
D16*
X144000000Y-104750000D03*
D19*
X157500000Y-58120000D03*
D20*
X157500000Y-50500000D03*
D19*
X143500000Y-50500000D03*
D20*
X143500000Y-58120000D03*
X145750000Y-91620000D03*
D19*
X145750000Y-84000000D03*
D20*
X155250000Y-83880000D03*
D19*
X155250000Y-91500000D03*
D21*
X153500000Y-55250000D03*
D16*
X153500000Y-52750000D03*
D21*
X147500000Y-52750000D03*
D16*
X147500000Y-55250000D03*
X145000000Y-125250000D03*
D21*
X145000000Y-122750000D03*
D16*
X156000000Y-125250000D03*
D21*
X156000000Y-122750000D03*
D22*
X154370000Y-118000000D03*
X146750000Y-110380000D03*
X154370000Y-115460000D03*
X146750000Y-112920000D03*
X154370000Y-112920000D03*
X146750000Y-115460000D03*
X154370000Y-110380000D03*
D23*
X146750000Y-118000000D03*
D24*
X150575000Y-81375000D03*
X150575000Y-86075000D03*
X150575000Y-76675000D03*
D10*
X153280000Y-143130000D03*
D11*
X153280000Y-154530000D03*
D10*
X153280000Y-151430000D03*
D25*
X155410000Y-44500000D02*
X155410000Y-47040000D01*
X155410000Y-48410000D02*
X157500000Y-50500000D01*
X155410000Y-47040000D02*
X155410000Y-48410000D01*
X145250000Y-44500000D02*
X145250000Y-47040000D01*
X143500000Y-48790000D02*
X145250000Y-47040000D01*
X143500000Y-50500000D02*
X143500000Y-48790000D01*
X144630000Y-58120000D02*
X147500000Y-55250000D01*
X143500000Y-58120000D02*
X144630000Y-58120000D01*
X142250000Y-59370000D02*
X143500000Y-58120000D01*
X142250000Y-71000000D02*
X142250000Y-59370000D01*
X144000000Y-72750000D02*
X142250000Y-71000000D01*
X142500000Y-74250000D02*
X144000000Y-72750000D01*
X142500000Y-93452198D02*
X142500000Y-74250000D01*
X142476099Y-93476099D02*
X142500000Y-93452198D01*
X142476099Y-106976099D02*
X142476099Y-93476099D01*
X145880000Y-110380000D02*
X142476099Y-106976099D01*
X146750000Y-110380000D02*
X145880000Y-110380000D01*
X156370000Y-58120000D02*
X153500000Y-55250000D01*
X157500000Y-58120000D02*
X156370000Y-58120000D01*
X157500000Y-58120000D02*
X157500000Y-58250000D01*
X157620000Y-58120000D02*
X158751090Y-59251090D01*
X157500000Y-58120000D02*
X157620000Y-58120000D01*
X158751090Y-70748910D02*
X156750000Y-72750000D01*
X158751090Y-59251090D02*
X158751090Y-70748910D01*
X156459000Y-118000000D02*
X154370000Y-118000000D01*
X158751090Y-115707910D02*
X156459000Y-118000000D01*
X158751090Y-74751090D02*
X158751090Y-115707910D01*
X156750000Y-72750000D02*
X158751090Y-74751090D01*
D26*
X150500000Y-77992000D02*
X150500000Y-76800000D01*
X155130000Y-91620000D02*
X155250000Y-91500000D01*
X145750000Y-91620000D02*
X155130000Y-91620000D01*
D27*
X147917000Y-44373000D02*
X150203000Y-44373000D01*
X150203000Y-44353000D01*
X150457000Y-44353000D01*
X150457000Y-44373000D01*
X152743000Y-44373000D01*
X152743000Y-44353000D01*
X152997000Y-44353000D01*
X152997000Y-44373000D01*
X153017000Y-44373000D01*
X153017000Y-44627000D01*
X152997000Y-44627000D01*
X152997000Y-46913000D01*
X153017000Y-46913000D01*
X153017000Y-47167000D01*
X152997000Y-47167000D01*
X152997000Y-48360155D01*
X153226890Y-48481476D01*
X153374099Y-48436825D01*
X153636920Y-48311641D01*
X153870269Y-48137588D01*
X154065178Y-47921355D01*
X154134805Y-47804466D01*
X154256525Y-47986632D01*
X154330500Y-48060607D01*
X154330500Y-48356971D01*
X154325277Y-48410000D01*
X154330500Y-48463029D01*
X154341862Y-48578382D01*
X154346120Y-48621618D01*
X154397199Y-48790000D01*
X154407848Y-48825106D01*
X154508087Y-49012640D01*
X154642986Y-49177015D01*
X154684180Y-49210822D01*
X156116299Y-50642942D01*
X156168225Y-50903989D01*
X156272629Y-51156043D01*
X156424201Y-51382886D01*
X156617114Y-51575799D01*
X156843957Y-51727371D01*
X157096011Y-51831775D01*
X157363589Y-51885000D01*
X157636411Y-51885000D01*
X157903989Y-51831775D01*
X158156043Y-51727371D01*
X158382886Y-51575799D01*
X158575799Y-51382886D01*
X158615000Y-51324218D01*
X158615000Y-56848085D01*
X158604494Y-56839463D01*
X158494180Y-56780498D01*
X158374482Y-56744188D01*
X158250000Y-56731928D01*
X156750000Y-56731928D01*
X156625518Y-56744188D01*
X156545196Y-56768553D01*
X154938072Y-55161430D01*
X154938072Y-54450000D01*
X154925812Y-54325518D01*
X154889502Y-54205820D01*
X154830537Y-54095506D01*
X154751185Y-53998815D01*
X154654494Y-53919463D01*
X154544180Y-53860498D01*
X154424482Y-53824188D01*
X154300000Y-53811928D01*
X154292785Y-53811928D01*
X154313097Y-53742702D01*
X153500000Y-52929605D01*
X152686903Y-53742702D01*
X152707215Y-53811928D01*
X152700000Y-53811928D01*
X152575518Y-53824188D01*
X152455820Y-53860498D01*
X152345506Y-53919463D01*
X152248815Y-53998815D01*
X152169463Y-54095506D01*
X152110498Y-54205820D01*
X152074188Y-54325518D01*
X152061928Y-54450000D01*
X152061928Y-56050000D01*
X152074188Y-56174482D01*
X152110498Y-56294180D01*
X152169463Y-56404494D01*
X152248815Y-56501185D01*
X152345506Y-56580537D01*
X152455820Y-56639502D01*
X152575518Y-56675812D01*
X152700000Y-56688072D01*
X153411430Y-56688072D01*
X155569178Y-58845821D01*
X155602985Y-58887015D01*
X155767360Y-59021914D01*
X155954894Y-59122153D01*
X156158381Y-59183880D01*
X156199942Y-59187973D01*
X156219463Y-59224494D01*
X156298815Y-59321185D01*
X156395506Y-59400537D01*
X156505820Y-59459502D01*
X156625518Y-59495812D01*
X156750000Y-59508072D01*
X157481429Y-59508072D01*
X157671590Y-59698233D01*
X157671591Y-70301765D01*
X156658357Y-71315000D01*
X156608665Y-71315000D01*
X156331426Y-71370147D01*
X156070273Y-71478320D01*
X155835241Y-71635363D01*
X155635363Y-71835241D01*
X155478320Y-72070273D01*
X155370147Y-72331426D01*
X155315000Y-72608665D01*
X155315000Y-72891335D01*
X155370147Y-73168574D01*
X155478320Y-73429727D01*
X155635363Y-73664759D01*
X155835241Y-73864637D01*
X156070273Y-74021680D01*
X156331426Y-74129853D01*
X156608665Y-74185000D01*
X156658357Y-74185000D01*
X157671590Y-75198234D01*
X157671590Y-93405479D01*
X157487420Y-93268963D01*
X157233087Y-93148754D01*
X157099039Y-93108096D01*
X156877000Y-93230085D01*
X156877000Y-94373000D01*
X156897000Y-94373000D01*
X156897000Y-94627000D01*
X156877000Y-94627000D01*
X156877000Y-95769915D01*
X157099039Y-95891904D01*
X157233087Y-95851246D01*
X157487420Y-95731037D01*
X157671591Y-95594521D01*
X157671591Y-103552195D01*
X157664759Y-103545363D01*
X157429727Y-103388320D01*
X157168574Y-103280147D01*
X156891335Y-103225000D01*
X156608665Y-103225000D01*
X156331426Y-103280147D01*
X156070273Y-103388320D01*
X155835241Y-103545363D01*
X155635363Y-103745241D01*
X155478320Y-103980273D01*
X155370147Y-104241426D01*
X155315000Y-104518665D01*
X155315000Y-104801335D01*
X155370147Y-105078574D01*
X155478320Y-105339727D01*
X155635363Y-105574759D01*
X155835241Y-105774637D01*
X156070273Y-105931680D01*
X156331426Y-106039853D01*
X156608665Y-106095000D01*
X156891335Y-106095000D01*
X157168574Y-106039853D01*
X157429727Y-105931680D01*
X157664759Y-105774637D01*
X157671591Y-105767805D01*
X157671591Y-115260765D01*
X156011858Y-116920500D01*
X155716629Y-116920500D01*
X155571101Y-116801068D01*
X155438142Y-116730000D01*
X155571101Y-116658932D01*
X155789608Y-116479608D01*
X155968932Y-116261101D01*
X156102182Y-116011808D01*
X156184236Y-115741309D01*
X156211943Y-115460000D01*
X156184236Y-115178691D01*
X156102182Y-114908192D01*
X155968932Y-114658899D01*
X155789608Y-114440392D01*
X155571101Y-114261068D01*
X155438142Y-114190000D01*
X155571101Y-114118932D01*
X155789608Y-113939608D01*
X155968932Y-113721101D01*
X156102182Y-113471808D01*
X156184236Y-113201309D01*
X156211943Y-112920000D01*
X156184236Y-112638691D01*
X156102182Y-112368192D01*
X155968932Y-112118899D01*
X155789608Y-111900392D01*
X155571101Y-111721068D01*
X155438142Y-111650000D01*
X155571101Y-111578932D01*
X155789608Y-111399608D01*
X155968932Y-111181101D01*
X156102182Y-110931808D01*
X156184236Y-110661309D01*
X156211943Y-110380000D01*
X156184236Y-110098691D01*
X156102182Y-109828192D01*
X155968932Y-109578899D01*
X155789608Y-109360392D01*
X155571101Y-109181068D01*
X155321808Y-109047818D01*
X155051309Y-108965764D01*
X154840492Y-108945000D01*
X153899508Y-108945000D01*
X153688691Y-108965764D01*
X153418192Y-109047818D01*
X153168899Y-109181068D01*
X152950392Y-109360392D01*
X152771068Y-109578899D01*
X152637818Y-109828192D01*
X152555764Y-110098691D01*
X152528057Y-110380000D01*
X152555764Y-110661309D01*
X152637818Y-110931808D01*
X152771068Y-111181101D01*
X152950392Y-111399608D01*
X153168899Y-111578932D01*
X153301858Y-111650000D01*
X153168899Y-111721068D01*
X152950392Y-111900392D01*
X152771068Y-112118899D01*
X152637818Y-112368192D01*
X152555764Y-112638691D01*
X152528057Y-112920000D01*
X152555764Y-113201309D01*
X152637818Y-113471808D01*
X152771068Y-113721101D01*
X152950392Y-113939608D01*
X153168899Y-114118932D01*
X153301858Y-114190000D01*
X153168899Y-114261068D01*
X152950392Y-114440392D01*
X152771068Y-114658899D01*
X152637818Y-114908192D01*
X152555764Y-115178691D01*
X152528057Y-115460000D01*
X152555764Y-115741309D01*
X152637818Y-116011808D01*
X152771068Y-116261101D01*
X152950392Y-116479608D01*
X153168899Y-116658932D01*
X153301858Y-116730000D01*
X153168899Y-116801068D01*
X152950392Y-116980392D01*
X152771068Y-117198899D01*
X152637818Y-117448192D01*
X152555764Y-117718691D01*
X152528057Y-118000000D01*
X152555764Y-118281309D01*
X152637818Y-118551808D01*
X152771068Y-118801101D01*
X152950392Y-119019608D01*
X153168899Y-119198932D01*
X153418192Y-119332182D01*
X153688691Y-119414236D01*
X153899508Y-119435000D01*
X154840492Y-119435000D01*
X155051309Y-119414236D01*
X155321808Y-119332182D01*
X155571101Y-119198932D01*
X155716629Y-119079500D01*
X156405971Y-119079500D01*
X156459000Y-119084723D01*
X156512029Y-119079500D01*
X156670619Y-119063880D01*
X156874106Y-119002153D01*
X157061640Y-118901914D01*
X157226015Y-118767015D01*
X157259826Y-118725816D01*
X158615001Y-117370643D01*
X158615001Y-155415000D01*
X154882926Y-155415000D01*
X154880000Y-154815750D01*
X154721250Y-154657000D01*
X153407000Y-154657000D01*
X153407000Y-154677000D01*
X153153000Y-154677000D01*
X153153000Y-154657000D01*
X151838750Y-154657000D01*
X151680000Y-154815750D01*
X151677074Y-155415000D01*
X142385000Y-155415000D01*
X142385000Y-151262565D01*
X151580000Y-151262565D01*
X151580000Y-151597435D01*
X151645330Y-151925872D01*
X151773479Y-152235252D01*
X151959523Y-152513687D01*
X152196313Y-152750477D01*
X152474748Y-152936521D01*
X152575140Y-152978105D01*
X152315000Y-152976928D01*
X152190518Y-152989188D01*
X152070820Y-153025498D01*
X151960506Y-153084463D01*
X151863815Y-153163815D01*
X151784463Y-153260506D01*
X151725498Y-153370820D01*
X151689188Y-153490518D01*
X151676928Y-153615000D01*
X151680000Y-154244250D01*
X151838750Y-154403000D01*
X153153000Y-154403000D01*
X153153000Y-154383000D01*
X153407000Y-154383000D01*
X153407000Y-154403000D01*
X154721250Y-154403000D01*
X154880000Y-154244250D01*
X154883072Y-153615000D01*
X154870812Y-153490518D01*
X154834502Y-153370820D01*
X154775537Y-153260506D01*
X154696185Y-153163815D01*
X154599494Y-153084463D01*
X154489180Y-153025498D01*
X154369482Y-152989188D01*
X154245000Y-152976928D01*
X153984860Y-152978105D01*
X154085252Y-152936521D01*
X154363687Y-152750477D01*
X154600477Y-152513687D01*
X154786521Y-152235252D01*
X154914670Y-151925872D01*
X154980000Y-151597435D01*
X154980000Y-151262565D01*
X154914670Y-150934128D01*
X154786521Y-150624748D01*
X154600477Y-150346313D01*
X154363687Y-150109523D01*
X154085252Y-149923479D01*
X153775872Y-149795330D01*
X153447435Y-149730000D01*
X153112565Y-149730000D01*
X152784128Y-149795330D01*
X152474748Y-149923479D01*
X152196313Y-150109523D01*
X151959523Y-150346313D01*
X151773479Y-150624748D01*
X151645330Y-150934128D01*
X151580000Y-151262565D01*
X142385000Y-151262565D01*
X142385000Y-142962565D01*
X151580000Y-142962565D01*
X151580000Y-143297435D01*
X151645330Y-143625872D01*
X151773479Y-143935252D01*
X151959523Y-144213687D01*
X152196313Y-144450477D01*
X152474748Y-144636521D01*
X152784128Y-144764670D01*
X153112565Y-144830000D01*
X153447435Y-144830000D01*
X153775872Y-144764670D01*
X154085252Y-144636521D01*
X154363687Y-144450477D01*
X154600477Y-144213687D01*
X154786521Y-143935252D01*
X154914670Y-143625872D01*
X154980000Y-143297435D01*
X154980000Y-142962565D01*
X154914670Y-142634128D01*
X154786521Y-142324748D01*
X154600477Y-142046313D01*
X154363687Y-141809523D01*
X154085252Y-141623479D01*
X153775872Y-141495330D01*
X153447435Y-141430000D01*
X153112565Y-141430000D01*
X152784128Y-141495330D01*
X152474748Y-141623479D01*
X152196313Y-141809523D01*
X151959523Y-142046313D01*
X151773479Y-142324748D01*
X151645330Y-142634128D01*
X151580000Y-142962565D01*
X142385000Y-142962565D01*
X142385000Y-140375000D01*
X146116928Y-140375000D01*
X146129188Y-140499482D01*
X146165498Y-140619180D01*
X146224463Y-140729494D01*
X146303815Y-140826185D01*
X146400506Y-140905537D01*
X146510820Y-140964502D01*
X146630518Y-141000812D01*
X146755000Y-141013072D01*
X147434250Y-141010000D01*
X147593000Y-140851250D01*
X147593000Y-139587000D01*
X147847000Y-139587000D01*
X147847000Y-140851250D01*
X148005750Y-141010000D01*
X148685000Y-141013072D01*
X148809482Y-141000812D01*
X148929180Y-140964502D01*
X149039494Y-140905537D01*
X149136185Y-140826185D01*
X149215537Y-140729494D01*
X149274502Y-140619180D01*
X149310812Y-140499482D01*
X149323072Y-140375000D01*
X149320000Y-139745750D01*
X149161250Y-139587000D01*
X147847000Y-139587000D01*
X147593000Y-139587000D01*
X146278750Y-139587000D01*
X146120000Y-139745750D01*
X146116928Y-140375000D01*
X142385000Y-140375000D01*
X142385000Y-139358665D01*
X154815000Y-139358665D01*
X154815000Y-139641335D01*
X154870147Y-139918574D01*
X154978320Y-140179727D01*
X155135363Y-140414759D01*
X155335241Y-140614637D01*
X155570273Y-140771680D01*
X155831426Y-140879853D01*
X156108665Y-140935000D01*
X156391335Y-140935000D01*
X156668574Y-140879853D01*
X156929727Y-140771680D01*
X157164759Y-140614637D01*
X157364637Y-140414759D01*
X157521680Y-140179727D01*
X157629853Y-139918574D01*
X157685000Y-139641335D01*
X157685000Y-139358665D01*
X157629853Y-139081426D01*
X157521680Y-138820273D01*
X157364637Y-138585241D01*
X157164759Y-138385363D01*
X156929727Y-138228320D01*
X156668574Y-138120147D01*
X156391335Y-138065000D01*
X156108665Y-138065000D01*
X155831426Y-138120147D01*
X155570273Y-138228320D01*
X155335241Y-138385363D01*
X155135363Y-138585241D01*
X154978320Y-138820273D01*
X154870147Y-139081426D01*
X154815000Y-139358665D01*
X142385000Y-139358665D01*
X142385000Y-136192565D01*
X146020000Y-136192565D01*
X146020000Y-136527435D01*
X146085330Y-136855872D01*
X146213479Y-137165252D01*
X146399523Y-137443687D01*
X146636313Y-137680477D01*
X146914748Y-137866521D01*
X147015140Y-137908105D01*
X146755000Y-137906928D01*
X146630518Y-137919188D01*
X146510820Y-137955498D01*
X146400506Y-138014463D01*
X146303815Y-138093815D01*
X146224463Y-138190506D01*
X146165498Y-138300820D01*
X146129188Y-138420518D01*
X146116928Y-138545000D01*
X146120000Y-139174250D01*
X146278750Y-139333000D01*
X147593000Y-139333000D01*
X147593000Y-139313000D01*
X147847000Y-139313000D01*
X147847000Y-139333000D01*
X149161250Y-139333000D01*
X149320000Y-139174250D01*
X149323072Y-138545000D01*
X149310812Y-138420518D01*
X149274502Y-138300820D01*
X149215537Y-138190506D01*
X149136185Y-138093815D01*
X149039494Y-138014463D01*
X148929180Y-137955498D01*
X148809482Y-137919188D01*
X148685000Y-137906928D01*
X148424860Y-137908105D01*
X148525252Y-137866521D01*
X148803687Y-137680477D01*
X149040477Y-137443687D01*
X149226521Y-137165252D01*
X149354670Y-136855872D01*
X149420000Y-136527435D01*
X149420000Y-136192565D01*
X149354670Y-135864128D01*
X149226521Y-135554748D01*
X149040477Y-135276313D01*
X148803687Y-135039523D01*
X148525252Y-134853479D01*
X148215872Y-134725330D01*
X147887435Y-134660000D01*
X147552565Y-134660000D01*
X147224128Y-134725330D01*
X146914748Y-134853479D01*
X146636313Y-135039523D01*
X146399523Y-135276313D01*
X146213479Y-135554748D01*
X146085330Y-135864128D01*
X146020000Y-136192565D01*
X142385000Y-136192565D01*
X142385000Y-127892565D01*
X146020000Y-127892565D01*
X146020000Y-128227435D01*
X146085330Y-128555872D01*
X146213479Y-128865252D01*
X146399523Y-129143687D01*
X146636313Y-129380477D01*
X146914748Y-129566521D01*
X147224128Y-129694670D01*
X147552565Y-129760000D01*
X147887435Y-129760000D01*
X148215872Y-129694670D01*
X148525252Y-129566521D01*
X148803687Y-129380477D01*
X148985499Y-129198665D01*
X154815000Y-129198665D01*
X154815000Y-129481335D01*
X154870147Y-129758574D01*
X154978320Y-130019727D01*
X155135363Y-130254759D01*
X155335241Y-130454637D01*
X155570273Y-130611680D01*
X155831426Y-130719853D01*
X156108665Y-130775000D01*
X156391335Y-130775000D01*
X156668574Y-130719853D01*
X156929727Y-130611680D01*
X157164759Y-130454637D01*
X157364637Y-130254759D01*
X157521680Y-130019727D01*
X157629853Y-129758574D01*
X157685000Y-129481335D01*
X157685000Y-129198665D01*
X157629853Y-128921426D01*
X157521680Y-128660273D01*
X157364637Y-128425241D01*
X157164759Y-128225363D01*
X156929727Y-128068320D01*
X156668574Y-127960147D01*
X156391335Y-127905000D01*
X156108665Y-127905000D01*
X155831426Y-127960147D01*
X155570273Y-128068320D01*
X155335241Y-128225363D01*
X155135363Y-128425241D01*
X154978320Y-128660273D01*
X154870147Y-128921426D01*
X154815000Y-129198665D01*
X148985499Y-129198665D01*
X149040477Y-129143687D01*
X149226521Y-128865252D01*
X149354670Y-128555872D01*
X149420000Y-128227435D01*
X149420000Y-127892565D01*
X149354670Y-127564128D01*
X149226521Y-127254748D01*
X149040477Y-126976313D01*
X148803687Y-126739523D01*
X148525252Y-126553479D01*
X148215872Y-126425330D01*
X147887435Y-126360000D01*
X147552565Y-126360000D01*
X147224128Y-126425330D01*
X146914748Y-126553479D01*
X146636313Y-126739523D01*
X146399523Y-126976313D01*
X146213479Y-127254748D01*
X146085330Y-127564128D01*
X146020000Y-127892565D01*
X142385000Y-127892565D01*
X142385000Y-123550000D01*
X143561928Y-123550000D01*
X143574188Y-123674482D01*
X143610498Y-123794180D01*
X143669463Y-123904494D01*
X143748815Y-124001185D01*
X143845506Y-124080537D01*
X143955820Y-124139502D01*
X144051943Y-124168661D01*
X143885363Y-124335241D01*
X143728320Y-124570273D01*
X143620147Y-124831426D01*
X143565000Y-125108665D01*
X143565000Y-125391335D01*
X143620147Y-125668574D01*
X143728320Y-125929727D01*
X143885363Y-126164759D01*
X144085241Y-126364637D01*
X144320273Y-126521680D01*
X144581426Y-126629853D01*
X144858665Y-126685000D01*
X145141335Y-126685000D01*
X145418574Y-126629853D01*
X145679727Y-126521680D01*
X145914759Y-126364637D01*
X146114637Y-126164759D01*
X146271680Y-125929727D01*
X146379853Y-125668574D01*
X146435000Y-125391335D01*
X146435000Y-125108665D01*
X146379853Y-124831426D01*
X146271680Y-124570273D01*
X146114637Y-124335241D01*
X145948057Y-124168661D01*
X146044180Y-124139502D01*
X146154494Y-124080537D01*
X146251185Y-124001185D01*
X146330537Y-123904494D01*
X146389502Y-123794180D01*
X146425812Y-123674482D01*
X146438072Y-123550000D01*
X146435000Y-123035750D01*
X146276250Y-122877000D01*
X145127000Y-122877000D01*
X145127000Y-122897000D01*
X144873000Y-122897000D01*
X144873000Y-122877000D01*
X143723750Y-122877000D01*
X143565000Y-123035750D01*
X143561928Y-123550000D01*
X142385000Y-123550000D01*
X142385000Y-121950000D01*
X143561928Y-121950000D01*
X143565000Y-122464250D01*
X143723750Y-122623000D01*
X144873000Y-122623000D01*
X144873000Y-121473750D01*
X145127000Y-121473750D01*
X145127000Y-122623000D01*
X146276250Y-122623000D01*
X146435000Y-122464250D01*
X146438072Y-121950000D01*
X154561928Y-121950000D01*
X154561928Y-123550000D01*
X154574188Y-123674482D01*
X154610498Y-123794180D01*
X154669463Y-123904494D01*
X154748815Y-124001185D01*
X154845506Y-124080537D01*
X154955820Y-124139502D01*
X155051943Y-124168661D01*
X154885363Y-124335241D01*
X154728320Y-124570273D01*
X154620147Y-124831426D01*
X154565000Y-125108665D01*
X154565000Y-125391335D01*
X154620147Y-125668574D01*
X154728320Y-125929727D01*
X154885363Y-126164759D01*
X155085241Y-126364637D01*
X155320273Y-126521680D01*
X155581426Y-126629853D01*
X155858665Y-126685000D01*
X156141335Y-126685000D01*
X156418574Y-126629853D01*
X156679727Y-126521680D01*
X156914759Y-126364637D01*
X157114637Y-126164759D01*
X157271680Y-125929727D01*
X157379853Y-125668574D01*
X157435000Y-125391335D01*
X157435000Y-125108665D01*
X157379853Y-124831426D01*
X157271680Y-124570273D01*
X157114637Y-124335241D01*
X156948057Y-124168661D01*
X157044180Y-124139502D01*
X157154494Y-124080537D01*
X157251185Y-124001185D01*
X157330537Y-123904494D01*
X157389502Y-123794180D01*
X157425812Y-123674482D01*
X157438072Y-123550000D01*
X157438072Y-121950000D01*
X157425812Y-121825518D01*
X157389502Y-121705820D01*
X157330537Y-121595506D01*
X157251185Y-121498815D01*
X157154494Y-121419463D01*
X157044180Y-121360498D01*
X156924482Y-121324188D01*
X156800000Y-121311928D01*
X155200000Y-121311928D01*
X155075518Y-121324188D01*
X154955820Y-121360498D01*
X154845506Y-121419463D01*
X154748815Y-121498815D01*
X154669463Y-121595506D01*
X154610498Y-121705820D01*
X154574188Y-121825518D01*
X154561928Y-121950000D01*
X146438072Y-121950000D01*
X146425812Y-121825518D01*
X146389502Y-121705820D01*
X146330537Y-121595506D01*
X146251185Y-121498815D01*
X146154494Y-121419463D01*
X146044180Y-121360498D01*
X145924482Y-121324188D01*
X145800000Y-121311928D01*
X145285750Y-121315000D01*
X145127000Y-121473750D01*
X144873000Y-121473750D01*
X144714250Y-121315000D01*
X144200000Y-121311928D01*
X144075518Y-121324188D01*
X143955820Y-121360498D01*
X143845506Y-121419463D01*
X143748815Y-121498815D01*
X143669463Y-121595506D01*
X143610498Y-121705820D01*
X143574188Y-121825518D01*
X143561928Y-121950000D01*
X142385000Y-121950000D01*
X142385000Y-108411642D01*
X145079178Y-111105821D01*
X145112985Y-111147015D01*
X145148371Y-111176056D01*
X145151068Y-111181101D01*
X145330392Y-111399608D01*
X145548899Y-111578932D01*
X145681858Y-111650000D01*
X145548899Y-111721068D01*
X145330392Y-111900392D01*
X145151068Y-112118899D01*
X145017818Y-112368192D01*
X144935764Y-112638691D01*
X144908057Y-112920000D01*
X144935764Y-113201309D01*
X145017818Y-113471808D01*
X145151068Y-113721101D01*
X145330392Y-113939608D01*
X145548899Y-114118932D01*
X145681858Y-114190000D01*
X145548899Y-114261068D01*
X145330392Y-114440392D01*
X145151068Y-114658899D01*
X145017818Y-114908192D01*
X144935764Y-115178691D01*
X144908057Y-115460000D01*
X144935764Y-115741309D01*
X145017818Y-116011808D01*
X145151068Y-116261101D01*
X145330392Y-116479608D01*
X145443482Y-116572419D01*
X145425518Y-116574188D01*
X145305820Y-116610498D01*
X145195506Y-116669463D01*
X145098815Y-116748815D01*
X145019463Y-116845506D01*
X144960498Y-116955820D01*
X144924188Y-117075518D01*
X144911928Y-117200000D01*
X144911928Y-118800000D01*
X144924188Y-118924482D01*
X144960498Y-119044180D01*
X145019463Y-119154494D01*
X145098815Y-119251185D01*
X145195506Y-119330537D01*
X145305820Y-119389502D01*
X145425518Y-119425812D01*
X145550000Y-119438072D01*
X147950000Y-119438072D01*
X148074482Y-119425812D01*
X148194180Y-119389502D01*
X148304494Y-119330537D01*
X148401185Y-119251185D01*
X148480537Y-119154494D01*
X148539502Y-119044180D01*
X148575812Y-118924482D01*
X148588072Y-118800000D01*
X148588072Y-117200000D01*
X148575812Y-117075518D01*
X148539502Y-116955820D01*
X148480537Y-116845506D01*
X148401185Y-116748815D01*
X148304494Y-116669463D01*
X148194180Y-116610498D01*
X148074482Y-116574188D01*
X148056518Y-116572419D01*
X148169608Y-116479608D01*
X148348932Y-116261101D01*
X148482182Y-116011808D01*
X148564236Y-115741309D01*
X148591943Y-115460000D01*
X148564236Y-115178691D01*
X148482182Y-114908192D01*
X148348932Y-114658899D01*
X148169608Y-114440392D01*
X147951101Y-114261068D01*
X147818142Y-114190000D01*
X147951101Y-114118932D01*
X148169608Y-113939608D01*
X148348932Y-113721101D01*
X148482182Y-113471808D01*
X148564236Y-113201309D01*
X148591943Y-112920000D01*
X148564236Y-112638691D01*
X148482182Y-112368192D01*
X148348932Y-112118899D01*
X148169608Y-111900392D01*
X147951101Y-111721068D01*
X147818142Y-111650000D01*
X147951101Y-111578932D01*
X148169608Y-111399608D01*
X148348932Y-111181101D01*
X148482182Y-110931808D01*
X148564236Y-110661309D01*
X148591943Y-110380000D01*
X148564236Y-110098691D01*
X148482182Y-109828192D01*
X148348932Y-109578899D01*
X148169608Y-109360392D01*
X147951101Y-109181068D01*
X147701808Y-109047818D01*
X147431309Y-108965764D01*
X147220492Y-108945000D01*
X146279508Y-108945000D01*
X146068691Y-108965764D01*
X146010161Y-108983519D01*
X143555599Y-106528957D01*
X143555599Y-106119155D01*
X143581426Y-106129853D01*
X143858665Y-106185000D01*
X144141335Y-106185000D01*
X144418574Y-106129853D01*
X144679727Y-106021680D01*
X144914759Y-105864637D01*
X144920731Y-105858665D01*
X146565000Y-105858665D01*
X146565000Y-106141335D01*
X146620147Y-106418574D01*
X146728320Y-106679727D01*
X146885363Y-106914759D01*
X147085241Y-107114637D01*
X147320273Y-107271680D01*
X147581426Y-107379853D01*
X147858665Y-107435000D01*
X148141335Y-107435000D01*
X148418574Y-107379853D01*
X148679727Y-107271680D01*
X148914759Y-107114637D01*
X149114637Y-106914759D01*
X149271680Y-106679727D01*
X149379853Y-106418574D01*
X149435000Y-106141335D01*
X149435000Y-106018665D01*
X151065000Y-106018665D01*
X151065000Y-106301335D01*
X151120147Y-106578574D01*
X151228320Y-106839727D01*
X151385363Y-107074759D01*
X151585241Y-107274637D01*
X151820273Y-107431680D01*
X152081426Y-107539853D01*
X152358665Y-107595000D01*
X152641335Y-107595000D01*
X152918574Y-107539853D01*
X153179727Y-107431680D01*
X153414759Y-107274637D01*
X153614637Y-107074759D01*
X153771680Y-106839727D01*
X153879853Y-106578574D01*
X153935000Y-106301335D01*
X153935000Y-106018665D01*
X153879853Y-105741426D01*
X153771680Y-105480273D01*
X153614637Y-105245241D01*
X153414759Y-105045363D01*
X153179727Y-104888320D01*
X152918574Y-104780147D01*
X152641335Y-104725000D01*
X152358665Y-104725000D01*
X152081426Y-104780147D01*
X151820273Y-104888320D01*
X151585241Y-105045363D01*
X151385363Y-105245241D01*
X151228320Y-105480273D01*
X151120147Y-105741426D01*
X151065000Y-106018665D01*
X149435000Y-106018665D01*
X149435000Y-105858665D01*
X149379853Y-105581426D01*
X149271680Y-105320273D01*
X149114637Y-105085241D01*
X148914759Y-104885363D01*
X148679727Y-104728320D01*
X148418574Y-104620147D01*
X148141335Y-104565000D01*
X147858665Y-104565000D01*
X147581426Y-104620147D01*
X147320273Y-104728320D01*
X147085241Y-104885363D01*
X146885363Y-105085241D01*
X146728320Y-105320273D01*
X146620147Y-105581426D01*
X146565000Y-105858665D01*
X144920731Y-105858665D01*
X145114637Y-105664759D01*
X145271680Y-105429727D01*
X145379853Y-105168574D01*
X145435000Y-104891335D01*
X145435000Y-104608665D01*
X145379853Y-104331426D01*
X145271680Y-104070273D01*
X145114637Y-103835241D01*
X144914759Y-103635363D01*
X144679727Y-103478320D01*
X144418574Y-103370147D01*
X144141335Y-103315000D01*
X143858665Y-103315000D01*
X143581426Y-103370147D01*
X143555599Y-103380845D01*
X143555599Y-95952980D01*
X143650961Y-95981904D01*
X143873000Y-95859915D01*
X143873000Y-94717000D01*
X144127000Y-94717000D01*
X144127000Y-95859915D01*
X144349039Y-95981904D01*
X144483087Y-95941246D01*
X144737420Y-95821037D01*
X144902508Y-95698665D01*
X146565000Y-95698665D01*
X146565000Y-95981335D01*
X146620147Y-96258574D01*
X146728320Y-96519727D01*
X146885363Y-96754759D01*
X147085241Y-96954637D01*
X147320273Y-97111680D01*
X147581426Y-97219853D01*
X147858665Y-97275000D01*
X148141335Y-97275000D01*
X148418574Y-97219853D01*
X148679727Y-97111680D01*
X148914759Y-96954637D01*
X149114637Y-96754759D01*
X149271680Y-96519727D01*
X149379853Y-96258574D01*
X149435000Y-95981335D01*
X149435000Y-95858665D01*
X151065000Y-95858665D01*
X151065000Y-96141335D01*
X151120147Y-96418574D01*
X151228320Y-96679727D01*
X151385363Y-96914759D01*
X151585241Y-97114637D01*
X151820273Y-97271680D01*
X152081426Y-97379853D01*
X152358665Y-97435000D01*
X152641335Y-97435000D01*
X152918574Y-97379853D01*
X153179727Y-97271680D01*
X153414759Y-97114637D01*
X153614637Y-96914759D01*
X153771680Y-96679727D01*
X153879853Y-96418574D01*
X153935000Y-96141335D01*
X153935000Y-95858665D01*
X153879853Y-95581426D01*
X153771680Y-95320273D01*
X153614637Y-95085241D01*
X153414759Y-94885363D01*
X153360398Y-94849040D01*
X155358091Y-94849040D01*
X155452930Y-95113881D01*
X155597615Y-95355131D01*
X155786586Y-95563519D01*
X156012580Y-95731037D01*
X156266913Y-95851246D01*
X156400961Y-95891904D01*
X156623000Y-95769915D01*
X156623000Y-94627000D01*
X155479376Y-94627000D01*
X155358091Y-94849040D01*
X153360398Y-94849040D01*
X153179727Y-94728320D01*
X152918574Y-94620147D01*
X152641335Y-94565000D01*
X152358665Y-94565000D01*
X152081426Y-94620147D01*
X151820273Y-94728320D01*
X151585241Y-94885363D01*
X151385363Y-95085241D01*
X151228320Y-95320273D01*
X151120147Y-95581426D01*
X151065000Y-95858665D01*
X149435000Y-95858665D01*
X149435000Y-95698665D01*
X149379853Y-95421426D01*
X149271680Y-95160273D01*
X149114637Y-94925241D01*
X148914759Y-94725363D01*
X148679727Y-94568320D01*
X148418574Y-94460147D01*
X148141335Y-94405000D01*
X147858665Y-94405000D01*
X147581426Y-94460147D01*
X147320273Y-94568320D01*
X147085241Y-94725363D01*
X146885363Y-94925241D01*
X146728320Y-95160273D01*
X146620147Y-95421426D01*
X146565000Y-95698665D01*
X144902508Y-95698665D01*
X144963414Y-95653519D01*
X145152385Y-95445131D01*
X145297070Y-95203881D01*
X145391909Y-94939040D01*
X145270624Y-94717000D01*
X144127000Y-94717000D01*
X143873000Y-94717000D01*
X143853000Y-94717000D01*
X143853000Y-94463000D01*
X143873000Y-94463000D01*
X143873000Y-93320085D01*
X144127000Y-93320085D01*
X144127000Y-94463000D01*
X145270624Y-94463000D01*
X145391909Y-94240960D01*
X145359681Y-94150960D01*
X155358091Y-94150960D01*
X155479376Y-94373000D01*
X156623000Y-94373000D01*
X156623000Y-93230085D01*
X156400961Y-93108096D01*
X156266913Y-93148754D01*
X156012580Y-93268963D01*
X155786586Y-93436481D01*
X155597615Y-93644869D01*
X155452930Y-93886119D01*
X155358091Y-94150960D01*
X145359681Y-94150960D01*
X145297070Y-93976119D01*
X145152385Y-93734869D01*
X144963414Y-93526481D01*
X144737420Y-93358963D01*
X144483087Y-93238754D01*
X144349039Y-93198096D01*
X144127000Y-93320085D01*
X143873000Y-93320085D01*
X143650961Y-93198096D01*
X143579500Y-93219771D01*
X143579500Y-91483589D01*
X144365000Y-91483589D01*
X144365000Y-91756411D01*
X144418225Y-92023989D01*
X144522629Y-92276043D01*
X144674201Y-92502886D01*
X144867114Y-92695799D01*
X145093957Y-92847371D01*
X145346011Y-92951775D01*
X145613589Y-93005000D01*
X145886411Y-93005000D01*
X146153989Y-92951775D01*
X146406043Y-92847371D01*
X146632886Y-92695799D01*
X146819685Y-92509000D01*
X153918420Y-92509000D01*
X153969463Y-92604494D01*
X154048815Y-92701185D01*
X154145506Y-92780537D01*
X154255820Y-92839502D01*
X154375518Y-92875812D01*
X154500000Y-92888072D01*
X156000000Y-92888072D01*
X156124482Y-92875812D01*
X156244180Y-92839502D01*
X156354494Y-92780537D01*
X156451185Y-92701185D01*
X156530537Y-92604494D01*
X156589502Y-92494180D01*
X156625812Y-92374482D01*
X156638072Y-92250000D01*
X156638072Y-90750000D01*
X156625812Y-90625518D01*
X156589502Y-90505820D01*
X156530537Y-90395506D01*
X156451185Y-90298815D01*
X156354494Y-90219463D01*
X156244180Y-90160498D01*
X156124482Y-90124188D01*
X156000000Y-90111928D01*
X154500000Y-90111928D01*
X154375518Y-90124188D01*
X154255820Y-90160498D01*
X154145506Y-90219463D01*
X154048815Y-90298815D01*
X153969463Y-90395506D01*
X153910498Y-90505820D01*
X153874188Y-90625518D01*
X153863799Y-90731000D01*
X146819685Y-90731000D01*
X146632886Y-90544201D01*
X146406043Y-90392629D01*
X146153989Y-90288225D01*
X145886411Y-90235000D01*
X145613589Y-90235000D01*
X145346011Y-90288225D01*
X145093957Y-90392629D01*
X144867114Y-90544201D01*
X144674201Y-90737114D01*
X144522629Y-90963957D01*
X144418225Y-91216011D01*
X144365000Y-91483589D01*
X143579500Y-91483589D01*
X143579500Y-85859796D01*
X148390000Y-85859796D01*
X148390000Y-86290204D01*
X148473969Y-86712341D01*
X148638678Y-87109985D01*
X148877800Y-87467856D01*
X149182144Y-87772200D01*
X149540015Y-88011322D01*
X149937659Y-88176031D01*
X150359796Y-88260000D01*
X150790204Y-88260000D01*
X151212341Y-88176031D01*
X151609985Y-88011322D01*
X151967856Y-87772200D01*
X152272200Y-87467856D01*
X152511322Y-87109985D01*
X152676031Y-86712341D01*
X152760000Y-86290204D01*
X152760000Y-85859796D01*
X152676031Y-85437659D01*
X152511322Y-85040015D01*
X152272200Y-84682144D01*
X151967856Y-84377800D01*
X151609985Y-84138678D01*
X151212341Y-83973969D01*
X150790204Y-83890000D01*
X150359796Y-83890000D01*
X149937659Y-83973969D01*
X149540015Y-84138678D01*
X149182144Y-84377800D01*
X148877800Y-84682144D01*
X148638678Y-85040015D01*
X148473969Y-85437659D01*
X148390000Y-85859796D01*
X143579500Y-85859796D01*
X143579500Y-83250000D01*
X144361928Y-83250000D01*
X144361928Y-84750000D01*
X144374188Y-84874482D01*
X144410498Y-84994180D01*
X144469463Y-85104494D01*
X144548815Y-85201185D01*
X144645506Y-85280537D01*
X144755820Y-85339502D01*
X144875518Y-85375812D01*
X145000000Y-85388072D01*
X146500000Y-85388072D01*
X146624482Y-85375812D01*
X146744180Y-85339502D01*
X146854494Y-85280537D01*
X146951185Y-85201185D01*
X147030537Y-85104494D01*
X147089502Y-84994180D01*
X147125812Y-84874482D01*
X147138072Y-84750000D01*
X147138072Y-83743589D01*
X153865000Y-83743589D01*
X153865000Y-84016411D01*
X153918225Y-84283989D01*
X154022629Y-84536043D01*
X154174201Y-84762886D01*
X154367114Y-84955799D01*
X154593957Y-85107371D01*
X154846011Y-85211775D01*
X155113589Y-85265000D01*
X155386411Y-85265000D01*
X155653989Y-85211775D01*
X155906043Y-85107371D01*
X156132886Y-84955799D01*
X156325799Y-84762886D01*
X156477371Y-84536043D01*
X156581775Y-84283989D01*
X156635000Y-84016411D01*
X156635000Y-83743589D01*
X156581775Y-83476011D01*
X156477371Y-83223957D01*
X156325799Y-82997114D01*
X156132886Y-82804201D01*
X155906043Y-82652629D01*
X155653989Y-82548225D01*
X155386411Y-82495000D01*
X155113589Y-82495000D01*
X154846011Y-82548225D01*
X154593957Y-82652629D01*
X154367114Y-82804201D01*
X154174201Y-82997114D01*
X154022629Y-83223957D01*
X153918225Y-83476011D01*
X153865000Y-83743589D01*
X147138072Y-83743589D01*
X147138072Y-83250000D01*
X147125812Y-83125518D01*
X147089502Y-83005820D01*
X147030537Y-82895506D01*
X146951185Y-82798815D01*
X146854494Y-82719463D01*
X146744180Y-82660498D01*
X146624482Y-82624188D01*
X146500000Y-82611928D01*
X145000000Y-82611928D01*
X144875518Y-82624188D01*
X144755820Y-82660498D01*
X144645506Y-82719463D01*
X144548815Y-82798815D01*
X144469463Y-82895506D01*
X144410498Y-83005820D01*
X144374188Y-83125518D01*
X144361928Y-83250000D01*
X143579500Y-83250000D01*
X143579500Y-81159796D01*
X148390000Y-81159796D01*
X148390000Y-81590204D01*
X148473969Y-82012341D01*
X148638678Y-82409985D01*
X148877800Y-82767856D01*
X149182144Y-83072200D01*
X149540015Y-83311322D01*
X149937659Y-83476031D01*
X150359796Y-83560000D01*
X150790204Y-83560000D01*
X151212341Y-83476031D01*
X151609985Y-83311322D01*
X151967856Y-83072200D01*
X152272200Y-82767856D01*
X152511322Y-82409985D01*
X152676031Y-82012341D01*
X152760000Y-81590204D01*
X152760000Y-81159796D01*
X152676031Y-80737659D01*
X152511322Y-80340015D01*
X152272200Y-79982144D01*
X151967856Y-79677800D01*
X151609985Y-79438678D01*
X151212341Y-79273969D01*
X150790204Y-79190000D01*
X150359796Y-79190000D01*
X149937659Y-79273969D01*
X149540015Y-79438678D01*
X149182144Y-79677800D01*
X148877800Y-79982144D01*
X148638678Y-80340015D01*
X148473969Y-80737659D01*
X148390000Y-81159796D01*
X143579500Y-81159796D01*
X143579500Y-76459796D01*
X148390000Y-76459796D01*
X148390000Y-76890204D01*
X148473969Y-77312341D01*
X148638678Y-77709985D01*
X148877800Y-78067856D01*
X149182144Y-78372200D01*
X149540015Y-78611322D01*
X149937659Y-78776031D01*
X150182918Y-78824817D01*
X150325726Y-78868136D01*
X150500000Y-78885301D01*
X150674273Y-78868136D01*
X150701094Y-78860000D01*
X150790204Y-78860000D01*
X151212341Y-78776031D01*
X151609985Y-78611322D01*
X151967856Y-78372200D01*
X152272200Y-78067856D01*
X152511322Y-77709985D01*
X152676031Y-77312341D01*
X152760000Y-76890204D01*
X152760000Y-76459796D01*
X152676031Y-76037659D01*
X152511322Y-75640015D01*
X152272200Y-75282144D01*
X151967856Y-74977800D01*
X151609985Y-74738678D01*
X151212341Y-74573969D01*
X150790204Y-74490000D01*
X150359796Y-74490000D01*
X149937659Y-74573969D01*
X149540015Y-74738678D01*
X149182144Y-74977800D01*
X148877800Y-75282144D01*
X148638678Y-75640015D01*
X148473969Y-76037659D01*
X148390000Y-76459796D01*
X143579500Y-76459796D01*
X143579500Y-74697142D01*
X144091643Y-74185000D01*
X144141335Y-74185000D01*
X144418574Y-74129853D01*
X144679727Y-74021680D01*
X144914759Y-73864637D01*
X145036694Y-73742702D01*
X148186903Y-73742702D01*
X148258486Y-73986671D01*
X148513996Y-74107571D01*
X148788184Y-74176300D01*
X149070512Y-74190217D01*
X149350130Y-74148787D01*
X149616292Y-74053603D01*
X149741514Y-73986671D01*
X149813097Y-73742702D01*
X150936903Y-73742702D01*
X151008486Y-73986671D01*
X151263996Y-74107571D01*
X151538184Y-74176300D01*
X151820512Y-74190217D01*
X152100130Y-74148787D01*
X152366292Y-74053603D01*
X152491514Y-73986671D01*
X152563097Y-73742702D01*
X151750000Y-72929605D01*
X150936903Y-73742702D01*
X149813097Y-73742702D01*
X149000000Y-72929605D01*
X148186903Y-73742702D01*
X145036694Y-73742702D01*
X145114637Y-73664759D01*
X145271680Y-73429727D01*
X145379853Y-73168574D01*
X145435000Y-72891335D01*
X145435000Y-72820512D01*
X147559783Y-72820512D01*
X147601213Y-73100130D01*
X147696397Y-73366292D01*
X147763329Y-73491514D01*
X148007298Y-73563097D01*
X148820395Y-72750000D01*
X149179605Y-72750000D01*
X149992702Y-73563097D01*
X150236671Y-73491514D01*
X150357571Y-73236004D01*
X150374975Y-73166574D01*
X150446397Y-73366292D01*
X150513329Y-73491514D01*
X150757298Y-73563097D01*
X151570395Y-72750000D01*
X151929605Y-72750000D01*
X152742702Y-73563097D01*
X152986671Y-73491514D01*
X153107571Y-73236004D01*
X153176300Y-72961816D01*
X153190217Y-72679488D01*
X153148787Y-72399870D01*
X153053603Y-72133708D01*
X152986671Y-72008486D01*
X152742702Y-71936903D01*
X151929605Y-72750000D01*
X151570395Y-72750000D01*
X150757298Y-71936903D01*
X150513329Y-72008486D01*
X150392429Y-72263996D01*
X150375025Y-72333426D01*
X150303603Y-72133708D01*
X150236671Y-72008486D01*
X149992702Y-71936903D01*
X149179605Y-72750000D01*
X148820395Y-72750000D01*
X148007298Y-71936903D01*
X147763329Y-72008486D01*
X147642429Y-72263996D01*
X147573700Y-72538184D01*
X147559783Y-72820512D01*
X145435000Y-72820512D01*
X145435000Y-72608665D01*
X145379853Y-72331426D01*
X145271680Y-72070273D01*
X145114637Y-71835241D01*
X145036694Y-71757298D01*
X148186903Y-71757298D01*
X149000000Y-72570395D01*
X149813097Y-71757298D01*
X150936903Y-71757298D01*
X151750000Y-72570395D01*
X152563097Y-71757298D01*
X152491514Y-71513329D01*
X152236004Y-71392429D01*
X151961816Y-71323700D01*
X151679488Y-71309783D01*
X151399870Y-71351213D01*
X151133708Y-71446397D01*
X151008486Y-71513329D01*
X150936903Y-71757298D01*
X149813097Y-71757298D01*
X149741514Y-71513329D01*
X149486004Y-71392429D01*
X149211816Y-71323700D01*
X148929488Y-71309783D01*
X148649870Y-71351213D01*
X148383708Y-71446397D01*
X148258486Y-71513329D01*
X148186903Y-71757298D01*
X145036694Y-71757298D01*
X144914759Y-71635363D01*
X144679727Y-71478320D01*
X144418574Y-71370147D01*
X144141335Y-71315000D01*
X144091643Y-71315000D01*
X143329500Y-70552858D01*
X143329500Y-68696000D01*
X146543928Y-68696000D01*
X146543928Y-70496000D01*
X146556188Y-70620482D01*
X146592498Y-70740180D01*
X146651463Y-70850494D01*
X146730815Y-70947185D01*
X146827506Y-71026537D01*
X146937820Y-71085502D01*
X147057518Y-71121812D01*
X147182000Y-71134072D01*
X148982000Y-71134072D01*
X149106482Y-71121812D01*
X149226180Y-71085502D01*
X149336494Y-71026537D01*
X149433185Y-70947185D01*
X149512537Y-70850494D01*
X149565880Y-70750697D01*
X149603495Y-70788312D01*
X149854905Y-70956299D01*
X150134257Y-71072011D01*
X150430816Y-71131000D01*
X150733184Y-71131000D01*
X151029743Y-71072011D01*
X151309095Y-70956299D01*
X151560505Y-70788312D01*
X151774312Y-70574505D01*
X151832000Y-70488169D01*
X151889688Y-70574505D01*
X152103495Y-70788312D01*
X152354905Y-70956299D01*
X152634257Y-71072011D01*
X152930816Y-71131000D01*
X153233184Y-71131000D01*
X153529743Y-71072011D01*
X153809095Y-70956299D01*
X154060505Y-70788312D01*
X154274312Y-70574505D01*
X154442299Y-70323095D01*
X154558011Y-70043743D01*
X154617000Y-69747184D01*
X154617000Y-69444816D01*
X154558011Y-69148257D01*
X154442299Y-68868905D01*
X154274312Y-68617495D01*
X154060505Y-68403688D01*
X153809095Y-68235701D01*
X153529743Y-68119989D01*
X153233184Y-68061000D01*
X152930816Y-68061000D01*
X152634257Y-68119989D01*
X152354905Y-68235701D01*
X152103495Y-68403688D01*
X151889688Y-68617495D01*
X151832000Y-68703831D01*
X151774312Y-68617495D01*
X151560505Y-68403688D01*
X151309095Y-68235701D01*
X151029743Y-68119989D01*
X150733184Y-68061000D01*
X150430816Y-68061000D01*
X150134257Y-68119989D01*
X149854905Y-68235701D01*
X149603495Y-68403688D01*
X149565880Y-68441303D01*
X149512537Y-68341506D01*
X149433185Y-68244815D01*
X149336494Y-68165463D01*
X149226180Y-68106498D01*
X149106482Y-68070188D01*
X148982000Y-68057928D01*
X147182000Y-68057928D01*
X147057518Y-68070188D01*
X146937820Y-68106498D01*
X146827506Y-68165463D01*
X146730815Y-68244815D01*
X146651463Y-68341506D01*
X146592498Y-68451820D01*
X146556188Y-68571518D01*
X146543928Y-68696000D01*
X143329500Y-68696000D01*
X143329500Y-61738002D01*
X143787000Y-61738002D01*
X143787000Y-62453997D01*
X143815867Y-62747087D01*
X143929943Y-63123146D01*
X144115193Y-63469725D01*
X144364497Y-63773503D01*
X144668275Y-64022807D01*
X145014853Y-64208057D01*
X145390912Y-64322133D01*
X145782000Y-64360652D01*
X146173087Y-64322133D01*
X146549146Y-64208057D01*
X146895725Y-64022807D01*
X147199503Y-63773503D01*
X147448807Y-63469725D01*
X147634057Y-63123147D01*
X147748133Y-62747088D01*
X147777000Y-62453998D01*
X147777000Y-61738003D01*
X147777000Y-61738002D01*
X153387000Y-61738002D01*
X153387000Y-62453997D01*
X153415867Y-62747087D01*
X153529943Y-63123146D01*
X153715193Y-63469725D01*
X153964497Y-63773503D01*
X154268275Y-64022807D01*
X154614853Y-64208057D01*
X154990912Y-64322133D01*
X155382000Y-64360652D01*
X155773087Y-64322133D01*
X156149146Y-64208057D01*
X156495725Y-64022807D01*
X156799503Y-63773503D01*
X157048807Y-63469725D01*
X157234057Y-63123147D01*
X157348133Y-62747088D01*
X157377000Y-62453998D01*
X157377000Y-61738003D01*
X157348133Y-61444913D01*
X157234057Y-61068853D01*
X157048807Y-60722275D01*
X156799503Y-60418497D01*
X156495725Y-60169193D01*
X156149147Y-59983943D01*
X155773088Y-59869867D01*
X155382000Y-59831348D01*
X154990913Y-59869867D01*
X154614854Y-59983943D01*
X154268276Y-60169193D01*
X153964498Y-60418497D01*
X153715193Y-60722275D01*
X153529943Y-61068853D01*
X153415867Y-61444912D01*
X153387000Y-61738002D01*
X147777000Y-61738002D01*
X147748133Y-61444913D01*
X147634057Y-61068853D01*
X147448807Y-60722275D01*
X147199503Y-60418497D01*
X146895725Y-60169193D01*
X146549147Y-59983943D01*
X146173088Y-59869867D01*
X145782000Y-59831348D01*
X145390913Y-59869867D01*
X145014854Y-59983943D01*
X144668276Y-60169193D01*
X144364498Y-60418497D01*
X144115193Y-60722275D01*
X143929943Y-61068853D01*
X143815867Y-61444912D01*
X143787000Y-61738002D01*
X143329500Y-61738002D01*
X143329500Y-59817142D01*
X143642942Y-59503701D01*
X143903989Y-59451775D01*
X144156043Y-59347371D01*
X144377347Y-59199500D01*
X144576971Y-59199500D01*
X144630000Y-59204723D01*
X144683029Y-59199500D01*
X144841619Y-59183880D01*
X145045106Y-59122153D01*
X145232640Y-59021914D01*
X145397015Y-58887015D01*
X145430827Y-58845815D01*
X147591643Y-56685000D01*
X147641335Y-56685000D01*
X147918574Y-56629853D01*
X148179727Y-56521680D01*
X148414759Y-56364637D01*
X148614637Y-56164759D01*
X148771680Y-55929727D01*
X148879853Y-55668574D01*
X148935000Y-55391335D01*
X148935000Y-55108665D01*
X148879853Y-54831426D01*
X148771680Y-54570273D01*
X148614637Y-54335241D01*
X148448057Y-54168661D01*
X148544180Y-54139502D01*
X148654494Y-54080537D01*
X148751185Y-54001185D01*
X148830537Y-53904494D01*
X148889502Y-53794180D01*
X148925812Y-53674482D01*
X148938072Y-53550000D01*
X148935000Y-53035750D01*
X148776250Y-52877000D01*
X147627000Y-52877000D01*
X147627000Y-52897000D01*
X147373000Y-52897000D01*
X147373000Y-52877000D01*
X146223750Y-52877000D01*
X146065000Y-53035750D01*
X146061928Y-53550000D01*
X146074188Y-53674482D01*
X146110498Y-53794180D01*
X146169463Y-53904494D01*
X146248815Y-54001185D01*
X146345506Y-54080537D01*
X146455820Y-54139502D01*
X146551943Y-54168661D01*
X146385363Y-54335241D01*
X146228320Y-54570273D01*
X146120147Y-54831426D01*
X146065000Y-55108665D01*
X146065000Y-55158357D01*
X144260759Y-56962598D01*
X144156043Y-56892629D01*
X143903989Y-56788225D01*
X143636411Y-56735000D01*
X143363589Y-56735000D01*
X143096011Y-56788225D01*
X142843957Y-56892629D01*
X142617114Y-57044201D01*
X142424201Y-57237114D01*
X142385000Y-57295782D01*
X142385000Y-52820512D01*
X152059783Y-52820512D01*
X152101213Y-53100130D01*
X152196397Y-53366292D01*
X152263329Y-53491514D01*
X152507298Y-53563097D01*
X153320395Y-52750000D01*
X153679605Y-52750000D01*
X154492702Y-53563097D01*
X154736671Y-53491514D01*
X154857571Y-53236004D01*
X154926300Y-52961816D01*
X154940217Y-52679488D01*
X154898787Y-52399870D01*
X154803603Y-52133708D01*
X154736671Y-52008486D01*
X154492702Y-51936903D01*
X153679605Y-52750000D01*
X153320395Y-52750000D01*
X152507298Y-51936903D01*
X152263329Y-52008486D01*
X152142429Y-52263996D01*
X152073700Y-52538184D01*
X152059783Y-52820512D01*
X142385000Y-52820512D01*
X142385000Y-51950000D01*
X146061928Y-51950000D01*
X146065000Y-52464250D01*
X146223750Y-52623000D01*
X147373000Y-52623000D01*
X147373000Y-51473750D01*
X147627000Y-51473750D01*
X147627000Y-52623000D01*
X148776250Y-52623000D01*
X148935000Y-52464250D01*
X148938072Y-51950000D01*
X148925812Y-51825518D01*
X148905118Y-51757298D01*
X152686903Y-51757298D01*
X153500000Y-52570395D01*
X154313097Y-51757298D01*
X154241514Y-51513329D01*
X153986004Y-51392429D01*
X153711816Y-51323700D01*
X153429488Y-51309783D01*
X153149870Y-51351213D01*
X152883708Y-51446397D01*
X152758486Y-51513329D01*
X152686903Y-51757298D01*
X148905118Y-51757298D01*
X148889502Y-51705820D01*
X148830537Y-51595506D01*
X148751185Y-51498815D01*
X148654494Y-51419463D01*
X148544180Y-51360498D01*
X148424482Y-51324188D01*
X148300000Y-51311928D01*
X147785750Y-51315000D01*
X147627000Y-51473750D01*
X147373000Y-51473750D01*
X147214250Y-51315000D01*
X146700000Y-51311928D01*
X146575518Y-51324188D01*
X146455820Y-51360498D01*
X146345506Y-51419463D01*
X146248815Y-51498815D01*
X146169463Y-51595506D01*
X146110498Y-51705820D01*
X146074188Y-51825518D01*
X146061928Y-51950000D01*
X142385000Y-51950000D01*
X142385000Y-51771915D01*
X142395506Y-51780537D01*
X142505820Y-51839502D01*
X142625518Y-51875812D01*
X142750000Y-51888072D01*
X144250000Y-51888072D01*
X144374482Y-51875812D01*
X144494180Y-51839502D01*
X144604494Y-51780537D01*
X144701185Y-51701185D01*
X144780537Y-51604494D01*
X144839502Y-51494180D01*
X144875812Y-51374482D01*
X144888072Y-51250000D01*
X144888072Y-49750000D01*
X144875812Y-49625518D01*
X144839502Y-49505820D01*
X144780537Y-49395506D01*
X144701185Y-49298815D01*
X144604494Y-49219463D01*
X144599727Y-49216915D01*
X145291643Y-48525000D01*
X145396260Y-48525000D01*
X145683158Y-48467932D01*
X145953411Y-48355990D01*
X146196632Y-48193475D01*
X146403475Y-47986632D01*
X146525195Y-47804466D01*
X146594822Y-47921355D01*
X146789731Y-48137588D01*
X147023080Y-48311641D01*
X147285901Y-48436825D01*
X147433110Y-48481476D01*
X147663000Y-48360155D01*
X147663000Y-47167000D01*
X147917000Y-47167000D01*
X147917000Y-48360155D01*
X148146890Y-48481476D01*
X148294099Y-48436825D01*
X148556920Y-48311641D01*
X148790269Y-48137588D01*
X148985178Y-47921355D01*
X149060000Y-47795745D01*
X149134822Y-47921355D01*
X149329731Y-48137588D01*
X149563080Y-48311641D01*
X149825901Y-48436825D01*
X149973110Y-48481476D01*
X150203000Y-48360155D01*
X150203000Y-47167000D01*
X150457000Y-47167000D01*
X150457000Y-48360155D01*
X150686890Y-48481476D01*
X150834099Y-48436825D01*
X151096920Y-48311641D01*
X151330269Y-48137588D01*
X151525178Y-47921355D01*
X151600000Y-47795745D01*
X151674822Y-47921355D01*
X151869731Y-48137588D01*
X152103080Y-48311641D01*
X152365901Y-48436825D01*
X152513110Y-48481476D01*
X152743000Y-48360155D01*
X152743000Y-47167000D01*
X150457000Y-47167000D01*
X150203000Y-47167000D01*
X147917000Y-47167000D01*
X147663000Y-47167000D01*
X147643000Y-47167000D01*
X147643000Y-46913000D01*
X147663000Y-46913000D01*
X147663000Y-44627000D01*
X147917000Y-44627000D01*
X147917000Y-46913000D01*
X150203000Y-46913000D01*
X150203000Y-44627000D01*
X150457000Y-44627000D01*
X150457000Y-46913000D01*
X152743000Y-46913000D01*
X152743000Y-44627000D01*
X150457000Y-44627000D01*
X150203000Y-44627000D01*
X147917000Y-44627000D01*
X147663000Y-44627000D01*
X147643000Y-44627000D01*
X147643000Y-44373000D01*
X147663000Y-44373000D01*
X147663000Y-44353000D01*
X147917000Y-44353000D01*
X147917000Y-44373000D01*
G04 #@! TA.AperFunction,Conductor*
D28*
G36*
X147917000Y-44373000D02*
G01*
X150203000Y-44373000D01*
X150203000Y-44353000D01*
X150457000Y-44353000D01*
X150457000Y-44373000D01*
X152743000Y-44373000D01*
X152743000Y-44353000D01*
X152997000Y-44353000D01*
X152997000Y-44373000D01*
X153017000Y-44373000D01*
X153017000Y-44627000D01*
X152997000Y-44627000D01*
X152997000Y-46913000D01*
X153017000Y-46913000D01*
X153017000Y-47167000D01*
X152997000Y-47167000D01*
X152997000Y-48360155D01*
X153226890Y-48481476D01*
X153374099Y-48436825D01*
X153636920Y-48311641D01*
X153870269Y-48137588D01*
X154065178Y-47921355D01*
X154134805Y-47804466D01*
X154256525Y-47986632D01*
X154330500Y-48060607D01*
X154330500Y-48356971D01*
X154325277Y-48410000D01*
X154330500Y-48463029D01*
X154341862Y-48578382D01*
X154346120Y-48621618D01*
X154397199Y-48790000D01*
X154407848Y-48825106D01*
X154508087Y-49012640D01*
X154642986Y-49177015D01*
X154684180Y-49210822D01*
X156116299Y-50642942D01*
X156168225Y-50903989D01*
X156272629Y-51156043D01*
X156424201Y-51382886D01*
X156617114Y-51575799D01*
X156843957Y-51727371D01*
X157096011Y-51831775D01*
X157363589Y-51885000D01*
X157636411Y-51885000D01*
X157903989Y-51831775D01*
X158156043Y-51727371D01*
X158382886Y-51575799D01*
X158575799Y-51382886D01*
X158615000Y-51324218D01*
X158615000Y-56848085D01*
X158604494Y-56839463D01*
X158494180Y-56780498D01*
X158374482Y-56744188D01*
X158250000Y-56731928D01*
X156750000Y-56731928D01*
X156625518Y-56744188D01*
X156545196Y-56768553D01*
X154938072Y-55161430D01*
X154938072Y-54450000D01*
X154925812Y-54325518D01*
X154889502Y-54205820D01*
X154830537Y-54095506D01*
X154751185Y-53998815D01*
X154654494Y-53919463D01*
X154544180Y-53860498D01*
X154424482Y-53824188D01*
X154300000Y-53811928D01*
X154292785Y-53811928D01*
X154313097Y-53742702D01*
X153500000Y-52929605D01*
X152686903Y-53742702D01*
X152707215Y-53811928D01*
X152700000Y-53811928D01*
X152575518Y-53824188D01*
X152455820Y-53860498D01*
X152345506Y-53919463D01*
X152248815Y-53998815D01*
X152169463Y-54095506D01*
X152110498Y-54205820D01*
X152074188Y-54325518D01*
X152061928Y-54450000D01*
X152061928Y-56050000D01*
X152074188Y-56174482D01*
X152110498Y-56294180D01*
X152169463Y-56404494D01*
X152248815Y-56501185D01*
X152345506Y-56580537D01*
X152455820Y-56639502D01*
X152575518Y-56675812D01*
X152700000Y-56688072D01*
X153411430Y-56688072D01*
X155569178Y-58845821D01*
X155602985Y-58887015D01*
X155767360Y-59021914D01*
X155954894Y-59122153D01*
X156158381Y-59183880D01*
X156199942Y-59187973D01*
X156219463Y-59224494D01*
X156298815Y-59321185D01*
X156395506Y-59400537D01*
X156505820Y-59459502D01*
X156625518Y-59495812D01*
X156750000Y-59508072D01*
X157481429Y-59508072D01*
X157671590Y-59698233D01*
X157671591Y-70301765D01*
X156658357Y-71315000D01*
X156608665Y-71315000D01*
X156331426Y-71370147D01*
X156070273Y-71478320D01*
X155835241Y-71635363D01*
X155635363Y-71835241D01*
X155478320Y-72070273D01*
X155370147Y-72331426D01*
X155315000Y-72608665D01*
X155315000Y-72891335D01*
X155370147Y-73168574D01*
X155478320Y-73429727D01*
X155635363Y-73664759D01*
X155835241Y-73864637D01*
X156070273Y-74021680D01*
X156331426Y-74129853D01*
X156608665Y-74185000D01*
X156658357Y-74185000D01*
X157671590Y-75198234D01*
X157671590Y-93405479D01*
X157487420Y-93268963D01*
X157233087Y-93148754D01*
X157099039Y-93108096D01*
X156877000Y-93230085D01*
X156877000Y-94373000D01*
X156897000Y-94373000D01*
X156897000Y-94627000D01*
X156877000Y-94627000D01*
X156877000Y-95769915D01*
X157099039Y-95891904D01*
X157233087Y-95851246D01*
X157487420Y-95731037D01*
X157671591Y-95594521D01*
X157671591Y-103552195D01*
X157664759Y-103545363D01*
X157429727Y-103388320D01*
X157168574Y-103280147D01*
X156891335Y-103225000D01*
X156608665Y-103225000D01*
X156331426Y-103280147D01*
X156070273Y-103388320D01*
X155835241Y-103545363D01*
X155635363Y-103745241D01*
X155478320Y-103980273D01*
X155370147Y-104241426D01*
X155315000Y-104518665D01*
X155315000Y-104801335D01*
X155370147Y-105078574D01*
X155478320Y-105339727D01*
X155635363Y-105574759D01*
X155835241Y-105774637D01*
X156070273Y-105931680D01*
X156331426Y-106039853D01*
X156608665Y-106095000D01*
X156891335Y-106095000D01*
X157168574Y-106039853D01*
X157429727Y-105931680D01*
X157664759Y-105774637D01*
X157671591Y-105767805D01*
X157671591Y-115260765D01*
X156011858Y-116920500D01*
X155716629Y-116920500D01*
X155571101Y-116801068D01*
X155438142Y-116730000D01*
X155571101Y-116658932D01*
X155789608Y-116479608D01*
X155968932Y-116261101D01*
X156102182Y-116011808D01*
X156184236Y-115741309D01*
X156211943Y-115460000D01*
X156184236Y-115178691D01*
X156102182Y-114908192D01*
X155968932Y-114658899D01*
X155789608Y-114440392D01*
X155571101Y-114261068D01*
X155438142Y-114190000D01*
X155571101Y-114118932D01*
X155789608Y-113939608D01*
X155968932Y-113721101D01*
X156102182Y-113471808D01*
X156184236Y-113201309D01*
X156211943Y-112920000D01*
X156184236Y-112638691D01*
X156102182Y-112368192D01*
X155968932Y-112118899D01*
X155789608Y-111900392D01*
X155571101Y-111721068D01*
X155438142Y-111650000D01*
X155571101Y-111578932D01*
X155789608Y-111399608D01*
X155968932Y-111181101D01*
X156102182Y-110931808D01*
X156184236Y-110661309D01*
X156211943Y-110380000D01*
X156184236Y-110098691D01*
X156102182Y-109828192D01*
X155968932Y-109578899D01*
X155789608Y-109360392D01*
X155571101Y-109181068D01*
X155321808Y-109047818D01*
X155051309Y-108965764D01*
X154840492Y-108945000D01*
X153899508Y-108945000D01*
X153688691Y-108965764D01*
X153418192Y-109047818D01*
X153168899Y-109181068D01*
X152950392Y-109360392D01*
X152771068Y-109578899D01*
X152637818Y-109828192D01*
X152555764Y-110098691D01*
X152528057Y-110380000D01*
X152555764Y-110661309D01*
X152637818Y-110931808D01*
X152771068Y-111181101D01*
X152950392Y-111399608D01*
X153168899Y-111578932D01*
X153301858Y-111650000D01*
X153168899Y-111721068D01*
X152950392Y-111900392D01*
X152771068Y-112118899D01*
X152637818Y-112368192D01*
X152555764Y-112638691D01*
X152528057Y-112920000D01*
X152555764Y-113201309D01*
X152637818Y-113471808D01*
X152771068Y-113721101D01*
X152950392Y-113939608D01*
X153168899Y-114118932D01*
X153301858Y-114190000D01*
X153168899Y-114261068D01*
X152950392Y-114440392D01*
X152771068Y-114658899D01*
X152637818Y-114908192D01*
X152555764Y-115178691D01*
X152528057Y-115460000D01*
X152555764Y-115741309D01*
X152637818Y-116011808D01*
X152771068Y-116261101D01*
X152950392Y-116479608D01*
X153168899Y-116658932D01*
X153301858Y-116730000D01*
X153168899Y-116801068D01*
X152950392Y-116980392D01*
X152771068Y-117198899D01*
X152637818Y-117448192D01*
X152555764Y-117718691D01*
X152528057Y-118000000D01*
X152555764Y-118281309D01*
X152637818Y-118551808D01*
X152771068Y-118801101D01*
X152950392Y-119019608D01*
X153168899Y-119198932D01*
X153418192Y-119332182D01*
X153688691Y-119414236D01*
X153899508Y-119435000D01*
X154840492Y-119435000D01*
X155051309Y-119414236D01*
X155321808Y-119332182D01*
X155571101Y-119198932D01*
X155716629Y-119079500D01*
X156405971Y-119079500D01*
X156459000Y-119084723D01*
X156512029Y-119079500D01*
X156670619Y-119063880D01*
X156874106Y-119002153D01*
X157061640Y-118901914D01*
X157226015Y-118767015D01*
X157259826Y-118725816D01*
X158615001Y-117370643D01*
X158615001Y-155415000D01*
X154882926Y-155415000D01*
X154880000Y-154815750D01*
X154721250Y-154657000D01*
X153407000Y-154657000D01*
X153407000Y-154677000D01*
X153153000Y-154677000D01*
X153153000Y-154657000D01*
X151838750Y-154657000D01*
X151680000Y-154815750D01*
X151677074Y-155415000D01*
X142385000Y-155415000D01*
X142385000Y-151262565D01*
X151580000Y-151262565D01*
X151580000Y-151597435D01*
X151645330Y-151925872D01*
X151773479Y-152235252D01*
X151959523Y-152513687D01*
X152196313Y-152750477D01*
X152474748Y-152936521D01*
X152575140Y-152978105D01*
X152315000Y-152976928D01*
X152190518Y-152989188D01*
X152070820Y-153025498D01*
X151960506Y-153084463D01*
X151863815Y-153163815D01*
X151784463Y-153260506D01*
X151725498Y-153370820D01*
X151689188Y-153490518D01*
X151676928Y-153615000D01*
X151680000Y-154244250D01*
X151838750Y-154403000D01*
X153153000Y-154403000D01*
X153153000Y-154383000D01*
X153407000Y-154383000D01*
X153407000Y-154403000D01*
X154721250Y-154403000D01*
X154880000Y-154244250D01*
X154883072Y-153615000D01*
X154870812Y-153490518D01*
X154834502Y-153370820D01*
X154775537Y-153260506D01*
X154696185Y-153163815D01*
X154599494Y-153084463D01*
X154489180Y-153025498D01*
X154369482Y-152989188D01*
X154245000Y-152976928D01*
X153984860Y-152978105D01*
X154085252Y-152936521D01*
X154363687Y-152750477D01*
X154600477Y-152513687D01*
X154786521Y-152235252D01*
X154914670Y-151925872D01*
X154980000Y-151597435D01*
X154980000Y-151262565D01*
X154914670Y-150934128D01*
X154786521Y-150624748D01*
X154600477Y-150346313D01*
X154363687Y-150109523D01*
X154085252Y-149923479D01*
X153775872Y-149795330D01*
X153447435Y-149730000D01*
X153112565Y-149730000D01*
X152784128Y-149795330D01*
X152474748Y-149923479D01*
X152196313Y-150109523D01*
X151959523Y-150346313D01*
X151773479Y-150624748D01*
X151645330Y-150934128D01*
X151580000Y-151262565D01*
X142385000Y-151262565D01*
X142385000Y-142962565D01*
X151580000Y-142962565D01*
X151580000Y-143297435D01*
X151645330Y-143625872D01*
X151773479Y-143935252D01*
X151959523Y-144213687D01*
X152196313Y-144450477D01*
X152474748Y-144636521D01*
X152784128Y-144764670D01*
X153112565Y-144830000D01*
X153447435Y-144830000D01*
X153775872Y-144764670D01*
X154085252Y-144636521D01*
X154363687Y-144450477D01*
X154600477Y-144213687D01*
X154786521Y-143935252D01*
X154914670Y-143625872D01*
X154980000Y-143297435D01*
X154980000Y-142962565D01*
X154914670Y-142634128D01*
X154786521Y-142324748D01*
X154600477Y-142046313D01*
X154363687Y-141809523D01*
X154085252Y-141623479D01*
X153775872Y-141495330D01*
X153447435Y-141430000D01*
X153112565Y-141430000D01*
X152784128Y-141495330D01*
X152474748Y-141623479D01*
X152196313Y-141809523D01*
X151959523Y-142046313D01*
X151773479Y-142324748D01*
X151645330Y-142634128D01*
X151580000Y-142962565D01*
X142385000Y-142962565D01*
X142385000Y-140375000D01*
X146116928Y-140375000D01*
X146129188Y-140499482D01*
X146165498Y-140619180D01*
X146224463Y-140729494D01*
X146303815Y-140826185D01*
X146400506Y-140905537D01*
X146510820Y-140964502D01*
X146630518Y-141000812D01*
X146755000Y-141013072D01*
X147434250Y-141010000D01*
X147593000Y-140851250D01*
X147593000Y-139587000D01*
X147847000Y-139587000D01*
X147847000Y-140851250D01*
X148005750Y-141010000D01*
X148685000Y-141013072D01*
X148809482Y-141000812D01*
X148929180Y-140964502D01*
X149039494Y-140905537D01*
X149136185Y-140826185D01*
X149215537Y-140729494D01*
X149274502Y-140619180D01*
X149310812Y-140499482D01*
X149323072Y-140375000D01*
X149320000Y-139745750D01*
X149161250Y-139587000D01*
X147847000Y-139587000D01*
X147593000Y-139587000D01*
X146278750Y-139587000D01*
X146120000Y-139745750D01*
X146116928Y-140375000D01*
X142385000Y-140375000D01*
X142385000Y-139358665D01*
X154815000Y-139358665D01*
X154815000Y-139641335D01*
X154870147Y-139918574D01*
X154978320Y-140179727D01*
X155135363Y-140414759D01*
X155335241Y-140614637D01*
X155570273Y-140771680D01*
X155831426Y-140879853D01*
X156108665Y-140935000D01*
X156391335Y-140935000D01*
X156668574Y-140879853D01*
X156929727Y-140771680D01*
X157164759Y-140614637D01*
X157364637Y-140414759D01*
X157521680Y-140179727D01*
X157629853Y-139918574D01*
X157685000Y-139641335D01*
X157685000Y-139358665D01*
X157629853Y-139081426D01*
X157521680Y-138820273D01*
X157364637Y-138585241D01*
X157164759Y-138385363D01*
X156929727Y-138228320D01*
X156668574Y-138120147D01*
X156391335Y-138065000D01*
X156108665Y-138065000D01*
X155831426Y-138120147D01*
X155570273Y-138228320D01*
X155335241Y-138385363D01*
X155135363Y-138585241D01*
X154978320Y-138820273D01*
X154870147Y-139081426D01*
X154815000Y-139358665D01*
X142385000Y-139358665D01*
X142385000Y-136192565D01*
X146020000Y-136192565D01*
X146020000Y-136527435D01*
X146085330Y-136855872D01*
X146213479Y-137165252D01*
X146399523Y-137443687D01*
X146636313Y-137680477D01*
X146914748Y-137866521D01*
X147015140Y-137908105D01*
X146755000Y-137906928D01*
X146630518Y-137919188D01*
X146510820Y-137955498D01*
X146400506Y-138014463D01*
X146303815Y-138093815D01*
X146224463Y-138190506D01*
X146165498Y-138300820D01*
X146129188Y-138420518D01*
X146116928Y-138545000D01*
X146120000Y-139174250D01*
X146278750Y-139333000D01*
X147593000Y-139333000D01*
X147593000Y-139313000D01*
X147847000Y-139313000D01*
X147847000Y-139333000D01*
X149161250Y-139333000D01*
X149320000Y-139174250D01*
X149323072Y-138545000D01*
X149310812Y-138420518D01*
X149274502Y-138300820D01*
X149215537Y-138190506D01*
X149136185Y-138093815D01*
X149039494Y-138014463D01*
X148929180Y-137955498D01*
X148809482Y-137919188D01*
X148685000Y-137906928D01*
X148424860Y-137908105D01*
X148525252Y-137866521D01*
X148803687Y-137680477D01*
X149040477Y-137443687D01*
X149226521Y-137165252D01*
X149354670Y-136855872D01*
X149420000Y-136527435D01*
X149420000Y-136192565D01*
X149354670Y-135864128D01*
X149226521Y-135554748D01*
X149040477Y-135276313D01*
X148803687Y-135039523D01*
X148525252Y-134853479D01*
X148215872Y-134725330D01*
X147887435Y-134660000D01*
X147552565Y-134660000D01*
X147224128Y-134725330D01*
X146914748Y-134853479D01*
X146636313Y-135039523D01*
X146399523Y-135276313D01*
X146213479Y-135554748D01*
X146085330Y-135864128D01*
X146020000Y-136192565D01*
X142385000Y-136192565D01*
X142385000Y-127892565D01*
X146020000Y-127892565D01*
X146020000Y-128227435D01*
X146085330Y-128555872D01*
X146213479Y-128865252D01*
X146399523Y-129143687D01*
X146636313Y-129380477D01*
X146914748Y-129566521D01*
X147224128Y-129694670D01*
X147552565Y-129760000D01*
X147887435Y-129760000D01*
X148215872Y-129694670D01*
X148525252Y-129566521D01*
X148803687Y-129380477D01*
X148985499Y-129198665D01*
X154815000Y-129198665D01*
X154815000Y-129481335D01*
X154870147Y-129758574D01*
X154978320Y-130019727D01*
X155135363Y-130254759D01*
X155335241Y-130454637D01*
X155570273Y-130611680D01*
X155831426Y-130719853D01*
X156108665Y-130775000D01*
X156391335Y-130775000D01*
X156668574Y-130719853D01*
X156929727Y-130611680D01*
X157164759Y-130454637D01*
X157364637Y-130254759D01*
X157521680Y-130019727D01*
X157629853Y-129758574D01*
X157685000Y-129481335D01*
X157685000Y-129198665D01*
X157629853Y-128921426D01*
X157521680Y-128660273D01*
X157364637Y-128425241D01*
X157164759Y-128225363D01*
X156929727Y-128068320D01*
X156668574Y-127960147D01*
X156391335Y-127905000D01*
X156108665Y-127905000D01*
X155831426Y-127960147D01*
X155570273Y-128068320D01*
X155335241Y-128225363D01*
X155135363Y-128425241D01*
X154978320Y-128660273D01*
X154870147Y-128921426D01*
X154815000Y-129198665D01*
X148985499Y-129198665D01*
X149040477Y-129143687D01*
X149226521Y-128865252D01*
X149354670Y-128555872D01*
X149420000Y-128227435D01*
X149420000Y-127892565D01*
X149354670Y-127564128D01*
X149226521Y-127254748D01*
X149040477Y-126976313D01*
X148803687Y-126739523D01*
X148525252Y-126553479D01*
X148215872Y-126425330D01*
X147887435Y-126360000D01*
X147552565Y-126360000D01*
X147224128Y-126425330D01*
X146914748Y-126553479D01*
X146636313Y-126739523D01*
X146399523Y-126976313D01*
X146213479Y-127254748D01*
X146085330Y-127564128D01*
X146020000Y-127892565D01*
X142385000Y-127892565D01*
X142385000Y-123550000D01*
X143561928Y-123550000D01*
X143574188Y-123674482D01*
X143610498Y-123794180D01*
X143669463Y-123904494D01*
X143748815Y-124001185D01*
X143845506Y-124080537D01*
X143955820Y-124139502D01*
X144051943Y-124168661D01*
X143885363Y-124335241D01*
X143728320Y-124570273D01*
X143620147Y-124831426D01*
X143565000Y-125108665D01*
X143565000Y-125391335D01*
X143620147Y-125668574D01*
X143728320Y-125929727D01*
X143885363Y-126164759D01*
X144085241Y-126364637D01*
X144320273Y-126521680D01*
X144581426Y-126629853D01*
X144858665Y-126685000D01*
X145141335Y-126685000D01*
X145418574Y-126629853D01*
X145679727Y-126521680D01*
X145914759Y-126364637D01*
X146114637Y-126164759D01*
X146271680Y-125929727D01*
X146379853Y-125668574D01*
X146435000Y-125391335D01*
X146435000Y-125108665D01*
X146379853Y-124831426D01*
X146271680Y-124570273D01*
X146114637Y-124335241D01*
X145948057Y-124168661D01*
X146044180Y-124139502D01*
X146154494Y-124080537D01*
X146251185Y-124001185D01*
X146330537Y-123904494D01*
X146389502Y-123794180D01*
X146425812Y-123674482D01*
X146438072Y-123550000D01*
X146435000Y-123035750D01*
X146276250Y-122877000D01*
X145127000Y-122877000D01*
X145127000Y-122897000D01*
X144873000Y-122897000D01*
X144873000Y-122877000D01*
X143723750Y-122877000D01*
X143565000Y-123035750D01*
X143561928Y-123550000D01*
X142385000Y-123550000D01*
X142385000Y-121950000D01*
X143561928Y-121950000D01*
X143565000Y-122464250D01*
X143723750Y-122623000D01*
X144873000Y-122623000D01*
X144873000Y-121473750D01*
X145127000Y-121473750D01*
X145127000Y-122623000D01*
X146276250Y-122623000D01*
X146435000Y-122464250D01*
X146438072Y-121950000D01*
X154561928Y-121950000D01*
X154561928Y-123550000D01*
X154574188Y-123674482D01*
X154610498Y-123794180D01*
X154669463Y-123904494D01*
X154748815Y-124001185D01*
X154845506Y-124080537D01*
X154955820Y-124139502D01*
X155051943Y-124168661D01*
X154885363Y-124335241D01*
X154728320Y-124570273D01*
X154620147Y-124831426D01*
X154565000Y-125108665D01*
X154565000Y-125391335D01*
X154620147Y-125668574D01*
X154728320Y-125929727D01*
X154885363Y-126164759D01*
X155085241Y-126364637D01*
X155320273Y-126521680D01*
X155581426Y-126629853D01*
X155858665Y-126685000D01*
X156141335Y-126685000D01*
X156418574Y-126629853D01*
X156679727Y-126521680D01*
X156914759Y-126364637D01*
X157114637Y-126164759D01*
X157271680Y-125929727D01*
X157379853Y-125668574D01*
X157435000Y-125391335D01*
X157435000Y-125108665D01*
X157379853Y-124831426D01*
X157271680Y-124570273D01*
X157114637Y-124335241D01*
X156948057Y-124168661D01*
X157044180Y-124139502D01*
X157154494Y-124080537D01*
X157251185Y-124001185D01*
X157330537Y-123904494D01*
X157389502Y-123794180D01*
X157425812Y-123674482D01*
X157438072Y-123550000D01*
X157438072Y-121950000D01*
X157425812Y-121825518D01*
X157389502Y-121705820D01*
X157330537Y-121595506D01*
X157251185Y-121498815D01*
X157154494Y-121419463D01*
X157044180Y-121360498D01*
X156924482Y-121324188D01*
X156800000Y-121311928D01*
X155200000Y-121311928D01*
X155075518Y-121324188D01*
X154955820Y-121360498D01*
X154845506Y-121419463D01*
X154748815Y-121498815D01*
X154669463Y-121595506D01*
X154610498Y-121705820D01*
X154574188Y-121825518D01*
X154561928Y-121950000D01*
X146438072Y-121950000D01*
X146425812Y-121825518D01*
X146389502Y-121705820D01*
X146330537Y-121595506D01*
X146251185Y-121498815D01*
X146154494Y-121419463D01*
X146044180Y-121360498D01*
X145924482Y-121324188D01*
X145800000Y-121311928D01*
X145285750Y-121315000D01*
X145127000Y-121473750D01*
X144873000Y-121473750D01*
X144714250Y-121315000D01*
X144200000Y-121311928D01*
X144075518Y-121324188D01*
X143955820Y-121360498D01*
X143845506Y-121419463D01*
X143748815Y-121498815D01*
X143669463Y-121595506D01*
X143610498Y-121705820D01*
X143574188Y-121825518D01*
X143561928Y-121950000D01*
X142385000Y-121950000D01*
X142385000Y-108411642D01*
X145079178Y-111105821D01*
X145112985Y-111147015D01*
X145148371Y-111176056D01*
X145151068Y-111181101D01*
X145330392Y-111399608D01*
X145548899Y-111578932D01*
X145681858Y-111650000D01*
X145548899Y-111721068D01*
X145330392Y-111900392D01*
X145151068Y-112118899D01*
X145017818Y-112368192D01*
X144935764Y-112638691D01*
X144908057Y-112920000D01*
X144935764Y-113201309D01*
X145017818Y-113471808D01*
X145151068Y-113721101D01*
X145330392Y-113939608D01*
X145548899Y-114118932D01*
X145681858Y-114190000D01*
X145548899Y-114261068D01*
X145330392Y-114440392D01*
X145151068Y-114658899D01*
X145017818Y-114908192D01*
X144935764Y-115178691D01*
X144908057Y-115460000D01*
X144935764Y-115741309D01*
X145017818Y-116011808D01*
X145151068Y-116261101D01*
X145330392Y-116479608D01*
X145443482Y-116572419D01*
X145425518Y-116574188D01*
X145305820Y-116610498D01*
X145195506Y-116669463D01*
X145098815Y-116748815D01*
X145019463Y-116845506D01*
X144960498Y-116955820D01*
X144924188Y-117075518D01*
X144911928Y-117200000D01*
X144911928Y-118800000D01*
X144924188Y-118924482D01*
X144960498Y-119044180D01*
X145019463Y-119154494D01*
X145098815Y-119251185D01*
X145195506Y-119330537D01*
X145305820Y-119389502D01*
X145425518Y-119425812D01*
X145550000Y-119438072D01*
X147950000Y-119438072D01*
X148074482Y-119425812D01*
X148194180Y-119389502D01*
X148304494Y-119330537D01*
X148401185Y-119251185D01*
X148480537Y-119154494D01*
X148539502Y-119044180D01*
X148575812Y-118924482D01*
X148588072Y-118800000D01*
X148588072Y-117200000D01*
X148575812Y-117075518D01*
X148539502Y-116955820D01*
X148480537Y-116845506D01*
X148401185Y-116748815D01*
X148304494Y-116669463D01*
X148194180Y-116610498D01*
X148074482Y-116574188D01*
X148056518Y-116572419D01*
X148169608Y-116479608D01*
X148348932Y-116261101D01*
X148482182Y-116011808D01*
X148564236Y-115741309D01*
X148591943Y-115460000D01*
X148564236Y-115178691D01*
X148482182Y-114908192D01*
X148348932Y-114658899D01*
X148169608Y-114440392D01*
X147951101Y-114261068D01*
X147818142Y-114190000D01*
X147951101Y-114118932D01*
X148169608Y-113939608D01*
X148348932Y-113721101D01*
X148482182Y-113471808D01*
X148564236Y-113201309D01*
X148591943Y-112920000D01*
X148564236Y-112638691D01*
X148482182Y-112368192D01*
X148348932Y-112118899D01*
X148169608Y-111900392D01*
X147951101Y-111721068D01*
X147818142Y-111650000D01*
X147951101Y-111578932D01*
X148169608Y-111399608D01*
X148348932Y-111181101D01*
X148482182Y-110931808D01*
X148564236Y-110661309D01*
X148591943Y-110380000D01*
X148564236Y-110098691D01*
X148482182Y-109828192D01*
X148348932Y-109578899D01*
X148169608Y-109360392D01*
X147951101Y-109181068D01*
X147701808Y-109047818D01*
X147431309Y-108965764D01*
X147220492Y-108945000D01*
X146279508Y-108945000D01*
X146068691Y-108965764D01*
X146010161Y-108983519D01*
X143555599Y-106528957D01*
X143555599Y-106119155D01*
X143581426Y-106129853D01*
X143858665Y-106185000D01*
X144141335Y-106185000D01*
X144418574Y-106129853D01*
X144679727Y-106021680D01*
X144914759Y-105864637D01*
X144920731Y-105858665D01*
X146565000Y-105858665D01*
X146565000Y-106141335D01*
X146620147Y-106418574D01*
X146728320Y-106679727D01*
X146885363Y-106914759D01*
X147085241Y-107114637D01*
X147320273Y-107271680D01*
X147581426Y-107379853D01*
X147858665Y-107435000D01*
X148141335Y-107435000D01*
X148418574Y-107379853D01*
X148679727Y-107271680D01*
X148914759Y-107114637D01*
X149114637Y-106914759D01*
X149271680Y-106679727D01*
X149379853Y-106418574D01*
X149435000Y-106141335D01*
X149435000Y-106018665D01*
X151065000Y-106018665D01*
X151065000Y-106301335D01*
X151120147Y-106578574D01*
X151228320Y-106839727D01*
X151385363Y-107074759D01*
X151585241Y-107274637D01*
X151820273Y-107431680D01*
X152081426Y-107539853D01*
X152358665Y-107595000D01*
X152641335Y-107595000D01*
X152918574Y-107539853D01*
X153179727Y-107431680D01*
X153414759Y-107274637D01*
X153614637Y-107074759D01*
X153771680Y-106839727D01*
X153879853Y-106578574D01*
X153935000Y-106301335D01*
X153935000Y-106018665D01*
X153879853Y-105741426D01*
X153771680Y-105480273D01*
X153614637Y-105245241D01*
X153414759Y-105045363D01*
X153179727Y-104888320D01*
X152918574Y-104780147D01*
X152641335Y-104725000D01*
X152358665Y-104725000D01*
X152081426Y-104780147D01*
X151820273Y-104888320D01*
X151585241Y-105045363D01*
X151385363Y-105245241D01*
X151228320Y-105480273D01*
X151120147Y-105741426D01*
X151065000Y-106018665D01*
X149435000Y-106018665D01*
X149435000Y-105858665D01*
X149379853Y-105581426D01*
X149271680Y-105320273D01*
X149114637Y-105085241D01*
X148914759Y-104885363D01*
X148679727Y-104728320D01*
X148418574Y-104620147D01*
X148141335Y-104565000D01*
X147858665Y-104565000D01*
X147581426Y-104620147D01*
X147320273Y-104728320D01*
X147085241Y-104885363D01*
X146885363Y-105085241D01*
X146728320Y-105320273D01*
X146620147Y-105581426D01*
X146565000Y-105858665D01*
X144920731Y-105858665D01*
X145114637Y-105664759D01*
X145271680Y-105429727D01*
X145379853Y-105168574D01*
X145435000Y-104891335D01*
X145435000Y-104608665D01*
X145379853Y-104331426D01*
X145271680Y-104070273D01*
X145114637Y-103835241D01*
X144914759Y-103635363D01*
X144679727Y-103478320D01*
X144418574Y-103370147D01*
X144141335Y-103315000D01*
X143858665Y-103315000D01*
X143581426Y-103370147D01*
X143555599Y-103380845D01*
X143555599Y-95952980D01*
X143650961Y-95981904D01*
X143873000Y-95859915D01*
X143873000Y-94717000D01*
X144127000Y-94717000D01*
X144127000Y-95859915D01*
X144349039Y-95981904D01*
X144483087Y-95941246D01*
X144737420Y-95821037D01*
X144902508Y-95698665D01*
X146565000Y-95698665D01*
X146565000Y-95981335D01*
X146620147Y-96258574D01*
X146728320Y-96519727D01*
X146885363Y-96754759D01*
X147085241Y-96954637D01*
X147320273Y-97111680D01*
X147581426Y-97219853D01*
X147858665Y-97275000D01*
X148141335Y-97275000D01*
X148418574Y-97219853D01*
X148679727Y-97111680D01*
X148914759Y-96954637D01*
X149114637Y-96754759D01*
X149271680Y-96519727D01*
X149379853Y-96258574D01*
X149435000Y-95981335D01*
X149435000Y-95858665D01*
X151065000Y-95858665D01*
X151065000Y-96141335D01*
X151120147Y-96418574D01*
X151228320Y-96679727D01*
X151385363Y-96914759D01*
X151585241Y-97114637D01*
X151820273Y-97271680D01*
X152081426Y-97379853D01*
X152358665Y-97435000D01*
X152641335Y-97435000D01*
X152918574Y-97379853D01*
X153179727Y-97271680D01*
X153414759Y-97114637D01*
X153614637Y-96914759D01*
X153771680Y-96679727D01*
X153879853Y-96418574D01*
X153935000Y-96141335D01*
X153935000Y-95858665D01*
X153879853Y-95581426D01*
X153771680Y-95320273D01*
X153614637Y-95085241D01*
X153414759Y-94885363D01*
X153360398Y-94849040D01*
X155358091Y-94849040D01*
X155452930Y-95113881D01*
X155597615Y-95355131D01*
X155786586Y-95563519D01*
X156012580Y-95731037D01*
X156266913Y-95851246D01*
X156400961Y-95891904D01*
X156623000Y-95769915D01*
X156623000Y-94627000D01*
X155479376Y-94627000D01*
X155358091Y-94849040D01*
X153360398Y-94849040D01*
X153179727Y-94728320D01*
X152918574Y-94620147D01*
X152641335Y-94565000D01*
X152358665Y-94565000D01*
X152081426Y-94620147D01*
X151820273Y-94728320D01*
X151585241Y-94885363D01*
X151385363Y-95085241D01*
X151228320Y-95320273D01*
X151120147Y-95581426D01*
X151065000Y-95858665D01*
X149435000Y-95858665D01*
X149435000Y-95698665D01*
X149379853Y-95421426D01*
X149271680Y-95160273D01*
X149114637Y-94925241D01*
X148914759Y-94725363D01*
X148679727Y-94568320D01*
X148418574Y-94460147D01*
X148141335Y-94405000D01*
X147858665Y-94405000D01*
X147581426Y-94460147D01*
X147320273Y-94568320D01*
X147085241Y-94725363D01*
X146885363Y-94925241D01*
X146728320Y-95160273D01*
X146620147Y-95421426D01*
X146565000Y-95698665D01*
X144902508Y-95698665D01*
X144963414Y-95653519D01*
X145152385Y-95445131D01*
X145297070Y-95203881D01*
X145391909Y-94939040D01*
X145270624Y-94717000D01*
X144127000Y-94717000D01*
X143873000Y-94717000D01*
X143853000Y-94717000D01*
X143853000Y-94463000D01*
X143873000Y-94463000D01*
X143873000Y-93320085D01*
X144127000Y-93320085D01*
X144127000Y-94463000D01*
X145270624Y-94463000D01*
X145391909Y-94240960D01*
X145359681Y-94150960D01*
X155358091Y-94150960D01*
X155479376Y-94373000D01*
X156623000Y-94373000D01*
X156623000Y-93230085D01*
X156400961Y-93108096D01*
X156266913Y-93148754D01*
X156012580Y-93268963D01*
X155786586Y-93436481D01*
X155597615Y-93644869D01*
X155452930Y-93886119D01*
X155358091Y-94150960D01*
X145359681Y-94150960D01*
X145297070Y-93976119D01*
X145152385Y-93734869D01*
X144963414Y-93526481D01*
X144737420Y-93358963D01*
X144483087Y-93238754D01*
X144349039Y-93198096D01*
X144127000Y-93320085D01*
X143873000Y-93320085D01*
X143650961Y-93198096D01*
X143579500Y-93219771D01*
X143579500Y-91483589D01*
X144365000Y-91483589D01*
X144365000Y-91756411D01*
X144418225Y-92023989D01*
X144522629Y-92276043D01*
X144674201Y-92502886D01*
X144867114Y-92695799D01*
X145093957Y-92847371D01*
X145346011Y-92951775D01*
X145613589Y-93005000D01*
X145886411Y-93005000D01*
X146153989Y-92951775D01*
X146406043Y-92847371D01*
X146632886Y-92695799D01*
X146819685Y-92509000D01*
X153918420Y-92509000D01*
X153969463Y-92604494D01*
X154048815Y-92701185D01*
X154145506Y-92780537D01*
X154255820Y-92839502D01*
X154375518Y-92875812D01*
X154500000Y-92888072D01*
X156000000Y-92888072D01*
X156124482Y-92875812D01*
X156244180Y-92839502D01*
X156354494Y-92780537D01*
X156451185Y-92701185D01*
X156530537Y-92604494D01*
X156589502Y-92494180D01*
X156625812Y-92374482D01*
X156638072Y-92250000D01*
X156638072Y-90750000D01*
X156625812Y-90625518D01*
X156589502Y-90505820D01*
X156530537Y-90395506D01*
X156451185Y-90298815D01*
X156354494Y-90219463D01*
X156244180Y-90160498D01*
X156124482Y-90124188D01*
X156000000Y-90111928D01*
X154500000Y-90111928D01*
X154375518Y-90124188D01*
X154255820Y-90160498D01*
X154145506Y-90219463D01*
X154048815Y-90298815D01*
X153969463Y-90395506D01*
X153910498Y-90505820D01*
X153874188Y-90625518D01*
X153863799Y-90731000D01*
X146819685Y-90731000D01*
X146632886Y-90544201D01*
X146406043Y-90392629D01*
X146153989Y-90288225D01*
X145886411Y-90235000D01*
X145613589Y-90235000D01*
X145346011Y-90288225D01*
X145093957Y-90392629D01*
X144867114Y-90544201D01*
X144674201Y-90737114D01*
X144522629Y-90963957D01*
X144418225Y-91216011D01*
X144365000Y-91483589D01*
X143579500Y-91483589D01*
X143579500Y-85859796D01*
X148390000Y-85859796D01*
X148390000Y-86290204D01*
X148473969Y-86712341D01*
X148638678Y-87109985D01*
X148877800Y-87467856D01*
X149182144Y-87772200D01*
X149540015Y-88011322D01*
X149937659Y-88176031D01*
X150359796Y-88260000D01*
X150790204Y-88260000D01*
X151212341Y-88176031D01*
X151609985Y-88011322D01*
X151967856Y-87772200D01*
X152272200Y-87467856D01*
X152511322Y-87109985D01*
X152676031Y-86712341D01*
X152760000Y-86290204D01*
X152760000Y-85859796D01*
X152676031Y-85437659D01*
X152511322Y-85040015D01*
X152272200Y-84682144D01*
X151967856Y-84377800D01*
X151609985Y-84138678D01*
X151212341Y-83973969D01*
X150790204Y-83890000D01*
X150359796Y-83890000D01*
X149937659Y-83973969D01*
X149540015Y-84138678D01*
X149182144Y-84377800D01*
X148877800Y-84682144D01*
X148638678Y-85040015D01*
X148473969Y-85437659D01*
X148390000Y-85859796D01*
X143579500Y-85859796D01*
X143579500Y-83250000D01*
X144361928Y-83250000D01*
X144361928Y-84750000D01*
X144374188Y-84874482D01*
X144410498Y-84994180D01*
X144469463Y-85104494D01*
X144548815Y-85201185D01*
X144645506Y-85280537D01*
X144755820Y-85339502D01*
X144875518Y-85375812D01*
X145000000Y-85388072D01*
X146500000Y-85388072D01*
X146624482Y-85375812D01*
X146744180Y-85339502D01*
X146854494Y-85280537D01*
X146951185Y-85201185D01*
X147030537Y-85104494D01*
X147089502Y-84994180D01*
X147125812Y-84874482D01*
X147138072Y-84750000D01*
X147138072Y-83743589D01*
X153865000Y-83743589D01*
X153865000Y-84016411D01*
X153918225Y-84283989D01*
X154022629Y-84536043D01*
X154174201Y-84762886D01*
X154367114Y-84955799D01*
X154593957Y-85107371D01*
X154846011Y-85211775D01*
X155113589Y-85265000D01*
X155386411Y-85265000D01*
X155653989Y-85211775D01*
X155906043Y-85107371D01*
X156132886Y-84955799D01*
X156325799Y-84762886D01*
X156477371Y-84536043D01*
X156581775Y-84283989D01*
X156635000Y-84016411D01*
X156635000Y-83743589D01*
X156581775Y-83476011D01*
X156477371Y-83223957D01*
X156325799Y-82997114D01*
X156132886Y-82804201D01*
X155906043Y-82652629D01*
X155653989Y-82548225D01*
X155386411Y-82495000D01*
X155113589Y-82495000D01*
X154846011Y-82548225D01*
X154593957Y-82652629D01*
X154367114Y-82804201D01*
X154174201Y-82997114D01*
X154022629Y-83223957D01*
X153918225Y-83476011D01*
X153865000Y-83743589D01*
X147138072Y-83743589D01*
X147138072Y-83250000D01*
X147125812Y-83125518D01*
X147089502Y-83005820D01*
X147030537Y-82895506D01*
X146951185Y-82798815D01*
X146854494Y-82719463D01*
X146744180Y-82660498D01*
X146624482Y-82624188D01*
X146500000Y-82611928D01*
X145000000Y-82611928D01*
X144875518Y-82624188D01*
X144755820Y-82660498D01*
X144645506Y-82719463D01*
X144548815Y-82798815D01*
X144469463Y-82895506D01*
X144410498Y-83005820D01*
X144374188Y-83125518D01*
X144361928Y-83250000D01*
X143579500Y-83250000D01*
X143579500Y-81159796D01*
X148390000Y-81159796D01*
X148390000Y-81590204D01*
X148473969Y-82012341D01*
X148638678Y-82409985D01*
X148877800Y-82767856D01*
X149182144Y-83072200D01*
X149540015Y-83311322D01*
X149937659Y-83476031D01*
X150359796Y-83560000D01*
X150790204Y-83560000D01*
X151212341Y-83476031D01*
X151609985Y-83311322D01*
X151967856Y-83072200D01*
X152272200Y-82767856D01*
X152511322Y-82409985D01*
X152676031Y-82012341D01*
X152760000Y-81590204D01*
X152760000Y-81159796D01*
X152676031Y-80737659D01*
X152511322Y-80340015D01*
X152272200Y-79982144D01*
X151967856Y-79677800D01*
X151609985Y-79438678D01*
X151212341Y-79273969D01*
X150790204Y-79190000D01*
X150359796Y-79190000D01*
X149937659Y-79273969D01*
X149540015Y-79438678D01*
X149182144Y-79677800D01*
X148877800Y-79982144D01*
X148638678Y-80340015D01*
X148473969Y-80737659D01*
X148390000Y-81159796D01*
X143579500Y-81159796D01*
X143579500Y-76459796D01*
X148390000Y-76459796D01*
X148390000Y-76890204D01*
X148473969Y-77312341D01*
X148638678Y-77709985D01*
X148877800Y-78067856D01*
X149182144Y-78372200D01*
X149540015Y-78611322D01*
X149937659Y-78776031D01*
X150182918Y-78824817D01*
X150325726Y-78868136D01*
X150500000Y-78885301D01*
X150674273Y-78868136D01*
X150701094Y-78860000D01*
X150790204Y-78860000D01*
X151212341Y-78776031D01*
X151609985Y-78611322D01*
X151967856Y-78372200D01*
X152272200Y-78067856D01*
X152511322Y-77709985D01*
X152676031Y-77312341D01*
X152760000Y-76890204D01*
X152760000Y-76459796D01*
X152676031Y-76037659D01*
X152511322Y-75640015D01*
X152272200Y-75282144D01*
X151967856Y-74977800D01*
X151609985Y-74738678D01*
X151212341Y-74573969D01*
X150790204Y-74490000D01*
X150359796Y-74490000D01*
X149937659Y-74573969D01*
X149540015Y-74738678D01*
X149182144Y-74977800D01*
X148877800Y-75282144D01*
X148638678Y-75640015D01*
X148473969Y-76037659D01*
X148390000Y-76459796D01*
X143579500Y-76459796D01*
X143579500Y-74697142D01*
X144091643Y-74185000D01*
X144141335Y-74185000D01*
X144418574Y-74129853D01*
X144679727Y-74021680D01*
X144914759Y-73864637D01*
X145036694Y-73742702D01*
X148186903Y-73742702D01*
X148258486Y-73986671D01*
X148513996Y-74107571D01*
X148788184Y-74176300D01*
X149070512Y-74190217D01*
X149350130Y-74148787D01*
X149616292Y-74053603D01*
X149741514Y-73986671D01*
X149813097Y-73742702D01*
X150936903Y-73742702D01*
X151008486Y-73986671D01*
X151263996Y-74107571D01*
X151538184Y-74176300D01*
X151820512Y-74190217D01*
X152100130Y-74148787D01*
X152366292Y-74053603D01*
X152491514Y-73986671D01*
X152563097Y-73742702D01*
X151750000Y-72929605D01*
X150936903Y-73742702D01*
X149813097Y-73742702D01*
X149000000Y-72929605D01*
X148186903Y-73742702D01*
X145036694Y-73742702D01*
X145114637Y-73664759D01*
X145271680Y-73429727D01*
X145379853Y-73168574D01*
X145435000Y-72891335D01*
X145435000Y-72820512D01*
X147559783Y-72820512D01*
X147601213Y-73100130D01*
X147696397Y-73366292D01*
X147763329Y-73491514D01*
X148007298Y-73563097D01*
X148820395Y-72750000D01*
X149179605Y-72750000D01*
X149992702Y-73563097D01*
X150236671Y-73491514D01*
X150357571Y-73236004D01*
X150374975Y-73166574D01*
X150446397Y-73366292D01*
X150513329Y-73491514D01*
X150757298Y-73563097D01*
X151570395Y-72750000D01*
X151929605Y-72750000D01*
X152742702Y-73563097D01*
X152986671Y-73491514D01*
X153107571Y-73236004D01*
X153176300Y-72961816D01*
X153190217Y-72679488D01*
X153148787Y-72399870D01*
X153053603Y-72133708D01*
X152986671Y-72008486D01*
X152742702Y-71936903D01*
X151929605Y-72750000D01*
X151570395Y-72750000D01*
X150757298Y-71936903D01*
X150513329Y-72008486D01*
X150392429Y-72263996D01*
X150375025Y-72333426D01*
X150303603Y-72133708D01*
X150236671Y-72008486D01*
X149992702Y-71936903D01*
X149179605Y-72750000D01*
X148820395Y-72750000D01*
X148007298Y-71936903D01*
X147763329Y-72008486D01*
X147642429Y-72263996D01*
X147573700Y-72538184D01*
X147559783Y-72820512D01*
X145435000Y-72820512D01*
X145435000Y-72608665D01*
X145379853Y-72331426D01*
X145271680Y-72070273D01*
X145114637Y-71835241D01*
X145036694Y-71757298D01*
X148186903Y-71757298D01*
X149000000Y-72570395D01*
X149813097Y-71757298D01*
X150936903Y-71757298D01*
X151750000Y-72570395D01*
X152563097Y-71757298D01*
X152491514Y-71513329D01*
X152236004Y-71392429D01*
X151961816Y-71323700D01*
X151679488Y-71309783D01*
X151399870Y-71351213D01*
X151133708Y-71446397D01*
X151008486Y-71513329D01*
X150936903Y-71757298D01*
X149813097Y-71757298D01*
X149741514Y-71513329D01*
X149486004Y-71392429D01*
X149211816Y-71323700D01*
X148929488Y-71309783D01*
X148649870Y-71351213D01*
X148383708Y-71446397D01*
X148258486Y-71513329D01*
X148186903Y-71757298D01*
X145036694Y-71757298D01*
X144914759Y-71635363D01*
X144679727Y-71478320D01*
X144418574Y-71370147D01*
X144141335Y-71315000D01*
X144091643Y-71315000D01*
X143329500Y-70552858D01*
X143329500Y-68696000D01*
X146543928Y-68696000D01*
X146543928Y-70496000D01*
X146556188Y-70620482D01*
X146592498Y-70740180D01*
X146651463Y-70850494D01*
X146730815Y-70947185D01*
X146827506Y-71026537D01*
X146937820Y-71085502D01*
X147057518Y-71121812D01*
X147182000Y-71134072D01*
X148982000Y-71134072D01*
X149106482Y-71121812D01*
X149226180Y-71085502D01*
X149336494Y-71026537D01*
X149433185Y-70947185D01*
X149512537Y-70850494D01*
X149565880Y-70750697D01*
X149603495Y-70788312D01*
X149854905Y-70956299D01*
X150134257Y-71072011D01*
X150430816Y-71131000D01*
X150733184Y-71131000D01*
X151029743Y-71072011D01*
X151309095Y-70956299D01*
X151560505Y-70788312D01*
X151774312Y-70574505D01*
X151832000Y-70488169D01*
X151889688Y-70574505D01*
X152103495Y-70788312D01*
X152354905Y-70956299D01*
X152634257Y-71072011D01*
X152930816Y-71131000D01*
X153233184Y-71131000D01*
X153529743Y-71072011D01*
X153809095Y-70956299D01*
X154060505Y-70788312D01*
X154274312Y-70574505D01*
X154442299Y-70323095D01*
X154558011Y-70043743D01*
X154617000Y-69747184D01*
X154617000Y-69444816D01*
X154558011Y-69148257D01*
X154442299Y-68868905D01*
X154274312Y-68617495D01*
X154060505Y-68403688D01*
X153809095Y-68235701D01*
X153529743Y-68119989D01*
X153233184Y-68061000D01*
X152930816Y-68061000D01*
X152634257Y-68119989D01*
X152354905Y-68235701D01*
X152103495Y-68403688D01*
X151889688Y-68617495D01*
X151832000Y-68703831D01*
X151774312Y-68617495D01*
X151560505Y-68403688D01*
X151309095Y-68235701D01*
X151029743Y-68119989D01*
X150733184Y-68061000D01*
X150430816Y-68061000D01*
X150134257Y-68119989D01*
X149854905Y-68235701D01*
X149603495Y-68403688D01*
X149565880Y-68441303D01*
X149512537Y-68341506D01*
X149433185Y-68244815D01*
X149336494Y-68165463D01*
X149226180Y-68106498D01*
X149106482Y-68070188D01*
X148982000Y-68057928D01*
X147182000Y-68057928D01*
X147057518Y-68070188D01*
X146937820Y-68106498D01*
X146827506Y-68165463D01*
X146730815Y-68244815D01*
X146651463Y-68341506D01*
X146592498Y-68451820D01*
X146556188Y-68571518D01*
X146543928Y-68696000D01*
X143329500Y-68696000D01*
X143329500Y-61738002D01*
X143787000Y-61738002D01*
X143787000Y-62453997D01*
X143815867Y-62747087D01*
X143929943Y-63123146D01*
X144115193Y-63469725D01*
X144364497Y-63773503D01*
X144668275Y-64022807D01*
X145014853Y-64208057D01*
X145390912Y-64322133D01*
X145782000Y-64360652D01*
X146173087Y-64322133D01*
X146549146Y-64208057D01*
X146895725Y-64022807D01*
X147199503Y-63773503D01*
X147448807Y-63469725D01*
X147634057Y-63123147D01*
X147748133Y-62747088D01*
X147777000Y-62453998D01*
X147777000Y-61738003D01*
X147777000Y-61738002D01*
X153387000Y-61738002D01*
X153387000Y-62453997D01*
X153415867Y-62747087D01*
X153529943Y-63123146D01*
X153715193Y-63469725D01*
X153964497Y-63773503D01*
X154268275Y-64022807D01*
X154614853Y-64208057D01*
X154990912Y-64322133D01*
X155382000Y-64360652D01*
X155773087Y-64322133D01*
X156149146Y-64208057D01*
X156495725Y-64022807D01*
X156799503Y-63773503D01*
X157048807Y-63469725D01*
X157234057Y-63123147D01*
X157348133Y-62747088D01*
X157377000Y-62453998D01*
X157377000Y-61738003D01*
X157348133Y-61444913D01*
X157234057Y-61068853D01*
X157048807Y-60722275D01*
X156799503Y-60418497D01*
X156495725Y-60169193D01*
X156149147Y-59983943D01*
X155773088Y-59869867D01*
X155382000Y-59831348D01*
X154990913Y-59869867D01*
X154614854Y-59983943D01*
X154268276Y-60169193D01*
X153964498Y-60418497D01*
X153715193Y-60722275D01*
X153529943Y-61068853D01*
X153415867Y-61444912D01*
X153387000Y-61738002D01*
X147777000Y-61738002D01*
X147748133Y-61444913D01*
X147634057Y-61068853D01*
X147448807Y-60722275D01*
X147199503Y-60418497D01*
X146895725Y-60169193D01*
X146549147Y-59983943D01*
X146173088Y-59869867D01*
X145782000Y-59831348D01*
X145390913Y-59869867D01*
X145014854Y-59983943D01*
X144668276Y-60169193D01*
X144364498Y-60418497D01*
X144115193Y-60722275D01*
X143929943Y-61068853D01*
X143815867Y-61444912D01*
X143787000Y-61738002D01*
X143329500Y-61738002D01*
X143329500Y-59817142D01*
X143642942Y-59503701D01*
X143903989Y-59451775D01*
X144156043Y-59347371D01*
X144377347Y-59199500D01*
X144576971Y-59199500D01*
X144630000Y-59204723D01*
X144683029Y-59199500D01*
X144841619Y-59183880D01*
X145045106Y-59122153D01*
X145232640Y-59021914D01*
X145397015Y-58887015D01*
X145430827Y-58845815D01*
X147591643Y-56685000D01*
X147641335Y-56685000D01*
X147918574Y-56629853D01*
X148179727Y-56521680D01*
X148414759Y-56364637D01*
X148614637Y-56164759D01*
X148771680Y-55929727D01*
X148879853Y-55668574D01*
X148935000Y-55391335D01*
X148935000Y-55108665D01*
X148879853Y-54831426D01*
X148771680Y-54570273D01*
X148614637Y-54335241D01*
X148448057Y-54168661D01*
X148544180Y-54139502D01*
X148654494Y-54080537D01*
X148751185Y-54001185D01*
X148830537Y-53904494D01*
X148889502Y-53794180D01*
X148925812Y-53674482D01*
X148938072Y-53550000D01*
X148935000Y-53035750D01*
X148776250Y-52877000D01*
X147627000Y-52877000D01*
X147627000Y-52897000D01*
X147373000Y-52897000D01*
X147373000Y-52877000D01*
X146223750Y-52877000D01*
X146065000Y-53035750D01*
X146061928Y-53550000D01*
X146074188Y-53674482D01*
X146110498Y-53794180D01*
X146169463Y-53904494D01*
X146248815Y-54001185D01*
X146345506Y-54080537D01*
X146455820Y-54139502D01*
X146551943Y-54168661D01*
X146385363Y-54335241D01*
X146228320Y-54570273D01*
X146120147Y-54831426D01*
X146065000Y-55108665D01*
X146065000Y-55158357D01*
X144260759Y-56962598D01*
X144156043Y-56892629D01*
X143903989Y-56788225D01*
X143636411Y-56735000D01*
X143363589Y-56735000D01*
X143096011Y-56788225D01*
X142843957Y-56892629D01*
X142617114Y-57044201D01*
X142424201Y-57237114D01*
X142385000Y-57295782D01*
X142385000Y-52820512D01*
X152059783Y-52820512D01*
X152101213Y-53100130D01*
X152196397Y-53366292D01*
X152263329Y-53491514D01*
X152507298Y-53563097D01*
X153320395Y-52750000D01*
X153679605Y-52750000D01*
X154492702Y-53563097D01*
X154736671Y-53491514D01*
X154857571Y-53236004D01*
X154926300Y-52961816D01*
X154940217Y-52679488D01*
X154898787Y-52399870D01*
X154803603Y-52133708D01*
X154736671Y-52008486D01*
X154492702Y-51936903D01*
X153679605Y-52750000D01*
X153320395Y-52750000D01*
X152507298Y-51936903D01*
X152263329Y-52008486D01*
X152142429Y-52263996D01*
X152073700Y-52538184D01*
X152059783Y-52820512D01*
X142385000Y-52820512D01*
X142385000Y-51950000D01*
X146061928Y-51950000D01*
X146065000Y-52464250D01*
X146223750Y-52623000D01*
X147373000Y-52623000D01*
X147373000Y-51473750D01*
X147627000Y-51473750D01*
X147627000Y-52623000D01*
X148776250Y-52623000D01*
X148935000Y-52464250D01*
X148938072Y-51950000D01*
X148925812Y-51825518D01*
X148905118Y-51757298D01*
X152686903Y-51757298D01*
X153500000Y-52570395D01*
X154313097Y-51757298D01*
X154241514Y-51513329D01*
X153986004Y-51392429D01*
X153711816Y-51323700D01*
X153429488Y-51309783D01*
X153149870Y-51351213D01*
X152883708Y-51446397D01*
X152758486Y-51513329D01*
X152686903Y-51757298D01*
X148905118Y-51757298D01*
X148889502Y-51705820D01*
X148830537Y-51595506D01*
X148751185Y-51498815D01*
X148654494Y-51419463D01*
X148544180Y-51360498D01*
X148424482Y-51324188D01*
X148300000Y-51311928D01*
X147785750Y-51315000D01*
X147627000Y-51473750D01*
X147373000Y-51473750D01*
X147214250Y-51315000D01*
X146700000Y-51311928D01*
X146575518Y-51324188D01*
X146455820Y-51360498D01*
X146345506Y-51419463D01*
X146248815Y-51498815D01*
X146169463Y-51595506D01*
X146110498Y-51705820D01*
X146074188Y-51825518D01*
X146061928Y-51950000D01*
X142385000Y-51950000D01*
X142385000Y-51771915D01*
X142395506Y-51780537D01*
X142505820Y-51839502D01*
X142625518Y-51875812D01*
X142750000Y-51888072D01*
X144250000Y-51888072D01*
X144374482Y-51875812D01*
X144494180Y-51839502D01*
X144604494Y-51780537D01*
X144701185Y-51701185D01*
X144780537Y-51604494D01*
X144839502Y-51494180D01*
X144875812Y-51374482D01*
X144888072Y-51250000D01*
X144888072Y-49750000D01*
X144875812Y-49625518D01*
X144839502Y-49505820D01*
X144780537Y-49395506D01*
X144701185Y-49298815D01*
X144604494Y-49219463D01*
X144599727Y-49216915D01*
X145291643Y-48525000D01*
X145396260Y-48525000D01*
X145683158Y-48467932D01*
X145953411Y-48355990D01*
X146196632Y-48193475D01*
X146403475Y-47986632D01*
X146525195Y-47804466D01*
X146594822Y-47921355D01*
X146789731Y-48137588D01*
X147023080Y-48311641D01*
X147285901Y-48436825D01*
X147433110Y-48481476D01*
X147663000Y-48360155D01*
X147663000Y-47167000D01*
X147917000Y-47167000D01*
X147917000Y-48360155D01*
X148146890Y-48481476D01*
X148294099Y-48436825D01*
X148556920Y-48311641D01*
X148790269Y-48137588D01*
X148985178Y-47921355D01*
X149060000Y-47795745D01*
X149134822Y-47921355D01*
X149329731Y-48137588D01*
X149563080Y-48311641D01*
X149825901Y-48436825D01*
X149973110Y-48481476D01*
X150203000Y-48360155D01*
X150203000Y-47167000D01*
X150457000Y-47167000D01*
X150457000Y-48360155D01*
X150686890Y-48481476D01*
X150834099Y-48436825D01*
X151096920Y-48311641D01*
X151330269Y-48137588D01*
X151525178Y-47921355D01*
X151600000Y-47795745D01*
X151674822Y-47921355D01*
X151869731Y-48137588D01*
X152103080Y-48311641D01*
X152365901Y-48436825D01*
X152513110Y-48481476D01*
X152743000Y-48360155D01*
X152743000Y-47167000D01*
X150457000Y-47167000D01*
X150203000Y-47167000D01*
X147917000Y-47167000D01*
X147663000Y-47167000D01*
X147643000Y-47167000D01*
X147643000Y-46913000D01*
X147663000Y-46913000D01*
X147663000Y-44627000D01*
X147917000Y-44627000D01*
X147917000Y-46913000D01*
X150203000Y-46913000D01*
X150203000Y-44627000D01*
X150457000Y-44627000D01*
X150457000Y-46913000D01*
X152743000Y-46913000D01*
X152743000Y-44627000D01*
X150457000Y-44627000D01*
X150203000Y-44627000D01*
X147917000Y-44627000D01*
X147663000Y-44627000D01*
X147643000Y-44627000D01*
X147643000Y-44373000D01*
X147663000Y-44373000D01*
X147663000Y-44353000D01*
X147917000Y-44353000D01*
X147917000Y-44373000D01*
G37*
G04 #@! TD.AperFunction*
M02*
