G04 #@! TF.GenerationSoftware,KiCad,Pcbnew,(5.1.10)-1*
G04 #@! TF.CreationDate,2021-10-06T14:43:23-05:00*
G04 #@! TF.ProjectId,Slew Limiter Board,536c6577-204c-4696-9d69-74657220426f,1.0*
G04 #@! TF.SameCoordinates,Original*
G04 #@! TF.FileFunction,Legend,Bot*
G04 #@! TF.FilePolarity,Positive*
%FSLAX46Y46*%
G04 Gerber Fmt 4.6, Leading zero omitted, Abs format (unit mm)*
G04 Created by KiCad (PCBNEW (5.1.10)-1) date 2021-10-06 14:43:23*
%MOMM*%
%LPD*%
G01*
G04 APERTURE LIST*
%ADD10C,0.150000*%
%ADD11C,0.120000*%
%ADD12C,2.130000*%
%ADD13R,1.930000X1.830000*%
%ADD14R,1.800000X1.800000*%
%ADD15C,1.800000*%
%ADD16O,2.720000X3.240000*%
%ADD17O,1.600000X1.600000*%
%ADD18C,1.600000*%
%ADD19O,1.700000X1.700000*%
%ADD20R,1.700000X1.700000*%
%ADD21R,1.500000X1.500000*%
%ADD22O,1.500000X1.500000*%
%ADD23R,1.600000X1.600000*%
%ADD24O,2.400000X1.600000*%
%ADD25R,2.400000X1.600000*%
%ADD26C,3.100000*%
G04 APERTURE END LIST*
D10*
X144097928Y-156515142D02*
X144062214Y-156412464D01*
X144062214Y-156233892D01*
X144097928Y-156158000D01*
X144133642Y-156117821D01*
X144205071Y-156073178D01*
X144276500Y-156064250D01*
X144347928Y-156091035D01*
X144383642Y-156122285D01*
X144419357Y-156189250D01*
X144455071Y-156327642D01*
X144490785Y-156394607D01*
X144526500Y-156425857D01*
X144597928Y-156452642D01*
X144669357Y-156443714D01*
X144740785Y-156399071D01*
X144776500Y-156358892D01*
X144812214Y-156283000D01*
X144812214Y-156104428D01*
X144776500Y-156001750D01*
X144062214Y-155662464D02*
X144097928Y-155729428D01*
X144169357Y-155756214D01*
X144812214Y-155675857D01*
X144097928Y-155086571D02*
X144062214Y-155162464D01*
X144062214Y-155305321D01*
X144097928Y-155372285D01*
X144169357Y-155399071D01*
X144455071Y-155363357D01*
X144526500Y-155318714D01*
X144562214Y-155242821D01*
X144562214Y-155099964D01*
X144526500Y-155033000D01*
X144455071Y-155006214D01*
X144383642Y-155015142D01*
X144312214Y-155381214D01*
X144562214Y-154742821D02*
X144062214Y-154662464D01*
X144419357Y-154474964D01*
X144062214Y-154376750D01*
X144562214Y-154171392D01*
X144062214Y-153019607D02*
X144062214Y-153376750D01*
X144812214Y-153283000D01*
X144062214Y-152769607D02*
X144562214Y-152707107D01*
X144812214Y-152675857D02*
X144776500Y-152716035D01*
X144740785Y-152684785D01*
X144776500Y-152644607D01*
X144812214Y-152675857D01*
X144740785Y-152684785D01*
X144062214Y-152412464D02*
X144562214Y-152349964D01*
X144490785Y-152358892D02*
X144526500Y-152318714D01*
X144562214Y-152242821D01*
X144562214Y-152135678D01*
X144526500Y-152068714D01*
X144455071Y-152041928D01*
X144062214Y-152091035D01*
X144455071Y-152041928D02*
X144526500Y-151997285D01*
X144562214Y-151921392D01*
X144562214Y-151814250D01*
X144526500Y-151747285D01*
X144455071Y-151720500D01*
X144062214Y-151769607D01*
X144062214Y-151412464D02*
X144562214Y-151349964D01*
X144812214Y-151318714D02*
X144776500Y-151358892D01*
X144740785Y-151327642D01*
X144776500Y-151287464D01*
X144812214Y-151318714D01*
X144740785Y-151327642D01*
X144562214Y-151099964D02*
X144562214Y-150814250D01*
X144812214Y-150961571D02*
X144169357Y-151041928D01*
X144097928Y-151015142D01*
X144062214Y-150948178D01*
X144062214Y-150876750D01*
X144097928Y-150336571D02*
X144062214Y-150412464D01*
X144062214Y-150555321D01*
X144097928Y-150622285D01*
X144169357Y-150649071D01*
X144455071Y-150613357D01*
X144526500Y-150568714D01*
X144562214Y-150492821D01*
X144562214Y-150349964D01*
X144526500Y-150283000D01*
X144455071Y-150256214D01*
X144383642Y-150265142D01*
X144312214Y-150631214D01*
X144062214Y-149983892D02*
X144562214Y-149921392D01*
X144419357Y-149939250D02*
X144490785Y-149894607D01*
X144526500Y-149854428D01*
X144562214Y-149778535D01*
X144562214Y-149707107D01*
X144562214Y-148957107D02*
X144062214Y-148841035D01*
X144562214Y-148599964D01*
X144062214Y-147983892D02*
X144062214Y-148412464D01*
X144062214Y-148198178D02*
X144812214Y-148104428D01*
X144705071Y-148189250D01*
X144633642Y-148269607D01*
X144597928Y-148345500D01*
X144133642Y-147653535D02*
X144097928Y-147622285D01*
X144062214Y-147662464D01*
X144097928Y-147693714D01*
X144133642Y-147653535D01*
X144062214Y-147662464D01*
X144812214Y-147068714D02*
X144812214Y-146997285D01*
X144776500Y-146930321D01*
X144740785Y-146899071D01*
X144669357Y-146872285D01*
X144526500Y-146854428D01*
X144347928Y-146876750D01*
X144205071Y-146930321D01*
X144133642Y-146974964D01*
X144097928Y-147015142D01*
X144062214Y-147091035D01*
X144062214Y-147162464D01*
X144097928Y-147229428D01*
X144133642Y-147260678D01*
X144205071Y-147287464D01*
X144347928Y-147305321D01*
X144526500Y-147283000D01*
X144669357Y-147229428D01*
X144740785Y-147184785D01*
X144776500Y-147144607D01*
X144812214Y-147068714D01*
X143180071Y-153595500D02*
X143144357Y-153492821D01*
X143108642Y-153461571D01*
X143037214Y-153434785D01*
X142930071Y-153448178D01*
X142858642Y-153492821D01*
X142822928Y-153533000D01*
X142787214Y-153608892D01*
X142787214Y-153894607D01*
X143537214Y-153800857D01*
X143537214Y-153550857D01*
X143501500Y-153483892D01*
X143465785Y-153452642D01*
X143394357Y-153425857D01*
X143322928Y-153434785D01*
X143251500Y-153479428D01*
X143215785Y-153519607D01*
X143180071Y-153595500D01*
X143180071Y-153845500D01*
X142822928Y-152854428D02*
X142787214Y-152930321D01*
X142787214Y-153073178D01*
X142822928Y-153140142D01*
X142894357Y-153166928D01*
X143180071Y-153131214D01*
X143251500Y-153086571D01*
X143287214Y-153010678D01*
X143287214Y-152867821D01*
X143251500Y-152800857D01*
X143180071Y-152774071D01*
X143108642Y-152783000D01*
X143037214Y-153149071D01*
X142787214Y-152394607D02*
X142822928Y-152461571D01*
X142894357Y-152488357D01*
X143537214Y-152408000D01*
X142787214Y-152001750D02*
X142822928Y-152068714D01*
X142894357Y-152095500D01*
X143537214Y-152015142D01*
X142787214Y-150787464D02*
X142787214Y-151144607D01*
X143537214Y-151050857D01*
X142787214Y-150216035D02*
X143180071Y-150166928D01*
X143251500Y-150193714D01*
X143287214Y-150260678D01*
X143287214Y-150403535D01*
X143251500Y-150479428D01*
X142822928Y-150211571D02*
X142787214Y-150287464D01*
X142787214Y-150466035D01*
X142822928Y-150533000D01*
X142894357Y-150559785D01*
X142965785Y-150550857D01*
X143037214Y-150506214D01*
X143072928Y-150430321D01*
X143072928Y-150251750D01*
X143108642Y-150175857D01*
X142787214Y-149858892D02*
X143537214Y-149765142D01*
X143251500Y-149800857D02*
X143287214Y-149724964D01*
X143287214Y-149582107D01*
X143251500Y-149515142D01*
X143215785Y-149483892D01*
X143144357Y-149457107D01*
X142930071Y-149483892D01*
X142858642Y-149528535D01*
X142822928Y-149568714D01*
X142787214Y-149644607D01*
X142787214Y-149787464D01*
X142822928Y-149854428D01*
X143071428Y-43785714D02*
X143071428Y-44547619D01*
X143452380Y-45547619D02*
X143452380Y-44976190D01*
X143452380Y-45261904D02*
X142452380Y-45261904D01*
X142595238Y-45166666D01*
X142690476Y-45071428D01*
X142738095Y-44976190D01*
X142547619Y-45928571D02*
X142500000Y-45976190D01*
X142452380Y-46071428D01*
X142452380Y-46309523D01*
X142500000Y-46404761D01*
X142547619Y-46452380D01*
X142642857Y-46500000D01*
X142738095Y-46500000D01*
X142880952Y-46452380D01*
X143452380Y-45880952D01*
X143452380Y-46500000D01*
X142785714Y-46833333D02*
X143452380Y-47071428D01*
X142785714Y-47309523D01*
D11*
X151130000Y-97810000D02*
X153870000Y-97810000D01*
X153870000Y-97810000D02*
X153870000Y-104350000D01*
X153870000Y-104350000D02*
X151130000Y-104350000D01*
X151130000Y-104350000D02*
X151130000Y-97810000D01*
X152500000Y-97040000D02*
X152500000Y-97810000D01*
X152500000Y-105120000D02*
X152500000Y-104350000D01*
X151630000Y-74120000D02*
X156870000Y-74120000D01*
X151630000Y-71380000D02*
X156870000Y-71380000D01*
X151630000Y-74120000D02*
X151630000Y-73805000D01*
X151630000Y-71695000D02*
X151630000Y-71380000D01*
X156870000Y-74120000D02*
X156870000Y-73805000D01*
X156870000Y-71695000D02*
X156870000Y-71380000D01*
X143880000Y-74120000D02*
X149120000Y-74120000D01*
X143880000Y-71380000D02*
X149120000Y-71380000D01*
X143880000Y-74120000D02*
X143880000Y-73805000D01*
X143880000Y-71695000D02*
X143880000Y-71380000D01*
X149120000Y-74120000D02*
X149120000Y-73805000D01*
X149120000Y-71695000D02*
X149120000Y-71380000D01*
X143920000Y-43170000D02*
X143920000Y-44500000D01*
X145250000Y-43170000D02*
X143920000Y-43170000D01*
X143920000Y-45770000D02*
X143920000Y-48370000D01*
X146520000Y-45770000D02*
X143920000Y-45770000D01*
X146520000Y-43170000D02*
X146520000Y-45770000D01*
X143920000Y-48370000D02*
X156740000Y-48370000D01*
X146520000Y-43170000D02*
X156740000Y-43170000D01*
X156740000Y-43170000D02*
X156740000Y-48370000D01*
X156250000Y-130380000D02*
X156250000Y-131150000D01*
X156250000Y-138460000D02*
X156250000Y-137690000D01*
X157620000Y-131150000D02*
X157620000Y-137690000D01*
X154880000Y-131150000D02*
X157620000Y-131150000D01*
X154880000Y-137690000D02*
X154880000Y-131150000D01*
X157620000Y-137690000D02*
X154880000Y-137690000D01*
X156750000Y-95540000D02*
X156750000Y-96310000D01*
X156750000Y-103620000D02*
X156750000Y-102850000D01*
X158120000Y-96310000D02*
X158120000Y-102850000D01*
X155380000Y-96310000D02*
X158120000Y-96310000D01*
X155380000Y-102850000D02*
X155380000Y-96310000D01*
X158120000Y-102850000D02*
X155380000Y-102850000D01*
X148000000Y-96880000D02*
X148000000Y-97650000D01*
X148000000Y-104960000D02*
X148000000Y-104190000D01*
X149370000Y-97650000D02*
X149370000Y-104190000D01*
X146630000Y-97650000D02*
X149370000Y-97650000D01*
X146630000Y-104190000D02*
X146630000Y-97650000D01*
X149370000Y-104190000D02*
X146630000Y-104190000D01*
X144000000Y-95630000D02*
X144000000Y-96400000D01*
X144000000Y-103710000D02*
X144000000Y-102940000D01*
X145370000Y-96400000D02*
X145370000Y-102940000D01*
X142630000Y-96400000D02*
X145370000Y-96400000D01*
X142630000Y-102940000D02*
X142630000Y-96400000D01*
X145370000Y-102940000D02*
X142630000Y-102940000D01*
X158420000Y-55950000D02*
X156580000Y-55950000D01*
X156580000Y-55950000D02*
X156580000Y-52670000D01*
X156580000Y-52670000D02*
X158420000Y-52670000D01*
X158420000Y-52670000D02*
X158420000Y-55950000D01*
X157500000Y-57130000D02*
X157500000Y-55950000D01*
X157500000Y-51490000D02*
X157500000Y-52670000D01*
X158420000Y-55374000D02*
X156580000Y-55374000D01*
X158420000Y-55254000D02*
X156580000Y-55254000D01*
X158420000Y-55494000D02*
X156580000Y-55494000D01*
X142580000Y-52670000D02*
X144420000Y-52670000D01*
X144420000Y-52670000D02*
X144420000Y-55950000D01*
X144420000Y-55950000D02*
X142580000Y-55950000D01*
X142580000Y-55950000D02*
X142580000Y-52670000D01*
X143500000Y-51490000D02*
X143500000Y-52670000D01*
X143500000Y-57130000D02*
X143500000Y-55950000D01*
X142580000Y-53246000D02*
X144420000Y-53246000D01*
X142580000Y-53366000D02*
X144420000Y-53366000D01*
X142580000Y-53126000D02*
X144420000Y-53126000D01*
X144830000Y-86626000D02*
X146670000Y-86626000D01*
X144830000Y-86866000D02*
X146670000Y-86866000D01*
X144830000Y-86746000D02*
X146670000Y-86746000D01*
X145750000Y-90630000D02*
X145750000Y-89450000D01*
X145750000Y-84990000D02*
X145750000Y-86170000D01*
X144830000Y-89450000D02*
X144830000Y-86170000D01*
X146670000Y-89450000D02*
X144830000Y-89450000D01*
X146670000Y-86170000D02*
X146670000Y-89450000D01*
X144830000Y-86170000D02*
X146670000Y-86170000D01*
X156170000Y-88874000D02*
X154330000Y-88874000D01*
X156170000Y-88634000D02*
X154330000Y-88634000D01*
X156170000Y-88754000D02*
X154330000Y-88754000D01*
X155250000Y-84870000D02*
X155250000Y-86050000D01*
X155250000Y-90510000D02*
X155250000Y-89330000D01*
X156170000Y-86050000D02*
X156170000Y-89330000D01*
X154330000Y-86050000D02*
X156170000Y-86050000D01*
X154330000Y-89330000D02*
X154330000Y-86050000D01*
X156170000Y-89330000D02*
X154330000Y-89330000D01*
X156120000Y-54000000D02*
G75*
G03*
X156120000Y-54000000I-2620000J0D01*
G01*
X156080000Y-54000000D02*
X150920000Y-54000000D01*
X156080000Y-53960000D02*
X150920000Y-53960000D01*
X156079000Y-53920000D02*
X150921000Y-53920000D01*
X156078000Y-53880000D02*
X150922000Y-53880000D01*
X156076000Y-53840000D02*
X150924000Y-53840000D01*
X156073000Y-53800000D02*
X150927000Y-53800000D01*
X156069000Y-53760000D02*
X154540000Y-53760000D01*
X152460000Y-53760000D02*
X150931000Y-53760000D01*
X156065000Y-53720000D02*
X154540000Y-53720000D01*
X152460000Y-53720000D02*
X150935000Y-53720000D01*
X156061000Y-53680000D02*
X154540000Y-53680000D01*
X152460000Y-53680000D02*
X150939000Y-53680000D01*
X156056000Y-53640000D02*
X154540000Y-53640000D01*
X152460000Y-53640000D02*
X150944000Y-53640000D01*
X156050000Y-53600000D02*
X154540000Y-53600000D01*
X152460000Y-53600000D02*
X150950000Y-53600000D01*
X156043000Y-53560000D02*
X154540000Y-53560000D01*
X152460000Y-53560000D02*
X150957000Y-53560000D01*
X156036000Y-53520000D02*
X154540000Y-53520000D01*
X152460000Y-53520000D02*
X150964000Y-53520000D01*
X156028000Y-53480000D02*
X154540000Y-53480000D01*
X152460000Y-53480000D02*
X150972000Y-53480000D01*
X156020000Y-53440000D02*
X154540000Y-53440000D01*
X152460000Y-53440000D02*
X150980000Y-53440000D01*
X156011000Y-53400000D02*
X154540000Y-53400000D01*
X152460000Y-53400000D02*
X150989000Y-53400000D01*
X156001000Y-53360000D02*
X154540000Y-53360000D01*
X152460000Y-53360000D02*
X150999000Y-53360000D01*
X155991000Y-53320000D02*
X154540000Y-53320000D01*
X152460000Y-53320000D02*
X151009000Y-53320000D01*
X155980000Y-53279000D02*
X154540000Y-53279000D01*
X152460000Y-53279000D02*
X151020000Y-53279000D01*
X155968000Y-53239000D02*
X154540000Y-53239000D01*
X152460000Y-53239000D02*
X151032000Y-53239000D01*
X155955000Y-53199000D02*
X154540000Y-53199000D01*
X152460000Y-53199000D02*
X151045000Y-53199000D01*
X155942000Y-53159000D02*
X154540000Y-53159000D01*
X152460000Y-53159000D02*
X151058000Y-53159000D01*
X155928000Y-53119000D02*
X154540000Y-53119000D01*
X152460000Y-53119000D02*
X151072000Y-53119000D01*
X155914000Y-53079000D02*
X154540000Y-53079000D01*
X152460000Y-53079000D02*
X151086000Y-53079000D01*
X155898000Y-53039000D02*
X154540000Y-53039000D01*
X152460000Y-53039000D02*
X151102000Y-53039000D01*
X155882000Y-52999000D02*
X154540000Y-52999000D01*
X152460000Y-52999000D02*
X151118000Y-52999000D01*
X155865000Y-52959000D02*
X154540000Y-52959000D01*
X152460000Y-52959000D02*
X151135000Y-52959000D01*
X155848000Y-52919000D02*
X154540000Y-52919000D01*
X152460000Y-52919000D02*
X151152000Y-52919000D01*
X155829000Y-52879000D02*
X154540000Y-52879000D01*
X152460000Y-52879000D02*
X151171000Y-52879000D01*
X155810000Y-52839000D02*
X154540000Y-52839000D01*
X152460000Y-52839000D02*
X151190000Y-52839000D01*
X155790000Y-52799000D02*
X154540000Y-52799000D01*
X152460000Y-52799000D02*
X151210000Y-52799000D01*
X155768000Y-52759000D02*
X154540000Y-52759000D01*
X152460000Y-52759000D02*
X151232000Y-52759000D01*
X155747000Y-52719000D02*
X154540000Y-52719000D01*
X152460000Y-52719000D02*
X151253000Y-52719000D01*
X155724000Y-52679000D02*
X154540000Y-52679000D01*
X152460000Y-52679000D02*
X151276000Y-52679000D01*
X155700000Y-52639000D02*
X154540000Y-52639000D01*
X152460000Y-52639000D02*
X151300000Y-52639000D01*
X155675000Y-52599000D02*
X154540000Y-52599000D01*
X152460000Y-52599000D02*
X151325000Y-52599000D01*
X155649000Y-52559000D02*
X154540000Y-52559000D01*
X152460000Y-52559000D02*
X151351000Y-52559000D01*
X155622000Y-52519000D02*
X154540000Y-52519000D01*
X152460000Y-52519000D02*
X151378000Y-52519000D01*
X155595000Y-52479000D02*
X154540000Y-52479000D01*
X152460000Y-52479000D02*
X151405000Y-52479000D01*
X155565000Y-52439000D02*
X154540000Y-52439000D01*
X152460000Y-52439000D02*
X151435000Y-52439000D01*
X155535000Y-52399000D02*
X154540000Y-52399000D01*
X152460000Y-52399000D02*
X151465000Y-52399000D01*
X155504000Y-52359000D02*
X154540000Y-52359000D01*
X152460000Y-52359000D02*
X151496000Y-52359000D01*
X155471000Y-52319000D02*
X154540000Y-52319000D01*
X152460000Y-52319000D02*
X151529000Y-52319000D01*
X155437000Y-52279000D02*
X154540000Y-52279000D01*
X152460000Y-52279000D02*
X151563000Y-52279000D01*
X155401000Y-52239000D02*
X154540000Y-52239000D01*
X152460000Y-52239000D02*
X151599000Y-52239000D01*
X155364000Y-52199000D02*
X154540000Y-52199000D01*
X152460000Y-52199000D02*
X151636000Y-52199000D01*
X155326000Y-52159000D02*
X154540000Y-52159000D01*
X152460000Y-52159000D02*
X151674000Y-52159000D01*
X155285000Y-52119000D02*
X154540000Y-52119000D01*
X152460000Y-52119000D02*
X151715000Y-52119000D01*
X155243000Y-52079000D02*
X154540000Y-52079000D01*
X152460000Y-52079000D02*
X151757000Y-52079000D01*
X155199000Y-52039000D02*
X154540000Y-52039000D01*
X152460000Y-52039000D02*
X151801000Y-52039000D01*
X155153000Y-51999000D02*
X154540000Y-51999000D01*
X152460000Y-51999000D02*
X151847000Y-51999000D01*
X155105000Y-51959000D02*
X154540000Y-51959000D01*
X152460000Y-51959000D02*
X151895000Y-51959000D01*
X155054000Y-51919000D02*
X154540000Y-51919000D01*
X152460000Y-51919000D02*
X151946000Y-51919000D01*
X155000000Y-51879000D02*
X154540000Y-51879000D01*
X152460000Y-51879000D02*
X152000000Y-51879000D01*
X154943000Y-51839000D02*
X154540000Y-51839000D01*
X152460000Y-51839000D02*
X152057000Y-51839000D01*
X154883000Y-51799000D02*
X154540000Y-51799000D01*
X152460000Y-51799000D02*
X152117000Y-51799000D01*
X154819000Y-51759000D02*
X154540000Y-51759000D01*
X152460000Y-51759000D02*
X152181000Y-51759000D01*
X154751000Y-51719000D02*
X154540000Y-51719000D01*
X152460000Y-51719000D02*
X152249000Y-51719000D01*
X154678000Y-51679000D02*
X152322000Y-51679000D01*
X154598000Y-51639000D02*
X152402000Y-51639000D01*
X154511000Y-51599000D02*
X152489000Y-51599000D01*
X154415000Y-51559000D02*
X152585000Y-51559000D01*
X154305000Y-51519000D02*
X152695000Y-51519000D01*
X154177000Y-51479000D02*
X152823000Y-51479000D01*
X154018000Y-51439000D02*
X152982000Y-51439000D01*
X153784000Y-51399000D02*
X153216000Y-51399000D01*
X154975000Y-56804775D02*
X154975000Y-56304775D01*
X155225000Y-56554775D02*
X154725000Y-56554775D01*
X150120000Y-54000000D02*
G75*
G03*
X150120000Y-54000000I-2620000J0D01*
G01*
X144920000Y-54000000D02*
X150080000Y-54000000D01*
X144920000Y-54040000D02*
X150080000Y-54040000D01*
X144921000Y-54080000D02*
X150079000Y-54080000D01*
X144922000Y-54120000D02*
X150078000Y-54120000D01*
X144924000Y-54160000D02*
X150076000Y-54160000D01*
X144927000Y-54200000D02*
X150073000Y-54200000D01*
X144931000Y-54240000D02*
X146460000Y-54240000D01*
X148540000Y-54240000D02*
X150069000Y-54240000D01*
X144935000Y-54280000D02*
X146460000Y-54280000D01*
X148540000Y-54280000D02*
X150065000Y-54280000D01*
X144939000Y-54320000D02*
X146460000Y-54320000D01*
X148540000Y-54320000D02*
X150061000Y-54320000D01*
X144944000Y-54360000D02*
X146460000Y-54360000D01*
X148540000Y-54360000D02*
X150056000Y-54360000D01*
X144950000Y-54400000D02*
X146460000Y-54400000D01*
X148540000Y-54400000D02*
X150050000Y-54400000D01*
X144957000Y-54440000D02*
X146460000Y-54440000D01*
X148540000Y-54440000D02*
X150043000Y-54440000D01*
X144964000Y-54480000D02*
X146460000Y-54480000D01*
X148540000Y-54480000D02*
X150036000Y-54480000D01*
X144972000Y-54520000D02*
X146460000Y-54520000D01*
X148540000Y-54520000D02*
X150028000Y-54520000D01*
X144980000Y-54560000D02*
X146460000Y-54560000D01*
X148540000Y-54560000D02*
X150020000Y-54560000D01*
X144989000Y-54600000D02*
X146460000Y-54600000D01*
X148540000Y-54600000D02*
X150011000Y-54600000D01*
X144999000Y-54640000D02*
X146460000Y-54640000D01*
X148540000Y-54640000D02*
X150001000Y-54640000D01*
X145009000Y-54680000D02*
X146460000Y-54680000D01*
X148540000Y-54680000D02*
X149991000Y-54680000D01*
X145020000Y-54721000D02*
X146460000Y-54721000D01*
X148540000Y-54721000D02*
X149980000Y-54721000D01*
X145032000Y-54761000D02*
X146460000Y-54761000D01*
X148540000Y-54761000D02*
X149968000Y-54761000D01*
X145045000Y-54801000D02*
X146460000Y-54801000D01*
X148540000Y-54801000D02*
X149955000Y-54801000D01*
X145058000Y-54841000D02*
X146460000Y-54841000D01*
X148540000Y-54841000D02*
X149942000Y-54841000D01*
X145072000Y-54881000D02*
X146460000Y-54881000D01*
X148540000Y-54881000D02*
X149928000Y-54881000D01*
X145086000Y-54921000D02*
X146460000Y-54921000D01*
X148540000Y-54921000D02*
X149914000Y-54921000D01*
X145102000Y-54961000D02*
X146460000Y-54961000D01*
X148540000Y-54961000D02*
X149898000Y-54961000D01*
X145118000Y-55001000D02*
X146460000Y-55001000D01*
X148540000Y-55001000D02*
X149882000Y-55001000D01*
X145135000Y-55041000D02*
X146460000Y-55041000D01*
X148540000Y-55041000D02*
X149865000Y-55041000D01*
X145152000Y-55081000D02*
X146460000Y-55081000D01*
X148540000Y-55081000D02*
X149848000Y-55081000D01*
X145171000Y-55121000D02*
X146460000Y-55121000D01*
X148540000Y-55121000D02*
X149829000Y-55121000D01*
X145190000Y-55161000D02*
X146460000Y-55161000D01*
X148540000Y-55161000D02*
X149810000Y-55161000D01*
X145210000Y-55201000D02*
X146460000Y-55201000D01*
X148540000Y-55201000D02*
X149790000Y-55201000D01*
X145232000Y-55241000D02*
X146460000Y-55241000D01*
X148540000Y-55241000D02*
X149768000Y-55241000D01*
X145253000Y-55281000D02*
X146460000Y-55281000D01*
X148540000Y-55281000D02*
X149747000Y-55281000D01*
X145276000Y-55321000D02*
X146460000Y-55321000D01*
X148540000Y-55321000D02*
X149724000Y-55321000D01*
X145300000Y-55361000D02*
X146460000Y-55361000D01*
X148540000Y-55361000D02*
X149700000Y-55361000D01*
X145325000Y-55401000D02*
X146460000Y-55401000D01*
X148540000Y-55401000D02*
X149675000Y-55401000D01*
X145351000Y-55441000D02*
X146460000Y-55441000D01*
X148540000Y-55441000D02*
X149649000Y-55441000D01*
X145378000Y-55481000D02*
X146460000Y-55481000D01*
X148540000Y-55481000D02*
X149622000Y-55481000D01*
X145405000Y-55521000D02*
X146460000Y-55521000D01*
X148540000Y-55521000D02*
X149595000Y-55521000D01*
X145435000Y-55561000D02*
X146460000Y-55561000D01*
X148540000Y-55561000D02*
X149565000Y-55561000D01*
X145465000Y-55601000D02*
X146460000Y-55601000D01*
X148540000Y-55601000D02*
X149535000Y-55601000D01*
X145496000Y-55641000D02*
X146460000Y-55641000D01*
X148540000Y-55641000D02*
X149504000Y-55641000D01*
X145529000Y-55681000D02*
X146460000Y-55681000D01*
X148540000Y-55681000D02*
X149471000Y-55681000D01*
X145563000Y-55721000D02*
X146460000Y-55721000D01*
X148540000Y-55721000D02*
X149437000Y-55721000D01*
X145599000Y-55761000D02*
X146460000Y-55761000D01*
X148540000Y-55761000D02*
X149401000Y-55761000D01*
X145636000Y-55801000D02*
X146460000Y-55801000D01*
X148540000Y-55801000D02*
X149364000Y-55801000D01*
X145674000Y-55841000D02*
X146460000Y-55841000D01*
X148540000Y-55841000D02*
X149326000Y-55841000D01*
X145715000Y-55881000D02*
X146460000Y-55881000D01*
X148540000Y-55881000D02*
X149285000Y-55881000D01*
X145757000Y-55921000D02*
X146460000Y-55921000D01*
X148540000Y-55921000D02*
X149243000Y-55921000D01*
X145801000Y-55961000D02*
X146460000Y-55961000D01*
X148540000Y-55961000D02*
X149199000Y-55961000D01*
X145847000Y-56001000D02*
X146460000Y-56001000D01*
X148540000Y-56001000D02*
X149153000Y-56001000D01*
X145895000Y-56041000D02*
X146460000Y-56041000D01*
X148540000Y-56041000D02*
X149105000Y-56041000D01*
X145946000Y-56081000D02*
X146460000Y-56081000D01*
X148540000Y-56081000D02*
X149054000Y-56081000D01*
X146000000Y-56121000D02*
X146460000Y-56121000D01*
X148540000Y-56121000D02*
X149000000Y-56121000D01*
X146057000Y-56161000D02*
X146460000Y-56161000D01*
X148540000Y-56161000D02*
X148943000Y-56161000D01*
X146117000Y-56201000D02*
X146460000Y-56201000D01*
X148540000Y-56201000D02*
X148883000Y-56201000D01*
X146181000Y-56241000D02*
X146460000Y-56241000D01*
X148540000Y-56241000D02*
X148819000Y-56241000D01*
X146249000Y-56281000D02*
X146460000Y-56281000D01*
X148540000Y-56281000D02*
X148751000Y-56281000D01*
X146322000Y-56321000D02*
X148678000Y-56321000D01*
X146402000Y-56361000D02*
X148598000Y-56361000D01*
X146489000Y-56401000D02*
X148511000Y-56401000D01*
X146585000Y-56441000D02*
X148415000Y-56441000D01*
X146695000Y-56481000D02*
X148305000Y-56481000D01*
X146823000Y-56521000D02*
X148177000Y-56521000D01*
X146982000Y-56561000D02*
X148018000Y-56561000D01*
X147216000Y-56601000D02*
X147784000Y-56601000D01*
X146025000Y-51195225D02*
X146025000Y-51695225D01*
X145775000Y-51445225D02*
X146275000Y-51445225D01*
X143275000Y-121445225D02*
X143775000Y-121445225D01*
X143525000Y-121195225D02*
X143525000Y-121695225D01*
X144716000Y-126601000D02*
X145284000Y-126601000D01*
X144482000Y-126561000D02*
X145518000Y-126561000D01*
X144323000Y-126521000D02*
X145677000Y-126521000D01*
X144195000Y-126481000D02*
X145805000Y-126481000D01*
X144085000Y-126441000D02*
X145915000Y-126441000D01*
X143989000Y-126401000D02*
X146011000Y-126401000D01*
X143902000Y-126361000D02*
X146098000Y-126361000D01*
X143822000Y-126321000D02*
X146178000Y-126321000D01*
X146040000Y-126281000D02*
X146251000Y-126281000D01*
X143749000Y-126281000D02*
X143960000Y-126281000D01*
X146040000Y-126241000D02*
X146319000Y-126241000D01*
X143681000Y-126241000D02*
X143960000Y-126241000D01*
X146040000Y-126201000D02*
X146383000Y-126201000D01*
X143617000Y-126201000D02*
X143960000Y-126201000D01*
X146040000Y-126161000D02*
X146443000Y-126161000D01*
X143557000Y-126161000D02*
X143960000Y-126161000D01*
X146040000Y-126121000D02*
X146500000Y-126121000D01*
X143500000Y-126121000D02*
X143960000Y-126121000D01*
X146040000Y-126081000D02*
X146554000Y-126081000D01*
X143446000Y-126081000D02*
X143960000Y-126081000D01*
X146040000Y-126041000D02*
X146605000Y-126041000D01*
X143395000Y-126041000D02*
X143960000Y-126041000D01*
X146040000Y-126001000D02*
X146653000Y-126001000D01*
X143347000Y-126001000D02*
X143960000Y-126001000D01*
X146040000Y-125961000D02*
X146699000Y-125961000D01*
X143301000Y-125961000D02*
X143960000Y-125961000D01*
X146040000Y-125921000D02*
X146743000Y-125921000D01*
X143257000Y-125921000D02*
X143960000Y-125921000D01*
X146040000Y-125881000D02*
X146785000Y-125881000D01*
X143215000Y-125881000D02*
X143960000Y-125881000D01*
X146040000Y-125841000D02*
X146826000Y-125841000D01*
X143174000Y-125841000D02*
X143960000Y-125841000D01*
X146040000Y-125801000D02*
X146864000Y-125801000D01*
X143136000Y-125801000D02*
X143960000Y-125801000D01*
X146040000Y-125761000D02*
X146901000Y-125761000D01*
X143099000Y-125761000D02*
X143960000Y-125761000D01*
X146040000Y-125721000D02*
X146937000Y-125721000D01*
X143063000Y-125721000D02*
X143960000Y-125721000D01*
X146040000Y-125681000D02*
X146971000Y-125681000D01*
X143029000Y-125681000D02*
X143960000Y-125681000D01*
X146040000Y-125641000D02*
X147004000Y-125641000D01*
X142996000Y-125641000D02*
X143960000Y-125641000D01*
X146040000Y-125601000D02*
X147035000Y-125601000D01*
X142965000Y-125601000D02*
X143960000Y-125601000D01*
X146040000Y-125561000D02*
X147065000Y-125561000D01*
X142935000Y-125561000D02*
X143960000Y-125561000D01*
X146040000Y-125521000D02*
X147095000Y-125521000D01*
X142905000Y-125521000D02*
X143960000Y-125521000D01*
X146040000Y-125481000D02*
X147122000Y-125481000D01*
X142878000Y-125481000D02*
X143960000Y-125481000D01*
X146040000Y-125441000D02*
X147149000Y-125441000D01*
X142851000Y-125441000D02*
X143960000Y-125441000D01*
X146040000Y-125401000D02*
X147175000Y-125401000D01*
X142825000Y-125401000D02*
X143960000Y-125401000D01*
X146040000Y-125361000D02*
X147200000Y-125361000D01*
X142800000Y-125361000D02*
X143960000Y-125361000D01*
X146040000Y-125321000D02*
X147224000Y-125321000D01*
X142776000Y-125321000D02*
X143960000Y-125321000D01*
X146040000Y-125281000D02*
X147247000Y-125281000D01*
X142753000Y-125281000D02*
X143960000Y-125281000D01*
X146040000Y-125241000D02*
X147268000Y-125241000D01*
X142732000Y-125241000D02*
X143960000Y-125241000D01*
X146040000Y-125201000D02*
X147290000Y-125201000D01*
X142710000Y-125201000D02*
X143960000Y-125201000D01*
X146040000Y-125161000D02*
X147310000Y-125161000D01*
X142690000Y-125161000D02*
X143960000Y-125161000D01*
X146040000Y-125121000D02*
X147329000Y-125121000D01*
X142671000Y-125121000D02*
X143960000Y-125121000D01*
X146040000Y-125081000D02*
X147348000Y-125081000D01*
X142652000Y-125081000D02*
X143960000Y-125081000D01*
X146040000Y-125041000D02*
X147365000Y-125041000D01*
X142635000Y-125041000D02*
X143960000Y-125041000D01*
X146040000Y-125001000D02*
X147382000Y-125001000D01*
X142618000Y-125001000D02*
X143960000Y-125001000D01*
X146040000Y-124961000D02*
X147398000Y-124961000D01*
X142602000Y-124961000D02*
X143960000Y-124961000D01*
X146040000Y-124921000D02*
X147414000Y-124921000D01*
X142586000Y-124921000D02*
X143960000Y-124921000D01*
X146040000Y-124881000D02*
X147428000Y-124881000D01*
X142572000Y-124881000D02*
X143960000Y-124881000D01*
X146040000Y-124841000D02*
X147442000Y-124841000D01*
X142558000Y-124841000D02*
X143960000Y-124841000D01*
X146040000Y-124801000D02*
X147455000Y-124801000D01*
X142545000Y-124801000D02*
X143960000Y-124801000D01*
X146040000Y-124761000D02*
X147468000Y-124761000D01*
X142532000Y-124761000D02*
X143960000Y-124761000D01*
X146040000Y-124721000D02*
X147480000Y-124721000D01*
X142520000Y-124721000D02*
X143960000Y-124721000D01*
X146040000Y-124680000D02*
X147491000Y-124680000D01*
X142509000Y-124680000D02*
X143960000Y-124680000D01*
X146040000Y-124640000D02*
X147501000Y-124640000D01*
X142499000Y-124640000D02*
X143960000Y-124640000D01*
X146040000Y-124600000D02*
X147511000Y-124600000D01*
X142489000Y-124600000D02*
X143960000Y-124600000D01*
X146040000Y-124560000D02*
X147520000Y-124560000D01*
X142480000Y-124560000D02*
X143960000Y-124560000D01*
X146040000Y-124520000D02*
X147528000Y-124520000D01*
X142472000Y-124520000D02*
X143960000Y-124520000D01*
X146040000Y-124480000D02*
X147536000Y-124480000D01*
X142464000Y-124480000D02*
X143960000Y-124480000D01*
X146040000Y-124440000D02*
X147543000Y-124440000D01*
X142457000Y-124440000D02*
X143960000Y-124440000D01*
X146040000Y-124400000D02*
X147550000Y-124400000D01*
X142450000Y-124400000D02*
X143960000Y-124400000D01*
X146040000Y-124360000D02*
X147556000Y-124360000D01*
X142444000Y-124360000D02*
X143960000Y-124360000D01*
X146040000Y-124320000D02*
X147561000Y-124320000D01*
X142439000Y-124320000D02*
X143960000Y-124320000D01*
X146040000Y-124280000D02*
X147565000Y-124280000D01*
X142435000Y-124280000D02*
X143960000Y-124280000D01*
X146040000Y-124240000D02*
X147569000Y-124240000D01*
X142431000Y-124240000D02*
X143960000Y-124240000D01*
X142427000Y-124200000D02*
X147573000Y-124200000D01*
X142424000Y-124160000D02*
X147576000Y-124160000D01*
X142422000Y-124120000D02*
X147578000Y-124120000D01*
X142421000Y-124080000D02*
X147579000Y-124080000D01*
X142420000Y-124040000D02*
X147580000Y-124040000D01*
X142420000Y-124000000D02*
X147580000Y-124000000D01*
X147620000Y-124000000D02*
G75*
G03*
X147620000Y-124000000I-2620000J0D01*
G01*
X154275000Y-121445225D02*
X154775000Y-121445225D01*
X154525000Y-121195225D02*
X154525000Y-121695225D01*
X155716000Y-126601000D02*
X156284000Y-126601000D01*
X155482000Y-126561000D02*
X156518000Y-126561000D01*
X155323000Y-126521000D02*
X156677000Y-126521000D01*
X155195000Y-126481000D02*
X156805000Y-126481000D01*
X155085000Y-126441000D02*
X156915000Y-126441000D01*
X154989000Y-126401000D02*
X157011000Y-126401000D01*
X154902000Y-126361000D02*
X157098000Y-126361000D01*
X154822000Y-126321000D02*
X157178000Y-126321000D01*
X157040000Y-126281000D02*
X157251000Y-126281000D01*
X154749000Y-126281000D02*
X154960000Y-126281000D01*
X157040000Y-126241000D02*
X157319000Y-126241000D01*
X154681000Y-126241000D02*
X154960000Y-126241000D01*
X157040000Y-126201000D02*
X157383000Y-126201000D01*
X154617000Y-126201000D02*
X154960000Y-126201000D01*
X157040000Y-126161000D02*
X157443000Y-126161000D01*
X154557000Y-126161000D02*
X154960000Y-126161000D01*
X157040000Y-126121000D02*
X157500000Y-126121000D01*
X154500000Y-126121000D02*
X154960000Y-126121000D01*
X157040000Y-126081000D02*
X157554000Y-126081000D01*
X154446000Y-126081000D02*
X154960000Y-126081000D01*
X157040000Y-126041000D02*
X157605000Y-126041000D01*
X154395000Y-126041000D02*
X154960000Y-126041000D01*
X157040000Y-126001000D02*
X157653000Y-126001000D01*
X154347000Y-126001000D02*
X154960000Y-126001000D01*
X157040000Y-125961000D02*
X157699000Y-125961000D01*
X154301000Y-125961000D02*
X154960000Y-125961000D01*
X157040000Y-125921000D02*
X157743000Y-125921000D01*
X154257000Y-125921000D02*
X154960000Y-125921000D01*
X157040000Y-125881000D02*
X157785000Y-125881000D01*
X154215000Y-125881000D02*
X154960000Y-125881000D01*
X157040000Y-125841000D02*
X157826000Y-125841000D01*
X154174000Y-125841000D02*
X154960000Y-125841000D01*
X157040000Y-125801000D02*
X157864000Y-125801000D01*
X154136000Y-125801000D02*
X154960000Y-125801000D01*
X157040000Y-125761000D02*
X157901000Y-125761000D01*
X154099000Y-125761000D02*
X154960000Y-125761000D01*
X157040000Y-125721000D02*
X157937000Y-125721000D01*
X154063000Y-125721000D02*
X154960000Y-125721000D01*
X157040000Y-125681000D02*
X157971000Y-125681000D01*
X154029000Y-125681000D02*
X154960000Y-125681000D01*
X157040000Y-125641000D02*
X158004000Y-125641000D01*
X153996000Y-125641000D02*
X154960000Y-125641000D01*
X157040000Y-125601000D02*
X158035000Y-125601000D01*
X153965000Y-125601000D02*
X154960000Y-125601000D01*
X157040000Y-125561000D02*
X158065000Y-125561000D01*
X153935000Y-125561000D02*
X154960000Y-125561000D01*
X157040000Y-125521000D02*
X158095000Y-125521000D01*
X153905000Y-125521000D02*
X154960000Y-125521000D01*
X157040000Y-125481000D02*
X158122000Y-125481000D01*
X153878000Y-125481000D02*
X154960000Y-125481000D01*
X157040000Y-125441000D02*
X158149000Y-125441000D01*
X153851000Y-125441000D02*
X154960000Y-125441000D01*
X157040000Y-125401000D02*
X158175000Y-125401000D01*
X153825000Y-125401000D02*
X154960000Y-125401000D01*
X157040000Y-125361000D02*
X158200000Y-125361000D01*
X153800000Y-125361000D02*
X154960000Y-125361000D01*
X157040000Y-125321000D02*
X158224000Y-125321000D01*
X153776000Y-125321000D02*
X154960000Y-125321000D01*
X157040000Y-125281000D02*
X158247000Y-125281000D01*
X153753000Y-125281000D02*
X154960000Y-125281000D01*
X157040000Y-125241000D02*
X158268000Y-125241000D01*
X153732000Y-125241000D02*
X154960000Y-125241000D01*
X157040000Y-125201000D02*
X158290000Y-125201000D01*
X153710000Y-125201000D02*
X154960000Y-125201000D01*
X157040000Y-125161000D02*
X158310000Y-125161000D01*
X153690000Y-125161000D02*
X154960000Y-125161000D01*
X157040000Y-125121000D02*
X158329000Y-125121000D01*
X153671000Y-125121000D02*
X154960000Y-125121000D01*
X157040000Y-125081000D02*
X158348000Y-125081000D01*
X153652000Y-125081000D02*
X154960000Y-125081000D01*
X157040000Y-125041000D02*
X158365000Y-125041000D01*
X153635000Y-125041000D02*
X154960000Y-125041000D01*
X157040000Y-125001000D02*
X158382000Y-125001000D01*
X153618000Y-125001000D02*
X154960000Y-125001000D01*
X157040000Y-124961000D02*
X158398000Y-124961000D01*
X153602000Y-124961000D02*
X154960000Y-124961000D01*
X157040000Y-124921000D02*
X158414000Y-124921000D01*
X153586000Y-124921000D02*
X154960000Y-124921000D01*
X157040000Y-124881000D02*
X158428000Y-124881000D01*
X153572000Y-124881000D02*
X154960000Y-124881000D01*
X157040000Y-124841000D02*
X158442000Y-124841000D01*
X153558000Y-124841000D02*
X154960000Y-124841000D01*
X157040000Y-124801000D02*
X158455000Y-124801000D01*
X153545000Y-124801000D02*
X154960000Y-124801000D01*
X157040000Y-124761000D02*
X158468000Y-124761000D01*
X153532000Y-124761000D02*
X154960000Y-124761000D01*
X157040000Y-124721000D02*
X158480000Y-124721000D01*
X153520000Y-124721000D02*
X154960000Y-124721000D01*
X157040000Y-124680000D02*
X158491000Y-124680000D01*
X153509000Y-124680000D02*
X154960000Y-124680000D01*
X157040000Y-124640000D02*
X158501000Y-124640000D01*
X153499000Y-124640000D02*
X154960000Y-124640000D01*
X157040000Y-124600000D02*
X158511000Y-124600000D01*
X153489000Y-124600000D02*
X154960000Y-124600000D01*
X157040000Y-124560000D02*
X158520000Y-124560000D01*
X153480000Y-124560000D02*
X154960000Y-124560000D01*
X157040000Y-124520000D02*
X158528000Y-124520000D01*
X153472000Y-124520000D02*
X154960000Y-124520000D01*
X157040000Y-124480000D02*
X158536000Y-124480000D01*
X153464000Y-124480000D02*
X154960000Y-124480000D01*
X157040000Y-124440000D02*
X158543000Y-124440000D01*
X153457000Y-124440000D02*
X154960000Y-124440000D01*
X157040000Y-124400000D02*
X158550000Y-124400000D01*
X153450000Y-124400000D02*
X154960000Y-124400000D01*
X157040000Y-124360000D02*
X158556000Y-124360000D01*
X153444000Y-124360000D02*
X154960000Y-124360000D01*
X157040000Y-124320000D02*
X158561000Y-124320000D01*
X153439000Y-124320000D02*
X154960000Y-124320000D01*
X157040000Y-124280000D02*
X158565000Y-124280000D01*
X153435000Y-124280000D02*
X154960000Y-124280000D01*
X157040000Y-124240000D02*
X158569000Y-124240000D01*
X153431000Y-124240000D02*
X154960000Y-124240000D01*
X153427000Y-124200000D02*
X158573000Y-124200000D01*
X153424000Y-124160000D02*
X158576000Y-124160000D01*
X153422000Y-124120000D02*
X158578000Y-124120000D01*
X153421000Y-124080000D02*
X158579000Y-124080000D01*
X153420000Y-124040000D02*
X158580000Y-124040000D01*
X153420000Y-124000000D02*
X158580000Y-124000000D01*
X158620000Y-124000000D02*
G75*
G03*
X158620000Y-124000000I-2620000J0D01*
G01*
X149560000Y-119330000D02*
X148310000Y-119330000D01*
X148310000Y-119330000D02*
X148310000Y-109050000D01*
X148310000Y-109050000D02*
X152810000Y-109050000D01*
X152810000Y-109050000D02*
X152810000Y-119330000D01*
X152810000Y-119330000D02*
X151560000Y-119330000D01*
X145310000Y-119390000D02*
X145310000Y-108990000D01*
X145310000Y-108990000D02*
X155810000Y-108990000D01*
X155810000Y-108990000D02*
X155810000Y-119390000D01*
X155810000Y-119390000D02*
X145310000Y-119390000D01*
X151560000Y-119330000D02*
G75*
G03*
X149560000Y-119330000I-1000000J0D01*
G01*
D10*
X152952380Y-100913333D02*
X152476190Y-100580000D01*
X152952380Y-100341904D02*
X151952380Y-100341904D01*
X151952380Y-100722857D01*
X152000000Y-100818095D01*
X152047619Y-100865714D01*
X152142857Y-100913333D01*
X152285714Y-100913333D01*
X152380952Y-100865714D01*
X152428571Y-100818095D01*
X152476190Y-100722857D01*
X152476190Y-100341904D01*
X152047619Y-101294285D02*
X152000000Y-101341904D01*
X151952380Y-101437142D01*
X151952380Y-101675238D01*
X152000000Y-101770476D01*
X152047619Y-101818095D01*
X152142857Y-101865714D01*
X152238095Y-101865714D01*
X152380952Y-101818095D01*
X152952380Y-101246666D01*
X152952380Y-101865714D01*
X154416666Y-73107142D02*
X154464285Y-73154761D01*
X154607142Y-73202380D01*
X154702380Y-73202380D01*
X154845238Y-73154761D01*
X154940476Y-73059523D01*
X154988095Y-72964285D01*
X155035714Y-72773809D01*
X155035714Y-72630952D01*
X154988095Y-72440476D01*
X154940476Y-72345238D01*
X154845238Y-72250000D01*
X154702380Y-72202380D01*
X154607142Y-72202380D01*
X154464285Y-72250000D01*
X154416666Y-72297619D01*
X154083333Y-72202380D02*
X153464285Y-72202380D01*
X153797619Y-72583333D01*
X153654761Y-72583333D01*
X153559523Y-72630952D01*
X153511904Y-72678571D01*
X153464285Y-72773809D01*
X153464285Y-73011904D01*
X153511904Y-73107142D01*
X153559523Y-73154761D01*
X153654761Y-73202380D01*
X153940476Y-73202380D01*
X154035714Y-73154761D01*
X154083333Y-73107142D01*
X146666666Y-73107142D02*
X146714285Y-73154761D01*
X146857142Y-73202380D01*
X146952380Y-73202380D01*
X147095238Y-73154761D01*
X147190476Y-73059523D01*
X147238095Y-72964285D01*
X147285714Y-72773809D01*
X147285714Y-72630952D01*
X147238095Y-72440476D01*
X147190476Y-72345238D01*
X147095238Y-72250000D01*
X146952380Y-72202380D01*
X146857142Y-72202380D01*
X146714285Y-72250000D01*
X146666666Y-72297619D01*
X145809523Y-72535714D02*
X145809523Y-73202380D01*
X146047619Y-72154761D02*
X146285714Y-72869047D01*
X145666666Y-72869047D01*
X157202380Y-44916666D02*
X157916666Y-44916666D01*
X158059523Y-44869047D01*
X158154761Y-44773809D01*
X158202380Y-44630952D01*
X158202380Y-44535714D01*
X158202380Y-45392857D02*
X157202380Y-45392857D01*
X157202380Y-45773809D01*
X157250000Y-45869047D01*
X157297619Y-45916666D01*
X157392857Y-45964285D01*
X157535714Y-45964285D01*
X157630952Y-45916666D01*
X157678571Y-45869047D01*
X157726190Y-45773809D01*
X157726190Y-45392857D01*
X158202380Y-46916666D02*
X158202380Y-46345238D01*
X158202380Y-46630952D02*
X157202380Y-46630952D01*
X157345238Y-46535714D01*
X157440476Y-46440476D01*
X157488095Y-46345238D01*
X156702380Y-134253333D02*
X156226190Y-133920000D01*
X156702380Y-133681904D02*
X155702380Y-133681904D01*
X155702380Y-134062857D01*
X155750000Y-134158095D01*
X155797619Y-134205714D01*
X155892857Y-134253333D01*
X156035714Y-134253333D01*
X156130952Y-134205714D01*
X156178571Y-134158095D01*
X156226190Y-134062857D01*
X156226190Y-133681904D01*
X155702380Y-135158095D02*
X155702380Y-134681904D01*
X156178571Y-134634285D01*
X156130952Y-134681904D01*
X156083333Y-134777142D01*
X156083333Y-135015238D01*
X156130952Y-135110476D01*
X156178571Y-135158095D01*
X156273809Y-135205714D01*
X156511904Y-135205714D01*
X156607142Y-135158095D01*
X156654761Y-135110476D01*
X156702380Y-135015238D01*
X156702380Y-134777142D01*
X156654761Y-134681904D01*
X156607142Y-134634285D01*
X157202380Y-99413333D02*
X156726190Y-99080000D01*
X157202380Y-98841904D02*
X156202380Y-98841904D01*
X156202380Y-99222857D01*
X156250000Y-99318095D01*
X156297619Y-99365714D01*
X156392857Y-99413333D01*
X156535714Y-99413333D01*
X156630952Y-99365714D01*
X156678571Y-99318095D01*
X156726190Y-99222857D01*
X156726190Y-98841904D01*
X157202380Y-100365714D02*
X157202380Y-99794285D01*
X157202380Y-100080000D02*
X156202380Y-100080000D01*
X156345238Y-99984761D01*
X156440476Y-99889523D01*
X156488095Y-99794285D01*
X148452380Y-100753333D02*
X147976190Y-100420000D01*
X148452380Y-100181904D02*
X147452380Y-100181904D01*
X147452380Y-100562857D01*
X147500000Y-100658095D01*
X147547619Y-100705714D01*
X147642857Y-100753333D01*
X147785714Y-100753333D01*
X147880952Y-100705714D01*
X147928571Y-100658095D01*
X147976190Y-100562857D01*
X147976190Y-100181904D01*
X147452380Y-101086666D02*
X147452380Y-101705714D01*
X147833333Y-101372380D01*
X147833333Y-101515238D01*
X147880952Y-101610476D01*
X147928571Y-101658095D01*
X148023809Y-101705714D01*
X148261904Y-101705714D01*
X148357142Y-101658095D01*
X148404761Y-101610476D01*
X148452380Y-101515238D01*
X148452380Y-101229523D01*
X148404761Y-101134285D01*
X148357142Y-101086666D01*
X144452380Y-99503333D02*
X143976190Y-99170000D01*
X144452380Y-98931904D02*
X143452380Y-98931904D01*
X143452380Y-99312857D01*
X143500000Y-99408095D01*
X143547619Y-99455714D01*
X143642857Y-99503333D01*
X143785714Y-99503333D01*
X143880952Y-99455714D01*
X143928571Y-99408095D01*
X143976190Y-99312857D01*
X143976190Y-98931904D01*
X143785714Y-100360476D02*
X144452380Y-100360476D01*
X143404761Y-100122380D02*
X144119047Y-99884285D01*
X144119047Y-100503333D01*
X157952380Y-53261904D02*
X156952380Y-53261904D01*
X156952380Y-53500000D01*
X157000000Y-53642857D01*
X157095238Y-53738095D01*
X157190476Y-53785714D01*
X157380952Y-53833333D01*
X157523809Y-53833333D01*
X157714285Y-53785714D01*
X157809523Y-53738095D01*
X157904761Y-53642857D01*
X157952380Y-53500000D01*
X157952380Y-53261904D01*
X157952380Y-54785714D02*
X157952380Y-54214285D01*
X157952380Y-54500000D02*
X156952380Y-54500000D01*
X157095238Y-54404761D01*
X157190476Y-54309523D01*
X157238095Y-54214285D01*
X143952380Y-53761904D02*
X142952380Y-53761904D01*
X142952380Y-54000000D01*
X143000000Y-54142857D01*
X143095238Y-54238095D01*
X143190476Y-54285714D01*
X143380952Y-54333333D01*
X143523809Y-54333333D01*
X143714285Y-54285714D01*
X143809523Y-54238095D01*
X143904761Y-54142857D01*
X143952380Y-54000000D01*
X143952380Y-53761904D01*
X143047619Y-54714285D02*
X143000000Y-54761904D01*
X142952380Y-54857142D01*
X142952380Y-55095238D01*
X143000000Y-55190476D01*
X143047619Y-55238095D01*
X143142857Y-55285714D01*
X143238095Y-55285714D01*
X143380952Y-55238095D01*
X143952380Y-54666666D01*
X143952380Y-55285714D01*
X146202380Y-87261904D02*
X145202380Y-87261904D01*
X145202380Y-87500000D01*
X145250000Y-87642857D01*
X145345238Y-87738095D01*
X145440476Y-87785714D01*
X145630952Y-87833333D01*
X145773809Y-87833333D01*
X145964285Y-87785714D01*
X146059523Y-87738095D01*
X146154761Y-87642857D01*
X146202380Y-87500000D01*
X146202380Y-87261904D01*
X145535714Y-88690476D02*
X146202380Y-88690476D01*
X145154761Y-88452380D02*
X145869047Y-88214285D01*
X145869047Y-88833333D01*
X155702380Y-86641904D02*
X154702380Y-86641904D01*
X154702380Y-86880000D01*
X154750000Y-87022857D01*
X154845238Y-87118095D01*
X154940476Y-87165714D01*
X155130952Y-87213333D01*
X155273809Y-87213333D01*
X155464285Y-87165714D01*
X155559523Y-87118095D01*
X155654761Y-87022857D01*
X155702380Y-86880000D01*
X155702380Y-86641904D01*
X154702380Y-87546666D02*
X154702380Y-88165714D01*
X155083333Y-87832380D01*
X155083333Y-87975238D01*
X155130952Y-88070476D01*
X155178571Y-88118095D01*
X155273809Y-88165714D01*
X155511904Y-88165714D01*
X155607142Y-88118095D01*
X155654761Y-88070476D01*
X155702380Y-87975238D01*
X155702380Y-87689523D01*
X155654761Y-87594285D01*
X155607142Y-87546666D01*
X153666666Y-50857142D02*
X153714285Y-50904761D01*
X153857142Y-50952380D01*
X153952380Y-50952380D01*
X154095238Y-50904761D01*
X154190476Y-50809523D01*
X154238095Y-50714285D01*
X154285714Y-50523809D01*
X154285714Y-50380952D01*
X154238095Y-50190476D01*
X154190476Y-50095238D01*
X154095238Y-50000000D01*
X153952380Y-49952380D01*
X153857142Y-49952380D01*
X153714285Y-50000000D01*
X153666666Y-50047619D01*
X152714285Y-50952380D02*
X153285714Y-50952380D01*
X153000000Y-50952380D02*
X153000000Y-49952380D01*
X153095238Y-50095238D01*
X153190476Y-50190476D01*
X153285714Y-50238095D01*
X147666666Y-50857142D02*
X147714285Y-50904761D01*
X147857142Y-50952380D01*
X147952380Y-50952380D01*
X148095238Y-50904761D01*
X148190476Y-50809523D01*
X148238095Y-50714285D01*
X148285714Y-50523809D01*
X148285714Y-50380952D01*
X148238095Y-50190476D01*
X148190476Y-50095238D01*
X148095238Y-50000000D01*
X147952380Y-49952380D01*
X147857142Y-49952380D01*
X147714285Y-50000000D01*
X147666666Y-50047619D01*
X147285714Y-50047619D02*
X147238095Y-50000000D01*
X147142857Y-49952380D01*
X146904761Y-49952380D01*
X146809523Y-50000000D01*
X146761904Y-50047619D01*
X146714285Y-50142857D01*
X146714285Y-50238095D01*
X146761904Y-50380952D01*
X147333333Y-50952380D01*
X146714285Y-50952380D01*
X145166666Y-120857142D02*
X145214285Y-120904761D01*
X145357142Y-120952380D01*
X145452380Y-120952380D01*
X145595238Y-120904761D01*
X145690476Y-120809523D01*
X145738095Y-120714285D01*
X145785714Y-120523809D01*
X145785714Y-120380952D01*
X145738095Y-120190476D01*
X145690476Y-120095238D01*
X145595238Y-120000000D01*
X145452380Y-119952380D01*
X145357142Y-119952380D01*
X145214285Y-120000000D01*
X145166666Y-120047619D01*
X144309523Y-119952380D02*
X144500000Y-119952380D01*
X144595238Y-120000000D01*
X144642857Y-120047619D01*
X144738095Y-120190476D01*
X144785714Y-120380952D01*
X144785714Y-120761904D01*
X144738095Y-120857142D01*
X144690476Y-120904761D01*
X144595238Y-120952380D01*
X144404761Y-120952380D01*
X144309523Y-120904761D01*
X144261904Y-120857142D01*
X144214285Y-120761904D01*
X144214285Y-120523809D01*
X144261904Y-120428571D01*
X144309523Y-120380952D01*
X144404761Y-120333333D01*
X144595238Y-120333333D01*
X144690476Y-120380952D01*
X144738095Y-120428571D01*
X144785714Y-120523809D01*
X156416666Y-120857142D02*
X156464285Y-120904761D01*
X156607142Y-120952380D01*
X156702380Y-120952380D01*
X156845238Y-120904761D01*
X156940476Y-120809523D01*
X156988095Y-120714285D01*
X157035714Y-120523809D01*
X157035714Y-120380952D01*
X156988095Y-120190476D01*
X156940476Y-120095238D01*
X156845238Y-120000000D01*
X156702380Y-119952380D01*
X156607142Y-119952380D01*
X156464285Y-120000000D01*
X156416666Y-120047619D01*
X155511904Y-119952380D02*
X155988095Y-119952380D01*
X156035714Y-120428571D01*
X155988095Y-120380952D01*
X155892857Y-120333333D01*
X155654761Y-120333333D01*
X155559523Y-120380952D01*
X155511904Y-120428571D01*
X155464285Y-120523809D01*
X155464285Y-120761904D01*
X155511904Y-120857142D01*
X155559523Y-120904761D01*
X155654761Y-120952380D01*
X155892857Y-120952380D01*
X155988095Y-120904761D01*
X156035714Y-120857142D01*
X151321904Y-113702380D02*
X151321904Y-114511904D01*
X151274285Y-114607142D01*
X151226666Y-114654761D01*
X151131428Y-114702380D01*
X150940952Y-114702380D01*
X150845714Y-114654761D01*
X150798095Y-114607142D01*
X150750476Y-114511904D01*
X150750476Y-113702380D01*
X149750476Y-114702380D02*
X150321904Y-114702380D01*
X150036190Y-114702380D02*
X150036190Y-113702380D01*
X150131428Y-113845238D01*
X150226666Y-113940476D01*
X150321904Y-113988095D01*
%LPC*%
D12*
X147720000Y-128060000D03*
D13*
X147720000Y-139460000D03*
D12*
X147720000Y-136360000D03*
D14*
X148082000Y-69596000D03*
D15*
X150582000Y-69596000D03*
X153082000Y-69596000D03*
D16*
X155382000Y-62096000D03*
X145782000Y-62096000D03*
D17*
X152500000Y-106160000D03*
D18*
X152500000Y-96000000D03*
X156750000Y-72750000D03*
X151750000Y-72750000D03*
X149000000Y-72750000D03*
X144000000Y-72750000D03*
D19*
X155410000Y-47040000D03*
X155410000Y-44500000D03*
X152870000Y-47040000D03*
X152870000Y-44500000D03*
X150330000Y-47040000D03*
X150330000Y-44500000D03*
X147790000Y-47040000D03*
X147790000Y-44500000D03*
X145250000Y-47040000D03*
D20*
X145250000Y-44500000D03*
D17*
X156250000Y-129340000D03*
D18*
X156250000Y-139500000D03*
D17*
X156750000Y-94500000D03*
D18*
X156750000Y-104660000D03*
D17*
X148000000Y-95840000D03*
D18*
X148000000Y-106000000D03*
D17*
X144000000Y-94590000D03*
D18*
X144000000Y-104750000D03*
D21*
X157500000Y-58120000D03*
D22*
X157500000Y-50500000D03*
D21*
X143500000Y-50500000D03*
D22*
X143500000Y-58120000D03*
X145750000Y-91620000D03*
D21*
X145750000Y-84000000D03*
D22*
X155250000Y-83880000D03*
D21*
X155250000Y-91500000D03*
D23*
X153500000Y-55250000D03*
D18*
X153500000Y-52750000D03*
D23*
X147500000Y-52750000D03*
D18*
X147500000Y-55250000D03*
X145000000Y-125250000D03*
D23*
X145000000Y-122750000D03*
D18*
X156000000Y-125250000D03*
D23*
X156000000Y-122750000D03*
D24*
X154370000Y-118000000D03*
X146750000Y-110380000D03*
X154370000Y-115460000D03*
X146750000Y-112920000D03*
X154370000Y-112920000D03*
X146750000Y-115460000D03*
X154370000Y-110380000D03*
D25*
X146750000Y-118000000D03*
D26*
X150575000Y-81375000D03*
X150575000Y-86075000D03*
X150575000Y-76675000D03*
D12*
X153280000Y-143130000D03*
D13*
X153280000Y-154530000D03*
D12*
X153280000Y-151430000D03*
M02*
