G04 #@! TF.GenerationSoftware,KiCad,Pcbnew,(5.1.10)-1*
G04 #@! TF.CreationDate,2021-10-06T15:16:57-05:00*
G04 #@! TF.ProjectId,Slew Limiter Front Panel,536c6577-204c-4696-9d69-746572204672,rev?*
G04 #@! TF.SameCoordinates,Original*
G04 #@! TF.FileFunction,Legend,Top*
G04 #@! TF.FilePolarity,Positive*
%FSLAX46Y46*%
G04 Gerber Fmt 4.6, Leading zero omitted, Abs format (unit mm)*
G04 Created by KiCad (PCBNEW (5.1.10)-1) date 2021-10-06 15:16:57*
%MOMM*%
%LPD*%
G01*
G04 APERTURE LIST*
%ADD10C,0.010000*%
G04 APERTURE END LIST*
D10*
G36*
X152364273Y69549693D02*
G01*
X152575682Y69442345D01*
X152739403Y69269696D01*
X152850332Y69037054D01*
X152902399Y68762469D01*
X152898282Y68437856D01*
X152833032Y68163652D01*
X152711165Y67944539D01*
X152537196Y67785198D01*
X152315643Y67690310D01*
X152051021Y67664558D01*
X151864002Y67685982D01*
X151630660Y67767368D01*
X151451980Y67912883D01*
X151328806Y68121297D01*
X151261982Y68391380D01*
X151249280Y68583014D01*
X151253787Y68646528D01*
X151690993Y68646528D01*
X151698808Y68403255D01*
X151704474Y68342160D01*
X151751263Y68119034D01*
X151832688Y67950294D01*
X151940075Y67842269D01*
X152064752Y67801290D01*
X152198046Y67833685D01*
X152297699Y67909185D01*
X152372083Y68019216D01*
X152420086Y68179573D01*
X152443293Y68399954D01*
X152443285Y68690060D01*
X152439640Y68778844D01*
X152416841Y69028863D01*
X152372543Y69208351D01*
X152301372Y69329895D01*
X152197955Y69406079D01*
X152166045Y69419661D01*
X152026027Y69431639D01*
X151891699Y69373918D01*
X151789717Y69258827D01*
X151780783Y69241463D01*
X151734201Y69091806D01*
X151703531Y68884770D01*
X151690993Y68646528D01*
X151253787Y68646528D01*
X151272380Y68908488D01*
X151350186Y69169533D01*
X151483280Y69366827D01*
X151672244Y69501048D01*
X151917660Y69572875D01*
X152110280Y69586431D01*
X152364273Y69549693D01*
G37*
X152364273Y69549693D02*
X152575682Y69442345D01*
X152739403Y69269696D01*
X152850332Y69037054D01*
X152902399Y68762469D01*
X152898282Y68437856D01*
X152833032Y68163652D01*
X152711165Y67944539D01*
X152537196Y67785198D01*
X152315643Y67690310D01*
X152051021Y67664558D01*
X151864002Y67685982D01*
X151630660Y67767368D01*
X151451980Y67912883D01*
X151328806Y68121297D01*
X151261982Y68391380D01*
X151249280Y68583014D01*
X151253787Y68646528D01*
X151690993Y68646528D01*
X151698808Y68403255D01*
X151704474Y68342160D01*
X151751263Y68119034D01*
X151832688Y67950294D01*
X151940075Y67842269D01*
X152064752Y67801290D01*
X152198046Y67833685D01*
X152297699Y67909185D01*
X152372083Y68019216D01*
X152420086Y68179573D01*
X152443293Y68399954D01*
X152443285Y68690060D01*
X152439640Y68778844D01*
X152416841Y69028863D01*
X152372543Y69208351D01*
X152301372Y69329895D01*
X152197955Y69406079D01*
X152166045Y69419661D01*
X152026027Y69431639D01*
X151891699Y69373918D01*
X151789717Y69258827D01*
X151780783Y69241463D01*
X151734201Y69091806D01*
X151703531Y68884770D01*
X151690993Y68646528D01*
X151253787Y68646528D01*
X151272380Y68908488D01*
X151350186Y69169533D01*
X151483280Y69366827D01*
X151672244Y69501048D01*
X151917660Y69572875D01*
X152110280Y69586431D01*
X152364273Y69549693D01*
G36*
X153653972Y69043250D02*
G01*
X153661931Y68995279D01*
X153668509Y68879435D01*
X153673070Y68712511D01*
X153674979Y68511297D01*
X153675000Y68487411D01*
X153677541Y68241051D01*
X153687623Y68067074D01*
X153708932Y67953283D01*
X153745157Y67887484D01*
X153799983Y67857480D01*
X153867405Y67851000D01*
X153964548Y67868806D01*
X154031734Y67929429D01*
X154073409Y68043680D01*
X154094019Y68222367D01*
X154098333Y68412397D01*
X154096871Y68601768D01*
X154090247Y68723267D01*
X154075097Y68793670D01*
X154048060Y68829752D01*
X154011336Y68846573D01*
X153940220Y68886039D01*
X153942661Y68929816D01*
X154008164Y68972034D01*
X154126232Y69006825D01*
X154286372Y69028320D01*
X154341750Y69031325D01*
X154479333Y69036333D01*
X154479333Y68442759D01*
X154479740Y68208149D01*
X154482514Y68044086D01*
X154489984Y67936451D01*
X154504477Y67871126D01*
X154528321Y67833990D01*
X154563845Y67810926D01*
X154585166Y67800964D01*
X154672552Y67749624D01*
X154677178Y67712753D01*
X154598803Y67690183D01*
X154437184Y67681741D01*
X154415833Y67681667D01*
X154266917Y67684306D01*
X154183893Y67696060D01*
X154148052Y67722685D01*
X154140666Y67766333D01*
X154130128Y67835216D01*
X154115593Y67851000D01*
X154068235Y67827380D01*
X153987758Y67770148D01*
X153982884Y67766333D01*
X153845863Y67702765D01*
X153676436Y67682588D01*
X153513667Y67707216D01*
X153432064Y67746415D01*
X153348139Y67843948D01*
X153291309Y68003782D01*
X153259889Y68232768D01*
X153251902Y68479380D01*
X153249888Y68653752D01*
X153241388Y68761343D01*
X153222286Y68820008D01*
X153188466Y68847599D01*
X153165268Y68855187D01*
X153096030Y68888767D01*
X153104868Y68928784D01*
X153185912Y68970628D01*
X153333296Y69009690D01*
X153371213Y69016943D01*
X153510456Y69038476D01*
X153613161Y69047542D01*
X153653972Y69043250D01*
G37*
X153653972Y69043250D02*
X153661931Y68995279D01*
X153668509Y68879435D01*
X153673070Y68712511D01*
X153674979Y68511297D01*
X153675000Y68487411D01*
X153677541Y68241051D01*
X153687623Y68067074D01*
X153708932Y67953283D01*
X153745157Y67887484D01*
X153799983Y67857480D01*
X153867405Y67851000D01*
X153964548Y67868806D01*
X154031734Y67929429D01*
X154073409Y68043680D01*
X154094019Y68222367D01*
X154098333Y68412397D01*
X154096871Y68601768D01*
X154090247Y68723267D01*
X154075097Y68793670D01*
X154048060Y68829752D01*
X154011336Y68846573D01*
X153940220Y68886039D01*
X153942661Y68929816D01*
X154008164Y68972034D01*
X154126232Y69006825D01*
X154286372Y69028320D01*
X154341750Y69031325D01*
X154479333Y69036333D01*
X154479333Y68442759D01*
X154479740Y68208149D01*
X154482514Y68044086D01*
X154489984Y67936451D01*
X154504477Y67871126D01*
X154528321Y67833990D01*
X154563845Y67810926D01*
X154585166Y67800964D01*
X154672552Y67749624D01*
X154677178Y67712753D01*
X154598803Y67690183D01*
X154437184Y67681741D01*
X154415833Y67681667D01*
X154266917Y67684306D01*
X154183893Y67696060D01*
X154148052Y67722685D01*
X154140666Y67766333D01*
X154130128Y67835216D01*
X154115593Y67851000D01*
X154068235Y67827380D01*
X153987758Y67770148D01*
X153982884Y67766333D01*
X153845863Y67702765D01*
X153676436Y67682588D01*
X153513667Y67707216D01*
X153432064Y67746415D01*
X153348139Y67843948D01*
X153291309Y68003782D01*
X153259889Y68232768D01*
X153251902Y68479380D01*
X153249888Y68653752D01*
X153241388Y68761343D01*
X153222286Y68820008D01*
X153188466Y68847599D01*
X153165268Y68855187D01*
X153096030Y68888767D01*
X153104868Y68928784D01*
X153185912Y68970628D01*
X153333296Y69009690D01*
X153371213Y69016943D01*
X153510456Y69038476D01*
X153613161Y69047542D01*
X153653972Y69043250D01*
G36*
X155341506Y69316576D02*
G01*
X155365411Y69253148D01*
X155368333Y69184500D01*
X155373459Y69089634D01*
X155405112Y69047475D01*
X155487700Y69036665D01*
X155537666Y69036333D01*
X155648450Y69029233D01*
X155697412Y69000536D01*
X155707000Y68951667D01*
X155692799Y68896275D01*
X155635405Y68871794D01*
X155537666Y68867000D01*
X155368333Y68867000D01*
X155368333Y68384696D01*
X155371148Y68154861D01*
X155382944Y67998930D01*
X155408749Y67906233D01*
X155453589Y67866098D01*
X155522493Y67867855D01*
X155600035Y67892903D01*
X155694666Y67912907D01*
X155727771Y67887756D01*
X155697741Y67832116D01*
X155613845Y67767144D01*
X155440212Y67698158D01*
X155260774Y67687828D01*
X155104359Y67736398D01*
X155066174Y67762538D01*
X155023723Y67802456D01*
X154994611Y67851897D01*
X154975650Y67927298D01*
X154963650Y68045100D01*
X154955421Y68221740D01*
X154951192Y68355205D01*
X154943783Y68571200D01*
X154934952Y68716391D01*
X154922119Y68804633D01*
X154902705Y68849778D01*
X154874127Y68865683D01*
X154855874Y68867000D01*
X154789857Y68892619D01*
X154781303Y68948332D01*
X154829814Y69002424D01*
X154857726Y69014339D01*
X154935194Y69061226D01*
X155032348Y69148080D01*
X155068099Y69186525D01*
X155163860Y69275315D01*
X155254215Y69327164D01*
X155282373Y69332667D01*
X155341506Y69316576D01*
G37*
X155341506Y69316576D02*
X155365411Y69253148D01*
X155368333Y69184500D01*
X155373459Y69089634D01*
X155405112Y69047475D01*
X155487700Y69036665D01*
X155537666Y69036333D01*
X155648450Y69029233D01*
X155697412Y69000536D01*
X155707000Y68951667D01*
X155692799Y68896275D01*
X155635405Y68871794D01*
X155537666Y68867000D01*
X155368333Y68867000D01*
X155368333Y68384696D01*
X155371148Y68154861D01*
X155382944Y67998930D01*
X155408749Y67906233D01*
X155453589Y67866098D01*
X155522493Y67867855D01*
X155600035Y67892903D01*
X155694666Y67912907D01*
X155727771Y67887756D01*
X155697741Y67832116D01*
X155613845Y67767144D01*
X155440212Y67698158D01*
X155260774Y67687828D01*
X155104359Y67736398D01*
X155066174Y67762538D01*
X155023723Y67802456D01*
X154994611Y67851897D01*
X154975650Y67927298D01*
X154963650Y68045100D01*
X154955421Y68221740D01*
X154951192Y68355205D01*
X154943783Y68571200D01*
X154934952Y68716391D01*
X154922119Y68804633D01*
X154902705Y68849778D01*
X154874127Y68865683D01*
X154855874Y68867000D01*
X154789857Y68892619D01*
X154781303Y68948332D01*
X154829814Y69002424D01*
X154857726Y69014339D01*
X154935194Y69061226D01*
X155032348Y69148080D01*
X155068099Y69186525D01*
X155163860Y69275315D01*
X155254215Y69327164D01*
X155282373Y69332667D01*
X155341506Y69316576D01*
G36*
X147176626Y84864685D02*
G01*
X147306871Y84850916D01*
X147358954Y84826454D01*
X147335925Y84790063D01*
X147260521Y84749257D01*
X147153709Y84700590D01*
X147165271Y83948712D01*
X147169785Y83679689D01*
X147174916Y83483071D01*
X147182311Y83346600D01*
X147193621Y83258019D01*
X147210496Y83205073D01*
X147234584Y83175505D01*
X147267535Y83157058D01*
X147272083Y83155045D01*
X147345320Y83103539D01*
X147367333Y83059795D01*
X147341902Y83033026D01*
X147258896Y83016142D01*
X147108246Y83007805D01*
X146965166Y83006333D01*
X146770360Y83009004D01*
X146647075Y83018287D01*
X146582297Y83036088D01*
X146563011Y83064313D01*
X146563000Y83065244D01*
X146599091Y83118521D01*
X146668833Y83150717D01*
X146774666Y83177280D01*
X146774666Y84701482D01*
X146668833Y84749703D01*
X146585397Y84796945D01*
X146574621Y84831266D01*
X146639531Y84853884D01*
X146783155Y84866018D01*
X146965166Y84869000D01*
X147176626Y84864685D01*
G37*
X147176626Y84864685D02*
X147306871Y84850916D01*
X147358954Y84826454D01*
X147335925Y84790063D01*
X147260521Y84749257D01*
X147153709Y84700590D01*
X147165271Y83948712D01*
X147169785Y83679689D01*
X147174916Y83483071D01*
X147182311Y83346600D01*
X147193621Y83258019D01*
X147210496Y83205073D01*
X147234584Y83175505D01*
X147267535Y83157058D01*
X147272083Y83155045D01*
X147345320Y83103539D01*
X147367333Y83059795D01*
X147341902Y83033026D01*
X147258896Y83016142D01*
X147108246Y83007805D01*
X146965166Y83006333D01*
X146770360Y83009004D01*
X146647075Y83018287D01*
X146582297Y83036088D01*
X146563011Y83064313D01*
X146563000Y83065244D01*
X146599091Y83118521D01*
X146668833Y83150717D01*
X146774666Y83177280D01*
X146774666Y84701482D01*
X146668833Y84749703D01*
X146585397Y84796945D01*
X146574621Y84831266D01*
X146639531Y84853884D01*
X146783155Y84866018D01*
X146965166Y84869000D01*
X147176626Y84864685D01*
G36*
X148632224Y84367357D02*
G01*
X148649162Y84362458D01*
X148760589Y84312738D01*
X148840090Y84232565D01*
X148892271Y84109533D01*
X148921738Y83931238D01*
X148933100Y83685275D01*
X148933666Y83596397D01*
X148935005Y83401179D01*
X148941033Y83274564D01*
X148954762Y83200503D01*
X148979208Y83162947D01*
X149017384Y83145850D01*
X149018333Y83145600D01*
X149087131Y83103076D01*
X149103000Y83064896D01*
X149083236Y83035057D01*
X149015137Y83016816D01*
X148885494Y83008022D01*
X148743166Y83006333D01*
X148542717Y83012345D01*
X148424361Y83030918D01*
X148386346Y83062862D01*
X148426918Y83108987D01*
X148468000Y83133333D01*
X148507983Y83163364D01*
X148533049Y83213264D01*
X148546578Y83300725D01*
X148551949Y83443440D01*
X148552666Y83576567D01*
X148547645Y83823430D01*
X148530123Y83997206D01*
X148496411Y84109014D01*
X148442819Y84169974D01*
X148365660Y84191206D01*
X148348608Y84191667D01*
X148241984Y84178173D01*
X148167811Y84129848D01*
X148120808Y84034929D01*
X148095691Y83881649D01*
X148087177Y83658246D01*
X148087000Y83609103D01*
X148088391Y83413834D01*
X148094583Y83286967D01*
X148108601Y83212257D01*
X148133470Y83173459D01*
X148171666Y83154500D01*
X148240313Y83107458D01*
X148256333Y83066981D01*
X148238608Y83036313D01*
X148176100Y83017573D01*
X148054809Y83008391D01*
X147897828Y83006333D01*
X147720991Y83008767D01*
X147615113Y83017697D01*
X147566584Y83035568D01*
X147561796Y83064822D01*
X147562435Y83066560D01*
X147620432Y83136081D01*
X147645773Y83149898D01*
X147672825Y83178490D01*
X147690827Y83248124D01*
X147701265Y83371512D01*
X147705624Y83561367D01*
X147706000Y83665135D01*
X147705018Y83876341D01*
X147700399Y84017836D01*
X147689635Y84104569D01*
X147670216Y84151488D01*
X147639633Y84173541D01*
X147619602Y84179853D01*
X147547648Y84214111D01*
X147548397Y84254341D01*
X147610727Y84294604D01*
X147723517Y84328960D01*
X147875645Y84351469D01*
X147949416Y84355992D01*
X148050989Y84346368D01*
X148086498Y84303120D01*
X148087000Y84293972D01*
X148102666Y84244307D01*
X148118750Y84243288D01*
X148295265Y84328821D01*
X148423888Y84374461D01*
X148528311Y84385532D01*
X148632224Y84367357D01*
G37*
X148632224Y84367357D02*
X148649162Y84362458D01*
X148760589Y84312738D01*
X148840090Y84232565D01*
X148892271Y84109533D01*
X148921738Y83931238D01*
X148933100Y83685275D01*
X148933666Y83596397D01*
X148935005Y83401179D01*
X148941033Y83274564D01*
X148954762Y83200503D01*
X148979208Y83162947D01*
X149017384Y83145850D01*
X149018333Y83145600D01*
X149087131Y83103076D01*
X149103000Y83064896D01*
X149083236Y83035057D01*
X149015137Y83016816D01*
X148885494Y83008022D01*
X148743166Y83006333D01*
X148542717Y83012345D01*
X148424361Y83030918D01*
X148386346Y83062862D01*
X148426918Y83108987D01*
X148468000Y83133333D01*
X148507983Y83163364D01*
X148533049Y83213264D01*
X148546578Y83300725D01*
X148551949Y83443440D01*
X148552666Y83576567D01*
X148547645Y83823430D01*
X148530123Y83997206D01*
X148496411Y84109014D01*
X148442819Y84169974D01*
X148365660Y84191206D01*
X148348608Y84191667D01*
X148241984Y84178173D01*
X148167811Y84129848D01*
X148120808Y84034929D01*
X148095691Y83881649D01*
X148087177Y83658246D01*
X148087000Y83609103D01*
X148088391Y83413834D01*
X148094583Y83286967D01*
X148108601Y83212257D01*
X148133470Y83173459D01*
X148171666Y83154500D01*
X148240313Y83107458D01*
X148256333Y83066981D01*
X148238608Y83036313D01*
X148176100Y83017573D01*
X148054809Y83008391D01*
X147897828Y83006333D01*
X147720991Y83008767D01*
X147615113Y83017697D01*
X147566584Y83035568D01*
X147561796Y83064822D01*
X147562435Y83066560D01*
X147620432Y83136081D01*
X147645773Y83149898D01*
X147672825Y83178490D01*
X147690827Y83248124D01*
X147701265Y83371512D01*
X147705624Y83561367D01*
X147706000Y83665135D01*
X147705018Y83876341D01*
X147700399Y84017836D01*
X147689635Y84104569D01*
X147670216Y84151488D01*
X147639633Y84173541D01*
X147619602Y84179853D01*
X147547648Y84214111D01*
X147548397Y84254341D01*
X147610727Y84294604D01*
X147723517Y84328960D01*
X147875645Y84351469D01*
X147949416Y84355992D01*
X148050989Y84346368D01*
X148086498Y84303120D01*
X148087000Y84293972D01*
X148102666Y84244307D01*
X148118750Y84243288D01*
X148295265Y84328821D01*
X148423888Y84374461D01*
X148528311Y84385532D01*
X148632224Y84367357D01*
G36*
X154394666Y123763331D02*
G01*
X154690325Y123740989D01*
X154912741Y123689777D01*
X155070472Y123602671D01*
X155172075Y123472645D01*
X155226110Y123292676D01*
X155241175Y123068436D01*
X155211785Y122821595D01*
X155122523Y122632507D01*
X154971220Y122496967D01*
X154936288Y122477444D01*
X154841994Y122445747D01*
X154700854Y122418278D01*
X154532659Y122396449D01*
X154357203Y122381676D01*
X154194276Y122375374D01*
X154063672Y122378956D01*
X153985183Y122393837D01*
X153971333Y122408478D01*
X154005158Y122459851D01*
X154034833Y122476309D01*
X154061005Y122500265D01*
X154061983Y122503333D01*
X154394666Y122503333D01*
X154544757Y122503333D01*
X154708458Y122539823D01*
X154795366Y122603852D01*
X154882108Y122742826D01*
X154930455Y122929994D01*
X154939493Y123137632D01*
X154908311Y123338016D01*
X154835997Y123503423D01*
X154825456Y123518341D01*
X154733432Y123599760D01*
X154598502Y123635639D01*
X154570351Y123638184D01*
X154394666Y123651202D01*
X154394666Y122503333D01*
X154061983Y122503333D01*
X154079110Y122557027D01*
X154090478Y122659216D01*
X154096438Y122819453D01*
X154098318Y123050361D01*
X154098333Y123079421D01*
X154097030Y123316599D01*
X154092014Y123483435D01*
X154081626Y123594231D01*
X154064205Y123663287D01*
X154038090Y123704904D01*
X154024250Y123717545D01*
X154000738Y123743693D01*
X154016780Y123759850D01*
X154083896Y123767442D01*
X154213609Y123767893D01*
X154394666Y123763331D01*
G37*
X154394666Y123763331D02*
X154690325Y123740989D01*
X154912741Y123689777D01*
X155070472Y123602671D01*
X155172075Y123472645D01*
X155226110Y123292676D01*
X155241175Y123068436D01*
X155211785Y122821595D01*
X155122523Y122632507D01*
X154971220Y122496967D01*
X154936288Y122477444D01*
X154841994Y122445747D01*
X154700854Y122418278D01*
X154532659Y122396449D01*
X154357203Y122381676D01*
X154194276Y122375374D01*
X154063672Y122378956D01*
X153985183Y122393837D01*
X153971333Y122408478D01*
X154005158Y122459851D01*
X154034833Y122476309D01*
X154061005Y122500265D01*
X154061983Y122503333D01*
X154394666Y122503333D01*
X154544757Y122503333D01*
X154708458Y122539823D01*
X154795366Y122603852D01*
X154882108Y122742826D01*
X154930455Y122929994D01*
X154939493Y123137632D01*
X154908311Y123338016D01*
X154835997Y123503423D01*
X154825456Y123518341D01*
X154733432Y123599760D01*
X154598502Y123635639D01*
X154570351Y123638184D01*
X154394666Y123651202D01*
X154394666Y122503333D01*
X154061983Y122503333D01*
X154079110Y122557027D01*
X154090478Y122659216D01*
X154096438Y122819453D01*
X154098318Y123050361D01*
X154098333Y123079421D01*
X154097030Y123316599D01*
X154092014Y123483435D01*
X154081626Y123594231D01*
X154064205Y123663287D01*
X154038090Y123704904D01*
X154024250Y123717545D01*
X154000738Y123743693D01*
X154016780Y123759850D01*
X154083896Y123767442D01*
X154213609Y123767893D01*
X154394666Y123763331D01*
G36*
X156111372Y123388979D02*
G01*
X156250667Y123353309D01*
X156259678Y123348745D01*
X156371409Y123244990D01*
X156439956Y123092068D01*
X156465442Y122913370D01*
X156447991Y122732288D01*
X156387727Y122572211D01*
X156284775Y122456531D01*
X156254845Y122438547D01*
X156097684Y122391383D01*
X155910357Y122381948D01*
X155739312Y122411933D01*
X155720051Y122419073D01*
X155593291Y122511778D01*
X155510645Y122655873D01*
X155473783Y122829492D01*
X155474649Y122844321D01*
X155761287Y122844321D01*
X155785554Y122685981D01*
X155837193Y122562917D01*
X155908225Y122486383D01*
X155990670Y122467633D01*
X156076548Y122517919D01*
X156106766Y122555086D01*
X156150985Y122669044D01*
X156171779Y122837983D01*
X156172666Y122884333D01*
X156153371Y123081065D01*
X156098973Y123222471D01*
X156014698Y123297955D01*
X155963783Y123307667D01*
X155875742Y123281442D01*
X155815139Y123195048D01*
X155774088Y123036908D01*
X155772370Y123026685D01*
X155761287Y122844321D01*
X155474649Y122844321D01*
X155484372Y123010766D01*
X155544083Y123177828D01*
X155652273Y123307005D01*
X155774628Y123363247D01*
X155940177Y123391432D01*
X156111372Y123388979D01*
G37*
X156111372Y123388979D02*
X156250667Y123353309D01*
X156259678Y123348745D01*
X156371409Y123244990D01*
X156439956Y123092068D01*
X156465442Y122913370D01*
X156447991Y122732288D01*
X156387727Y122572211D01*
X156284775Y122456531D01*
X156254845Y122438547D01*
X156097684Y122391383D01*
X155910357Y122381948D01*
X155739312Y122411933D01*
X155720051Y122419073D01*
X155593291Y122511778D01*
X155510645Y122655873D01*
X155473783Y122829492D01*
X155474649Y122844321D01*
X155761287Y122844321D01*
X155785554Y122685981D01*
X155837193Y122562917D01*
X155908225Y122486383D01*
X155990670Y122467633D01*
X156076548Y122517919D01*
X156106766Y122555086D01*
X156150985Y122669044D01*
X156171779Y122837983D01*
X156172666Y122884333D01*
X156153371Y123081065D01*
X156098973Y123222471D01*
X156014698Y123297955D01*
X155963783Y123307667D01*
X155875742Y123281442D01*
X155815139Y123195048D01*
X155774088Y123036908D01*
X155772370Y123026685D01*
X155761287Y122844321D01*
X155474649Y122844321D01*
X155484372Y123010766D01*
X155544083Y123177828D01*
X155652273Y123307005D01*
X155774628Y123363247D01*
X155940177Y123391432D01*
X156111372Y123388979D01*
G36*
X158173506Y123308990D02*
G01*
X158123093Y123234607D01*
X158058444Y123100432D01*
X157989198Y122927904D01*
X157944237Y122799106D01*
X157880720Y122609482D01*
X157834012Y122486932D01*
X157795909Y122417644D01*
X157758204Y122387803D01*
X157712694Y122383598D01*
X157698276Y122385033D01*
X157638277Y122402616D01*
X157592742Y122450787D01*
X157549980Y122547740D01*
X157506812Y122682989D01*
X157460906Y122823803D01*
X157420337Y122925871D01*
X157393398Y122968513D01*
X157392191Y122968739D01*
X157366039Y122931671D01*
X157324007Y122833566D01*
X157274546Y122694479D01*
X157267441Y122672667D01*
X157213865Y122517413D01*
X157170444Y122427425D01*
X157126214Y122385979D01*
X157073172Y122376333D01*
X156986957Y122399197D01*
X156951285Y122436421D01*
X156929192Y122501367D01*
X156888982Y122625937D01*
X156837480Y122788845D01*
X156807606Y122884527D01*
X156747196Y123059710D01*
X156685318Y123207406D01*
X156631481Y123306154D01*
X156609742Y123331093D01*
X156578703Y123361523D01*
X156593912Y123379206D01*
X156667813Y123387468D01*
X156812846Y123389632D01*
X156828833Y123389641D01*
X156980476Y123387799D01*
X157059903Y123380092D01*
X157079522Y123363247D01*
X157051744Y123333990D01*
X157048689Y123331653D01*
X157007938Y123294257D01*
X156993310Y123248112D01*
X157004386Y123169559D01*
X157040750Y123034941D01*
X157043290Y123026083D01*
X157084887Y122887767D01*
X157120214Y122781765D01*
X157138068Y122738305D01*
X157160874Y122756570D01*
X157201405Y122839832D01*
X157252381Y122972199D01*
X157273833Y123034639D01*
X157336345Y123209022D01*
X157387619Y123315819D01*
X157436151Y123369781D01*
X157475213Y123384358D01*
X157525282Y123380702D01*
X157565184Y123341788D01*
X157605011Y123251625D01*
X157651764Y123104627D01*
X157694927Y122952387D01*
X157726119Y122828436D01*
X157738953Y122758276D01*
X157739000Y122756297D01*
X157750579Y122718405D01*
X157783568Y122757240D01*
X157835342Y122868343D01*
X157892281Y123016611D01*
X157940326Y123159236D01*
X157956650Y123242129D01*
X157943376Y123283167D01*
X157925243Y123293991D01*
X157866490Y123331903D01*
X157883453Y123364996D01*
X157967192Y123386957D01*
X158064482Y123392333D01*
X158262964Y123392333D01*
X158173506Y123308990D01*
G37*
X158173506Y123308990D02*
X158123093Y123234607D01*
X158058444Y123100432D01*
X157989198Y122927904D01*
X157944237Y122799106D01*
X157880720Y122609482D01*
X157834012Y122486932D01*
X157795909Y122417644D01*
X157758204Y122387803D01*
X157712694Y122383598D01*
X157698276Y122385033D01*
X157638277Y122402616D01*
X157592742Y122450787D01*
X157549980Y122547740D01*
X157506812Y122682989D01*
X157460906Y122823803D01*
X157420337Y122925871D01*
X157393398Y122968513D01*
X157392191Y122968739D01*
X157366039Y122931671D01*
X157324007Y122833566D01*
X157274546Y122694479D01*
X157267441Y122672667D01*
X157213865Y122517413D01*
X157170444Y122427425D01*
X157126214Y122385979D01*
X157073172Y122376333D01*
X156986957Y122399197D01*
X156951285Y122436421D01*
X156929192Y122501367D01*
X156888982Y122625937D01*
X156837480Y122788845D01*
X156807606Y122884527D01*
X156747196Y123059710D01*
X156685318Y123207406D01*
X156631481Y123306154D01*
X156609742Y123331093D01*
X156578703Y123361523D01*
X156593912Y123379206D01*
X156667813Y123387468D01*
X156812846Y123389632D01*
X156828833Y123389641D01*
X156980476Y123387799D01*
X157059903Y123380092D01*
X157079522Y123363247D01*
X157051744Y123333990D01*
X157048689Y123331653D01*
X157007938Y123294257D01*
X156993310Y123248112D01*
X157004386Y123169559D01*
X157040750Y123034941D01*
X157043290Y123026083D01*
X157084887Y122887767D01*
X157120214Y122781765D01*
X157138068Y122738305D01*
X157160874Y122756570D01*
X157201405Y122839832D01*
X157252381Y122972199D01*
X157273833Y123034639D01*
X157336345Y123209022D01*
X157387619Y123315819D01*
X157436151Y123369781D01*
X157475213Y123384358D01*
X157525282Y123380702D01*
X157565184Y123341788D01*
X157605011Y123251625D01*
X157651764Y123104627D01*
X157694927Y122952387D01*
X157726119Y122828436D01*
X157738953Y122758276D01*
X157739000Y122756297D01*
X157750579Y122718405D01*
X157783568Y122757240D01*
X157835342Y122868343D01*
X157892281Y123016611D01*
X157940326Y123159236D01*
X157956650Y123242129D01*
X157943376Y123283167D01*
X157925243Y123293991D01*
X157866490Y123331903D01*
X157883453Y123364996D01*
X157967192Y123386957D01*
X158064482Y123392333D01*
X158262964Y123392333D01*
X158173506Y123308990D01*
G36*
X159127980Y123378506D02*
G01*
X159216064Y123328988D01*
X159270429Y123231727D01*
X159297908Y123074672D01*
X159305333Y122852419D01*
X159308893Y122668757D01*
X159321280Y122554363D01*
X159345055Y122494069D01*
X159368833Y122476309D01*
X159431465Y122438351D01*
X159416489Y122406579D01*
X159330930Y122384679D01*
X159181809Y122376337D01*
X159178333Y122376333D01*
X159022190Y122382144D01*
X158942522Y122402263D01*
X158931762Y122440727D01*
X158968486Y122488220D01*
X158988917Y122551698D01*
X159000319Y122680690D01*
X159001196Y122856380D01*
X159000236Y122888270D01*
X158992646Y123062124D01*
X158981278Y123168792D01*
X158960936Y123225739D01*
X158926424Y123250435D01*
X158890253Y123258000D01*
X158790429Y123256292D01*
X158724713Y123209905D01*
X158687120Y123107499D01*
X158671664Y122937732D01*
X158670333Y122841346D01*
X158674369Y122663749D01*
X158688319Y122555150D01*
X158714944Y122500183D01*
X158733833Y122488025D01*
X158798367Y122448297D01*
X158786396Y122413276D01*
X158706080Y122387748D01*
X158565579Y122376498D01*
X158543333Y122376333D01*
X158409372Y122382057D01*
X158317334Y122396935D01*
X158289333Y122414138D01*
X158323022Y122460416D01*
X158352833Y122476309D01*
X158389227Y122530640D01*
X158412007Y122644293D01*
X158421333Y122793048D01*
X158417364Y122952689D01*
X158400258Y123098998D01*
X158370175Y123207756D01*
X158347793Y123243159D01*
X158302349Y123296695D01*
X158307971Y123330118D01*
X158376245Y123353993D01*
X158492005Y123374639D01*
X158604819Y123387793D01*
X158657020Y123375365D01*
X158670300Y123331642D01*
X158670333Y123327683D01*
X158676267Y123277112D01*
X158708491Y123288193D01*
X158747750Y123322272D01*
X158849247Y123371968D01*
X158992583Y123392292D01*
X158999349Y123392333D01*
X159127980Y123378506D01*
G37*
X159127980Y123378506D02*
X159216064Y123328988D01*
X159270429Y123231727D01*
X159297908Y123074672D01*
X159305333Y122852419D01*
X159308893Y122668757D01*
X159321280Y122554363D01*
X159345055Y122494069D01*
X159368833Y122476309D01*
X159431465Y122438351D01*
X159416489Y122406579D01*
X159330930Y122384679D01*
X159181809Y122376337D01*
X159178333Y122376333D01*
X159022190Y122382144D01*
X158942522Y122402263D01*
X158931762Y122440727D01*
X158968486Y122488220D01*
X158988917Y122551698D01*
X159000319Y122680690D01*
X159001196Y122856380D01*
X159000236Y122888270D01*
X158992646Y123062124D01*
X158981278Y123168792D01*
X158960936Y123225739D01*
X158926424Y123250435D01*
X158890253Y123258000D01*
X158790429Y123256292D01*
X158724713Y123209905D01*
X158687120Y123107499D01*
X158671664Y122937732D01*
X158670333Y122841346D01*
X158674369Y122663749D01*
X158688319Y122555150D01*
X158714944Y122500183D01*
X158733833Y122488025D01*
X158798367Y122448297D01*
X158786396Y122413276D01*
X158706080Y122387748D01*
X158565579Y122376498D01*
X158543333Y122376333D01*
X158409372Y122382057D01*
X158317334Y122396935D01*
X158289333Y122414138D01*
X158323022Y122460416D01*
X158352833Y122476309D01*
X158389227Y122530640D01*
X158412007Y122644293D01*
X158421333Y122793048D01*
X158417364Y122952689D01*
X158400258Y123098998D01*
X158370175Y123207756D01*
X158347793Y123243159D01*
X158302349Y123296695D01*
X158307971Y123330118D01*
X158376245Y123353993D01*
X158492005Y123374639D01*
X158604819Y123387793D01*
X158657020Y123375365D01*
X158670300Y123331642D01*
X158670333Y123327683D01*
X158676267Y123277112D01*
X158708491Y123288193D01*
X158747750Y123322272D01*
X158849247Y123371968D01*
X158992583Y123392292D01*
X158999349Y123392333D01*
X159127980Y123378506D01*
G36*
X155172893Y128844438D02*
G01*
X155369137Y128815323D01*
X155504647Y128762344D01*
X155590572Y128681854D01*
X155623104Y128618473D01*
X155637682Y128474476D01*
X155584105Y128340901D01*
X155492338Y128259064D01*
X155400625Y128209981D01*
X155500895Y128160001D01*
X155623875Y128058720D01*
X155681188Y127923667D01*
X155672102Y127775404D01*
X155595883Y127634494D01*
X155522104Y127565336D01*
X155454631Y127524960D01*
X155368044Y127497403D01*
X155243675Y127479363D01*
X155062852Y127467537D01*
X154942690Y127462827D01*
X154722440Y127459044D01*
X154568973Y127464629D01*
X154489304Y127479178D01*
X154479333Y127489455D01*
X154513135Y127539948D01*
X154542833Y127556309D01*
X154569099Y127580365D01*
X154587237Y127637358D01*
X154598591Y127739953D01*
X154604506Y127900817D01*
X154606324Y128132616D01*
X154606324Y128133667D01*
X154902666Y128133667D01*
X154902666Y127583333D01*
X155058083Y127583333D01*
X155184172Y127602033D01*
X155284021Y127647630D01*
X155290916Y127653395D01*
X155362754Y127765149D01*
X155366532Y127889217D01*
X155312357Y128005379D01*
X155210336Y128093416D01*
X155070577Y128133111D01*
X155050833Y128133667D01*
X154902666Y128133667D01*
X154606324Y128133667D01*
X154606333Y128154833D01*
X154604787Y128392919D01*
X154599254Y128559046D01*
X154588389Y128665880D01*
X154570849Y128726088D01*
X154570611Y128726333D01*
X154902666Y128726333D01*
X154902666Y128260667D01*
X155036916Y128260667D01*
X155157990Y128282429D01*
X155248583Y128330728D01*
X155308922Y128430413D01*
X155323361Y128553535D01*
X155288763Y128659489D01*
X155275200Y128675533D01*
X155201743Y128708972D01*
X155086346Y128725843D01*
X155063533Y128726333D01*
X154902666Y128726333D01*
X154570611Y128726333D01*
X154545290Y128752336D01*
X154542833Y128753358D01*
X154478570Y128790373D01*
X154495893Y128819566D01*
X154592018Y128840166D01*
X154764159Y128851404D01*
X154904768Y128853333D01*
X155172893Y128844438D01*
G37*
X155172893Y128844438D02*
X155369137Y128815323D01*
X155504647Y128762344D01*
X155590572Y128681854D01*
X155623104Y128618473D01*
X155637682Y128474476D01*
X155584105Y128340901D01*
X155492338Y128259064D01*
X155400625Y128209981D01*
X155500895Y128160001D01*
X155623875Y128058720D01*
X155681188Y127923667D01*
X155672102Y127775404D01*
X155595883Y127634494D01*
X155522104Y127565336D01*
X155454631Y127524960D01*
X155368044Y127497403D01*
X155243675Y127479363D01*
X155062852Y127467537D01*
X154942690Y127462827D01*
X154722440Y127459044D01*
X154568973Y127464629D01*
X154489304Y127479178D01*
X154479333Y127489455D01*
X154513135Y127539948D01*
X154542833Y127556309D01*
X154569099Y127580365D01*
X154587237Y127637358D01*
X154598591Y127739953D01*
X154604506Y127900817D01*
X154606324Y128132616D01*
X154606324Y128133667D01*
X154902666Y128133667D01*
X154902666Y127583333D01*
X155058083Y127583333D01*
X155184172Y127602033D01*
X155284021Y127647630D01*
X155290916Y127653395D01*
X155362754Y127765149D01*
X155366532Y127889217D01*
X155312357Y128005379D01*
X155210336Y128093416D01*
X155070577Y128133111D01*
X155050833Y128133667D01*
X154902666Y128133667D01*
X154606324Y128133667D01*
X154606333Y128154833D01*
X154604787Y128392919D01*
X154599254Y128559046D01*
X154588389Y128665880D01*
X154570849Y128726088D01*
X154570611Y128726333D01*
X154902666Y128726333D01*
X154902666Y128260667D01*
X155036916Y128260667D01*
X155157990Y128282429D01*
X155248583Y128330728D01*
X155308922Y128430413D01*
X155323361Y128553535D01*
X155288763Y128659489D01*
X155275200Y128675533D01*
X155201743Y128708972D01*
X155086346Y128725843D01*
X155063533Y128726333D01*
X154902666Y128726333D01*
X154570611Y128726333D01*
X154545290Y128752336D01*
X154542833Y128753358D01*
X154478570Y128790373D01*
X154495893Y128819566D01*
X154592018Y128840166D01*
X154764159Y128851404D01*
X154904768Y128853333D01*
X155172893Y128844438D01*
G36*
X156492372Y128468979D02*
G01*
X156631667Y128433309D01*
X156640678Y128428745D01*
X156752409Y128324990D01*
X156820956Y128172068D01*
X156846442Y127993370D01*
X156828991Y127812288D01*
X156768727Y127652211D01*
X156665775Y127536531D01*
X156635845Y127518547D01*
X156478684Y127471383D01*
X156291357Y127461948D01*
X156120312Y127491933D01*
X156101051Y127499073D01*
X155974291Y127591778D01*
X155891645Y127735873D01*
X155854783Y127909492D01*
X155855649Y127924321D01*
X156142287Y127924321D01*
X156166554Y127765981D01*
X156218193Y127642917D01*
X156289225Y127566383D01*
X156371670Y127547633D01*
X156457548Y127597919D01*
X156487766Y127635086D01*
X156531985Y127749044D01*
X156552779Y127917983D01*
X156553666Y127964333D01*
X156534371Y128161065D01*
X156479973Y128302471D01*
X156395698Y128377955D01*
X156344783Y128387667D01*
X156256742Y128361442D01*
X156196139Y128275048D01*
X156155088Y128116908D01*
X156153370Y128106685D01*
X156142287Y127924321D01*
X155855649Y127924321D01*
X155865372Y128090766D01*
X155925083Y128257828D01*
X156033273Y128387005D01*
X156155628Y128443247D01*
X156321177Y128471432D01*
X156492372Y128468979D01*
G37*
X156492372Y128468979D02*
X156631667Y128433309D01*
X156640678Y128428745D01*
X156752409Y128324990D01*
X156820956Y128172068D01*
X156846442Y127993370D01*
X156828991Y127812288D01*
X156768727Y127652211D01*
X156665775Y127536531D01*
X156635845Y127518547D01*
X156478684Y127471383D01*
X156291357Y127461948D01*
X156120312Y127491933D01*
X156101051Y127499073D01*
X155974291Y127591778D01*
X155891645Y127735873D01*
X155854783Y127909492D01*
X155855649Y127924321D01*
X156142287Y127924321D01*
X156166554Y127765981D01*
X156218193Y127642917D01*
X156289225Y127566383D01*
X156371670Y127547633D01*
X156457548Y127597919D01*
X156487766Y127635086D01*
X156531985Y127749044D01*
X156552779Y127917983D01*
X156553666Y127964333D01*
X156534371Y128161065D01*
X156479973Y128302471D01*
X156395698Y128377955D01*
X156344783Y128387667D01*
X156256742Y128361442D01*
X156196139Y128275048D01*
X156155088Y128116908D01*
X156153370Y128106685D01*
X156142287Y127924321D01*
X155855649Y127924321D01*
X155865372Y128090766D01*
X155925083Y128257828D01*
X156033273Y128387005D01*
X156155628Y128443247D01*
X156321177Y128471432D01*
X156492372Y128468979D01*
G36*
X157432860Y128650904D02*
G01*
X157442666Y128578167D01*
X157456335Y128502531D01*
X157514439Y128474861D01*
X157569666Y128472333D01*
X157670492Y128453401D01*
X157696666Y128408833D01*
X157659307Y128358711D01*
X157568018Y128345333D01*
X157439370Y128345333D01*
X157451601Y127974917D01*
X157463833Y127604500D01*
X157612000Y127616651D01*
X157706410Y127621085D01*
X157729667Y127606312D01*
X157694674Y127563264D01*
X157691907Y127560488D01*
X157606482Y127510540D01*
X157482165Y127473954D01*
X157454254Y127469452D01*
X157335996Y127462435D01*
X157264151Y127489903D01*
X157215596Y127545619D01*
X157176209Y127633489D01*
X157154026Y127769013D01*
X157146398Y127969394D01*
X157146333Y127994920D01*
X157143503Y128172108D01*
X157133217Y128279641D01*
X157112779Y128332394D01*
X157082833Y128345333D01*
X157028241Y128359132D01*
X157038399Y128404120D01*
X157116086Y128485689D01*
X157186582Y128546417D01*
X157313610Y128642818D01*
X157392799Y128677287D01*
X157432860Y128650904D01*
G37*
X157432860Y128650904D02*
X157442666Y128578167D01*
X157456335Y128502531D01*
X157514439Y128474861D01*
X157569666Y128472333D01*
X157670492Y128453401D01*
X157696666Y128408833D01*
X157659307Y128358711D01*
X157568018Y128345333D01*
X157439370Y128345333D01*
X157451601Y127974917D01*
X157463833Y127604500D01*
X157612000Y127616651D01*
X157706410Y127621085D01*
X157729667Y127606312D01*
X157694674Y127563264D01*
X157691907Y127560488D01*
X157606482Y127510540D01*
X157482165Y127473954D01*
X157454254Y127469452D01*
X157335996Y127462435D01*
X157264151Y127489903D01*
X157215596Y127545619D01*
X157176209Y127633489D01*
X157154026Y127769013D01*
X157146398Y127969394D01*
X157146333Y127994920D01*
X157143503Y128172108D01*
X157133217Y128279641D01*
X157112779Y128332394D01*
X157082833Y128345333D01*
X157028241Y128359132D01*
X157038399Y128404120D01*
X157116086Y128485689D01*
X157186582Y128546417D01*
X157313610Y128642818D01*
X157392799Y128677287D01*
X157432860Y128650904D01*
G36*
X158204666Y128657149D02*
G01*
X158213129Y128492827D01*
X158237380Y128402522D01*
X158275716Y128389891D01*
X158310500Y128430000D01*
X158367404Y128457249D01*
X158471852Y128470024D01*
X158587809Y128467395D01*
X158679243Y128448433D01*
X158695745Y128439935D01*
X158772074Y128350623D01*
X158818965Y128199613D01*
X158838697Y127978390D01*
X158839666Y127902288D01*
X158843880Y127726658D01*
X158858408Y127619949D01*
X158886080Y127566746D01*
X158903166Y127556309D01*
X158966125Y127518551D01*
X158950980Y127487275D01*
X158864225Y127465547D01*
X158712355Y127456434D01*
X158691500Y127456333D01*
X158532716Y127463836D01*
X158438319Y127484299D01*
X158414801Y127514656D01*
X158468656Y127551838D01*
X158479833Y127556309D01*
X158514521Y127591354D01*
X158534518Y127673791D01*
X158542713Y127819067D01*
X158543333Y127896043D01*
X158539494Y128098925D01*
X158525000Y128231286D01*
X158495381Y128307044D01*
X158446170Y128340120D01*
X158399104Y128345333D01*
X158309218Y128330525D01*
X158251006Y128277199D01*
X158218476Y128172004D01*
X158205633Y128001589D01*
X158204666Y127912205D01*
X158208643Y127733919D01*
X158222400Y127624660D01*
X158248674Y127569081D01*
X158268166Y127556309D01*
X158330798Y127518351D01*
X158315823Y127486579D01*
X158230263Y127464679D01*
X158081142Y127456337D01*
X158077666Y127456333D01*
X157943709Y127462364D01*
X157851671Y127478040D01*
X157823666Y127496168D01*
X157854438Y127553502D01*
X157866000Y127562167D01*
X157882741Y127613678D01*
X157895940Y127737407D01*
X157904743Y127920949D01*
X157908299Y128151897D01*
X157908333Y128178499D01*
X157907054Y128416955D01*
X157902346Y128582925D01*
X157892900Y128688559D01*
X157877411Y128746010D01*
X157854569Y128767432D01*
X157844833Y128768667D01*
X157794295Y128791157D01*
X157780438Y128832898D01*
X157813083Y128855177D01*
X157871140Y128863759D01*
X157978877Y128883088D01*
X158024750Y128891826D01*
X158204666Y128926632D01*
X158204666Y128657149D01*
G37*
X158204666Y128657149D02*
X158213129Y128492827D01*
X158237380Y128402522D01*
X158275716Y128389891D01*
X158310500Y128430000D01*
X158367404Y128457249D01*
X158471852Y128470024D01*
X158587809Y128467395D01*
X158679243Y128448433D01*
X158695745Y128439935D01*
X158772074Y128350623D01*
X158818965Y128199613D01*
X158838697Y127978390D01*
X158839666Y127902288D01*
X158843880Y127726658D01*
X158858408Y127619949D01*
X158886080Y127566746D01*
X158903166Y127556309D01*
X158966125Y127518551D01*
X158950980Y127487275D01*
X158864225Y127465547D01*
X158712355Y127456434D01*
X158691500Y127456333D01*
X158532716Y127463836D01*
X158438319Y127484299D01*
X158414801Y127514656D01*
X158468656Y127551838D01*
X158479833Y127556309D01*
X158514521Y127591354D01*
X158534518Y127673791D01*
X158542713Y127819067D01*
X158543333Y127896043D01*
X158539494Y128098925D01*
X158525000Y128231286D01*
X158495381Y128307044D01*
X158446170Y128340120D01*
X158399104Y128345333D01*
X158309218Y128330525D01*
X158251006Y128277199D01*
X158218476Y128172004D01*
X158205633Y128001589D01*
X158204666Y127912205D01*
X158208643Y127733919D01*
X158222400Y127624660D01*
X158248674Y127569081D01*
X158268166Y127556309D01*
X158330798Y127518351D01*
X158315823Y127486579D01*
X158230263Y127464679D01*
X158081142Y127456337D01*
X158077666Y127456333D01*
X157943709Y127462364D01*
X157851671Y127478040D01*
X157823666Y127496168D01*
X157854438Y127553502D01*
X157866000Y127562167D01*
X157882741Y127613678D01*
X157895940Y127737407D01*
X157904743Y127920949D01*
X157908299Y128151897D01*
X157908333Y128178499D01*
X157907054Y128416955D01*
X157902346Y128582925D01*
X157892900Y128688559D01*
X157877411Y128746010D01*
X157854569Y128767432D01*
X157844833Y128768667D01*
X157794295Y128791157D01*
X157780438Y128832898D01*
X157813083Y128855177D01*
X157871140Y128863759D01*
X157978877Y128883088D01*
X158024750Y128891826D01*
X158204666Y128926632D01*
X158204666Y128657149D01*
G36*
X157719466Y133512631D02*
G01*
X157784070Y133473963D01*
X157844150Y133405575D01*
X157879392Y133305384D01*
X157898798Y133147439D01*
X157899190Y133142084D01*
X157892027Y132895946D01*
X157830908Y132713729D01*
X157716660Y132596450D01*
X157550113Y132545127D01*
X157415301Y132547493D01*
X157231000Y132568267D01*
X157231000Y132409297D01*
X157250121Y132276559D01*
X157315918Y132191421D01*
X157326250Y132183884D01*
X157370745Y132149144D01*
X157371479Y132129044D01*
X157316286Y132119344D01*
X157193000Y132115806D01*
X157129188Y132115221D01*
X156977376Y132115349D01*
X156896333Y132121781D01*
X156872178Y132139212D01*
X156891028Y132172339D01*
X156906938Y132190417D01*
X156937838Y132239852D01*
X156958445Y132317407D01*
X156970591Y132438470D01*
X156976105Y132618428D01*
X156977000Y132779621D01*
X156976175Y132890692D01*
X157233311Y132890692D01*
X157235927Y132760302D01*
X157245753Y132685979D01*
X157246092Y132685063D01*
X157304713Y132631159D01*
X157398517Y132625653D01*
X157495560Y132665348D01*
X157546099Y132715086D01*
X157588099Y132821250D01*
X157610150Y132971400D01*
X157612279Y133135671D01*
X157594515Y133284198D01*
X157556884Y133387118D01*
X157545476Y133401143D01*
X157472673Y133458221D01*
X157406116Y133453396D01*
X157335985Y133408782D01*
X157289454Y133354460D01*
X157260039Y133261419D01*
X157242336Y133109753D01*
X157238482Y133049512D01*
X157233311Y132890692D01*
X156976175Y132890692D01*
X156975143Y133029348D01*
X156968115Y133206349D01*
X156953727Y133322513D01*
X156929791Y133389729D01*
X156894121Y133419885D01*
X156858170Y133425333D01*
X156809079Y133435842D01*
X156825726Y133461535D01*
X156892634Y133493662D01*
X156994330Y133523473D01*
X157051083Y133534411D01*
X157164526Y133547739D01*
X157217268Y133535728D01*
X157230945Y133492757D01*
X157231000Y133487683D01*
X157236934Y133437112D01*
X157269157Y133448193D01*
X157308416Y133482272D01*
X157424772Y133538069D01*
X157574304Y133547970D01*
X157719466Y133512631D01*
G37*
X157719466Y133512631D02*
X157784070Y133473963D01*
X157844150Y133405575D01*
X157879392Y133305384D01*
X157898798Y133147439D01*
X157899190Y133142084D01*
X157892027Y132895946D01*
X157830908Y132713729D01*
X157716660Y132596450D01*
X157550113Y132545127D01*
X157415301Y132547493D01*
X157231000Y132568267D01*
X157231000Y132409297D01*
X157250121Y132276559D01*
X157315918Y132191421D01*
X157326250Y132183884D01*
X157370745Y132149144D01*
X157371479Y132129044D01*
X157316286Y132119344D01*
X157193000Y132115806D01*
X157129188Y132115221D01*
X156977376Y132115349D01*
X156896333Y132121781D01*
X156872178Y132139212D01*
X156891028Y132172339D01*
X156906938Y132190417D01*
X156937838Y132239852D01*
X156958445Y132317407D01*
X156970591Y132438470D01*
X156976105Y132618428D01*
X156977000Y132779621D01*
X156976175Y132890692D01*
X157233311Y132890692D01*
X157235927Y132760302D01*
X157245753Y132685979D01*
X157246092Y132685063D01*
X157304713Y132631159D01*
X157398517Y132625653D01*
X157495560Y132665348D01*
X157546099Y132715086D01*
X157588099Y132821250D01*
X157610150Y132971400D01*
X157612279Y133135671D01*
X157594515Y133284198D01*
X157556884Y133387118D01*
X157545476Y133401143D01*
X157472673Y133458221D01*
X157406116Y133453396D01*
X157335985Y133408782D01*
X157289454Y133354460D01*
X157260039Y133261419D01*
X157242336Y133109753D01*
X157238482Y133049512D01*
X157233311Y132890692D01*
X156976175Y132890692D01*
X156975143Y133029348D01*
X156968115Y133206349D01*
X156953727Y133322513D01*
X156929791Y133389729D01*
X156894121Y133419885D01*
X156858170Y133425333D01*
X156809079Y133435842D01*
X156825726Y133461535D01*
X156892634Y133493662D01*
X156994330Y133523473D01*
X157051083Y133534411D01*
X157164526Y133547739D01*
X157217268Y133535728D01*
X157230945Y133492757D01*
X157231000Y133487683D01*
X157236934Y133437112D01*
X157269157Y133448193D01*
X157308416Y133482272D01*
X157424772Y133538069D01*
X157574304Y133547970D01*
X157719466Y133512631D01*
G36*
X156621199Y133928608D02*
G01*
X156690300Y133920860D01*
X156699037Y133902943D01*
X156659563Y133869929D01*
X156648916Y133862450D01*
X156608303Y133828894D01*
X156581222Y133784784D01*
X156564948Y133713906D01*
X156556758Y133600046D01*
X156553926Y133426989D01*
X156553666Y133295531D01*
X156552460Y133079510D01*
X156546921Y132930304D01*
X156534171Y132830073D01*
X156511329Y132760977D01*
X156475517Y132705178D01*
X156454219Y132679441D01*
X156381050Y132610410D01*
X156292998Y132572035D01*
X156159896Y132553085D01*
X156104969Y132549411D01*
X155913094Y132552209D01*
X155758925Y132580922D01*
X155727140Y132593102D01*
X155633874Y132650754D01*
X155568392Y132734364D01*
X155526382Y132857781D01*
X155503533Y133034853D01*
X155495531Y133279426D01*
X155495333Y133337495D01*
X155494121Y133541332D01*
X155488412Y133677657D01*
X155475094Y133763616D01*
X155451057Y133816351D01*
X155413191Y133853008D01*
X155400083Y133862450D01*
X155358453Y133895240D01*
X155357433Y133914990D01*
X155409055Y133924987D01*
X155525355Y133928513D01*
X155643500Y133928893D01*
X155809121Y133927838D01*
X155902116Y133922483D01*
X155934519Y133909544D01*
X155918364Y133885735D01*
X155886916Y133862450D01*
X155845630Y133828167D01*
X155818365Y133782968D01*
X155802233Y133710238D01*
X155794348Y133593366D01*
X155791823Y133415739D01*
X155791666Y133314337D01*
X155793264Y133100876D01*
X155799769Y132954878D01*
X155813748Y132859172D01*
X155837768Y132796586D01*
X155874397Y132749949D01*
X155876333Y132748000D01*
X156000067Y132678404D01*
X156147952Y132670037D01*
X156280992Y132723335D01*
X156316368Y132758388D01*
X156340954Y132813087D01*
X156357354Y132902959D01*
X156368171Y133043527D01*
X156376010Y133250318D01*
X156377364Y133297853D01*
X156382573Y133514076D01*
X156382724Y133660322D01*
X156375800Y133751224D01*
X156359784Y133801417D01*
X156332659Y133825535D01*
X156303280Y133835456D01*
X156223463Y133867191D01*
X156220577Y133896396D01*
X156286902Y133918881D01*
X156414717Y133930459D01*
X156479583Y133931113D01*
X156621199Y133928608D01*
G37*
X156621199Y133928608D02*
X156690300Y133920860D01*
X156699037Y133902943D01*
X156659563Y133869929D01*
X156648916Y133862450D01*
X156608303Y133828894D01*
X156581222Y133784784D01*
X156564948Y133713906D01*
X156556758Y133600046D01*
X156553926Y133426989D01*
X156553666Y133295531D01*
X156552460Y133079510D01*
X156546921Y132930304D01*
X156534171Y132830073D01*
X156511329Y132760977D01*
X156475517Y132705178D01*
X156454219Y132679441D01*
X156381050Y132610410D01*
X156292998Y132572035D01*
X156159896Y132553085D01*
X156104969Y132549411D01*
X155913094Y132552209D01*
X155758925Y132580922D01*
X155727140Y132593102D01*
X155633874Y132650754D01*
X155568392Y132734364D01*
X155526382Y132857781D01*
X155503533Y133034853D01*
X155495531Y133279426D01*
X155495333Y133337495D01*
X155494121Y133541332D01*
X155488412Y133677657D01*
X155475094Y133763616D01*
X155451057Y133816351D01*
X155413191Y133853008D01*
X155400083Y133862450D01*
X155358453Y133895240D01*
X155357433Y133914990D01*
X155409055Y133924987D01*
X155525355Y133928513D01*
X155643500Y133928893D01*
X155809121Y133927838D01*
X155902116Y133922483D01*
X155934519Y133909544D01*
X155918364Y133885735D01*
X155886916Y133862450D01*
X155845630Y133828167D01*
X155818365Y133782968D01*
X155802233Y133710238D01*
X155794348Y133593366D01*
X155791823Y133415739D01*
X155791666Y133314337D01*
X155793264Y133100876D01*
X155799769Y132954878D01*
X155813748Y132859172D01*
X155837768Y132796586D01*
X155874397Y132749949D01*
X155876333Y132748000D01*
X156000067Y132678404D01*
X156147952Y132670037D01*
X156280992Y132723335D01*
X156316368Y132758388D01*
X156340954Y132813087D01*
X156357354Y132902959D01*
X156368171Y133043527D01*
X156376010Y133250318D01*
X156377364Y133297853D01*
X156382573Y133514076D01*
X156382724Y133660322D01*
X156375800Y133751224D01*
X156359784Y133801417D01*
X156332659Y133825535D01*
X156303280Y133835456D01*
X156223463Y133867191D01*
X156220577Y133896396D01*
X156286902Y133918881D01*
X156414717Y133930459D01*
X156479583Y133931113D01*
X156621199Y133928608D01*
G36*
X143342610Y142945832D02*
G01*
X143425782Y142939199D01*
X143448572Y142924274D01*
X143423125Y142897119D01*
X143398583Y142879450D01*
X143360069Y142848106D01*
X143333624Y142807269D01*
X143316987Y142741929D01*
X143307899Y142637074D01*
X143304101Y142477695D01*
X143303333Y142248781D01*
X143303333Y141680333D01*
X143516058Y141680333D01*
X143642893Y141683866D01*
X143709629Y141703184D01*
X143740790Y141751367D01*
X143754183Y141807333D01*
X143795150Y141906453D01*
X143861392Y141934333D01*
X143912448Y141922257D01*
X143932702Y141871371D01*
X143930560Y141759688D01*
X143930184Y141754417D01*
X143917166Y141574500D01*
X143398583Y141562614D01*
X143190132Y141560849D01*
X143024922Y141565400D01*
X142916913Y141575533D01*
X142880000Y141589835D01*
X142913721Y141637285D01*
X142943500Y141653309D01*
X142969765Y141677365D01*
X142987904Y141734358D01*
X142999258Y141836953D01*
X143005173Y141997817D01*
X143006991Y142229616D01*
X143007000Y142251833D01*
X143005454Y142489919D01*
X142999920Y142656046D01*
X142989055Y142762880D01*
X142971515Y142823088D01*
X142945956Y142849336D01*
X142943500Y142850358D01*
X142879963Y142887816D01*
X142895042Y142918161D01*
X142982819Y142939017D01*
X143137375Y142948006D01*
X143186916Y142948113D01*
X143342610Y142945832D01*
G37*
X143342610Y142945832D02*
X143425782Y142939199D01*
X143448572Y142924274D01*
X143423125Y142897119D01*
X143398583Y142879450D01*
X143360069Y142848106D01*
X143333624Y142807269D01*
X143316987Y142741929D01*
X143307899Y142637074D01*
X143304101Y142477695D01*
X143303333Y142248781D01*
X143303333Y141680333D01*
X143516058Y141680333D01*
X143642893Y141683866D01*
X143709629Y141703184D01*
X143740790Y141751367D01*
X143754183Y141807333D01*
X143795150Y141906453D01*
X143861392Y141934333D01*
X143912448Y141922257D01*
X143932702Y141871371D01*
X143930560Y141759688D01*
X143930184Y141754417D01*
X143917166Y141574500D01*
X143398583Y141562614D01*
X143190132Y141560849D01*
X143024922Y141565400D01*
X142916913Y141575533D01*
X142880000Y141589835D01*
X142913721Y141637285D01*
X142943500Y141653309D01*
X142969765Y141677365D01*
X142987904Y141734358D01*
X142999258Y141836953D01*
X143005173Y141997817D01*
X143006991Y142229616D01*
X143007000Y142251833D01*
X143005454Y142489919D01*
X142999920Y142656046D01*
X142989055Y142762880D01*
X142971515Y142823088D01*
X142945956Y142849336D01*
X142943500Y142850358D01*
X142879963Y142887816D01*
X142895042Y142918161D01*
X142982819Y142939017D01*
X143137375Y142948006D01*
X143186916Y142948113D01*
X143342610Y142945832D01*
G36*
X144446333Y142129259D02*
G01*
X144448622Y141920052D01*
X144456734Y141781416D01*
X144472537Y141699349D01*
X144497900Y141659846D01*
X144509833Y141653309D01*
X144572791Y141615551D01*
X144557646Y141584275D01*
X144470892Y141562547D01*
X144319022Y141553434D01*
X144298166Y141553333D01*
X144158038Y141558638D01*
X144058930Y141572517D01*
X144023000Y141591138D01*
X144056689Y141637416D01*
X144086500Y141653309D01*
X144119089Y141685196D01*
X144138834Y141760337D01*
X144148234Y141893824D01*
X144150000Y142036735D01*
X144147106Y142218936D01*
X144136239Y142334406D01*
X144114119Y142400952D01*
X144077466Y142436377D01*
X144076269Y142437055D01*
X144026311Y142477678D01*
X144045725Y142509526D01*
X144140231Y142536472D01*
X144248595Y142553739D01*
X144446333Y142580842D01*
X144446333Y142129259D01*
G37*
X144446333Y142129259D02*
X144448622Y141920052D01*
X144456734Y141781416D01*
X144472537Y141699349D01*
X144497900Y141659846D01*
X144509833Y141653309D01*
X144572791Y141615551D01*
X144557646Y141584275D01*
X144470892Y141562547D01*
X144319022Y141553434D01*
X144298166Y141553333D01*
X144158038Y141558638D01*
X144058930Y141572517D01*
X144023000Y141591138D01*
X144056689Y141637416D01*
X144086500Y141653309D01*
X144119089Y141685196D01*
X144138834Y141760337D01*
X144148234Y141893824D01*
X144150000Y142036735D01*
X144147106Y142218936D01*
X144136239Y142334406D01*
X144114119Y142400952D01*
X144077466Y142436377D01*
X144076269Y142437055D01*
X144026311Y142477678D01*
X144045725Y142509526D01*
X144140231Y142536472D01*
X144248595Y142553739D01*
X144446333Y142580842D01*
X144446333Y142129259D01*
G36*
X145071527Y142747904D02*
G01*
X145081333Y142675167D01*
X145095002Y142599531D01*
X145153106Y142571861D01*
X145208333Y142569333D01*
X145309159Y142550401D01*
X145335333Y142505833D01*
X145297974Y142455711D01*
X145206685Y142442333D01*
X145078037Y142442333D01*
X145090268Y142071917D01*
X145102500Y141701500D01*
X145250666Y141713651D01*
X145345077Y141718085D01*
X145368334Y141703312D01*
X145333340Y141660264D01*
X145330574Y141657488D01*
X145245148Y141607540D01*
X145120831Y141570954D01*
X145092920Y141566452D01*
X144974663Y141559435D01*
X144902818Y141586903D01*
X144854263Y141642619D01*
X144814875Y141730489D01*
X144792693Y141866013D01*
X144785064Y142066394D01*
X144785000Y142091920D01*
X144782170Y142269108D01*
X144771884Y142376641D01*
X144751446Y142429394D01*
X144721500Y142442333D01*
X144666908Y142456132D01*
X144677065Y142501120D01*
X144754753Y142582689D01*
X144825249Y142643417D01*
X144952277Y142739818D01*
X145031465Y142774287D01*
X145071527Y142747904D01*
G37*
X145071527Y142747904D02*
X145081333Y142675167D01*
X145095002Y142599531D01*
X145153106Y142571861D01*
X145208333Y142569333D01*
X145309159Y142550401D01*
X145335333Y142505833D01*
X145297974Y142455711D01*
X145206685Y142442333D01*
X145078037Y142442333D01*
X145090268Y142071917D01*
X145102500Y141701500D01*
X145250666Y141713651D01*
X145345077Y141718085D01*
X145368334Y141703312D01*
X145333340Y141660264D01*
X145330574Y141657488D01*
X145245148Y141607540D01*
X145120831Y141570954D01*
X145092920Y141566452D01*
X144974663Y141559435D01*
X144902818Y141586903D01*
X144854263Y141642619D01*
X144814875Y141730489D01*
X144792693Y141866013D01*
X144785064Y142066394D01*
X144785000Y142091920D01*
X144782170Y142269108D01*
X144771884Y142376641D01*
X144751446Y142429394D01*
X144721500Y142442333D01*
X144666908Y142456132D01*
X144677065Y142501120D01*
X144754753Y142582689D01*
X144825249Y142643417D01*
X144952277Y142739818D01*
X145031465Y142774287D01*
X145071527Y142747904D01*
G36*
X145833527Y142747904D02*
G01*
X145843333Y142675167D01*
X145857002Y142599531D01*
X145915106Y142571861D01*
X145970333Y142569333D01*
X146071159Y142550401D01*
X146097333Y142505833D01*
X146059974Y142455711D01*
X145968685Y142442333D01*
X145840037Y142442333D01*
X145852268Y142071917D01*
X145864500Y141701500D01*
X146012666Y141713651D01*
X146107077Y141718085D01*
X146130334Y141703312D01*
X146095340Y141660264D01*
X146092574Y141657488D01*
X146007148Y141607540D01*
X145882831Y141570954D01*
X145854920Y141566452D01*
X145736663Y141559435D01*
X145664818Y141586903D01*
X145616263Y141642619D01*
X145576875Y141730489D01*
X145554693Y141866013D01*
X145547064Y142066394D01*
X145547000Y142091920D01*
X145544170Y142269108D01*
X145533884Y142376641D01*
X145513446Y142429394D01*
X145483500Y142442333D01*
X145428908Y142456132D01*
X145439065Y142501120D01*
X145516753Y142582689D01*
X145587249Y142643417D01*
X145714277Y142739818D01*
X145793465Y142774287D01*
X145833527Y142747904D01*
G37*
X145833527Y142747904D02*
X145843333Y142675167D01*
X145857002Y142599531D01*
X145915106Y142571861D01*
X145970333Y142569333D01*
X146071159Y142550401D01*
X146097333Y142505833D01*
X146059974Y142455711D01*
X145968685Y142442333D01*
X145840037Y142442333D01*
X145852268Y142071917D01*
X145864500Y141701500D01*
X146012666Y141713651D01*
X146107077Y141718085D01*
X146130334Y141703312D01*
X146095340Y141660264D01*
X146092574Y141657488D01*
X146007148Y141607540D01*
X145882831Y141570954D01*
X145854920Y141566452D01*
X145736663Y141559435D01*
X145664818Y141586903D01*
X145616263Y141642619D01*
X145576875Y141730489D01*
X145554693Y141866013D01*
X145547064Y142066394D01*
X145547000Y142091920D01*
X145544170Y142269108D01*
X145533884Y142376641D01*
X145513446Y142429394D01*
X145483500Y142442333D01*
X145428908Y142456132D01*
X145439065Y142501120D01*
X145516753Y142582689D01*
X145587249Y142643417D01*
X145714277Y142739818D01*
X145793465Y142774287D01*
X145833527Y142747904D01*
G36*
X146605333Y142335172D02*
G01*
X146606585Y142078855D01*
X146611083Y141895267D01*
X146619934Y141772497D01*
X146634249Y141698633D01*
X146655136Y141661764D01*
X146668833Y141653309D01*
X146731465Y141615351D01*
X146716489Y141583579D01*
X146630930Y141561679D01*
X146481809Y141553337D01*
X146478333Y141553333D01*
X146344375Y141559364D01*
X146252338Y141575040D01*
X146224333Y141593168D01*
X146255105Y141650502D01*
X146266666Y141659167D01*
X146283408Y141710678D01*
X146296607Y141834407D01*
X146305410Y142017949D01*
X146308965Y142248897D01*
X146309000Y142275499D01*
X146307721Y142513955D01*
X146303012Y142679925D01*
X146293567Y142785559D01*
X146278077Y142843010D01*
X146255236Y142864432D01*
X146245500Y142865667D01*
X146189126Y142885902D01*
X146182000Y142903063D01*
X146220288Y142943158D01*
X146318999Y142974893D01*
X146453896Y142991238D01*
X146488916Y142992089D01*
X146605333Y142992667D01*
X146605333Y142335172D01*
G37*
X146605333Y142335172D02*
X146606585Y142078855D01*
X146611083Y141895267D01*
X146619934Y141772497D01*
X146634249Y141698633D01*
X146655136Y141661764D01*
X146668833Y141653309D01*
X146731465Y141615351D01*
X146716489Y141583579D01*
X146630930Y141561679D01*
X146481809Y141553337D01*
X146478333Y141553333D01*
X146344375Y141559364D01*
X146252338Y141575040D01*
X146224333Y141593168D01*
X146255105Y141650502D01*
X146266666Y141659167D01*
X146283408Y141710678D01*
X146296607Y141834407D01*
X146305410Y142017949D01*
X146308965Y142248897D01*
X146309000Y142275499D01*
X146307721Y142513955D01*
X146303012Y142679925D01*
X146293567Y142785559D01*
X146278077Y142843010D01*
X146255236Y142864432D01*
X146245500Y142865667D01*
X146189126Y142885902D01*
X146182000Y142903063D01*
X146220288Y142943158D01*
X146318999Y142974893D01*
X146453896Y142991238D01*
X146488916Y142992089D01*
X146605333Y142992667D01*
X146605333Y142335172D01*
G36*
X147601308Y142553406D02*
G01*
X147715950Y142494986D01*
X147797625Y142378114D01*
X147830963Y142299523D01*
X147856240Y142191833D01*
X147828782Y142120625D01*
X147739661Y142079677D01*
X147579946Y142062765D01*
X147489149Y142061333D01*
X147335772Y142059422D01*
X147248518Y142049596D01*
X147208861Y142025722D01*
X147198276Y141981665D01*
X147198000Y141964920D01*
X147222210Y141857022D01*
X147266669Y141770466D01*
X147333287Y141703674D01*
X147423954Y141685683D01*
X147488919Y141690695D01*
X147615680Y141712648D01*
X147716728Y141741383D01*
X147722359Y141743728D01*
X147780699Y141757461D01*
X147782516Y141718829D01*
X147714515Y141635654D01*
X147590936Y141580683D01*
X147436994Y141556813D01*
X147277908Y141566942D01*
X147138894Y141613968D01*
X147098894Y141640271D01*
X146982773Y141781801D01*
X146921839Y141966096D01*
X146923499Y142166025D01*
X146938318Y142228396D01*
X146949386Y142251404D01*
X147201153Y142251404D01*
X147212751Y142180808D01*
X147290718Y142150690D01*
X147388500Y142146000D01*
X147507222Y142151342D01*
X147563402Y142174040D01*
X147578847Y142224104D01*
X147579000Y142233450D01*
X147552575Y142364122D01*
X147486254Y142451059D01*
X147399470Y142485863D01*
X147311654Y142460141D01*
X147247128Y142376842D01*
X147201153Y142251404D01*
X146949386Y142251404D01*
X147023400Y142405262D01*
X147156573Y142516023D01*
X147344862Y142565552D01*
X147429981Y142569333D01*
X147601308Y142553406D01*
G37*
X147601308Y142553406D02*
X147715950Y142494986D01*
X147797625Y142378114D01*
X147830963Y142299523D01*
X147856240Y142191833D01*
X147828782Y142120625D01*
X147739661Y142079677D01*
X147579946Y142062765D01*
X147489149Y142061333D01*
X147335772Y142059422D01*
X147248518Y142049596D01*
X147208861Y142025722D01*
X147198276Y141981665D01*
X147198000Y141964920D01*
X147222210Y141857022D01*
X147266669Y141770466D01*
X147333287Y141703674D01*
X147423954Y141685683D01*
X147488919Y141690695D01*
X147615680Y141712648D01*
X147716728Y141741383D01*
X147722359Y141743728D01*
X147780699Y141757461D01*
X147782516Y141718829D01*
X147714515Y141635654D01*
X147590936Y141580683D01*
X147436994Y141556813D01*
X147277908Y141566942D01*
X147138894Y141613968D01*
X147098894Y141640271D01*
X146982773Y141781801D01*
X146921839Y141966096D01*
X146923499Y142166025D01*
X146938318Y142228396D01*
X146949386Y142251404D01*
X147201153Y142251404D01*
X147212751Y142180808D01*
X147290718Y142150690D01*
X147388500Y142146000D01*
X147507222Y142151342D01*
X147563402Y142174040D01*
X147578847Y142224104D01*
X147579000Y142233450D01*
X147552575Y142364122D01*
X147486254Y142451059D01*
X147399470Y142485863D01*
X147311654Y142460141D01*
X147247128Y142376842D01*
X147201153Y142251404D01*
X146949386Y142251404D01*
X147023400Y142405262D01*
X147156573Y142516023D01*
X147344862Y142565552D01*
X147429981Y142569333D01*
X147601308Y142553406D01*
G36*
X154984277Y142945832D02*
G01*
X155067448Y142939199D01*
X155090239Y142924274D01*
X155064792Y142897119D01*
X155040250Y142879450D01*
X155001736Y142848106D01*
X154975290Y142807269D01*
X154958653Y142741929D01*
X154949566Y142637074D01*
X154945767Y142477695D01*
X154945000Y142248781D01*
X154945000Y141680333D01*
X155157725Y141680333D01*
X155284559Y141683866D01*
X155351295Y141703184D01*
X155382457Y141751367D01*
X155395850Y141807333D01*
X155436816Y141906453D01*
X155503059Y141934333D01*
X155554114Y141922257D01*
X155574368Y141871371D01*
X155572227Y141759688D01*
X155571850Y141754417D01*
X155558833Y141574500D01*
X155040250Y141562614D01*
X154831798Y141560849D01*
X154666588Y141565400D01*
X154558580Y141575533D01*
X154521666Y141589835D01*
X154555388Y141637285D01*
X154585166Y141653309D01*
X154611432Y141677365D01*
X154629570Y141734358D01*
X154640925Y141836953D01*
X154646839Y141997817D01*
X154648657Y142229616D01*
X154648666Y142251833D01*
X154647120Y142489919D01*
X154641587Y142656046D01*
X154630722Y142762880D01*
X154613182Y142823088D01*
X154587623Y142849336D01*
X154585166Y142850358D01*
X154521630Y142887816D01*
X154536709Y142918161D01*
X154624486Y142939017D01*
X154779042Y142948006D01*
X154828583Y142948113D01*
X154984277Y142945832D01*
G37*
X154984277Y142945832D02*
X155067448Y142939199D01*
X155090239Y142924274D01*
X155064792Y142897119D01*
X155040250Y142879450D01*
X155001736Y142848106D01*
X154975290Y142807269D01*
X154958653Y142741929D01*
X154949566Y142637074D01*
X154945767Y142477695D01*
X154945000Y142248781D01*
X154945000Y141680333D01*
X155157725Y141680333D01*
X155284559Y141683866D01*
X155351295Y141703184D01*
X155382457Y141751367D01*
X155395850Y141807333D01*
X155436816Y141906453D01*
X155503059Y141934333D01*
X155554114Y141922257D01*
X155574368Y141871371D01*
X155572227Y141759688D01*
X155571850Y141754417D01*
X155558833Y141574500D01*
X155040250Y141562614D01*
X154831798Y141560849D01*
X154666588Y141565400D01*
X154558580Y141575533D01*
X154521666Y141589835D01*
X154555388Y141637285D01*
X154585166Y141653309D01*
X154611432Y141677365D01*
X154629570Y141734358D01*
X154640925Y141836953D01*
X154646839Y141997817D01*
X154648657Y142229616D01*
X154648666Y142251833D01*
X154647120Y142489919D01*
X154641587Y142656046D01*
X154630722Y142762880D01*
X154613182Y142823088D01*
X154587623Y142849336D01*
X154585166Y142850358D01*
X154521630Y142887816D01*
X154536709Y142918161D01*
X154624486Y142939017D01*
X154779042Y142948006D01*
X154828583Y142948113D01*
X154984277Y142945832D01*
G36*
X156365372Y142565979D02*
G01*
X156504667Y142530309D01*
X156513678Y142525745D01*
X156625409Y142421990D01*
X156693956Y142269068D01*
X156719442Y142090370D01*
X156701991Y141909288D01*
X156641727Y141749211D01*
X156538775Y141633531D01*
X156508845Y141615547D01*
X156351684Y141568383D01*
X156164357Y141558948D01*
X155993312Y141588933D01*
X155974051Y141596073D01*
X155847291Y141688778D01*
X155764645Y141832873D01*
X155727783Y142006492D01*
X155728649Y142021321D01*
X156015287Y142021321D01*
X156039554Y141862981D01*
X156091193Y141739917D01*
X156162225Y141663383D01*
X156244670Y141644633D01*
X156330548Y141694919D01*
X156360766Y141732086D01*
X156404985Y141846044D01*
X156425779Y142014983D01*
X156426666Y142061333D01*
X156407371Y142258065D01*
X156352973Y142399471D01*
X156268698Y142474955D01*
X156217783Y142484667D01*
X156129742Y142458442D01*
X156069139Y142372048D01*
X156028088Y142213908D01*
X156026370Y142203685D01*
X156015287Y142021321D01*
X155728649Y142021321D01*
X155738372Y142187766D01*
X155798083Y142354828D01*
X155906273Y142484005D01*
X156028628Y142540247D01*
X156194177Y142568432D01*
X156365372Y142565979D01*
G37*
X156365372Y142565979D02*
X156504667Y142530309D01*
X156513678Y142525745D01*
X156625409Y142421990D01*
X156693956Y142269068D01*
X156719442Y142090370D01*
X156701991Y141909288D01*
X156641727Y141749211D01*
X156538775Y141633531D01*
X156508845Y141615547D01*
X156351684Y141568383D01*
X156164357Y141558948D01*
X155993312Y141588933D01*
X155974051Y141596073D01*
X155847291Y141688778D01*
X155764645Y141832873D01*
X155727783Y142006492D01*
X155728649Y142021321D01*
X156015287Y142021321D01*
X156039554Y141862981D01*
X156091193Y141739917D01*
X156162225Y141663383D01*
X156244670Y141644633D01*
X156330548Y141694919D01*
X156360766Y141732086D01*
X156404985Y141846044D01*
X156425779Y142014983D01*
X156426666Y142061333D01*
X156407371Y142258065D01*
X156352973Y142399471D01*
X156268698Y142474955D01*
X156217783Y142484667D01*
X156129742Y142458442D01*
X156069139Y142372048D01*
X156028088Y142213908D01*
X156026370Y142203685D01*
X156015287Y142021321D01*
X155728649Y142021321D01*
X155738372Y142187766D01*
X155798083Y142354828D01*
X155906273Y142484005D01*
X156028628Y142540247D01*
X156194177Y142568432D01*
X156365372Y142565979D01*
G36*
X157263527Y142747904D02*
G01*
X157273333Y142675167D01*
X157287002Y142599531D01*
X157345106Y142571861D01*
X157400333Y142569333D01*
X157501159Y142550401D01*
X157527333Y142505833D01*
X157489974Y142455711D01*
X157398685Y142442333D01*
X157270037Y142442333D01*
X157282268Y142071917D01*
X157294500Y141701500D01*
X157442666Y141713651D01*
X157537077Y141718085D01*
X157560334Y141703312D01*
X157525340Y141660264D01*
X157522574Y141657488D01*
X157437148Y141607540D01*
X157312831Y141570954D01*
X157284920Y141566452D01*
X157166663Y141559435D01*
X157094818Y141586903D01*
X157046263Y141642619D01*
X157006875Y141730489D01*
X156984693Y141866013D01*
X156977064Y142066394D01*
X156977000Y142091920D01*
X156974170Y142269108D01*
X156963884Y142376641D01*
X156943446Y142429394D01*
X156913500Y142442333D01*
X156858908Y142456132D01*
X156869065Y142501120D01*
X156946753Y142582689D01*
X157017249Y142643417D01*
X157144277Y142739818D01*
X157223465Y142774287D01*
X157263527Y142747904D01*
G37*
X157263527Y142747904D02*
X157273333Y142675167D01*
X157287002Y142599531D01*
X157345106Y142571861D01*
X157400333Y142569333D01*
X157501159Y142550401D01*
X157527333Y142505833D01*
X157489974Y142455711D01*
X157398685Y142442333D01*
X157270037Y142442333D01*
X157282268Y142071917D01*
X157294500Y141701500D01*
X157442666Y141713651D01*
X157537077Y141718085D01*
X157560334Y141703312D01*
X157525340Y141660264D01*
X157522574Y141657488D01*
X157437148Y141607540D01*
X157312831Y141570954D01*
X157284920Y141566452D01*
X157166663Y141559435D01*
X157094818Y141586903D01*
X157046263Y141642619D01*
X157006875Y141730489D01*
X156984693Y141866013D01*
X156977064Y142066394D01*
X156977000Y142091920D01*
X156974170Y142269108D01*
X156963884Y142376641D01*
X156943446Y142429394D01*
X156913500Y142442333D01*
X156858908Y142456132D01*
X156869065Y142501120D01*
X156946753Y142582689D01*
X157017249Y142643417D01*
X157144277Y142739818D01*
X157223465Y142774287D01*
X157263527Y142747904D01*
G36*
X158251006Y142570631D02*
G01*
X158371873Y142548842D01*
X158435767Y142496546D01*
X158463165Y142412775D01*
X158453295Y142329239D01*
X158405385Y142277647D01*
X158378589Y142273000D01*
X158303418Y142311014D01*
X158273121Y142374164D01*
X158217521Y142470104D01*
X158130662Y142511397D01*
X158040587Y142494290D01*
X157975338Y142415028D01*
X157974969Y142414073D01*
X157963715Y142351040D01*
X157993629Y142296105D01*
X158077669Y142235385D01*
X158206142Y142166419D01*
X158386342Y142051703D01*
X158482052Y141932871D01*
X158493360Y141809689D01*
X158420354Y141681924D01*
X158397090Y141657243D01*
X158265468Y141580718D01*
X158088030Y141553859D01*
X157889124Y141578947D01*
X157813083Y141602537D01*
X157724675Y141656803D01*
X157697039Y141749632D01*
X157696666Y141768528D01*
X157709195Y141858017D01*
X157760348Y141889827D01*
X157797208Y141892000D01*
X157875772Y141871022D01*
X157916723Y141793312D01*
X157923150Y141765000D01*
X157957711Y141671793D01*
X158024929Y141639378D01*
X158053952Y141638000D01*
X158156352Y141668698D01*
X158213563Y141743166D01*
X158209354Y141834965D01*
X158192443Y141863606D01*
X158120975Y141923504D01*
X158009422Y141985270D01*
X157983247Y141996675D01*
X157837222Y142085718D01*
X157743430Y142200745D01*
X157706930Y142324408D01*
X157732779Y142439361D01*
X157826033Y142528257D01*
X157827975Y142529306D01*
X157937000Y142560700D01*
X158090810Y142574935D01*
X158251006Y142570631D01*
G37*
X158251006Y142570631D02*
X158371873Y142548842D01*
X158435767Y142496546D01*
X158463165Y142412775D01*
X158453295Y142329239D01*
X158405385Y142277647D01*
X158378589Y142273000D01*
X158303418Y142311014D01*
X158273121Y142374164D01*
X158217521Y142470104D01*
X158130662Y142511397D01*
X158040587Y142494290D01*
X157975338Y142415028D01*
X157974969Y142414073D01*
X157963715Y142351040D01*
X157993629Y142296105D01*
X158077669Y142235385D01*
X158206142Y142166419D01*
X158386342Y142051703D01*
X158482052Y141932871D01*
X158493360Y141809689D01*
X158420354Y141681924D01*
X158397090Y141657243D01*
X158265468Y141580718D01*
X158088030Y141553859D01*
X157889124Y141578947D01*
X157813083Y141602537D01*
X157724675Y141656803D01*
X157697039Y141749632D01*
X157696666Y141768528D01*
X157709195Y141858017D01*
X157760348Y141889827D01*
X157797208Y141892000D01*
X157875772Y141871022D01*
X157916723Y141793312D01*
X157923150Y141765000D01*
X157957711Y141671793D01*
X158024929Y141639378D01*
X158053952Y141638000D01*
X158156352Y141668698D01*
X158213563Y141743166D01*
X158209354Y141834965D01*
X158192443Y141863606D01*
X158120975Y141923504D01*
X158009422Y141985270D01*
X157983247Y141996675D01*
X157837222Y142085718D01*
X157743430Y142200745D01*
X157706930Y142324408D01*
X157732779Y142439361D01*
X157826033Y142528257D01*
X157827975Y142529306D01*
X157937000Y142560700D01*
X158090810Y142574935D01*
X158251006Y142570631D01*
G36*
X144392723Y142960170D02*
G01*
X144423695Y142897353D01*
X144425166Y142865667D01*
X144409886Y142788766D01*
X144347428Y142754711D01*
X144293114Y142746981D01*
X144192462Y142751150D01*
X144145586Y142797642D01*
X144139552Y142816378D01*
X144139217Y142924244D01*
X144205000Y142980389D01*
X144302760Y142985473D01*
X144392723Y142960170D01*
G37*
X144392723Y142960170D02*
X144423695Y142897353D01*
X144425166Y142865667D01*
X144409886Y142788766D01*
X144347428Y142754711D01*
X144293114Y142746981D01*
X144192462Y142751150D01*
X144145586Y142797642D01*
X144139552Y142816378D01*
X144139217Y142924244D01*
X144205000Y142980389D01*
X144302760Y142985473D01*
X144392723Y142960170D01*
G36*
X149142683Y160323189D02*
G01*
X149153890Y160315377D01*
X149168842Y160271221D01*
X149169293Y160176883D01*
X149154469Y160023719D01*
X149123596Y159803090D01*
X149087844Y159578409D01*
X149035973Y159254292D01*
X149000833Y159005525D01*
X148983295Y158824285D01*
X148984230Y158702754D01*
X149004510Y158633111D01*
X149045005Y158607538D01*
X149106586Y158618213D01*
X149190126Y158657317D01*
X149190449Y158657490D01*
X149253194Y158678709D01*
X149271913Y158636670D01*
X149272333Y158618609D01*
X149234127Y158530994D01*
X149135793Y158449751D01*
X149001754Y158385647D01*
X148856435Y158349446D01*
X148724259Y158351916D01*
X148690250Y158362029D01*
X148646341Y158386216D01*
X148616678Y158426100D01*
X148601359Y158492491D01*
X148600483Y158596197D01*
X148614150Y158748027D01*
X148642460Y158958787D01*
X148685510Y159239287D01*
X148699096Y159324761D01*
X148733438Y159552366D01*
X148759956Y159752848D01*
X148776828Y159910251D01*
X148782231Y160008621D01*
X148779816Y160031379D01*
X148724767Y160079920D01*
X148644333Y160103451D01*
X148557505Y160134647D01*
X148531500Y160180000D01*
X148569539Y160222800D01*
X148666807Y160265356D01*
X148798030Y160302170D01*
X148937934Y160327745D01*
X149061242Y160336584D01*
X149142683Y160323189D01*
G37*
X149142683Y160323189D02*
X149153890Y160315377D01*
X149168842Y160271221D01*
X149169293Y160176883D01*
X149154469Y160023719D01*
X149123596Y159803090D01*
X149087844Y159578409D01*
X149035973Y159254292D01*
X149000833Y159005525D01*
X148983295Y158824285D01*
X148984230Y158702754D01*
X149004510Y158633111D01*
X149045005Y158607538D01*
X149106586Y158618213D01*
X149190126Y158657317D01*
X149190449Y158657490D01*
X149253194Y158678709D01*
X149271913Y158636670D01*
X149272333Y158618609D01*
X149234127Y158530994D01*
X149135793Y158449751D01*
X149001754Y158385647D01*
X148856435Y158349446D01*
X148724259Y158351916D01*
X148690250Y158362029D01*
X148646341Y158386216D01*
X148616678Y158426100D01*
X148601359Y158492491D01*
X148600483Y158596197D01*
X148614150Y158748027D01*
X148642460Y158958787D01*
X148685510Y159239287D01*
X148699096Y159324761D01*
X148733438Y159552366D01*
X148759956Y159752848D01*
X148776828Y159910251D01*
X148782231Y160008621D01*
X148779816Y160031379D01*
X148724767Y160079920D01*
X148644333Y160103451D01*
X148557505Y160134647D01*
X148531500Y160180000D01*
X148569539Y160222800D01*
X148666807Y160265356D01*
X148798030Y160302170D01*
X148937934Y160327745D01*
X149061242Y160336584D01*
X149142683Y160323189D01*
G36*
X152300301Y160335939D02*
G01*
X152369591Y160299153D01*
X152423216Y160250299D01*
X152476816Y160184542D01*
X152511872Y160104917D01*
X152528602Y159999057D01*
X152527228Y159854597D01*
X152507969Y159659169D01*
X152471046Y159400406D01*
X152441611Y159216360D01*
X152409850Y159007726D01*
X152387283Y158829717D01*
X152375637Y158698612D01*
X152376640Y158630691D01*
X152378950Y158625606D01*
X152434960Y158618449D01*
X152529170Y158641978D01*
X152530892Y158642624D01*
X152623745Y158667801D01*
X152667788Y158647904D01*
X152674588Y158634106D01*
X152662026Y158561821D01*
X152586910Y158485816D01*
X152470162Y158416535D01*
X152332699Y158364428D01*
X152195442Y158339939D01*
X152100072Y158347198D01*
X152051299Y158369759D01*
X152020238Y158416153D01*
X152006708Y158497445D01*
X152010527Y158624699D01*
X152031514Y158808977D01*
X152069486Y159061345D01*
X152086611Y159166928D01*
X152123636Y159398165D01*
X152155085Y159605309D01*
X152178522Y159771463D01*
X152191514Y159879735D01*
X152193333Y159907389D01*
X152155473Y160019387D01*
X152059585Y160103914D01*
X151932202Y160137664D01*
X151931125Y160137667D01*
X151778490Y160096094D01*
X151637850Y159973023D01*
X151510358Y159770924D01*
X151397167Y159492269D01*
X151299429Y159139529D01*
X151218298Y158715175D01*
X151195491Y158560750D01*
X151167719Y158359667D01*
X150827588Y158359667D01*
X150853835Y158518417D01*
X150920274Y158924582D01*
X150971872Y159255257D01*
X151008540Y159518324D01*
X151030190Y159721663D01*
X151036733Y159873156D01*
X151028079Y159980685D01*
X151004140Y160052132D01*
X150964826Y160095377D01*
X150910048Y160118303D01*
X150839717Y160128790D01*
X150835638Y160129143D01*
X150680013Y160109066D01*
X150540704Y160019335D01*
X150416346Y159857318D01*
X150305573Y159620386D01*
X150207020Y159305908D01*
X150119322Y158911253D01*
X150076436Y158666583D01*
X150026683Y158359667D01*
X149861175Y158359667D01*
X149756766Y158366858D01*
X149699992Y158384776D01*
X149696500Y158391417D01*
X149703006Y158441442D01*
X149720599Y158561434D01*
X149747214Y158737722D01*
X149780787Y158956633D01*
X149819128Y159203681D01*
X149856544Y159453372D01*
X149886993Y159676051D01*
X149908768Y159857522D01*
X149920163Y159983594D01*
X149919598Y160039764D01*
X149866351Y160079496D01*
X149772700Y160095333D01*
X149683158Y160107432D01*
X149658943Y160150971D01*
X149661031Y160167540D01*
X149711241Y160225366D01*
X149840879Y160278303D01*
X149918081Y160299090D01*
X150093109Y160335047D01*
X150203139Y160334641D01*
X150262565Y160290921D01*
X150285782Y160196935D01*
X150288333Y160120293D01*
X150288333Y159930929D01*
X150472182Y160125513D01*
X150582547Y160235115D01*
X150672584Y160296448D01*
X150775864Y160326534D01*
X150895010Y160339916D01*
X151102174Y160336774D01*
X151249016Y160283146D01*
X151347425Y160172753D01*
X151387052Y160080068D01*
X151434994Y159934803D01*
X151617877Y160128365D01*
X151726099Y160236484D01*
X151813895Y160296875D01*
X151915809Y160326203D01*
X152057596Y160340505D01*
X152206154Y160347292D01*
X152300301Y160335939D01*
G37*
X152300301Y160335939D02*
X152369591Y160299153D01*
X152423216Y160250299D01*
X152476816Y160184542D01*
X152511872Y160104917D01*
X152528602Y159999057D01*
X152527228Y159854597D01*
X152507969Y159659169D01*
X152471046Y159400406D01*
X152441611Y159216360D01*
X152409850Y159007726D01*
X152387283Y158829717D01*
X152375637Y158698612D01*
X152376640Y158630691D01*
X152378950Y158625606D01*
X152434960Y158618449D01*
X152529170Y158641978D01*
X152530892Y158642624D01*
X152623745Y158667801D01*
X152667788Y158647904D01*
X152674588Y158634106D01*
X152662026Y158561821D01*
X152586910Y158485816D01*
X152470162Y158416535D01*
X152332699Y158364428D01*
X152195442Y158339939D01*
X152100072Y158347198D01*
X152051299Y158369759D01*
X152020238Y158416153D01*
X152006708Y158497445D01*
X152010527Y158624699D01*
X152031514Y158808977D01*
X152069486Y159061345D01*
X152086611Y159166928D01*
X152123636Y159398165D01*
X152155085Y159605309D01*
X152178522Y159771463D01*
X152191514Y159879735D01*
X152193333Y159907389D01*
X152155473Y160019387D01*
X152059585Y160103914D01*
X151932202Y160137664D01*
X151931125Y160137667D01*
X151778490Y160096094D01*
X151637850Y159973023D01*
X151510358Y159770924D01*
X151397167Y159492269D01*
X151299429Y159139529D01*
X151218298Y158715175D01*
X151195491Y158560750D01*
X151167719Y158359667D01*
X150827588Y158359667D01*
X150853835Y158518417D01*
X150920274Y158924582D01*
X150971872Y159255257D01*
X151008540Y159518324D01*
X151030190Y159721663D01*
X151036733Y159873156D01*
X151028079Y159980685D01*
X151004140Y160052132D01*
X150964826Y160095377D01*
X150910048Y160118303D01*
X150839717Y160128790D01*
X150835638Y160129143D01*
X150680013Y160109066D01*
X150540704Y160019335D01*
X150416346Y159857318D01*
X150305573Y159620386D01*
X150207020Y159305908D01*
X150119322Y158911253D01*
X150076436Y158666583D01*
X150026683Y158359667D01*
X149861175Y158359667D01*
X149756766Y158366858D01*
X149699992Y158384776D01*
X149696500Y158391417D01*
X149703006Y158441442D01*
X149720599Y158561434D01*
X149747214Y158737722D01*
X149780787Y158956633D01*
X149819128Y159203681D01*
X149856544Y159453372D01*
X149886993Y159676051D01*
X149908768Y159857522D01*
X149920163Y159983594D01*
X149919598Y160039764D01*
X149866351Y160079496D01*
X149772700Y160095333D01*
X149683158Y160107432D01*
X149658943Y160150971D01*
X149661031Y160167540D01*
X149711241Y160225366D01*
X149840879Y160278303D01*
X149918081Y160299090D01*
X150093109Y160335047D01*
X150203139Y160334641D01*
X150262565Y160290921D01*
X150285782Y160196935D01*
X150288333Y160120293D01*
X150288333Y159930929D01*
X150472182Y160125513D01*
X150582547Y160235115D01*
X150672584Y160296448D01*
X150775864Y160326534D01*
X150895010Y160339916D01*
X151102174Y160336774D01*
X151249016Y160283146D01*
X151347425Y160172753D01*
X151387052Y160080068D01*
X151434994Y159934803D01*
X151617877Y160128365D01*
X151726099Y160236484D01*
X151813895Y160296875D01*
X151915809Y160326203D01*
X152057596Y160340505D01*
X152206154Y160347292D01*
X152300301Y160335939D01*
G36*
X153672349Y160323189D02*
G01*
X153683556Y160315377D01*
X153698508Y160271221D01*
X153698960Y160176883D01*
X153684136Y160023719D01*
X153653263Y159803090D01*
X153617510Y159578409D01*
X153565640Y159254292D01*
X153530500Y159005525D01*
X153512962Y158824285D01*
X153513897Y158702754D01*
X153534176Y158633111D01*
X153574671Y158607538D01*
X153636253Y158618213D01*
X153719793Y158657317D01*
X153720116Y158657490D01*
X153782860Y158678709D01*
X153801580Y158636670D01*
X153802000Y158618609D01*
X153763794Y158530994D01*
X153665460Y158449751D01*
X153531421Y158385647D01*
X153386102Y158349446D01*
X153253926Y158351916D01*
X153219916Y158362029D01*
X153176008Y158386216D01*
X153146345Y158426100D01*
X153131026Y158492491D01*
X153130150Y158596197D01*
X153143817Y158748027D01*
X153172126Y158958787D01*
X153215177Y159239287D01*
X153228763Y159324761D01*
X153263105Y159552366D01*
X153289623Y159752848D01*
X153306495Y159910251D01*
X153311898Y160008621D01*
X153309483Y160031379D01*
X153254433Y160079920D01*
X153174000Y160103451D01*
X153087172Y160134647D01*
X153061166Y160180000D01*
X153099206Y160222800D01*
X153196474Y160265356D01*
X153327697Y160302170D01*
X153467600Y160327745D01*
X153590909Y160336584D01*
X153672349Y160323189D01*
G37*
X153672349Y160323189D02*
X153683556Y160315377D01*
X153698508Y160271221D01*
X153698960Y160176883D01*
X153684136Y160023719D01*
X153653263Y159803090D01*
X153617510Y159578409D01*
X153565640Y159254292D01*
X153530500Y159005525D01*
X153512962Y158824285D01*
X153513897Y158702754D01*
X153534176Y158633111D01*
X153574671Y158607538D01*
X153636253Y158618213D01*
X153719793Y158657317D01*
X153720116Y158657490D01*
X153782860Y158678709D01*
X153801580Y158636670D01*
X153802000Y158618609D01*
X153763794Y158530994D01*
X153665460Y158449751D01*
X153531421Y158385647D01*
X153386102Y158349446D01*
X153253926Y158351916D01*
X153219916Y158362029D01*
X153176008Y158386216D01*
X153146345Y158426100D01*
X153131026Y158492491D01*
X153130150Y158596197D01*
X153143817Y158748027D01*
X153172126Y158958787D01*
X153215177Y159239287D01*
X153228763Y159324761D01*
X153263105Y159552366D01*
X153289623Y159752848D01*
X153306495Y159910251D01*
X153311898Y160008621D01*
X153309483Y160031379D01*
X153254433Y160079920D01*
X153174000Y160103451D01*
X153087172Y160134647D01*
X153061166Y160180000D01*
X153099206Y160222800D01*
X153196474Y160265356D01*
X153327697Y160302170D01*
X153467600Y160327745D01*
X153590909Y160336584D01*
X153672349Y160323189D01*
G36*
X154878184Y160722431D02*
G01*
X154899421Y160683960D01*
X154894937Y160592776D01*
X154888063Y160539833D01*
X154861953Y160349333D01*
X155204339Y160349333D01*
X155374209Y160347244D01*
X155474245Y160338892D01*
X155519217Y160321156D01*
X155523899Y160290910D01*
X155521029Y160282371D01*
X155497749Y160187007D01*
X155495333Y160155371D01*
X155476245Y160123982D01*
X155409645Y160105253D01*
X155281529Y160096667D01*
X155161255Y160095333D01*
X155039543Y160097420D01*
X154949280Y160096464D01*
X154883991Y160081639D01*
X154837203Y160042122D01*
X154802444Y159967086D01*
X154773239Y159845707D01*
X154743116Y159667160D01*
X154705601Y159420620D01*
X154687466Y159303046D01*
X154650545Y159056616D01*
X154628491Y158880305D01*
X154620519Y158761024D01*
X154625842Y158685686D01*
X154643675Y158641203D01*
X154647453Y158636296D01*
X154700938Y158588287D01*
X154765699Y158577412D01*
X154862089Y158605913D01*
X155010459Y158676033D01*
X155011170Y158676393D01*
X155136783Y158734989D01*
X155212916Y158753591D01*
X155262358Y158736312D01*
X155275959Y158724183D01*
X155303854Y158677471D01*
X155273964Y158629259D01*
X155213198Y158582479D01*
X155009746Y158460434D01*
X154807110Y158375948D01*
X154625463Y158335482D01*
X154484980Y158345496D01*
X154479333Y158347462D01*
X154343111Y158436083D01*
X154274688Y158573031D01*
X154267666Y158644647D01*
X154274003Y158736136D01*
X154291100Y158890504D01*
X154316087Y159087534D01*
X154346092Y159307011D01*
X154378244Y159528718D01*
X154409674Y159732439D01*
X154437510Y159897956D01*
X154458881Y160005053D01*
X154463147Y160021250D01*
X154463021Y160071190D01*
X154410139Y160092178D01*
X154334019Y160095333D01*
X154230131Y160104799D01*
X154187855Y160140988D01*
X154183000Y160176637D01*
X154218517Y160249017D01*
X154307645Y160285316D01*
X154395937Y160327665D01*
X154504894Y160409677D01*
X154612241Y160510272D01*
X154695702Y160608371D01*
X154732999Y160682897D01*
X154733333Y160688122D01*
X154769029Y160721667D01*
X154823754Y160730333D01*
X154878184Y160722431D01*
G37*
X154878184Y160722431D02*
X154899421Y160683960D01*
X154894937Y160592776D01*
X154888063Y160539833D01*
X154861953Y160349333D01*
X155204339Y160349333D01*
X155374209Y160347244D01*
X155474245Y160338892D01*
X155519217Y160321156D01*
X155523899Y160290910D01*
X155521029Y160282371D01*
X155497749Y160187007D01*
X155495333Y160155371D01*
X155476245Y160123982D01*
X155409645Y160105253D01*
X155281529Y160096667D01*
X155161255Y160095333D01*
X155039543Y160097420D01*
X154949280Y160096464D01*
X154883991Y160081639D01*
X154837203Y160042122D01*
X154802444Y159967086D01*
X154773239Y159845707D01*
X154743116Y159667160D01*
X154705601Y159420620D01*
X154687466Y159303046D01*
X154650545Y159056616D01*
X154628491Y158880305D01*
X154620519Y158761024D01*
X154625842Y158685686D01*
X154643675Y158641203D01*
X154647453Y158636296D01*
X154700938Y158588287D01*
X154765699Y158577412D01*
X154862089Y158605913D01*
X155010459Y158676033D01*
X155011170Y158676393D01*
X155136783Y158734989D01*
X155212916Y158753591D01*
X155262358Y158736312D01*
X155275959Y158724183D01*
X155303854Y158677471D01*
X155273964Y158629259D01*
X155213198Y158582479D01*
X155009746Y158460434D01*
X154807110Y158375948D01*
X154625463Y158335482D01*
X154484980Y158345496D01*
X154479333Y158347462D01*
X154343111Y158436083D01*
X154274688Y158573031D01*
X154267666Y158644647D01*
X154274003Y158736136D01*
X154291100Y158890504D01*
X154316087Y159087534D01*
X154346092Y159307011D01*
X154378244Y159528718D01*
X154409674Y159732439D01*
X154437510Y159897956D01*
X154458881Y160005053D01*
X154463147Y160021250D01*
X154463021Y160071190D01*
X154410139Y160092178D01*
X154334019Y160095333D01*
X154230131Y160104799D01*
X154187855Y160140988D01*
X154183000Y160176637D01*
X154218517Y160249017D01*
X154307645Y160285316D01*
X154395937Y160327665D01*
X154504894Y160409677D01*
X154612241Y160510272D01*
X154695702Y160608371D01*
X154732999Y160682897D01*
X154733333Y160688122D01*
X154769029Y160721667D01*
X154823754Y160730333D01*
X154878184Y160722431D01*
G36*
X156816493Y160340224D02*
G01*
X156971185Y160309813D01*
X156999349Y160298758D01*
X157133436Y160197178D01*
X157208084Y160053920D01*
X157223842Y159887057D01*
X157181260Y159714656D01*
X157080888Y159554789D01*
X156973755Y159458023D01*
X156819153Y159373528D01*
X156616126Y159296111D01*
X156400810Y159237072D01*
X156209339Y159207712D01*
X156168895Y159206333D01*
X156062031Y159201405D01*
X156015145Y159172542D01*
X156003592Y159098633D01*
X156003333Y159064484D01*
X156032658Y158838468D01*
X156115506Y158674698D01*
X156244186Y158576925D01*
X156411009Y158548902D01*
X156608284Y158594381D01*
X156781014Y158685012D01*
X156884036Y158747336D01*
X156945107Y158765030D01*
X156991444Y158742287D01*
X157013847Y158720887D01*
X157058166Y158663615D01*
X157038462Y158618711D01*
X156998166Y158585145D01*
X156792144Y158462853D01*
X156552856Y158379176D01*
X156310716Y158341749D01*
X156096135Y158358207D01*
X156095168Y158358442D01*
X155967202Y158412434D01*
X155844556Y158498012D01*
X155835072Y158506806D01*
X155713632Y158678497D01*
X155647473Y158894792D01*
X155632606Y159139840D01*
X155665042Y159397785D01*
X155690047Y159481962D01*
X156045666Y159481962D01*
X156049326Y159418909D01*
X156072160Y159386909D01*
X156131945Y159382392D01*
X156246462Y159401789D01*
X156343253Y159422224D01*
X156546084Y159492380D01*
X156708806Y159600060D01*
X156821825Y159732419D01*
X156875548Y159876617D01*
X156860378Y160019809D01*
X156831598Y160075887D01*
X156731084Y160160223D01*
X156595804Y160181071D01*
X156446936Y160138494D01*
X156350034Y160074431D01*
X156241973Y159953030D01*
X156143898Y159791604D01*
X156072800Y159623224D01*
X156045666Y159481962D01*
X155690047Y159481962D01*
X155740790Y159652775D01*
X155855859Y159888957D01*
X156006260Y160090475D01*
X156188003Y160241478D01*
X156284100Y160290902D01*
X156436442Y160330367D01*
X156626076Y160346941D01*
X156816493Y160340224D01*
G37*
X156816493Y160340224D02*
X156971185Y160309813D01*
X156999349Y160298758D01*
X157133436Y160197178D01*
X157208084Y160053920D01*
X157223842Y159887057D01*
X157181260Y159714656D01*
X157080888Y159554789D01*
X156973755Y159458023D01*
X156819153Y159373528D01*
X156616126Y159296111D01*
X156400810Y159237072D01*
X156209339Y159207712D01*
X156168895Y159206333D01*
X156062031Y159201405D01*
X156015145Y159172542D01*
X156003592Y159098633D01*
X156003333Y159064484D01*
X156032658Y158838468D01*
X156115506Y158674698D01*
X156244186Y158576925D01*
X156411009Y158548902D01*
X156608284Y158594381D01*
X156781014Y158685012D01*
X156884036Y158747336D01*
X156945107Y158765030D01*
X156991444Y158742287D01*
X157013847Y158720887D01*
X157058166Y158663615D01*
X157038462Y158618711D01*
X156998166Y158585145D01*
X156792144Y158462853D01*
X156552856Y158379176D01*
X156310716Y158341749D01*
X156096135Y158358207D01*
X156095168Y158358442D01*
X155967202Y158412434D01*
X155844556Y158498012D01*
X155835072Y158506806D01*
X155713632Y158678497D01*
X155647473Y158894792D01*
X155632606Y159139840D01*
X155665042Y159397785D01*
X155690047Y159481962D01*
X156045666Y159481962D01*
X156049326Y159418909D01*
X156072160Y159386909D01*
X156131945Y159382392D01*
X156246462Y159401789D01*
X156343253Y159422224D01*
X156546084Y159492380D01*
X156708806Y159600060D01*
X156821825Y159732419D01*
X156875548Y159876617D01*
X156860378Y160019809D01*
X156831598Y160075887D01*
X156731084Y160160223D01*
X156595804Y160181071D01*
X156446936Y160138494D01*
X156350034Y160074431D01*
X156241973Y159953030D01*
X156143898Y159791604D01*
X156072800Y159623224D01*
X156045666Y159481962D01*
X155690047Y159481962D01*
X155740790Y159652775D01*
X155855859Y159888957D01*
X156006260Y160090475D01*
X156188003Y160241478D01*
X156284100Y160290902D01*
X156436442Y160330367D01*
X156626076Y160346941D01*
X156816493Y160340224D01*
G36*
X147655438Y161190625D02*
G01*
X147753305Y161184637D01*
X147806615Y161171094D01*
X147828726Y161148320D01*
X147833000Y161116283D01*
X147809694Y161055137D01*
X147727618Y161018127D01*
X147673384Y161007142D01*
X147555388Y160981458D01*
X147470956Y160953046D01*
X147462457Y160948463D01*
X147442332Y160899730D01*
X147412734Y160780620D01*
X147375888Y160604613D01*
X147334020Y160385185D01*
X147289354Y160135816D01*
X147244115Y159869984D01*
X147200528Y159601166D01*
X147160819Y159342842D01*
X147127213Y159108490D01*
X147101934Y158911588D01*
X147087208Y158765613D01*
X147085259Y158684046D01*
X147087143Y158674992D01*
X147115755Y158642531D01*
X147181434Y158624668D01*
X147300598Y158619104D01*
X147461915Y158622527D01*
X147811833Y158634833D01*
X147917666Y158855162D01*
X147998377Y158995795D01*
X148070806Y159069139D01*
X148097583Y159077412D01*
X148137925Y159077149D01*
X148160419Y159063488D01*
X148165200Y159020953D01*
X148152401Y158934074D01*
X148122157Y158787375D01*
X148100957Y158688717D01*
X148030247Y158359667D01*
X147166519Y158359667D01*
X146874411Y158360211D01*
X146656547Y158362418D01*
X146502508Y158367149D01*
X146401874Y158375266D01*
X146344227Y158387630D01*
X146319148Y158405104D01*
X146316218Y158428548D01*
X146316479Y158429960D01*
X146364584Y158487428D01*
X146469476Y158538526D01*
X146496976Y158547025D01*
X146614267Y158593171D01*
X146674534Y158660820D01*
X146694408Y158720149D01*
X146719515Y158839887D01*
X146751523Y159016758D01*
X146788413Y159236995D01*
X146828167Y159486835D01*
X146868766Y159752512D01*
X146908192Y160020260D01*
X146944426Y160276316D01*
X146975449Y160506913D01*
X146999244Y160698286D01*
X147013791Y160836671D01*
X147017072Y160908302D01*
X147016081Y160913735D01*
X146960792Y160964646D01*
X146857798Y161004118D01*
X146838271Y161008274D01*
X146731708Y161041191D01*
X146697631Y161090397D01*
X146698985Y161105859D01*
X146715373Y161134526D01*
X146760433Y161154933D01*
X146847227Y161168918D01*
X146988818Y161178322D01*
X147198270Y161184984D01*
X147272605Y161186646D01*
X147499658Y161190735D01*
X147655438Y161190625D01*
G37*
X147655438Y161190625D02*
X147753305Y161184637D01*
X147806615Y161171094D01*
X147828726Y161148320D01*
X147833000Y161116283D01*
X147809694Y161055137D01*
X147727618Y161018127D01*
X147673384Y161007142D01*
X147555388Y160981458D01*
X147470956Y160953046D01*
X147462457Y160948463D01*
X147442332Y160899730D01*
X147412734Y160780620D01*
X147375888Y160604613D01*
X147334020Y160385185D01*
X147289354Y160135816D01*
X147244115Y159869984D01*
X147200528Y159601166D01*
X147160819Y159342842D01*
X147127213Y159108490D01*
X147101934Y158911588D01*
X147087208Y158765613D01*
X147085259Y158684046D01*
X147087143Y158674992D01*
X147115755Y158642531D01*
X147181434Y158624668D01*
X147300598Y158619104D01*
X147461915Y158622527D01*
X147811833Y158634833D01*
X147917666Y158855162D01*
X147998377Y158995795D01*
X148070806Y159069139D01*
X148097583Y159077412D01*
X148137925Y159077149D01*
X148160419Y159063488D01*
X148165200Y159020953D01*
X148152401Y158934074D01*
X148122157Y158787375D01*
X148100957Y158688717D01*
X148030247Y158359667D01*
X147166519Y158359667D01*
X146874411Y158360211D01*
X146656547Y158362418D01*
X146502508Y158367149D01*
X146401874Y158375266D01*
X146344227Y158387630D01*
X146319148Y158405104D01*
X146316218Y158428548D01*
X146316479Y158429960D01*
X146364584Y158487428D01*
X146469476Y158538526D01*
X146496976Y158547025D01*
X146614267Y158593171D01*
X146674534Y158660820D01*
X146694408Y158720149D01*
X146719515Y158839887D01*
X146751523Y159016758D01*
X146788413Y159236995D01*
X146828167Y159486835D01*
X146868766Y159752512D01*
X146908192Y160020260D01*
X146944426Y160276316D01*
X146975449Y160506913D01*
X146999244Y160698286D01*
X147013791Y160836671D01*
X147017072Y160908302D01*
X147016081Y160913735D01*
X146960792Y160964646D01*
X146857798Y161004118D01*
X146838271Y161008274D01*
X146731708Y161041191D01*
X146697631Y161090397D01*
X146698985Y161105859D01*
X146715373Y161134526D01*
X146760433Y161154933D01*
X146847227Y161168918D01*
X146988818Y161178322D01*
X147198270Y161184984D01*
X147272605Y161186646D01*
X147499658Y161190735D01*
X147655438Y161190625D01*
G36*
X158893951Y160314193D02*
G01*
X158998884Y160242317D01*
X159066824Y160140150D01*
X159084456Y160018922D01*
X159038463Y159889861D01*
X158982447Y159820829D01*
X158888671Y159772363D01*
X158802594Y159764952D01*
X158726875Y159784731D01*
X158701682Y159838027D01*
X158704828Y159915692D01*
X158696395Y160033342D01*
X158655219Y160077702D01*
X158549682Y160076683D01*
X158443594Y159999020D01*
X158340453Y159852637D01*
X158243758Y159645462D01*
X158157007Y159385418D01*
X158083698Y159080432D01*
X158027329Y158738429D01*
X158013636Y158624250D01*
X157984686Y158359667D01*
X157802306Y158359667D01*
X157687991Y158365316D01*
X157639056Y158387871D01*
X157636195Y158433750D01*
X157659810Y158557064D01*
X157688598Y158731335D01*
X157720386Y158940409D01*
X157753000Y159168131D01*
X157784265Y159398348D01*
X157812007Y159614905D01*
X157834053Y159801648D01*
X157848228Y159942424D01*
X157852358Y160021077D01*
X157851123Y160030708D01*
X157796496Y160077953D01*
X157709750Y160102864D01*
X157608709Y160129078D01*
X157583665Y160170410D01*
X157629023Y160219363D01*
X157739190Y160268442D01*
X157856850Y160299942D01*
X158042132Y160334611D01*
X158159201Y160337245D01*
X158220849Y160300437D01*
X158239868Y160216778D01*
X158229708Y160084023D01*
X158201702Y159862500D01*
X158282486Y159989500D01*
X158370060Y160106113D01*
X158477408Y160223377D01*
X158490364Y160235787D01*
X158626375Y160322157D01*
X158765342Y160344550D01*
X158893951Y160314193D01*
G37*
X158893951Y160314193D02*
X158998884Y160242317D01*
X159066824Y160140150D01*
X159084456Y160018922D01*
X159038463Y159889861D01*
X158982447Y159820829D01*
X158888671Y159772363D01*
X158802594Y159764952D01*
X158726875Y159784731D01*
X158701682Y159838027D01*
X158704828Y159915692D01*
X158696395Y160033342D01*
X158655219Y160077702D01*
X158549682Y160076683D01*
X158443594Y159999020D01*
X158340453Y159852637D01*
X158243758Y159645462D01*
X158157007Y159385418D01*
X158083698Y159080432D01*
X158027329Y158738429D01*
X158013636Y158624250D01*
X157984686Y158359667D01*
X157802306Y158359667D01*
X157687991Y158365316D01*
X157639056Y158387871D01*
X157636195Y158433750D01*
X157659810Y158557064D01*
X157688598Y158731335D01*
X157720386Y158940409D01*
X157753000Y159168131D01*
X157784265Y159398348D01*
X157812007Y159614905D01*
X157834053Y159801648D01*
X157848228Y159942424D01*
X157852358Y160021077D01*
X157851123Y160030708D01*
X157796496Y160077953D01*
X157709750Y160102864D01*
X157608709Y160129078D01*
X157583665Y160170410D01*
X157629023Y160219363D01*
X157739190Y160268442D01*
X157856850Y160299942D01*
X158042132Y160334611D01*
X158159201Y160337245D01*
X158220849Y160300437D01*
X158239868Y160216778D01*
X158229708Y160084023D01*
X158201702Y159862500D01*
X158282486Y159989500D01*
X158370060Y160106113D01*
X158477408Y160223377D01*
X158490364Y160235787D01*
X158626375Y160322157D01*
X158765342Y160344550D01*
X158893951Y160314193D01*
G36*
X149238320Y161066624D02*
G01*
X149271868Y161027535D01*
X149302037Y160900875D01*
X149269263Y160784246D01*
X149190645Y160695193D01*
X149083281Y160651265D01*
X148964270Y160670006D01*
X148937693Y160684616D01*
X148896057Y160753728D01*
X148883804Y160864832D01*
X148901095Y160980452D01*
X148936102Y161050768D01*
X149025271Y161102962D01*
X149138999Y161107349D01*
X149238320Y161066624D01*
G37*
X149238320Y161066624D02*
X149271868Y161027535D01*
X149302037Y160900875D01*
X149269263Y160784246D01*
X149190645Y160695193D01*
X149083281Y160651265D01*
X148964270Y160670006D01*
X148937693Y160684616D01*
X148896057Y160753728D01*
X148883804Y160864832D01*
X148901095Y160980452D01*
X148936102Y161050768D01*
X149025271Y161102962D01*
X149138999Y161107349D01*
X149238320Y161066624D01*
G36*
X153767986Y161066624D02*
G01*
X153801535Y161027535D01*
X153831704Y160900875D01*
X153798930Y160784246D01*
X153720311Y160695193D01*
X153612947Y160651265D01*
X153493936Y160670006D01*
X153467359Y160684616D01*
X153425724Y160753728D01*
X153413471Y160864832D01*
X153430762Y160980452D01*
X153465768Y161050768D01*
X153554938Y161102962D01*
X153668666Y161107349D01*
X153767986Y161066624D01*
G37*
X153767986Y161066624D02*
X153801535Y161027535D01*
X153831704Y160900875D01*
X153798930Y160784246D01*
X153720311Y160695193D01*
X153612947Y160651265D01*
X153493936Y160670006D01*
X153467359Y160684616D01*
X153425724Y160753728D01*
X153413471Y160864832D01*
X153430762Y160980452D01*
X153465768Y161050768D01*
X153554938Y161102962D01*
X153668666Y161107349D01*
X153767986Y161066624D01*
G36*
X143658533Y166264512D02*
G01*
X143838772Y166235342D01*
X143973809Y166191771D01*
X144045234Y166138249D01*
X144049024Y166130440D01*
X144050742Y166057078D01*
X144030445Y165934462D01*
X143995495Y165790120D01*
X143953252Y165651580D01*
X143911078Y165546371D01*
X143881542Y165504169D01*
X143826824Y165478422D01*
X143793631Y165497230D01*
X143773659Y165574389D01*
X143760052Y165705990D01*
X143739668Y165867605D01*
X143700936Y165966329D01*
X143627652Y166023911D01*
X143503613Y166062100D01*
X143492925Y166064538D01*
X143289202Y166075233D01*
X143110294Y166017149D01*
X142974526Y165897137D01*
X142951734Y165862195D01*
X142899289Y165746181D01*
X142887540Y165634029D01*
X142921560Y165513401D01*
X143006422Y165371958D01*
X143147199Y165197362D01*
X143289632Y165040337D01*
X143435380Y164878177D01*
X143563432Y164724559D01*
X143659951Y164596819D01*
X143711084Y164512330D01*
X143765382Y164287992D01*
X143754263Y164055606D01*
X143682424Y163840164D01*
X143554563Y163666660D01*
X143551628Y163663937D01*
X143353262Y163533535D01*
X143106983Y163451636D01*
X142837646Y163423465D01*
X142570106Y163454244D01*
X142562500Y163456100D01*
X142366877Y163514540D01*
X142230820Y163576303D01*
X142164896Y163636172D01*
X142160333Y163654706D01*
X142170713Y163727720D01*
X142197283Y163849431D01*
X142233187Y163993588D01*
X142271568Y164133939D01*
X142305570Y164244232D01*
X142328338Y164298214D01*
X142328418Y164298305D01*
X142387928Y164314036D01*
X142425093Y164305636D01*
X142466241Y164266362D01*
X142485109Y164177552D01*
X142486961Y164049887D01*
X142497167Y163874063D01*
X142546875Y163760004D01*
X142649762Y163688843D01*
X142776199Y163650875D01*
X142992130Y163633555D01*
X143171092Y163681142D01*
X143302577Y163786719D01*
X143376077Y163943369D01*
X143388000Y164053564D01*
X143382230Y164148273D01*
X143359079Y164235179D01*
X143309786Y164327932D01*
X143225590Y164440183D01*
X143097727Y164585582D01*
X142935030Y164759271D01*
X142806320Y164904019D01*
X142695042Y165045793D01*
X142619370Y165160844D01*
X142604057Y165191828D01*
X142543459Y165432325D01*
X142559703Y165660761D01*
X142644986Y165867166D01*
X142791509Y166041572D01*
X142991471Y166174011D01*
X143237073Y166254514D01*
X143451500Y166274834D01*
X143658533Y166264512D01*
G37*
X143658533Y166264512D02*
X143838772Y166235342D01*
X143973809Y166191771D01*
X144045234Y166138249D01*
X144049024Y166130440D01*
X144050742Y166057078D01*
X144030445Y165934462D01*
X143995495Y165790120D01*
X143953252Y165651580D01*
X143911078Y165546371D01*
X143881542Y165504169D01*
X143826824Y165478422D01*
X143793631Y165497230D01*
X143773659Y165574389D01*
X143760052Y165705990D01*
X143739668Y165867605D01*
X143700936Y165966329D01*
X143627652Y166023911D01*
X143503613Y166062100D01*
X143492925Y166064538D01*
X143289202Y166075233D01*
X143110294Y166017149D01*
X142974526Y165897137D01*
X142951734Y165862195D01*
X142899289Y165746181D01*
X142887540Y165634029D01*
X142921560Y165513401D01*
X143006422Y165371958D01*
X143147199Y165197362D01*
X143289632Y165040337D01*
X143435380Y164878177D01*
X143563432Y164724559D01*
X143659951Y164596819D01*
X143711084Y164512330D01*
X143765382Y164287992D01*
X143754263Y164055606D01*
X143682424Y163840164D01*
X143554563Y163666660D01*
X143551628Y163663937D01*
X143353262Y163533535D01*
X143106983Y163451636D01*
X142837646Y163423465D01*
X142570106Y163454244D01*
X142562500Y163456100D01*
X142366877Y163514540D01*
X142230820Y163576303D01*
X142164896Y163636172D01*
X142160333Y163654706D01*
X142170713Y163727720D01*
X142197283Y163849431D01*
X142233187Y163993588D01*
X142271568Y164133939D01*
X142305570Y164244232D01*
X142328338Y164298214D01*
X142328418Y164298305D01*
X142387928Y164314036D01*
X142425093Y164305636D01*
X142466241Y164266362D01*
X142485109Y164177552D01*
X142486961Y164049887D01*
X142497167Y163874063D01*
X142546875Y163760004D01*
X142649762Y163688843D01*
X142776199Y163650875D01*
X142992130Y163633555D01*
X143171092Y163681142D01*
X143302577Y163786719D01*
X143376077Y163943369D01*
X143388000Y164053564D01*
X143382230Y164148273D01*
X143359079Y164235179D01*
X143309786Y164327932D01*
X143225590Y164440183D01*
X143097727Y164585582D01*
X142935030Y164759271D01*
X142806320Y164904019D01*
X142695042Y165045793D01*
X142619370Y165160844D01*
X142604057Y165191828D01*
X142543459Y165432325D01*
X142559703Y165660761D01*
X142644986Y165867166D01*
X142791509Y166041572D01*
X142991471Y166174011D01*
X143237073Y166254514D01*
X143451500Y166274834D01*
X143658533Y166264512D01*
G36*
X144780846Y166405186D02*
G01*
X144900366Y166388276D01*
X144965511Y166358008D01*
X144967065Y166355797D01*
X144973006Y166292260D01*
X144962835Y166147506D01*
X144936781Y165923391D01*
X144895070Y165621773D01*
X144837930Y165244509D01*
X144807743Y165053676D01*
X144758299Y164737899D01*
X144714895Y164447739D01*
X144679005Y164194126D01*
X144652106Y163987992D01*
X144635670Y163840267D01*
X144631173Y163761884D01*
X144632359Y163753561D01*
X144688710Y163704922D01*
X144775061Y163697105D01*
X144845801Y163732828D01*
X144851293Y163740520D01*
X144889041Y163760378D01*
X144914870Y163731356D01*
X144918902Y163657226D01*
X144859279Y163579275D01*
X144755777Y163508107D01*
X144628171Y163454321D01*
X144496235Y163428519D01*
X144379745Y163441302D01*
X144376191Y163442579D01*
X144334038Y163457517D01*
X144300219Y163473476D01*
X144275187Y163498406D01*
X144259397Y163540257D01*
X144253301Y163606980D01*
X144257355Y163706526D01*
X144272011Y163846844D01*
X144297724Y164035885D01*
X144334947Y164281601D01*
X144384135Y164591941D01*
X144445740Y164974856D01*
X144473494Y165147217D01*
X144521656Y165448887D01*
X144556795Y165678214D01*
X144579750Y165846377D01*
X144591360Y165964557D01*
X144592461Y166043936D01*
X144583893Y166095693D01*
X144566494Y166131009D01*
X144548878Y166152634D01*
X144454349Y166215839D01*
X144376272Y166233667D01*
X144293554Y166248698D01*
X144285386Y166300343D01*
X144309866Y166346799D01*
X144371462Y166379546D01*
X144488852Y166400444D01*
X144634494Y166409117D01*
X144780846Y166405186D01*
G37*
X144780846Y166405186D02*
X144900366Y166388276D01*
X144965511Y166358008D01*
X144967065Y166355797D01*
X144973006Y166292260D01*
X144962835Y166147506D01*
X144936781Y165923391D01*
X144895070Y165621773D01*
X144837930Y165244509D01*
X144807743Y165053676D01*
X144758299Y164737899D01*
X144714895Y164447739D01*
X144679005Y164194126D01*
X144652106Y163987992D01*
X144635670Y163840267D01*
X144631173Y163761884D01*
X144632359Y163753561D01*
X144688710Y163704922D01*
X144775061Y163697105D01*
X144845801Y163732828D01*
X144851293Y163740520D01*
X144889041Y163760378D01*
X144914870Y163731356D01*
X144918902Y163657226D01*
X144859279Y163579275D01*
X144755777Y163508107D01*
X144628171Y163454321D01*
X144496235Y163428519D01*
X144379745Y163441302D01*
X144376191Y163442579D01*
X144334038Y163457517D01*
X144300219Y163473476D01*
X144275187Y163498406D01*
X144259397Y163540257D01*
X144253301Y163606980D01*
X144257355Y163706526D01*
X144272011Y163846844D01*
X144297724Y164035885D01*
X144334947Y164281601D01*
X144384135Y164591941D01*
X144445740Y164974856D01*
X144473494Y165147217D01*
X144521656Y165448887D01*
X144556795Y165678214D01*
X144579750Y165846377D01*
X144591360Y165964557D01*
X144592461Y166043936D01*
X144583893Y166095693D01*
X144566494Y166131009D01*
X144548878Y166152634D01*
X144454349Y166215839D01*
X144376272Y166233667D01*
X144293554Y166248698D01*
X144285386Y166300343D01*
X144309866Y166346799D01*
X144371462Y166379546D01*
X144488852Y166400444D01*
X144634494Y166409117D01*
X144780846Y166405186D01*
G36*
X146571827Y165420224D02*
G01*
X146726519Y165389813D01*
X146754682Y165378758D01*
X146888770Y165277178D01*
X146963417Y165133920D01*
X146979175Y164967057D01*
X146936593Y164794656D01*
X146836222Y164634789D01*
X146729089Y164538023D01*
X146574487Y164453528D01*
X146371460Y164376111D01*
X146156143Y164317072D01*
X145964673Y164287712D01*
X145924228Y164286333D01*
X145817364Y164281405D01*
X145770478Y164252542D01*
X145758926Y164178633D01*
X145758666Y164144484D01*
X145787991Y163918468D01*
X145870839Y163754698D01*
X145999520Y163656925D01*
X146166343Y163628902D01*
X146363617Y163674381D01*
X146536347Y163765012D01*
X146639370Y163827336D01*
X146700440Y163845030D01*
X146746778Y163822287D01*
X146769180Y163800887D01*
X146813499Y163743615D01*
X146793795Y163698711D01*
X146753500Y163665145D01*
X146547477Y163542853D01*
X146308189Y163459176D01*
X146066049Y163421749D01*
X145851469Y163438207D01*
X145850501Y163438442D01*
X145722535Y163492434D01*
X145599889Y163578012D01*
X145590406Y163586806D01*
X145468965Y163758497D01*
X145402806Y163974792D01*
X145387940Y164219840D01*
X145420375Y164477785D01*
X145445380Y164561962D01*
X145801000Y164561962D01*
X145804660Y164498909D01*
X145827493Y164466909D01*
X145887278Y164462392D01*
X146001795Y164481789D01*
X146098587Y164502224D01*
X146301417Y164572380D01*
X146464139Y164680060D01*
X146577159Y164812419D01*
X146630881Y164956617D01*
X146615711Y165099809D01*
X146586932Y165155887D01*
X146486417Y165240223D01*
X146351138Y165261071D01*
X146202269Y165218494D01*
X146105367Y165154431D01*
X145997306Y165033030D01*
X145899231Y164871604D01*
X145828133Y164703224D01*
X145801000Y164561962D01*
X145445380Y164561962D01*
X145496123Y164732775D01*
X145611192Y164968957D01*
X145761594Y165170475D01*
X145943337Y165321478D01*
X146039433Y165370902D01*
X146191775Y165410367D01*
X146381409Y165426941D01*
X146571827Y165420224D01*
G37*
X146571827Y165420224D02*
X146726519Y165389813D01*
X146754682Y165378758D01*
X146888770Y165277178D01*
X146963417Y165133920D01*
X146979175Y164967057D01*
X146936593Y164794656D01*
X146836222Y164634789D01*
X146729089Y164538023D01*
X146574487Y164453528D01*
X146371460Y164376111D01*
X146156143Y164317072D01*
X145964673Y164287712D01*
X145924228Y164286333D01*
X145817364Y164281405D01*
X145770478Y164252542D01*
X145758926Y164178633D01*
X145758666Y164144484D01*
X145787991Y163918468D01*
X145870839Y163754698D01*
X145999520Y163656925D01*
X146166343Y163628902D01*
X146363617Y163674381D01*
X146536347Y163765012D01*
X146639370Y163827336D01*
X146700440Y163845030D01*
X146746778Y163822287D01*
X146769180Y163800887D01*
X146813499Y163743615D01*
X146793795Y163698711D01*
X146753500Y163665145D01*
X146547477Y163542853D01*
X146308189Y163459176D01*
X146066049Y163421749D01*
X145851469Y163438207D01*
X145850501Y163438442D01*
X145722535Y163492434D01*
X145599889Y163578012D01*
X145590406Y163586806D01*
X145468965Y163758497D01*
X145402806Y163974792D01*
X145387940Y164219840D01*
X145420375Y164477785D01*
X145445380Y164561962D01*
X145801000Y164561962D01*
X145804660Y164498909D01*
X145827493Y164466909D01*
X145887278Y164462392D01*
X146001795Y164481789D01*
X146098587Y164502224D01*
X146301417Y164572380D01*
X146464139Y164680060D01*
X146577159Y164812419D01*
X146630881Y164956617D01*
X146615711Y165099809D01*
X146586932Y165155887D01*
X146486417Y165240223D01*
X146351138Y165261071D01*
X146202269Y165218494D01*
X146105367Y165154431D01*
X145997306Y165033030D01*
X145899231Y164871604D01*
X145828133Y164703224D01*
X145801000Y164561962D01*
X145445380Y164561962D01*
X145496123Y164732775D01*
X145611192Y164968957D01*
X145761594Y165170475D01*
X145943337Y165321478D01*
X146039433Y165370902D01*
X146191775Y165410367D01*
X146381409Y165426941D01*
X146571827Y165420224D01*
G36*
X148886216Y165424871D02*
G01*
X148932844Y165413942D01*
X148933666Y165412098D01*
X148939714Y165353736D01*
X148956187Y165231400D01*
X148980578Y165061480D01*
X149010379Y164860368D01*
X149043084Y164644452D01*
X149076184Y164430124D01*
X149107173Y164233774D01*
X149133544Y164071793D01*
X149152788Y163960570D01*
X149162400Y163916497D01*
X149162458Y163916430D01*
X149190346Y163941441D01*
X149248287Y164022411D01*
X149323921Y164142019D01*
X149326482Y164146268D01*
X149515098Y164478700D01*
X149644663Y164751077D01*
X149715333Y164963867D01*
X149727261Y165117539D01*
X149680603Y165212563D01*
X149678544Y165214310D01*
X149615298Y165293074D01*
X149634458Y165354728D01*
X149735263Y165398009D01*
X149796529Y165409634D01*
X149985043Y165424991D01*
X150101810Y165399069D01*
X150151600Y165325547D01*
X150139184Y165198102D01*
X150079716Y165034283D01*
X150036802Y164950540D01*
X149959772Y164815935D01*
X149856699Y164643272D01*
X149735656Y164445356D01*
X149604714Y164234992D01*
X149471947Y164024985D01*
X149345427Y163828139D01*
X149233226Y163657259D01*
X149143417Y163525150D01*
X149084073Y163444618D01*
X149065860Y163426080D01*
X149007101Y163422645D01*
X148949984Y163429106D01*
X148912281Y163442401D01*
X148883008Y163476916D01*
X148858184Y163546262D01*
X148833826Y163664046D01*
X148805951Y163843878D01*
X148785198Y163992193D01*
X148755322Y164195733D01*
X148726803Y164365043D01*
X148702537Y164484558D01*
X148685423Y164538715D01*
X148683139Y164540333D01*
X148652893Y164506155D01*
X148587189Y164411927D01*
X148494279Y164270109D01*
X148382419Y164093162D01*
X148318758Y163990194D01*
X148186227Y163776789D01*
X148087590Y163626093D01*
X148014239Y163527585D01*
X147957568Y163470747D01*
X147908971Y163445060D01*
X147868471Y163439860D01*
X147831373Y163438128D01*
X147802687Y163439695D01*
X147779848Y163454486D01*
X147760289Y163492429D01*
X147741445Y163563450D01*
X147720750Y163677476D01*
X147695638Y163844434D01*
X147663544Y164074249D01*
X147621902Y164376850D01*
X147616860Y164413333D01*
X147583156Y164642275D01*
X147549765Y164843071D01*
X147519598Y165000005D01*
X147495568Y165097359D01*
X147485973Y165119875D01*
X147413727Y165166725D01*
X147353675Y165183375D01*
X147280776Y165217678D01*
X147261500Y165257870D01*
X147299083Y165302715D01*
X147393682Y165348595D01*
X147518068Y165388088D01*
X147645013Y165413769D01*
X147747289Y165418216D01*
X147792076Y165402523D01*
X147811895Y165347661D01*
X147838888Y165223737D01*
X147870331Y165045775D01*
X147903499Y164828799D01*
X147926007Y164663895D01*
X147957905Y164429651D01*
X147988528Y164224848D01*
X148015449Y164064246D01*
X148036245Y163962604D01*
X148045853Y163934449D01*
X148074452Y163957177D01*
X148132472Y164043339D01*
X148212238Y164180264D01*
X148306071Y164355280D01*
X148335167Y164412037D01*
X148450482Y164646372D01*
X148528112Y164823424D01*
X148573792Y164958596D01*
X148593259Y165067288D01*
X148595000Y165109709D01*
X148602265Y165274381D01*
X148630752Y165371577D01*
X148690497Y165417745D01*
X148790029Y165429333D01*
X148886216Y165424871D01*
G37*
X148886216Y165424871D02*
X148932844Y165413942D01*
X148933666Y165412098D01*
X148939714Y165353736D01*
X148956187Y165231400D01*
X148980578Y165061480D01*
X149010379Y164860368D01*
X149043084Y164644452D01*
X149076184Y164430124D01*
X149107173Y164233774D01*
X149133544Y164071793D01*
X149152788Y163960570D01*
X149162400Y163916497D01*
X149162458Y163916430D01*
X149190346Y163941441D01*
X149248287Y164022411D01*
X149323921Y164142019D01*
X149326482Y164146268D01*
X149515098Y164478700D01*
X149644663Y164751077D01*
X149715333Y164963867D01*
X149727261Y165117539D01*
X149680603Y165212563D01*
X149678544Y165214310D01*
X149615298Y165293074D01*
X149634458Y165354728D01*
X149735263Y165398009D01*
X149796529Y165409634D01*
X149985043Y165424991D01*
X150101810Y165399069D01*
X150151600Y165325547D01*
X150139184Y165198102D01*
X150079716Y165034283D01*
X150036802Y164950540D01*
X149959772Y164815935D01*
X149856699Y164643272D01*
X149735656Y164445356D01*
X149604714Y164234992D01*
X149471947Y164024985D01*
X149345427Y163828139D01*
X149233226Y163657259D01*
X149143417Y163525150D01*
X149084073Y163444618D01*
X149065860Y163426080D01*
X149007101Y163422645D01*
X148949984Y163429106D01*
X148912281Y163442401D01*
X148883008Y163476916D01*
X148858184Y163546262D01*
X148833826Y163664046D01*
X148805951Y163843878D01*
X148785198Y163992193D01*
X148755322Y164195733D01*
X148726803Y164365043D01*
X148702537Y164484558D01*
X148685423Y164538715D01*
X148683139Y164540333D01*
X148652893Y164506155D01*
X148587189Y164411927D01*
X148494279Y164270109D01*
X148382419Y164093162D01*
X148318758Y163990194D01*
X148186227Y163776789D01*
X148087590Y163626093D01*
X148014239Y163527585D01*
X147957568Y163470747D01*
X147908971Y163445060D01*
X147868471Y163439860D01*
X147831373Y163438128D01*
X147802687Y163439695D01*
X147779848Y163454486D01*
X147760289Y163492429D01*
X147741445Y163563450D01*
X147720750Y163677476D01*
X147695638Y163844434D01*
X147663544Y164074249D01*
X147621902Y164376850D01*
X147616860Y164413333D01*
X147583156Y164642275D01*
X147549765Y164843071D01*
X147519598Y165000005D01*
X147495568Y165097359D01*
X147485973Y165119875D01*
X147413727Y165166725D01*
X147353675Y165183375D01*
X147280776Y165217678D01*
X147261500Y165257870D01*
X147299083Y165302715D01*
X147393682Y165348595D01*
X147518068Y165388088D01*
X147645013Y165413769D01*
X147747289Y165418216D01*
X147792076Y165402523D01*
X147811895Y165347661D01*
X147838888Y165223737D01*
X147870331Y165045775D01*
X147903499Y164828799D01*
X147926007Y164663895D01*
X147957905Y164429651D01*
X147988528Y164224848D01*
X148015449Y164064246D01*
X148036245Y163962604D01*
X148045853Y163934449D01*
X148074452Y163957177D01*
X148132472Y164043339D01*
X148212238Y164180264D01*
X148306071Y164355280D01*
X148335167Y164412037D01*
X148450482Y164646372D01*
X148528112Y164823424D01*
X148573792Y164958596D01*
X148593259Y165067288D01*
X148595000Y165109709D01*
X148602265Y165274381D01*
X148630752Y165371577D01*
X148690497Y165417745D01*
X148790029Y165429333D01*
X148886216Y165424871D01*
%LPC*%
M02*
