%FSLAX45Y45*%
G04 Gerber Fmt 4.5, Leading zero omitted, Abs format (unit mm)*
G04 Created by KiCad (PCBNEW (5.1.10)-1) date 2021-10-06 15:17:24*
%MOMM*%
%LPD*%
G01*
G04 APERTURE LIST*
%TA.AperFunction,Profile*%
%ADD10C,0.200000*%
%TD*%
%ADD11C,0.200000*%
%ADD12C,0.300000*%
G04 APERTURE END LIST*
D10*
X15054070Y12490986D02*
X15021559Y12492510D01*
X15086329Y12492510D02*
X15054070Y12490986D01*
X15118078Y12497336D02*
X15086329Y12492510D01*
X15148304Y12505210D02*
X15118078Y12497336D01*
X15177514Y12515877D02*
X15148304Y12505210D01*
X15205454Y12529338D02*
X15177514Y12515877D01*
X15231618Y12545087D02*
X15205454Y12529338D01*
X15256000Y12563376D02*
X15231618Y12545087D01*
X15278606Y12583950D02*
X15256000Y12563376D01*
X15298926Y12606556D02*
X15278606Y12583950D01*
X15317215Y12630939D02*
X15298926Y12606556D01*
X15333216Y12657102D02*
X15317215Y12630939D01*
X15346679Y12684788D02*
X15333216Y12657102D01*
X15357346Y12713998D02*
X15346679Y12684788D01*
X15364966Y12744478D02*
X15357346Y12713998D01*
X15369792Y12775973D02*
X15364966Y12744478D01*
X15371570Y12808486D02*
X15369792Y12775973D01*
X15369792Y12840997D02*
X15371570Y12808486D01*
X15364966Y12872494D02*
X15369792Y12840997D01*
X15357346Y12902720D02*
X15364966Y12872494D01*
X15346679Y12931930D02*
X15357346Y12902720D01*
X15333216Y12959870D02*
X15346679Y12931930D01*
X15317215Y12986031D02*
X15333216Y12959870D01*
X15298926Y13010416D02*
X15317215Y12986031D01*
X15278606Y13033022D02*
X15298926Y13010416D01*
X15256000Y13053342D02*
X15278606Y13033022D01*
X15231618Y13071629D02*
X15256000Y13053342D01*
X15205454Y13087631D02*
X15231618Y13071629D01*
X15177514Y13100839D02*
X15205454Y13087631D01*
X15148304Y13111762D02*
X15177514Y13100839D01*
X15118078Y13119382D02*
X15148304Y13111762D01*
X15086329Y13124207D02*
X15118078Y13119382D01*
X15054070Y13125986D02*
X15086329Y13124207D01*
X15021559Y13124207D02*
X15054070Y13125986D01*
X14990063Y13119382D02*
X15021559Y13124207D01*
X14959582Y13111762D02*
X14990063Y13119382D01*
X14930372Y13100839D02*
X14959582Y13111762D01*
X14902686Y13087631D02*
X14930372Y13100839D01*
X14876525Y13071629D02*
X14902686Y13087631D01*
X14852140Y13053342D02*
X14876525Y13071629D01*
X14829534Y13033022D02*
X14852140Y13053342D01*
X14808960Y13010416D02*
X14829534Y13033022D01*
X14790673Y12986031D02*
X14808960Y13010416D01*
X14774925Y12959870D02*
X14790673Y12986031D01*
X14761463Y12931930D02*
X14774925Y12959870D01*
X14750794Y12902720D02*
X14761463Y12931930D01*
X14742920Y12872494D02*
X14750794Y12902720D01*
X14738095Y12840997D02*
X14742920Y12872494D01*
X14736570Y12808486D02*
X14738095Y12840997D01*
X14738095Y12775973D02*
X14736570Y12808486D01*
X14742920Y12744478D02*
X14738095Y12775973D01*
X14750794Y12713998D02*
X14742920Y12744478D01*
X14761463Y12684788D02*
X14750794Y12713998D01*
X14774925Y12657102D02*
X14761463Y12684788D01*
X14790673Y12630939D02*
X14774925Y12657102D01*
X14808960Y12606556D02*
X14790673Y12630939D01*
X14829534Y12583950D02*
X14808960Y12606556D01*
X14852140Y12563376D02*
X14829534Y12583950D01*
X14876525Y12545087D02*
X14852140Y12563376D01*
X14902686Y12529338D02*
X14876525Y12545087D01*
X14930372Y12515877D02*
X14902686Y12529338D01*
X14959582Y12505210D02*
X14930372Y12515877D01*
X14990063Y12497336D02*
X14959582Y12505210D01*
X15021559Y12492510D02*
X14990063Y12497336D01*
X15017495Y15088304D02*
X15054071Y15090082D01*
X14982189Y15082970D02*
X15017495Y15088304D01*
X14948154Y15074080D02*
X14982189Y15082970D01*
X14915641Y15062143D02*
X14948154Y15074080D01*
X14884400Y15047156D02*
X14915641Y15062143D01*
X14855190Y15029378D02*
X14884400Y15047156D01*
X14827759Y15009056D02*
X14855190Y15029378D01*
X14802612Y14985943D02*
X14827759Y15009056D01*
X14779497Y14960796D02*
X14802612Y14985943D01*
X14759178Y14933365D02*
X14779497Y14960796D01*
X14741399Y14904155D02*
X14759178Y14933365D01*
X14726413Y14872912D02*
X14741399Y14904155D01*
X14714473Y14840401D02*
X14726413Y14872912D01*
X14705585Y14806364D02*
X14714473Y14840401D01*
X14700249Y14771058D02*
X14705585Y14806364D01*
X14698471Y14734482D02*
X14700249Y14771058D01*
X14700249Y14698160D02*
X14698471Y14734482D01*
X14705585Y14662854D02*
X14700249Y14698160D01*
X14714473Y14628818D02*
X14705585Y14662854D01*
X14726413Y14596053D02*
X14714473Y14628818D01*
X14741399Y14565065D02*
X14726413Y14596053D01*
X14759178Y14535855D02*
X14741399Y14565065D01*
X14779497Y14508423D02*
X14759178Y14535855D01*
X14802612Y14483022D02*
X14779497Y14508423D01*
X14827759Y14460162D02*
X14802612Y14483022D01*
X14855190Y14439588D02*
X14827759Y14460162D01*
X14884400Y14421809D02*
X14855190Y14439588D01*
X14915641Y14406823D02*
X14884400Y14421809D01*
X14948154Y14394884D02*
X14915641Y14406823D01*
X14982189Y14386249D02*
X14948154Y14394884D01*
X15017495Y14380914D02*
X14982189Y14386249D01*
X15054071Y14378883D02*
X15017495Y14380914D01*
X15090393Y14380914D02*
X15054071Y14378883D01*
X15125699Y14386249D02*
X15090393Y14380914D01*
X15159737Y14394884D02*
X15125699Y14386249D01*
X15192502Y14406823D02*
X15159737Y14394884D01*
X15223490Y14421809D02*
X15192502Y14406823D01*
X15252700Y14439588D02*
X15223490Y14421809D01*
X15280132Y14460162D02*
X15252700Y14439588D01*
X15305531Y14483022D02*
X15280132Y14460162D01*
X15328391Y14508423D02*
X15305531Y14483022D01*
X15348965Y14535855D02*
X15328391Y14508423D01*
X15366746Y14565065D02*
X15348965Y14535855D01*
X15381732Y14596053D02*
X15366746Y14565065D01*
X15393669Y14628818D02*
X15381732Y14596053D01*
X15402306Y14662854D02*
X15393669Y14628818D01*
X15407893Y14698160D02*
X15402306Y14662854D01*
X15409672Y14734482D02*
X15407893Y14698160D01*
X15407893Y14771058D02*
X15409672Y14734482D01*
X15402306Y14806364D02*
X15407893Y14771058D01*
X15393669Y14840401D02*
X15402306Y14806364D01*
X15381732Y14872912D02*
X15393669Y14840401D01*
X15366746Y14904155D02*
X15381732Y14872912D01*
X15348965Y14933365D02*
X15366746Y14904155D01*
X15328391Y14960796D02*
X15348965Y14933365D01*
X15305531Y14985943D02*
X15328391Y14960796D01*
X15280132Y15009056D02*
X15305531Y14985943D01*
X15252700Y15029378D02*
X15280132Y15009056D01*
X15223490Y15047156D02*
X15252700Y15029378D01*
X15192502Y15062143D02*
X15223490Y15047156D01*
X15159737Y15074080D02*
X15192502Y15062143D01*
X15125699Y15082970D02*
X15159737Y15074080D01*
X15090393Y15088304D02*
X15125699Y15082970D01*
X15054071Y15090082D02*
X15090393Y15088304D01*
X15085031Y7646669D02*
X15083252Y7614158D01*
X15083252Y7678928D02*
X15085031Y7646669D01*
X15078427Y7710677D02*
X15083252Y7678928D01*
X15070807Y7740903D02*
X15078427Y7710677D01*
X15060138Y7770113D02*
X15070807Y7740903D01*
X15046676Y7797799D02*
X15060138Y7770113D01*
X15030674Y7823962D02*
X15046676Y7797799D01*
X15012387Y7848599D02*
X15030674Y7823962D01*
X14992067Y7870951D02*
X15012387Y7848599D01*
X14969461Y7891525D02*
X14992067Y7870951D01*
X14945076Y7909814D02*
X14969461Y7891525D01*
X14918915Y7925815D02*
X14945076Y7909814D01*
X14890975Y7939024D02*
X14918915Y7925815D01*
X14861765Y7949691D02*
X14890975Y7939024D01*
X14831539Y7957565D02*
X14861765Y7949691D01*
X14800042Y7962391D02*
X14831539Y7957565D01*
X14767531Y7964169D02*
X14800042Y7962391D01*
X14735018Y7962391D02*
X14767531Y7964169D01*
X14703523Y7957565D02*
X14735018Y7962391D01*
X14673043Y7949691D02*
X14703523Y7957565D01*
X14643833Y7939024D02*
X14673043Y7949691D01*
X14616147Y7925815D02*
X14643833Y7939024D01*
X14589984Y7909814D02*
X14616147Y7925815D01*
X14565601Y7891525D02*
X14589984Y7909814D01*
X14542995Y7870951D02*
X14565601Y7891525D01*
X14522421Y7848599D02*
X14542995Y7870951D01*
X14504132Y7823962D02*
X14522421Y7848599D01*
X14488386Y7797799D02*
X14504132Y7823962D01*
X14474922Y7770113D02*
X14488386Y7797799D01*
X14464255Y7740903D02*
X14474922Y7770113D01*
X14456381Y7710677D02*
X14464255Y7740903D01*
X14451555Y7678928D02*
X14456381Y7710677D01*
X14450031Y7646669D02*
X14451555Y7678928D01*
X14451555Y7614158D02*
X14450031Y7646669D01*
X14456381Y7582662D02*
X14451555Y7614158D01*
X14464255Y7552181D02*
X14456381Y7582662D01*
X14474922Y7522971D02*
X14464255Y7552181D01*
X14488386Y7495285D02*
X14474922Y7522971D01*
X14504132Y7469124D02*
X14488386Y7495285D01*
X14522421Y7444485D02*
X14504132Y7469124D01*
X14542995Y7422133D02*
X14522421Y7444485D01*
X14565601Y7401559D02*
X14542995Y7422133D01*
X14589984Y7383272D02*
X14565601Y7401559D01*
X14616147Y7367270D02*
X14589984Y7383272D01*
X14643833Y7354062D02*
X14616147Y7367270D01*
X14673043Y7343393D02*
X14643833Y7354062D01*
X14703523Y7335519D02*
X14673043Y7343393D01*
X14735018Y7330694D02*
X14703523Y7335519D01*
X14767531Y7329169D02*
X14735018Y7330694D01*
X14800042Y7330694D02*
X14767531Y7329169D01*
X14831539Y7335519D02*
X14800042Y7330694D01*
X14861765Y7343393D02*
X14831539Y7335519D01*
X14890975Y7354062D02*
X14861765Y7343393D01*
X14918915Y7367270D02*
X14890975Y7354062D01*
X14945076Y7383272D02*
X14918915Y7367270D01*
X14969461Y7401559D02*
X14945076Y7383272D01*
X14992067Y7422133D02*
X14969461Y7401559D01*
X15012387Y7444485D02*
X14992067Y7422133D01*
X15030674Y7469124D02*
X15012387Y7444485D01*
X15046676Y7495285D02*
X15030674Y7469124D01*
X15060138Y7522971D02*
X15046676Y7495285D01*
X15070807Y7552181D02*
X15060138Y7522971D01*
X15078427Y7582662D02*
X15070807Y7552181D01*
X15083252Y7614158D02*
X15078427Y7582662D01*
X15645438Y6146800D02*
X15643660Y6114289D01*
X15643660Y6179059D02*
X15645438Y6146800D01*
X15638834Y6210807D02*
X15643660Y6179059D01*
X15631214Y6241034D02*
X15638834Y6210807D01*
X15620545Y6270244D02*
X15631214Y6241034D01*
X15607083Y6297929D02*
X15620545Y6270244D01*
X15591081Y6324093D02*
X15607083Y6297929D01*
X15572794Y6348730D02*
X15591081Y6324093D01*
X15552474Y6371082D02*
X15572794Y6348730D01*
X15529868Y6391655D02*
X15552474Y6371082D01*
X15505483Y6409945D02*
X15529868Y6391655D01*
X15479322Y6425945D02*
X15505483Y6409945D01*
X15451382Y6439155D02*
X15479322Y6425945D01*
X15422172Y6449822D02*
X15451382Y6439155D01*
X15391946Y6457696D02*
X15422172Y6449822D01*
X15360449Y6462521D02*
X15391946Y6457696D01*
X15327938Y6464300D02*
X15360449Y6462521D01*
X15295425Y6462521D02*
X15327938Y6464300D01*
X15263930Y6457696D02*
X15295425Y6462521D01*
X15233450Y6449822D02*
X15263930Y6457696D01*
X15204240Y6439155D02*
X15233450Y6449822D01*
X15176554Y6425945D02*
X15204240Y6439155D01*
X15150391Y6409945D02*
X15176554Y6425945D01*
X15126008Y6391655D02*
X15150391Y6409945D01*
X15103402Y6371082D02*
X15126008Y6391655D01*
X15082828Y6348730D02*
X15103402Y6371082D01*
X15064539Y6324093D02*
X15082828Y6348730D01*
X15048793Y6297929D02*
X15064539Y6324093D01*
X15035329Y6270244D02*
X15048793Y6297929D01*
X15024662Y6241034D02*
X15035329Y6270244D01*
X15016788Y6210807D02*
X15024662Y6241034D01*
X15011963Y6179059D02*
X15016788Y6210807D01*
X15010438Y6146800D02*
X15011963Y6179059D01*
X15011963Y6114289D02*
X15010438Y6146800D01*
X15016788Y6082792D02*
X15011963Y6114289D01*
X15024662Y6052311D02*
X15016788Y6082792D01*
X15035329Y6023101D02*
X15024662Y6052311D01*
X15048793Y5995416D02*
X15035329Y6023101D01*
X15064539Y5969254D02*
X15048793Y5995416D01*
X15082828Y5944616D02*
X15064539Y5969254D01*
X15103402Y5922263D02*
X15082828Y5944616D01*
X15126008Y5901690D02*
X15103402Y5922263D01*
X15150391Y5883403D02*
X15126008Y5901690D01*
X15176554Y5867400D02*
X15150391Y5883403D01*
X15204240Y5854193D02*
X15176554Y5867400D01*
X15233450Y5843523D02*
X15204240Y5854193D01*
X15263930Y5835649D02*
X15233450Y5843523D01*
X15295425Y5830824D02*
X15263930Y5835649D01*
X15327938Y5829300D02*
X15295425Y5830824D01*
X15360449Y5830824D02*
X15327938Y5829300D01*
X15391946Y5835649D02*
X15360449Y5830824D01*
X15422172Y5843523D02*
X15391946Y5835649D01*
X15451382Y5854193D02*
X15422172Y5843523D01*
X15479322Y5867400D02*
X15451382Y5854193D01*
X15505483Y5883403D02*
X15479322Y5867400D01*
X15529868Y5901690D02*
X15505483Y5883403D01*
X15552474Y5922263D02*
X15529868Y5901690D01*
X15572794Y5944616D02*
X15552474Y5922263D01*
X15591081Y5969254D02*
X15572794Y5944616D01*
X15607083Y5995416D02*
X15591081Y5969254D01*
X15620545Y6023101D02*
X15607083Y5995416D01*
X15631214Y6052311D02*
X15620545Y6023101D01*
X15638834Y6082792D02*
X15631214Y6052311D01*
X15643660Y6114289D02*
X15638834Y6082792D01*
X15016732Y4909567D02*
X15016478Y4901439D01*
X15015464Y4933695D02*
X15016732Y4909567D01*
X15011398Y4956810D02*
X15015464Y4933695D01*
X15005303Y4978400D02*
X15011398Y4956810D01*
X14996666Y4998465D02*
X15005303Y4978400D01*
X14986254Y5016246D02*
X14996666Y4998465D01*
X14969743Y5036820D02*
X14986254Y5016246D01*
X14950440Y5052568D02*
X14969743Y5036820D01*
X14929104Y5063235D02*
X14950440Y5052568D01*
X14905989Y5068063D02*
X14929104Y5063235D01*
X14899894Y5068317D02*
X14905989Y5068063D01*
X14658593Y5068317D02*
X14899894Y5068317D01*
X14634970Y5065014D02*
X14658593Y5068317D01*
X14613126Y5055869D02*
X14634970Y5065014D01*
X14593315Y5041137D02*
X14613126Y5055869D01*
X14576042Y5021834D02*
X14593315Y5041137D01*
X14564867Y5004561D02*
X14576042Y5021834D01*
X14555722Y4985258D02*
X14564867Y5004561D01*
X14548864Y4964176D02*
X14555722Y4985258D01*
X14544039Y4941570D02*
X14548864Y4964176D01*
X14541752Y4917693D02*
X14544039Y4941570D01*
X14541752Y4909567D02*
X14541752Y4917693D01*
X14543023Y4885436D02*
X14541752Y4909567D01*
X14547086Y4862322D02*
X14543023Y4885436D01*
X14553184Y4840732D02*
X14547086Y4862322D01*
X14561564Y4820920D02*
X14553184Y4840732D01*
X14571979Y4802885D02*
X14561564Y4820920D01*
X14588743Y4782311D02*
X14571979Y4802885D01*
X14607793Y4766563D02*
X14588743Y4782311D01*
X14629383Y4755896D02*
X14607793Y4766563D01*
X14652497Y4751071D02*
X14629383Y4755896D01*
X14658593Y4750817D02*
X14652497Y4751071D01*
X14899894Y4750817D02*
X14658593Y4750817D01*
X14923514Y4754118D02*
X14899894Y4750817D01*
X14945358Y4763262D02*
X14923514Y4754118D01*
X14965172Y4777994D02*
X14945358Y4763262D01*
X14982442Y4797298D02*
X14965172Y4777994D01*
X14993620Y4814570D02*
X14982442Y4797298D01*
X15002508Y4833874D02*
X14993620Y4814570D01*
X15009620Y4854956D02*
X15002508Y4833874D01*
X15014447Y4877562D02*
X15009620Y4854956D01*
X15016478Y4901439D02*
X15014447Y4877562D01*
X15016732Y17137126D02*
X15016478Y17128998D01*
X15015464Y17161254D02*
X15016732Y17137126D01*
X15011398Y17184369D02*
X15015464Y17161254D01*
X15005303Y17205959D02*
X15011398Y17184369D01*
X14996666Y17226024D02*
X15005303Y17205959D01*
X14986254Y17243805D02*
X14996666Y17226024D01*
X14969743Y17264379D02*
X14986254Y17243805D01*
X14950440Y17280127D02*
X14969743Y17264379D01*
X14929104Y17290794D02*
X14950440Y17280127D01*
X14905989Y17295622D02*
X14929104Y17290794D01*
X14899894Y17295876D02*
X14905989Y17295622D01*
X14658593Y17295876D02*
X14899894Y17295876D01*
X14634970Y17292573D02*
X14658593Y17295876D01*
X14613126Y17283428D02*
X14634970Y17292573D01*
X14593315Y17268696D02*
X14613126Y17283428D01*
X14576042Y17249393D02*
X14593315Y17268696D01*
X14564867Y17232120D02*
X14576042Y17249393D01*
X14555722Y17212817D02*
X14564867Y17232120D01*
X14548864Y17191735D02*
X14555722Y17212817D01*
X14544039Y17169129D02*
X14548864Y17191735D01*
X14541752Y17145252D02*
X14544039Y17169129D01*
X14541752Y17137126D02*
X14541752Y17145252D01*
X14543023Y17112995D02*
X14541752Y17137126D01*
X14547086Y17089881D02*
X14543023Y17112995D01*
X14553184Y17068291D02*
X14547086Y17089881D01*
X14561564Y17048479D02*
X14553184Y17068291D01*
X14571979Y17030444D02*
X14561564Y17048479D01*
X14588743Y17009870D02*
X14571979Y17030444D01*
X14607793Y16994122D02*
X14588743Y17009870D01*
X14629383Y16983455D02*
X14607793Y16994122D01*
X14652497Y16978630D02*
X14629383Y16983455D01*
X14658593Y16978376D02*
X14652497Y16978630D01*
X14899894Y16978376D02*
X14658593Y16978376D01*
X14923514Y16981677D02*
X14899894Y16978376D01*
X14945358Y16990821D02*
X14923514Y16981677D01*
X14965172Y17005553D02*
X14945358Y16990821D01*
X14982442Y17024857D02*
X14965172Y17005553D01*
X14993620Y17042129D02*
X14982442Y17024857D01*
X15002508Y17061433D02*
X14993620Y17042129D01*
X15009620Y17082515D02*
X15002508Y17061433D01*
X15014447Y17105121D02*
X15009620Y17082515D01*
X15016478Y17128998D02*
X15014447Y17105121D01*
X16054069Y17436845D02*
X16054069Y4609846D01*
X14054073Y17436845D02*
X16054069Y17436845D01*
X14054073Y4609846D02*
X14054073Y17436845D01*
X16054069Y4609846D02*
X14054073Y4609846D01*
D11*
D12*
X14330502Y4134131D02*
X14330502Y4434131D01*
X14401930Y4434131D01*
X14444787Y4419846D01*
X14473359Y4391274D01*
X14487644Y4362703D01*
X14501930Y4305560D01*
X14501930Y4262703D01*
X14487644Y4205560D01*
X14473359Y4176988D01*
X14444787Y4148417D01*
X14401930Y4134131D01*
X14330502Y4134131D01*
X14630502Y4134131D02*
X14630502Y4334131D01*
X14630502Y4276988D02*
X14644787Y4305560D01*
X14659073Y4319846D01*
X14687644Y4334131D01*
X14716216Y4334131D01*
X14816216Y4134131D02*
X14816216Y4334131D01*
X14816216Y4434131D02*
X14801930Y4419846D01*
X14816216Y4405560D01*
X14830502Y4419846D01*
X14816216Y4434131D01*
X14816216Y4405560D01*
X15001930Y4134131D02*
X14973359Y4148417D01*
X14959073Y4176988D01*
X14959073Y4434131D01*
X15159073Y4134131D02*
X15130502Y4148417D01*
X15116216Y4176988D01*
X15116216Y4434131D01*
X15501930Y4134131D02*
X15501930Y4434131D01*
X15601930Y4219846D01*
X15701930Y4434131D01*
X15701930Y4134131D01*
X15973359Y4134131D02*
X15973359Y4291274D01*
X15959073Y4319846D01*
X15930502Y4334131D01*
X15873359Y4334131D01*
X15844787Y4319846D01*
X15973359Y4148417D02*
X15944787Y4134131D01*
X15873359Y4134131D01*
X15844787Y4148417D01*
X15830502Y4176988D01*
X15830502Y4205560D01*
X15844787Y4234131D01*
X15873359Y4248417D01*
X15944787Y4248417D01*
X15973359Y4262703D01*
X16116216Y4334131D02*
X16116216Y4034131D01*
X16116216Y4319846D02*
X16144787Y4334131D01*
X16201930Y4334131D01*
X16230502Y4319846D01*
X16244787Y4305560D01*
X16259073Y4276988D01*
X16259073Y4191274D01*
X16244787Y4162703D01*
X16230502Y4148417D01*
X16201930Y4134131D01*
X16144787Y4134131D01*
X16116216Y4148417D01*
X16387644Y4162703D02*
X16401930Y4148417D01*
X16387644Y4134131D01*
X16373359Y4148417D01*
X16387644Y4162703D01*
X16387644Y4134131D01*
X16387644Y4319846D02*
X16401930Y4305560D01*
X16387644Y4291274D01*
X16373359Y4305560D01*
X16387644Y4319846D01*
X16387644Y4291274D01*
M02*
