G04 #@! TF.GenerationSoftware,KiCad,Pcbnew,(5.1.10)-1*
G04 #@! TF.CreationDate,2021-10-06T15:16:57-05:00*
G04 #@! TF.ProjectId,Slew Limiter Front Panel,536c6577-204c-4696-9d69-746572204672,rev?*
G04 #@! TF.SameCoordinates,Original*
G04 #@! TF.FileFunction,Copper,L2,Bot*
G04 #@! TF.FilePolarity,Positive*
%FSLAX46Y46*%
G04 Gerber Fmt 4.6, Leading zero omitted, Abs format (unit mm)*
G04 Created by KiCad (PCBNEW (5.1.10)-1) date 2021-10-06 15:16:57*
%MOMM*%
%LPD*%
G01*
G04 APERTURE LIST*
G04 #@! TA.AperFunction,NonConductor*
%ADD10C,0.254000*%
G04 #@! TD*
G04 #@! TA.AperFunction,NonConductor*
%ADD11C,0.100000*%
G04 #@! TD*
G04 APERTURE END LIST*
D10*
X146106700Y173623162D02*
X146053339Y173598467D01*
X145864922Y173519590D01*
X145814644Y173501528D01*
X145767284Y173473060D01*
X145718632Y173446819D01*
X145677461Y173412770D01*
X145522022Y173297184D01*
X145489419Y173277359D01*
X145437504Y173229701D01*
X145385286Y173182252D01*
X145362592Y173151571D01*
X145246762Y173022125D01*
X145230508Y173008378D01*
X145198590Y172968290D01*
X145188611Y172957138D01*
X145176110Y172940056D01*
X145162924Y172923495D01*
X145154795Y172910931D01*
X145124532Y172869578D01*
X145115553Y172850277D01*
X145064109Y172770763D01*
X145055728Y172761527D01*
X145024845Y172710074D01*
X145011948Y172690140D01*
X145006266Y172679120D01*
X144999889Y172668496D01*
X144989730Y172647051D01*
X144962222Y172593703D01*
X144958778Y172581715D01*
X144919261Y172498296D01*
X144912959Y172489261D01*
X144888316Y172432975D01*
X144877529Y172410204D01*
X144873832Y172399892D01*
X144869443Y172389867D01*
X144861655Y172365928D01*
X144840912Y172308067D01*
X144839289Y172297170D01*
X144811396Y172211425D01*
X144810314Y172209467D01*
X144789034Y172142683D01*
X144778526Y172110380D01*
X144778048Y172108203D01*
X144777373Y172106086D01*
X144770307Y172072981D01*
X144755236Y172004407D01*
X144755191Y172002166D01*
X144735407Y171909478D01*
X144733061Y171903771D01*
X144720305Y171838725D01*
X144714046Y171809404D01*
X144713361Y171803317D01*
X144712180Y171797297D01*
X144709318Y171767408D01*
X144701906Y171701583D01*
X144702425Y171695438D01*
X144685969Y171523609D01*
X144682523Y171488624D01*
X144682523Y171487631D01*
X144682429Y171486649D01*
X144682523Y171451721D01*
X144682523Y171387989D01*
X144681642Y171368671D01*
X144682523Y171351936D01*
X144682523Y171335153D01*
X144684421Y171315880D01*
X144692891Y171154999D01*
X144691856Y171146454D01*
X144696692Y171082794D01*
X144698142Y171055254D01*
X144699427Y171046798D01*
X144700075Y171038264D01*
X144704850Y171011097D01*
X144714439Y170947982D01*
X144717368Y170939886D01*
X144734622Y170841729D01*
X144734600Y170840579D01*
X144747178Y170770302D01*
X144753207Y170736001D01*
X144753512Y170734908D01*
X144753715Y170733774D01*
X144763293Y170699865D01*
X144782375Y170631492D01*
X144782893Y170630468D01*
X144807525Y170543259D01*
X144808569Y170533412D01*
X144827180Y170473670D01*
X144834322Y170448383D01*
X144837909Y170439227D01*
X144840840Y170429820D01*
X144851090Y170405588D01*
X144873906Y170347358D01*
X144879249Y170339019D01*
X144914167Y170256471D01*
X144916301Y170247321D01*
X144942337Y170189874D01*
X144952774Y170165200D01*
X144957235Y170157001D01*
X144961091Y170148494D01*
X144974495Y170125283D01*
X145004635Y170069894D01*
X145010649Y170062677D01*
X145058541Y169979744D01*
X145067229Y169958561D01*
X145094670Y169917181D01*
X145101351Y169905612D01*
X145114606Y169887119D01*
X145127195Y169868135D01*
X145135645Y169857766D01*
X145164560Y169817423D01*
X145181266Y169801779D01*
X145294817Y169662430D01*
X145314840Y169632228D01*
X145340430Y169606454D01*
X145340457Y169606420D01*
X145367451Y169579237D01*
X145391286Y169555230D01*
X145391316Y169555206D01*
X145416912Y169529430D01*
X145446975Y169509191D01*
X145591873Y169389400D01*
X145627888Y169355618D01*
X145678235Y169324258D01*
X145727431Y169291130D01*
X145772977Y169272072D01*
X145954613Y169182331D01*
X146004757Y169154916D01*
X146053922Y169139493D01*
X146102144Y169121303D01*
X146158534Y169111950D01*
X146327800Y169076615D01*
X146350841Y169068563D01*
X146398509Y169061854D01*
X146410114Y169059431D01*
X146434247Y169056823D01*
X146458285Y169053440D01*
X146470129Y169052946D01*
X146517989Y169047775D01*
X146539954Y169049729D01*
X146549822Y169048757D01*
X146570636Y169048757D01*
X146591388Y169047892D01*
X146606679Y169048757D01*
X148941615Y169048757D01*
X148956493Y169046422D01*
X149013869Y169048757D01*
X149035042Y169048757D01*
X149049951Y169050225D01*
X149064905Y169050834D01*
X149085852Y169053761D01*
X149143022Y169059392D01*
X149157439Y169063765D01*
X149323445Y169086964D01*
X149381951Y169092949D01*
X149429622Y169107606D01*
X149478093Y169119315D01*
X149531472Y169144014D01*
X149719900Y169222896D01*
X149770164Y169240949D01*
X149817546Y169269427D01*
X149866210Y169295674D01*
X149907375Y169329717D01*
X150062834Y169445306D01*
X150095481Y169465160D01*
X150147464Y169512888D01*
X150199552Y169560212D01*
X150222272Y169590924D01*
X150338078Y169720360D01*
X150354295Y169734073D01*
X150386247Y169774197D01*
X150396260Y169785389D01*
X150408733Y169802436D01*
X150421885Y169818951D01*
X150430041Y169831555D01*
X150460333Y169872953D01*
X150469289Y169892207D01*
X150522921Y169975089D01*
X150533896Y169987451D01*
X150562181Y170035761D01*
X150572886Y170052304D01*
X150580419Y170066911D01*
X150588718Y170081085D01*
X150596957Y170098978D01*
X150622619Y170148737D01*
X150627183Y170164622D01*
X150663663Y170243846D01*
X150665383Y170246256D01*
X150693918Y170309551D01*
X150707804Y170339709D01*
X150708767Y170342491D01*
X150709976Y170345172D01*
X150720579Y170376601D01*
X150743307Y170442238D01*
X150743712Y170445172D01*
X150771489Y170527512D01*
X150774503Y170532965D01*
X150794612Y170596053D01*
X150804178Y170624410D01*
X150805572Y170630439D01*
X150807454Y170636344D01*
X150813710Y170665640D01*
X150828618Y170730124D01*
X150828810Y170736352D01*
X150850270Y170836845D01*
X150854025Y170846265D01*
X150865362Y170907522D01*
X150870808Y170933024D01*
X150871938Y170943051D01*
X150873771Y170952956D01*
X150875977Y170978900D01*
X150882957Y171040844D01*
X150882104Y171050952D01*
X150895748Y171211388D01*
X150898290Y171230922D01*
X150898802Y171247308D01*
X150900194Y171263673D01*
X150899931Y171283398D01*
X150901795Y171343038D01*
X150903200Y171373781D01*
X150902922Y171379070D01*
X150903088Y171384378D01*
X150901026Y171415143D01*
X150891967Y171587491D01*
X150893010Y171596106D01*
X150888172Y171659712D01*
X150886728Y171687176D01*
X150885434Y171695698D01*
X150884780Y171704296D01*
X150880013Y171731402D01*
X150870440Y171794449D01*
X150867491Y171802604D01*
X150850226Y171900770D01*
X150850247Y171901847D01*
X150837725Y171971853D01*
X150831621Y172006559D01*
X150831331Y172007598D01*
X150831142Y172008654D01*
X150821624Y172042364D01*
X150802443Y172111065D01*
X150801955Y172112029D01*
X150776714Y172201429D01*
X150775344Y172213616D01*
X150757066Y172271018D01*
X150750564Y172294046D01*
X150746123Y172305384D01*
X150742423Y172317003D01*
X150732952Y172339008D01*
X150710990Y172395074D01*
X150704377Y172405399D01*
X150666718Y172492894D01*
X150664545Y172501958D01*
X150638133Y172559307D01*
X150627511Y172583985D01*
X150623033Y172592092D01*
X150619156Y172600511D01*
X150605573Y172623705D01*
X150575053Y172678964D01*
X150569041Y172686088D01*
X150524322Y172762449D01*
X150517658Y172779050D01*
X150487810Y172824797D01*
X150478537Y172840632D01*
X150468086Y172855028D01*
X150458369Y172869921D01*
X150446889Y172884226D01*
X150414794Y172928436D01*
X150401660Y172940586D01*
X150290069Y173079638D01*
X150266980Y173113978D01*
X150219267Y173161415D01*
X150172190Y173209535D01*
X150138035Y173232901D01*
X149990045Y173353638D01*
X149957190Y173384748D01*
X149903498Y173418544D01*
X149850660Y173453628D01*
X149808808Y173470822D01*
X149631792Y173559320D01*
X149580168Y173587550D01*
X149532626Y173602469D01*
X149486079Y173620278D01*
X149428061Y173630182D01*
X149412426Y173633448D01*
X159805695Y173633448D01*
X159805696Y46833456D01*
X149435583Y46833456D01*
X149478090Y46843724D01*
X149531463Y46868420D01*
X149719899Y46947305D01*
X149770166Y46965360D01*
X149817549Y46993839D01*
X149866210Y47020084D01*
X149907371Y47054124D01*
X150062839Y47169720D01*
X150095481Y47189571D01*
X150147415Y47237254D01*
X150199554Y47284625D01*
X150222274Y47315337D01*
X150338078Y47444770D01*
X150354293Y47458482D01*
X150386247Y47498609D01*
X150396260Y47509800D01*
X150408729Y47526840D01*
X150421884Y47543360D01*
X150430044Y47555970D01*
X150460333Y47597364D01*
X150469287Y47616616D01*
X150522921Y47699500D01*
X150533896Y47711861D01*
X150562179Y47760167D01*
X150572885Y47776712D01*
X150580421Y47791323D01*
X150588718Y47805495D01*
X150596953Y47823379D01*
X150622619Y47873145D01*
X150627185Y47889035D01*
X150663663Y47968256D01*
X150665383Y47970666D01*
X150693918Y48033961D01*
X150707804Y48064119D01*
X150708767Y48066901D01*
X150709976Y48069582D01*
X150720579Y48101011D01*
X150743307Y48166648D01*
X150743712Y48169582D01*
X150771489Y48251922D01*
X150774503Y48257375D01*
X150794612Y48320463D01*
X150804178Y48348820D01*
X150805572Y48354849D01*
X150807454Y48360754D01*
X150813710Y48390050D01*
X150828618Y48454534D01*
X150828810Y48460762D01*
X150850270Y48561255D01*
X150854025Y48570675D01*
X150865362Y48631932D01*
X150870808Y48657434D01*
X150871938Y48667461D01*
X150873771Y48677366D01*
X150875977Y48703310D01*
X150882957Y48765254D01*
X150882104Y48775362D01*
X150895748Y48935798D01*
X150898290Y48955332D01*
X150898802Y48971718D01*
X150900194Y48988083D01*
X150899931Y49007808D01*
X150901795Y49067450D01*
X150903200Y49098192D01*
X150902922Y49103481D01*
X150903088Y49108789D01*
X150901026Y49139554D01*
X150891967Y49311903D01*
X150893010Y49320518D01*
X150888171Y49384126D01*
X150886728Y49411587D01*
X150885434Y49420108D01*
X150884780Y49428708D01*
X150880012Y49455816D01*
X150870440Y49518860D01*
X150867490Y49527016D01*
X150850226Y49625177D01*
X150850247Y49626257D01*
X150837674Y49696544D01*
X150831620Y49730969D01*
X150831333Y49731998D01*
X150831142Y49733064D01*
X150821535Y49767092D01*
X150802442Y49835475D01*
X150801956Y49836435D01*
X150776714Y49925839D01*
X150775344Y49938026D01*
X150757066Y49995428D01*
X150750564Y50018456D01*
X150746123Y50029794D01*
X150742423Y50041413D01*
X150732952Y50063418D01*
X150710990Y50119484D01*
X150704377Y50129809D01*
X150666718Y50217304D01*
X150664545Y50226368D01*
X150638133Y50283717D01*
X150627511Y50308395D01*
X150623033Y50316502D01*
X150619156Y50324921D01*
X150605573Y50348115D01*
X150575053Y50403374D01*
X150569041Y50410498D01*
X150524322Y50486859D01*
X150517658Y50503460D01*
X150487810Y50549207D01*
X150478537Y50565042D01*
X150468086Y50579438D01*
X150458369Y50594331D01*
X150446889Y50608636D01*
X150414794Y50652846D01*
X150401660Y50664996D01*
X150290069Y50804048D01*
X150266980Y50838388D01*
X150219267Y50885825D01*
X150172190Y50933945D01*
X150138035Y50957311D01*
X149990052Y51078042D01*
X149957193Y51109156D01*
X149903502Y51142951D01*
X149850660Y51178038D01*
X149808807Y51195232D01*
X149631807Y51283724D01*
X149580166Y51311963D01*
X149532623Y51326882D01*
X149486082Y51344689D01*
X149428054Y51354595D01*
X149257094Y51390300D01*
X149234022Y51398362D01*
X149186381Y51405068D01*
X149174811Y51407484D01*
X149150658Y51410096D01*
X149126579Y51413485D01*
X149114760Y51413978D01*
X149066937Y51419149D01*
X149044935Y51417194D01*
X149035042Y51418168D01*
X149014228Y51418168D01*
X148993476Y51419033D01*
X148978185Y51418168D01*
X146643220Y51418168D01*
X146628316Y51420506D01*
X146570970Y51418168D01*
X146549822Y51418168D01*
X146534884Y51416697D01*
X146519903Y51416086D01*
X146498982Y51413161D01*
X146441842Y51407533D01*
X146427399Y51403152D01*
X146261369Y51379937D01*
X146202889Y51373955D01*
X146155197Y51359291D01*
X146106697Y51347571D01*
X146053335Y51322875D01*
X145864922Y51244000D01*
X145814644Y51225938D01*
X145767284Y51197470D01*
X145718632Y51171229D01*
X145677461Y51137180D01*
X145522022Y51021594D01*
X145489419Y51001769D01*
X145437504Y50954111D01*
X145385286Y50906662D01*
X145362592Y50875981D01*
X145246762Y50746535D01*
X145230508Y50732788D01*
X145198590Y50692700D01*
X145188611Y50681548D01*
X145176110Y50664466D01*
X145162924Y50647905D01*
X145154795Y50635341D01*
X145124532Y50593988D01*
X145115553Y50574687D01*
X145064109Y50495173D01*
X145055728Y50485937D01*
X145024845Y50434484D01*
X145011948Y50414550D01*
X145006266Y50403530D01*
X144999889Y50392906D01*
X144989730Y50371461D01*
X144962222Y50318113D01*
X144958778Y50306125D01*
X144919261Y50222706D01*
X144912959Y50213671D01*
X144888316Y50157385D01*
X144877529Y50134614D01*
X144873832Y50124302D01*
X144869443Y50114277D01*
X144861655Y50090338D01*
X144840912Y50032477D01*
X144839289Y50021580D01*
X144811396Y49935835D01*
X144810314Y49933877D01*
X144789034Y49867093D01*
X144778526Y49834790D01*
X144778048Y49832613D01*
X144777373Y49830496D01*
X144770305Y49797384D01*
X144755236Y49728817D01*
X144755191Y49726577D01*
X144735407Y49633888D01*
X144733061Y49628182D01*
X144720307Y49563146D01*
X144714046Y49533816D01*
X144713360Y49527727D01*
X144712180Y49521708D01*
X144709318Y49491824D01*
X144701906Y49425994D01*
X144702425Y49419849D01*
X144685968Y49248014D01*
X144682523Y49213034D01*
X144682523Y49212041D01*
X144682429Y49211059D01*
X144682523Y49176131D01*
X144682523Y49112400D01*
X144681642Y49093082D01*
X144682523Y49076347D01*
X144682523Y49059564D01*
X144684421Y49040291D01*
X144692891Y48879409D01*
X144691856Y48870864D01*
X144696692Y48807204D01*
X144698142Y48779664D01*
X144699427Y48771208D01*
X144700075Y48762674D01*
X144704850Y48735507D01*
X144714439Y48672392D01*
X144717368Y48664296D01*
X144734622Y48566139D01*
X144734600Y48564989D01*
X144747178Y48494712D01*
X144753207Y48460411D01*
X144753512Y48459318D01*
X144753715Y48458184D01*
X144763293Y48424275D01*
X144782375Y48355902D01*
X144782893Y48354878D01*
X144807524Y48267671D01*
X144808569Y48257820D01*
X144827180Y48198079D01*
X144834322Y48172793D01*
X144837911Y48163634D01*
X144840841Y48154228D01*
X144851088Y48130003D01*
X144873906Y48071768D01*
X144879249Y48063428D01*
X144914168Y47980877D01*
X144916301Y47971734D01*
X144942326Y47914309D01*
X144952774Y47889610D01*
X144957238Y47881407D01*
X144961090Y47872907D01*
X144974491Y47849701D01*
X145004636Y47794304D01*
X145010649Y47787088D01*
X145058540Y47704156D01*
X145067229Y47682971D01*
X145094671Y47641589D01*
X145101350Y47630024D01*
X145114602Y47611534D01*
X145127195Y47592545D01*
X145135645Y47582175D01*
X145164559Y47541834D01*
X145181266Y47526190D01*
X145294817Y47386840D01*
X145314840Y47356638D01*
X145340430Y47330864D01*
X145340457Y47330830D01*
X145367451Y47303647D01*
X145391286Y47279640D01*
X145391316Y47279616D01*
X145416912Y47253840D01*
X145446975Y47233601D01*
X145591873Y47113810D01*
X145627888Y47080028D01*
X145678235Y47048668D01*
X145727431Y47015540D01*
X145772977Y46996482D01*
X145954613Y46906741D01*
X146004757Y46879326D01*
X146053922Y46863903D01*
X146102144Y46845713D01*
X146158534Y46836360D01*
X146172446Y46833456D01*
X141275732Y46833456D01*
X141275732Y61469635D01*
X149368498Y61469635D01*
X149368569Y61468124D01*
X149368498Y61466625D01*
X149370250Y61432264D01*
X149382164Y61178181D01*
X149381796Y61175617D01*
X149385552Y61105926D01*
X149387124Y61072397D01*
X149387496Y61069849D01*
X149387635Y61067273D01*
X149392725Y61034049D01*
X149402805Y60965033D01*
X149403672Y60962593D01*
X149430540Y60787211D01*
X149430500Y60786243D01*
X149441449Y60716007D01*
X149446823Y60680927D01*
X149447065Y60679982D01*
X149447212Y60679036D01*
X149455943Y60645240D01*
X149473687Y60575803D01*
X149474107Y60574925D01*
X149534960Y60339368D01*
X149543831Y60304908D01*
X149543937Y60304617D01*
X149544015Y60304316D01*
X149556192Y60271059D01*
X149638604Y60045382D01*
X149638857Y60043798D01*
X149663454Y59977334D01*
X149675270Y59944978D01*
X149675958Y59943547D01*
X149676516Y59942040D01*
X149691719Y59910777D01*
X149722299Y59847198D01*
X149723261Y59845918D01*
X149825499Y59635687D01*
X149839580Y59606058D01*
X149841288Y59603220D01*
X149842735Y59600245D01*
X149859883Y59572327D01*
X150015586Y59313640D01*
X150033694Y59283456D01*
X150034007Y59283035D01*
X150034281Y59282579D01*
X150055524Y59254046D01*
X150196565Y59064037D01*
X150197736Y59061609D01*
X150239644Y59006002D01*
X150259624Y58979084D01*
X150261430Y58977093D01*
X150263039Y58974958D01*
X150285647Y58950396D01*
X150332523Y58898719D01*
X150334689Y58897114D01*
X150490842Y58727462D01*
X150512606Y58703350D01*
X150515251Y58700943D01*
X150517678Y58698306D01*
X150541955Y58676640D01*
X150764471Y58474132D01*
X150790199Y58450560D01*
X150791176Y58449827D01*
X150792074Y58449010D01*
X150819953Y58428244D01*
X151062018Y58246696D01*
X151089602Y58225852D01*
X151090729Y58225162D01*
X151091794Y58224364D01*
X151121572Y58206298D01*
X151322064Y58083669D01*
X151323608Y58082260D01*
X151383810Y58045902D01*
X151412836Y58028149D01*
X151414703Y58027245D01*
X151416487Y58026168D01*
X151447300Y58011469D01*
X151510500Y57980880D01*
X151512522Y57980354D01*
X151725025Y57878979D01*
X151756319Y57863925D01*
X151757437Y57863516D01*
X151758518Y57863001D01*
X151791378Y57851120D01*
X152082152Y57744913D01*
X152115701Y57732629D01*
X152115982Y57732556D01*
X152116246Y57732460D01*
X152150075Y57723749D01*
X152386312Y57662721D01*
X152387184Y57662303D01*
X152456342Y57644629D01*
X152490419Y57635826D01*
X152491370Y57635678D01*
X152492308Y57635438D01*
X152527237Y57630087D01*
X152597627Y57619114D01*
X152598594Y57619154D01*
X152773953Y57592288D01*
X152776397Y57591420D01*
X152845455Y57581334D01*
X152878631Y57576251D01*
X152881206Y57576112D01*
X152883761Y57575739D01*
X152917338Y57574165D01*
X152986976Y57570411D01*
X152989542Y57570779D01*
X153243436Y57558874D01*
X153277745Y57557112D01*
X153279383Y57557189D01*
X153281021Y57557112D01*
X153315352Y57558875D01*
X153569197Y57570779D01*
X153571759Y57570411D01*
X153641411Y57574165D01*
X153674983Y57575739D01*
X153677533Y57576112D01*
X153680103Y57576250D01*
X153713305Y57581337D01*
X153782347Y57591421D01*
X153784784Y57592287D01*
X153960913Y57619269D01*
X153962635Y57619201D01*
X154032377Y57630217D01*
X154066448Y57635437D01*
X154068111Y57635862D01*
X154069808Y57636130D01*
X154103169Y57644821D01*
X154171573Y57662301D01*
X154173129Y57663046D01*
X154406128Y57723744D01*
X154439976Y57732460D01*
X154440947Y57732815D01*
X154441950Y57733076D01*
X154474867Y57745204D01*
X154763663Y57850688D01*
X154795301Y57862001D01*
X154797560Y57863069D01*
X154799904Y57863925D01*
X154830138Y57878469D01*
X155044982Y57980029D01*
X155048287Y57980889D01*
X155110335Y58010923D01*
X155139981Y58024937D01*
X155142899Y58026685D01*
X155145950Y58028162D01*
X155173859Y58045233D01*
X155233058Y58080700D01*
X155235588Y58082993D01*
X155437314Y58206385D01*
X155466923Y58224347D01*
X155468004Y58225158D01*
X155469162Y58225866D01*
X155496861Y58246798D01*
X155738648Y58428124D01*
X155766689Y58449010D01*
X155767581Y58449822D01*
X155768540Y58450541D01*
X155794156Y58474008D01*
X156018529Y58678206D01*
X156044320Y58701512D01*
X156045195Y58702474D01*
X156046157Y58703350D01*
X156069431Y58729135D01*
X156223393Y58898497D01*
X156223730Y58898747D01*
X156271808Y58951756D01*
X156296089Y58978465D01*
X156296342Y58978805D01*
X156296624Y58979116D01*
X156318111Y59008066D01*
X156360853Y59065519D01*
X156361032Y59065895D01*
X156499141Y59251976D01*
X156518970Y59278215D01*
X156520631Y59280930D01*
X156522530Y59283489D01*
X156539454Y59311703D01*
X156697703Y59570410D01*
X156716050Y59600285D01*
X156716333Y59600866D01*
X156716675Y59601426D01*
X156732221Y59633543D01*
X156835480Y59845909D01*
X156836419Y59847157D01*
X156867134Y59911009D01*
X156882243Y59942082D01*
X156882781Y59943536D01*
X156883454Y59944935D01*
X156895323Y59977429D01*
X156919897Y60043841D01*
X156920143Y60045383D01*
X156978593Y60205410D01*
X156979933Y60207648D01*
X157003400Y60273328D01*
X157014918Y60304862D01*
X157015565Y60307376D01*
X157016440Y60309824D01*
X157024590Y60342425D01*
X157041974Y60409937D01*
X157042119Y60412541D01*
X157100932Y60647794D01*
X157109399Y60680928D01*
X157109690Y60682826D01*
X157110154Y60684683D01*
X157115143Y60718424D01*
X157163192Y61032057D01*
X157168526Y61066686D01*
X157168542Y61066978D01*
X157168587Y61067272D01*
X157170503Y61102831D01*
X157184564Y61359844D01*
X157185580Y61364007D01*
X157188517Y61432106D01*
X157190256Y61463896D01*
X157190071Y61468144D01*
X157190255Y61472409D01*
X157188497Y61504293D01*
X157185536Y61572296D01*
X157184518Y61576458D01*
X157170532Y61830125D01*
X157168676Y61865331D01*
X157168542Y61866214D01*
X157168493Y61867099D01*
X157163152Y61901678D01*
X157115059Y62218112D01*
X157109869Y62252737D01*
X157109687Y62253460D01*
X157109573Y62254208D01*
X157100844Y62288535D01*
X157042078Y62521642D01*
X157041974Y62523514D01*
X157024420Y62591689D01*
X157016017Y62625019D01*
X157015384Y62626781D01*
X157014918Y62628589D01*
X157003149Y62660810D01*
X156979308Y62727123D01*
X156978341Y62728731D01*
X156920143Y62888068D01*
X156919897Y62889610D01*
X156895323Y62956022D01*
X156883454Y62988516D01*
X156882781Y62989915D01*
X156882243Y62991369D01*
X156867134Y63022442D01*
X156836419Y63086294D01*
X156835480Y63087542D01*
X156732167Y63300020D01*
X156716688Y63332001D01*
X156716339Y63332571D01*
X156716050Y63333166D01*
X156697669Y63363096D01*
X156539469Y63621744D01*
X156522513Y63650009D01*
X156520629Y63652547D01*
X156518985Y63655235D01*
X156499174Y63681452D01*
X156361025Y63867570D01*
X156360853Y63867933D01*
X156318061Y63925453D01*
X156296605Y63954359D01*
X156296334Y63954658D01*
X156296089Y63954987D01*
X156271614Y63981910D01*
X156223707Y64034725D01*
X156223385Y64034964D01*
X156069431Y64204317D01*
X156046157Y64230102D01*
X156045195Y64230978D01*
X156044320Y64231940D01*
X156018529Y64255246D01*
X155794245Y64459363D01*
X155768572Y64482885D01*
X155767593Y64483619D01*
X155766689Y64484442D01*
X155738750Y64505252D01*
X155496718Y64686781D01*
X155469124Y64707632D01*
X155468009Y64708314D01*
X155466957Y64709103D01*
X155437225Y64727141D01*
X155235593Y64850461D01*
X155233096Y64852723D01*
X155173885Y64888201D01*
X155145910Y64905311D01*
X155142895Y64906770D01*
X155140023Y64908491D01*
X155110394Y64922499D01*
X155048244Y64952578D01*
X155044982Y64953426D01*
X154830118Y65055013D01*
X154799859Y65069567D01*
X154797562Y65070406D01*
X154795345Y65071454D01*
X154763630Y65082797D01*
X154474736Y65188295D01*
X154441950Y65200375D01*
X154440927Y65200641D01*
X154439929Y65201006D01*
X154405945Y65209755D01*
X154173133Y65270404D01*
X154171575Y65271150D01*
X154103032Y65288666D01*
X154069808Y65297321D01*
X154068119Y65297588D01*
X154066451Y65298014D01*
X154032265Y65303251D01*
X153962635Y65314250D01*
X153960917Y65314182D01*
X153715304Y65351810D01*
X153680689Y65357141D01*
X153680400Y65357157D01*
X153680105Y65357202D01*
X153644271Y65359133D01*
X153387694Y65373169D01*
X153383687Y65374149D01*
X153315465Y65377120D01*
X153283478Y65378870D01*
X153279383Y65378692D01*
X153275287Y65378870D01*
X153243288Y65377120D01*
X153175080Y65374149D01*
X153171075Y65373170D01*
X152914419Y65359130D01*
X152878629Y65357201D01*
X152878339Y65357157D01*
X152878055Y65357141D01*
X152843605Y65351835D01*
X152598594Y65314297D01*
X152597627Y65314337D01*
X152527097Y65303343D01*
X152492305Y65298012D01*
X152491372Y65297774D01*
X152490419Y65297625D01*
X152456226Y65288792D01*
X152387182Y65271147D01*
X152386312Y65270730D01*
X152150891Y65209913D01*
X152116292Y65201006D01*
X152115999Y65200899D01*
X152115701Y65200822D01*
X152082873Y65188802D01*
X151791400Y65082362D01*
X151758474Y65070454D01*
X151757434Y65069958D01*
X151756364Y65069567D01*
X151725077Y65054519D01*
X151512522Y64953102D01*
X151510542Y64952587D01*
X151447161Y64921916D01*
X151416445Y64907260D01*
X151414710Y64906212D01*
X151412875Y64905324D01*
X151383653Y64887453D01*
X151323570Y64851162D01*
X151322065Y64849789D01*
X151121392Y64727066D01*
X151091760Y64709086D01*
X151090736Y64708318D01*
X151089639Y64707647D01*
X151061893Y64686683D01*
X150819983Y64505230D01*
X150792074Y64484442D01*
X150791159Y64483610D01*
X150790168Y64482866D01*
X150764480Y64459329D01*
X150541955Y64256812D01*
X150517678Y64235146D01*
X150515251Y64232509D01*
X150512606Y64230102D01*
X150490842Y64205990D01*
X150334699Y64036349D01*
X150332545Y64034753D01*
X150285675Y63983087D01*
X150263039Y63958494D01*
X150261438Y63956370D01*
X150259643Y63954391D01*
X150239654Y63927464D01*
X150197736Y63871843D01*
X150196571Y63869429D01*
X150055164Y63678942D01*
X150034266Y63650871D01*
X150034012Y63650448D01*
X150033710Y63650042D01*
X150015288Y63619338D01*
X149859872Y63361108D01*
X149842735Y63333206D01*
X149841283Y63330220D01*
X149839567Y63327369D01*
X149825488Y63297742D01*
X149723261Y63087533D01*
X149722299Y63086253D01*
X149691719Y63022674D01*
X149676516Y62991411D01*
X149675958Y62989904D01*
X149675270Y62988473D01*
X149663454Y62956117D01*
X149638857Y62889653D01*
X149638604Y62888069D01*
X149556542Y62663350D01*
X149544462Y62630564D01*
X149544196Y62629541D01*
X149543831Y62628543D01*
X149535082Y62594559D01*
X149474322Y62361320D01*
X149473388Y62359364D01*
X149456070Y62291259D01*
X149447516Y62258422D01*
X149447181Y62256299D01*
X149446649Y62254208D01*
X149441528Y62220512D01*
X149430587Y62151249D01*
X149430673Y62149090D01*
X149403545Y61970600D01*
X149402870Y61968702D01*
X149392682Y61899121D01*
X149387546Y61865331D01*
X149387440Y61863327D01*
X149387150Y61861344D01*
X149385540Y61827267D01*
X149381835Y61756979D01*
X149382124Y61754982D01*
X149370275Y61504225D01*
X149368498Y61469635D01*
X141275732Y61469635D01*
X141275732Y76468330D01*
X143764425Y76468330D01*
X143764496Y76466822D01*
X143764425Y76465325D01*
X143766179Y76430917D01*
X143778092Y76176876D01*
X143777724Y76174314D01*
X143781478Y76104649D01*
X143783052Y76071092D01*
X143783424Y76068543D01*
X143783563Y76065970D01*
X143788654Y76032737D01*
X143798734Y75963728D01*
X143799600Y75961291D01*
X143826468Y75785908D01*
X143826428Y75784940D01*
X143837377Y75714704D01*
X143842751Y75679624D01*
X143842993Y75678679D01*
X143843140Y75677733D01*
X143851871Y75643937D01*
X143869615Y75574500D01*
X143870035Y75573622D01*
X143930888Y75338065D01*
X143939759Y75303605D01*
X143939865Y75303314D01*
X143939943Y75303013D01*
X143952120Y75269756D01*
X144034532Y75044079D01*
X144034785Y75042495D01*
X144059382Y74976031D01*
X144071198Y74943675D01*
X144071886Y74942244D01*
X144072444Y74940737D01*
X144087647Y74909474D01*
X144118227Y74845895D01*
X144119189Y74844615D01*
X144221417Y74634404D01*
X144235507Y74604756D01*
X144237218Y74601913D01*
X144238663Y74598942D01*
X144255788Y74571061D01*
X144411682Y74312056D01*
X144429623Y74282151D01*
X144429931Y74281735D01*
X144430208Y74281276D01*
X144451646Y74252481D01*
X144592492Y74062735D01*
X144593663Y74060308D01*
X144635625Y74004627D01*
X144655553Y73977780D01*
X144657350Y73975799D01*
X144658965Y73973656D01*
X144681670Y73948988D01*
X144728452Y73897415D01*
X144730615Y73895812D01*
X144886769Y73726159D01*
X144908536Y73702044D01*
X144911179Y73699638D01*
X144913605Y73697003D01*
X144937873Y73675345D01*
X145160445Y73472786D01*
X145186126Y73449258D01*
X145187102Y73448526D01*
X145188003Y73447706D01*
X145215857Y73426960D01*
X145457802Y73245501D01*
X145485530Y73224548D01*
X145486661Y73223856D01*
X145487720Y73223062D01*
X145517365Y73205077D01*
X145717993Y73082365D01*
X145719535Y73080958D01*
X145779702Y73044622D01*
X145808766Y73026845D01*
X145810635Y73025941D01*
X145812414Y73024866D01*
X145843154Y73010201D01*
X145906430Y72979576D01*
X145908454Y72979050D01*
X146120809Y72877745D01*
X146152246Y72862622D01*
X146153369Y72862212D01*
X146154444Y72861699D01*
X146187219Y72849848D01*
X146477984Y72743645D01*
X146511629Y72731326D01*
X146511907Y72731254D01*
X146512173Y72731157D01*
X146546340Y72722359D01*
X146782237Y72661418D01*
X146783109Y72661001D01*
X146852270Y72643327D01*
X146886348Y72634523D01*
X146887298Y72634375D01*
X146888233Y72634136D01*
X146923094Y72628795D01*
X146993556Y72617811D01*
X146994522Y72617851D01*
X147169880Y72590984D01*
X147172327Y72590115D01*
X147241345Y72580035D01*
X147274555Y72574947D01*
X147277137Y72574808D01*
X147279690Y72574435D01*
X147313216Y72572863D01*
X147382900Y72569107D01*
X147385468Y72569475D01*
X147639330Y72557573D01*
X147673670Y72555809D01*
X147675310Y72555886D01*
X147676951Y72555809D01*
X147711309Y72557574D01*
X147965125Y72569475D01*
X147967689Y72569107D01*
X148037380Y72572863D01*
X148070909Y72574435D01*
X148073457Y72574807D01*
X148076033Y72574946D01*
X148109264Y72580037D01*
X148178272Y72590116D01*
X148180711Y72590983D01*
X148356845Y72617966D01*
X148358563Y72617898D01*
X148428193Y72628897D01*
X148462379Y72634134D01*
X148464047Y72634560D01*
X148465736Y72634827D01*
X148498960Y72643482D01*
X148567503Y72660998D01*
X148569061Y72661744D01*
X148802056Y72722441D01*
X148835904Y72731157D01*
X148836875Y72731512D01*
X148837878Y72731773D01*
X148870795Y72743901D01*
X149159591Y72849385D01*
X149191229Y72860698D01*
X149193488Y72861766D01*
X149195832Y72862622D01*
X149226066Y72877166D01*
X149440910Y72978726D01*
X149444215Y72979586D01*
X149506263Y73009620D01*
X149535909Y73023634D01*
X149538827Y73025382D01*
X149541878Y73026859D01*
X149569787Y73043930D01*
X149628986Y73079397D01*
X149631516Y73081690D01*
X149833242Y73205082D01*
X149862851Y73223044D01*
X149863932Y73223855D01*
X149865090Y73224563D01*
X149892789Y73245495D01*
X150134573Y73426819D01*
X150162616Y73447706D01*
X150163510Y73448519D01*
X150164468Y73449238D01*
X150190052Y73472675D01*
X150414483Y73676926D01*
X150440249Y73700209D01*
X150441122Y73701170D01*
X150442083Y73702044D01*
X150465345Y73727815D01*
X150619321Y73897195D01*
X150619656Y73897443D01*
X150667828Y73950554D01*
X150692018Y73977164D01*
X150692268Y73977500D01*
X150692551Y73977812D01*
X150714166Y74006935D01*
X150756782Y74064218D01*
X150756960Y74064593D01*
X150895054Y74250652D01*
X150914899Y74276912D01*
X150916562Y74279631D01*
X150918457Y74282184D01*
X150935345Y74310337D01*
X151093743Y74569290D01*
X151111978Y74598982D01*
X151112259Y74599560D01*
X151112604Y74600124D01*
X151128190Y74632325D01*
X151231408Y74844606D01*
X151232347Y74845854D01*
X151263062Y74909706D01*
X151278171Y74940779D01*
X151278709Y74942233D01*
X151279382Y74943632D01*
X151291251Y74976126D01*
X151315825Y75042538D01*
X151316071Y75044080D01*
X151374521Y75204107D01*
X151375861Y75206345D01*
X151399328Y75272025D01*
X151410846Y75303559D01*
X151411493Y75306073D01*
X151412368Y75308521D01*
X151420518Y75341122D01*
X151437902Y75408634D01*
X151438047Y75411238D01*
X151496860Y75646491D01*
X151505327Y75679625D01*
X151505618Y75681523D01*
X151506082Y75683380D01*
X151511071Y75717121D01*
X151559248Y76031588D01*
X151564454Y76065385D01*
X151564470Y76065674D01*
X151564515Y76065969D01*
X151566445Y76101781D01*
X151580491Y76358539D01*
X151581507Y76362702D01*
X151584445Y76430817D01*
X151586183Y76462596D01*
X151585998Y76466841D01*
X151586182Y76471104D01*
X151584423Y76503009D01*
X151581462Y76570995D01*
X151580445Y76575152D01*
X151566465Y76828718D01*
X151564604Y76864028D01*
X151564470Y76864913D01*
X151564421Y76865793D01*
X151559085Y76900338D01*
X151510987Y77216809D01*
X151505797Y77251434D01*
X151505615Y77252157D01*
X151505501Y77252905D01*
X151496772Y77287232D01*
X151438006Y77520339D01*
X151437902Y77522211D01*
X151420348Y77590386D01*
X151411945Y77623716D01*
X151411312Y77625478D01*
X151410846Y77627286D01*
X151399077Y77659507D01*
X151375236Y77725820D01*
X151374269Y77727428D01*
X151316071Y77886765D01*
X151315825Y77888307D01*
X151291251Y77954719D01*
X151279382Y77987213D01*
X151278709Y77988612D01*
X151278171Y77990066D01*
X151263062Y78021139D01*
X151232347Y78084991D01*
X151231408Y78086239D01*
X151128095Y78298717D01*
X151112616Y78330698D01*
X151112267Y78331268D01*
X151111978Y78331863D01*
X151093597Y78361793D01*
X150935397Y78620441D01*
X150918441Y78648706D01*
X150916557Y78651244D01*
X150914913Y78653932D01*
X150895102Y78680149D01*
X150756953Y78866267D01*
X150756781Y78866630D01*
X150713989Y78924150D01*
X150692533Y78953056D01*
X150692262Y78953355D01*
X150692017Y78953684D01*
X150667542Y78980607D01*
X150619635Y79033422D01*
X150619313Y79033661D01*
X150465332Y79203044D01*
X150442083Y79228801D01*
X150441122Y79229676D01*
X150440248Y79230637D01*
X150414468Y79253933D01*
X150190277Y79457965D01*
X150164502Y79481580D01*
X150163519Y79482318D01*
X150162616Y79483139D01*
X150134776Y79503875D01*
X149892695Y79685441D01*
X149865052Y79706329D01*
X149863935Y79707012D01*
X149862886Y79707799D01*
X149833194Y79725813D01*
X149631521Y79849158D01*
X149629024Y79851420D01*
X149569813Y79886898D01*
X149541838Y79904008D01*
X149538823Y79905467D01*
X149535951Y79907188D01*
X149506322Y79921196D01*
X149444172Y79951275D01*
X149440910Y79952123D01*
X149226046Y80053710D01*
X149195787Y80068264D01*
X149193490Y80069103D01*
X149191273Y80070151D01*
X149159558Y80081494D01*
X148870664Y80186992D01*
X148837878Y80199072D01*
X148836855Y80199338D01*
X148835857Y80199703D01*
X148801873Y80208452D01*
X148569061Y80269101D01*
X148567503Y80269847D01*
X148498960Y80287363D01*
X148465736Y80296018D01*
X148464047Y80296285D01*
X148462379Y80296711D01*
X148428193Y80301948D01*
X148358563Y80312947D01*
X148356845Y80312879D01*
X148111232Y80350507D01*
X148076617Y80355838D01*
X148076328Y80355854D01*
X148076033Y80355899D01*
X148040193Y80357831D01*
X147783621Y80371866D01*
X147779614Y80372846D01*
X147711393Y80375817D01*
X147679405Y80377567D01*
X147675310Y80377389D01*
X147671214Y80377567D01*
X147639215Y80375817D01*
X147571007Y80372846D01*
X147567002Y80371867D01*
X147310414Y80357831D01*
X147274555Y80355898D01*
X147274264Y80355853D01*
X147273982Y80355838D01*
X147239687Y80350556D01*
X146994522Y80312994D01*
X146993556Y80313034D01*
X146923094Y80302050D01*
X146888233Y80296709D01*
X146887298Y80296470D01*
X146886348Y80296322D01*
X146852270Y80287518D01*
X146783109Y80269844D01*
X146782237Y80269427D01*
X146547130Y80208690D01*
X146512219Y80199703D01*
X146511923Y80199595D01*
X146511629Y80199519D01*
X146478723Y80187471D01*
X146187238Y80081026D01*
X146154400Y80069150D01*
X146153365Y80068656D01*
X146152291Y80068264D01*
X146120855Y80053144D01*
X145908450Y79951798D01*
X145906472Y79951284D01*
X145843161Y79920647D01*
X145812372Y79905956D01*
X145810633Y79904905D01*
X145808805Y79904021D01*
X145779711Y79886228D01*
X145719497Y79849859D01*
X145717988Y79848482D01*
X145517312Y79725759D01*
X145487684Y79707781D01*
X145486664Y79707016D01*
X145485567Y79706345D01*
X145457789Y79685357D01*
X145215773Y79503823D01*
X145188003Y79483139D01*
X145187088Y79482307D01*
X145186093Y79481560D01*
X145160371Y79457992D01*
X144937879Y79255506D01*
X144913606Y79233843D01*
X144911180Y79231207D01*
X144908536Y79228801D01*
X144886764Y79204681D01*
X144730627Y79035046D01*
X144728473Y79033450D01*
X144681603Y78981784D01*
X144658967Y78957191D01*
X144657366Y78955067D01*
X144655571Y78953088D01*
X144635582Y78926161D01*
X144593664Y78870540D01*
X144592499Y78868126D01*
X144451092Y78677639D01*
X144430194Y78649568D01*
X144429940Y78649145D01*
X144429638Y78648739D01*
X144411216Y78618035D01*
X144255800Y78359805D01*
X144238663Y78331903D01*
X144237211Y78328917D01*
X144235495Y78326066D01*
X144221416Y78296439D01*
X144119189Y78086230D01*
X144118227Y78084950D01*
X144087647Y78021371D01*
X144072444Y77990108D01*
X144071886Y77988601D01*
X144071198Y77987170D01*
X144059382Y77954814D01*
X144034785Y77888350D01*
X144034532Y77886766D01*
X143952470Y77662047D01*
X143940390Y77629261D01*
X143940124Y77628238D01*
X143939759Y77627240D01*
X143931010Y77593256D01*
X143870250Y77360017D01*
X143869316Y77358061D01*
X143851998Y77289956D01*
X143843444Y77257119D01*
X143843109Y77254996D01*
X143842577Y77252905D01*
X143837456Y77219209D01*
X143826515Y77149946D01*
X143826601Y77147787D01*
X143799473Y76969296D01*
X143798799Y76967401D01*
X143788611Y76897829D01*
X143783474Y76864028D01*
X143783369Y76862027D01*
X143783078Y76860043D01*
X143781466Y76825930D01*
X143777763Y76755676D01*
X143778052Y76753681D01*
X143766200Y76502887D01*
X143764425Y76468330D01*
X141275732Y76468330D01*
X141275732Y128086499D01*
X146629819Y128086499D01*
X146629896Y128084861D01*
X146629819Y128083223D01*
X146631581Y128048914D01*
X146643486Y127795020D01*
X146643118Y127792454D01*
X146646871Y127722821D01*
X146648446Y127689239D01*
X146648819Y127686683D01*
X146648958Y127684110D01*
X146654039Y127650945D01*
X146664127Y127581876D01*
X146664995Y127579432D01*
X146691861Y127404073D01*
X146691821Y127403107D01*
X146702771Y127332864D01*
X146708145Y127297786D01*
X146708386Y127296843D01*
X146708533Y127295900D01*
X146717269Y127262082D01*
X146735010Y127192662D01*
X146735429Y127191787D01*
X146796441Y126955611D01*
X146805167Y126921725D01*
X146805263Y126921461D01*
X146805336Y126921180D01*
X146817655Y126887535D01*
X146899942Y126662247D01*
X146900188Y126660705D01*
X146924779Y126594249D01*
X146936632Y126561797D01*
X146937304Y126560400D01*
X146937842Y126558946D01*
X146952991Y126527791D01*
X146983668Y126464019D01*
X146984603Y126462775D01*
X147086856Y126252480D01*
X147100910Y126222908D01*
X147102597Y126220105D01*
X147104035Y126217148D01*
X147121235Y126189141D01*
X147240348Y125991254D01*
X147240791Y125990037D01*
X147277626Y125929322D01*
X147295633Y125899407D01*
X147296404Y125898372D01*
X147297071Y125897272D01*
X147318000Y125869366D01*
X147360431Y125812379D01*
X147361390Y125811513D01*
X147500951Y125625431D01*
X147521717Y125597552D01*
X147522534Y125596654D01*
X147523267Y125595677D01*
X147546836Y125569951D01*
X147750779Y125345859D01*
X147773927Y125320214D01*
X147775041Y125319200D01*
X147776055Y125318086D01*
X147801698Y125294940D01*
X148025852Y125090940D01*
X148051511Y125067432D01*
X148052489Y125066698D01*
X148053395Y125065874D01*
X148081363Y125045042D01*
X148267363Y124905537D01*
X148268224Y124904584D01*
X148325227Y124862138D01*
X148353126Y124841213D01*
X148354218Y124840550D01*
X148355250Y124839782D01*
X148385216Y124821744D01*
X148445890Y124784931D01*
X148447100Y124784491D01*
X148645035Y124665339D01*
X148672992Y124648170D01*
X148675929Y124646742D01*
X148678728Y124645057D01*
X148708387Y124630960D01*
X148918638Y124528729D01*
X148919904Y124527777D01*
X148983698Y124497095D01*
X149014789Y124481977D01*
X149016266Y124481430D01*
X149017685Y124480748D01*
X149050138Y124468897D01*
X149116548Y124444323D01*
X149118113Y124444074D01*
X149344117Y124361541D01*
X149377023Y124349493D01*
X149377317Y124349417D01*
X149377613Y124349309D01*
X149412524Y124340322D01*
X149647639Y124279583D01*
X149648513Y124279165D01*
X149717588Y124261513D01*
X149751742Y124252690D01*
X149752698Y124252541D01*
X149753637Y124252301D01*
X149788476Y124246964D01*
X149858950Y124235978D01*
X149859921Y124236019D01*
X150035301Y124209151D01*
X150037738Y124208285D01*
X150106793Y124198199D01*
X150139982Y124193114D01*
X150142550Y124192976D01*
X150145101Y124192603D01*
X150178683Y124191028D01*
X150248327Y124187275D01*
X150250888Y124187643D01*
X150504928Y124175730D01*
X150539335Y124173976D01*
X150540832Y124174047D01*
X150542340Y124173976D01*
X150576893Y124175751D01*
X150827694Y124187603D01*
X150829684Y124187315D01*
X150899850Y124191013D01*
X150934053Y124192629D01*
X150936039Y124192920D01*
X150938035Y124193025D01*
X150971775Y124198153D01*
X151041411Y124208350D01*
X151043307Y124209024D01*
X151221793Y124236151D01*
X151223956Y124236065D01*
X151293287Y124247016D01*
X151326913Y124252127D01*
X151329000Y124252658D01*
X151331129Y124252994D01*
X151364048Y124261570D01*
X151432069Y124278866D01*
X151434023Y124279799D01*
X151667266Y124340560D01*
X151701250Y124349309D01*
X151702248Y124349674D01*
X151703271Y124349940D01*
X151736057Y124362020D01*
X151959503Y124443618D01*
X151959756Y124443657D01*
X152027822Y124468566D01*
X152061180Y124480748D01*
X152061406Y124480857D01*
X152061650Y124480946D01*
X152094886Y124496960D01*
X152158960Y124527777D01*
X152159160Y124527928D01*
X152371929Y124630442D01*
X152402655Y124645045D01*
X152404330Y124646053D01*
X152406100Y124646906D01*
X152435310Y124664701D01*
X152634329Y124784495D01*
X152635565Y124784945D01*
X152696200Y124821737D01*
X152726156Y124839768D01*
X152727210Y124840553D01*
X152728326Y124841230D01*
X152756161Y124862109D01*
X152813184Y124904566D01*
X152814065Y124905542D01*
X153000250Y125045197D01*
X153028012Y125065875D01*
X153028922Y125066703D01*
X153029919Y125067451D01*
X153055716Y125091088D01*
X153227808Y125247707D01*
X153228467Y125248106D01*
X153281375Y125296458D01*
X153307479Y125320215D01*
X153307990Y125320781D01*
X153308561Y125321303D01*
X153332391Y125347814D01*
X153380180Y125400759D01*
X153380574Y125401419D01*
X153533597Y125571662D01*
X153555573Y125595646D01*
X153557678Y125598452D01*
X153560030Y125601069D01*
X153579343Y125627336D01*
X153759390Y125867371D01*
X153780354Y125895117D01*
X153781025Y125896214D01*
X153781793Y125897238D01*
X153799773Y125926870D01*
X153959079Y126187364D01*
X153977348Y126217107D01*
X153977655Y126217738D01*
X153978031Y126218353D01*
X153993619Y126250565D01*
X154096819Y126462775D01*
X154097786Y126464061D01*
X154128473Y126527865D01*
X154143567Y126558902D01*
X154144121Y126560400D01*
X154144815Y126561842D01*
X154156684Y126594345D01*
X154181227Y126660658D01*
X154181480Y126662244D01*
X154239928Y126822295D01*
X154241255Y126824512D01*
X154264715Y126890173D01*
X154276254Y126921770D01*
X154276896Y126924265D01*
X154277762Y126926688D01*
X154285901Y126959243D01*
X154303304Y127026847D01*
X154303448Y127029433D01*
X154362270Y127264721D01*
X154370719Y127297784D01*
X154371010Y127299682D01*
X154371476Y127301547D01*
X154376475Y127335354D01*
X154424566Y127649238D01*
X154429848Y127683533D01*
X154429863Y127683815D01*
X154429908Y127684106D01*
X154431841Y127719965D01*
X154445877Y127976553D01*
X154446856Y127980558D01*
X154449827Y128048764D01*
X154451577Y128080765D01*
X154451399Y128084861D01*
X154451577Y128088957D01*
X154449827Y128120948D01*
X154446856Y128189165D01*
X154445876Y128193172D01*
X154431839Y128449772D01*
X154429909Y128485584D01*
X154429864Y128485879D01*
X154429848Y128486168D01*
X154424521Y128520757D01*
X154376333Y128835293D01*
X154371191Y128869601D01*
X154370902Y128870749D01*
X154370721Y128871928D01*
X154362067Y128905792D01*
X154303407Y129138479D01*
X154303304Y129140332D01*
X154285723Y129208625D01*
X154277339Y129241883D01*
X154276715Y129243620D01*
X154276254Y129245409D01*
X154264458Y129277710D01*
X154240630Y129343987D01*
X154239676Y129345574D01*
X154181937Y129503684D01*
X154181894Y129503959D01*
X154156985Y129572012D01*
X154144815Y129605337D01*
X154144697Y129605583D01*
X154144599Y129605850D01*
X154128653Y129638939D01*
X154097786Y129703118D01*
X154097620Y129703339D01*
X154025441Y129853122D01*
X154025284Y129853725D01*
X153993983Y129918402D01*
X153978612Y129950299D01*
X153978291Y129950826D01*
X153978018Y129951390D01*
X153959301Y129981993D01*
X153922156Y130042957D01*
X153921735Y130043414D01*
X153799841Y130242717D01*
X153781810Y130272436D01*
X153781021Y130273488D01*
X153780339Y130274603D01*
X153759456Y130302240D01*
X153579359Y130542363D01*
X153560031Y130568650D01*
X153557687Y130571258D01*
X153555592Y130574051D01*
X153533608Y130598046D01*
X153379041Y130770006D01*
X153377456Y130772627D01*
X153330691Y130823797D01*
X153308562Y130848417D01*
X153306314Y130850472D01*
X153304259Y130852720D01*
X153279645Y130874844D01*
X153228469Y130921614D01*
X153225848Y130923200D01*
X153053930Y131077728D01*
X153029886Y131099756D01*
X153027089Y131101854D01*
X153024492Y131104188D01*
X152998259Y131123476D01*
X152758196Y131303523D01*
X152730481Y131324466D01*
X152729350Y131325158D01*
X152728291Y131325952D01*
X152698631Y131343947D01*
X152496899Y131467333D01*
X152494381Y131469614D01*
X152435223Y131505056D01*
X152407247Y131522167D01*
X152404202Y131523641D01*
X152401304Y131525377D01*
X152371700Y131539372D01*
X152309582Y131569436D01*
X152306290Y131570292D01*
X152094017Y131670638D01*
X152066403Y131684183D01*
X152061430Y131686043D01*
X152056623Y131688315D01*
X152027617Y131698687D01*
X151803871Y131782357D01*
X151799830Y131784787D01*
X151736115Y131807694D01*
X151706667Y131818706D01*
X151702140Y131819909D01*
X151697725Y131821496D01*
X151667200Y131829191D01*
X151601802Y131846566D01*
X151597098Y131846864D01*
X151361048Y131906373D01*
X151326915Y131915052D01*
X151326172Y131915165D01*
X151325442Y131915349D01*
X151290616Y131920569D01*
X150974218Y131968656D01*
X150939803Y131973972D01*
X150938923Y131974021D01*
X150938038Y131974155D01*
X150902726Y131976016D01*
X150649162Y131989996D01*
X150645005Y131991013D01*
X150577015Y131993974D01*
X150545113Y131995733D01*
X150540850Y131995549D01*
X150536606Y131995734D01*
X150504829Y131993996D01*
X150436712Y131991058D01*
X150432549Y131990042D01*
X150175791Y131975996D01*
X150139979Y131974066D01*
X150139684Y131974021D01*
X150139395Y131974005D01*
X150104806Y131968678D01*
X149791131Y131920622D01*
X149757390Y131915633D01*
X149755533Y131915169D01*
X149753635Y131914878D01*
X149720501Y131906411D01*
X149482499Y131846911D01*
X149477061Y131846566D01*
X149412336Y131829370D01*
X149382531Y131821919D01*
X149377431Y131820097D01*
X149372196Y131818706D01*
X149343397Y131807937D01*
X149280355Y131785412D01*
X149275684Y131782615D01*
X149049989Y131698217D01*
X149019837Y131687314D01*
X149016222Y131685589D01*
X149012461Y131684183D01*
X148983630Y131670041D01*
X148773836Y131569957D01*
X148771798Y131569427D01*
X148708509Y131538792D01*
X148677806Y131524145D01*
X148676016Y131523064D01*
X148674136Y131522154D01*
X148645121Y131504406D01*
X148584927Y131468054D01*
X148583373Y131466636D01*
X148382833Y131343969D01*
X148353161Y131325969D01*
X148352078Y131325157D01*
X148350924Y131324451D01*
X148323270Y131303552D01*
X148083184Y131123503D01*
X148056915Y131104189D01*
X148054327Y131101863D01*
X148051543Y131099775D01*
X148027484Y131077735D01*
X147857261Y130924731D01*
X147856598Y130924335D01*
X147803536Y130876440D01*
X147777148Y130852721D01*
X147776628Y130852153D01*
X147776054Y130851634D01*
X147752156Y130825375D01*
X147703950Y130772628D01*
X147703549Y130771966D01*
X147546685Y130599603D01*
X147523248Y130574019D01*
X147522529Y130573061D01*
X147521716Y130572167D01*
X147500829Y130544124D01*
X147361388Y130358188D01*
X147360449Y130357340D01*
X147318088Y130300449D01*
X147297054Y130272402D01*
X147296397Y130271319D01*
X147295648Y130270313D01*
X147277735Y130240555D01*
X147240778Y130179635D01*
X147240344Y130178442D01*
X147120553Y129979447D01*
X147102771Y129950257D01*
X147101925Y129948501D01*
X147100922Y129946835D01*
X147086294Y129916059D01*
X146983804Y129703341D01*
X146983668Y129703160D01*
X146952886Y129639171D01*
X146936811Y129605807D01*
X146936730Y129605586D01*
X146936632Y129605382D01*
X146924476Y129572101D01*
X146899522Y129503913D01*
X146899486Y129503684D01*
X146817911Y129280345D01*
X146805783Y129247428D01*
X146805522Y129246425D01*
X146805167Y129245454D01*
X146796451Y129211606D01*
X146735753Y128978607D01*
X146735008Y128977051D01*
X146717528Y128908647D01*
X146708837Y128875286D01*
X146708569Y128873589D01*
X146708144Y128871926D01*
X146702924Y128837855D01*
X146691908Y128768113D01*
X146691976Y128766391D01*
X146664994Y128590262D01*
X146664128Y128587825D01*
X146654044Y128518783D01*
X146648957Y128485581D01*
X146648819Y128483011D01*
X146648446Y128480461D01*
X146646872Y128446889D01*
X146643118Y128377237D01*
X146643486Y128374675D01*
X146631582Y128120830D01*
X146629819Y128086499D01*
X141275732Y128086499D01*
X141275732Y147344932D01*
X146248822Y147344932D01*
X146248834Y147344693D01*
X146248822Y147344452D01*
X146250563Y147309371D01*
X146264885Y147016882D01*
X146264731Y147015822D01*
X146268419Y146944722D01*
X146270139Y146909589D01*
X146270296Y146908531D01*
X146270351Y146907466D01*
X146275592Y146872787D01*
X146286042Y146802258D01*
X146286403Y146801248D01*
X146318688Y146587616D01*
X146318583Y146584920D01*
X146329504Y146516050D01*
X146334497Y146483010D01*
X146335154Y146480415D01*
X146335576Y146477757D01*
X146344055Y146445290D01*
X146361148Y146377831D01*
X146362307Y146375397D01*
X146433192Y146103963D01*
X146441791Y146070465D01*
X146442318Y146069018D01*
X146442705Y146067537D01*
X146454615Y146035273D01*
X146549121Y145775922D01*
X146549284Y145774886D01*
X146573866Y145708015D01*
X146585908Y145674969D01*
X146586361Y145674026D01*
X146586721Y145673046D01*
X146602037Y145641376D01*
X146632870Y145577156D01*
X146633498Y145576319D01*
X146752070Y145331135D01*
X146767370Y145299347D01*
X146767723Y145298766D01*
X146768021Y145298151D01*
X146786437Y145268020D01*
X146962551Y144978670D01*
X146979672Y144950068D01*
X146981287Y144947888D01*
X146982702Y144945563D01*
X147002773Y144918881D01*
X147161840Y144704142D01*
X147162249Y144703281D01*
X147204995Y144645882D01*
X147225850Y144617728D01*
X147226482Y144617030D01*
X147227056Y144616259D01*
X147250994Y144589953D01*
X147298668Y144537290D01*
X147299433Y144536722D01*
X147481577Y144336558D01*
X147504994Y144310644D01*
X147505946Y144309779D01*
X147506800Y144308840D01*
X147532411Y144285720D01*
X147782127Y144058712D01*
X147807703Y144035280D01*
X147808845Y144034424D01*
X147809896Y144033468D01*
X147837550Y144012895D01*
X148110906Y143807878D01*
X148138919Y143786805D01*
X148139365Y143786534D01*
X148139787Y143786217D01*
X148170248Y143767737D01*
X148400443Y143627628D01*
X148400798Y143627302D01*
X148462071Y143590117D01*
X148492703Y143571473D01*
X148493138Y143571263D01*
X148493556Y143571010D01*
X148525892Y143555498D01*
X148590469Y143524416D01*
X148590941Y143524294D01*
X148837791Y143405880D01*
X148869156Y143390725D01*
X148870127Y143390369D01*
X148871068Y143389917D01*
X148904038Y143377916D01*
X149162075Y143283160D01*
X149163762Y143282142D01*
X149229963Y143258230D01*
X149262070Y143246440D01*
X149263967Y143245948D01*
X149265811Y143245282D01*
X149298963Y143236872D01*
X149367098Y143219201D01*
X149369065Y143219088D01*
X149571095Y143167836D01*
X149571187Y143167792D01*
X149639488Y143150485D01*
X149676157Y143141183D01*
X149676264Y143141167D01*
X149676366Y143141141D01*
X149711738Y143135795D01*
X149783436Y143124939D01*
X149783542Y143124944D01*
X150063893Y143082576D01*
X150098165Y143077269D01*
X150099497Y143077195D01*
X150100821Y143076995D01*
X150135517Y143075195D01*
X150432558Y143058706D01*
X150437283Y143057556D01*
X150504756Y143054698D01*
X150536025Y143052962D01*
X150540857Y143053169D01*
X150545687Y143052964D01*
X150576941Y143054711D01*
X150644428Y143057596D01*
X150649153Y143058748D01*
X150943700Y143075213D01*
X150978064Y143076995D01*
X150979519Y143077215D01*
X150981005Y143077298D01*
X151015343Y143082629D01*
X151295341Y143124943D01*
X151295438Y143124939D01*
X151365301Y143135516D01*
X151402521Y143141141D01*
X151402621Y143141166D01*
X151402718Y143141181D01*
X151437941Y143150116D01*
X151507700Y143167792D01*
X151507788Y143167834D01*
X151708941Y143218860D01*
X151709993Y143218918D01*
X151779142Y143236668D01*
X151813088Y143245279D01*
X151814070Y143245634D01*
X151815088Y143245895D01*
X151848227Y143257971D01*
X151915138Y143282138D01*
X151916036Y143282680D01*
X152109632Y143353225D01*
X152110666Y143353388D01*
X152177628Y143378003D01*
X152210584Y143390012D01*
X152211521Y143390462D01*
X152212506Y143390824D01*
X152244326Y143406212D01*
X152308397Y143436974D01*
X152309232Y143437601D01*
X152554430Y143556179D01*
X152586205Y143571473D01*
X152586785Y143571826D01*
X152587399Y143572123D01*
X152617523Y143590535D01*
X152908660Y143767737D01*
X152939121Y143786217D01*
X152939543Y143786534D01*
X152939989Y143786805D01*
X152968002Y143807878D01*
X153239798Y144011725D01*
X153266189Y144031156D01*
X153268601Y144033327D01*
X153271205Y144035280D01*
X153295450Y144057492D01*
X153495132Y144237217D01*
X153497347Y144238555D01*
X153548851Y144285567D01*
X153573850Y144308067D01*
X153575589Y144309972D01*
X153577485Y144311703D01*
X153599906Y144336616D01*
X153646994Y144388209D01*
X153648332Y144390424D01*
X153828079Y144590149D01*
X153850250Y144614348D01*
X153852209Y144616960D01*
X153854395Y144619389D01*
X153873849Y144645813D01*
X154077512Y144917363D01*
X154098704Y144945531D01*
X154098985Y144945993D01*
X154099313Y144946430D01*
X154117736Y144976796D01*
X154295126Y145268208D01*
X154313428Y145298152D01*
X154313713Y145298741D01*
X154314061Y145299313D01*
X154329566Y145331523D01*
X154447960Y145576337D01*
X154448602Y145577193D01*
X154479406Y145641362D01*
X154494728Y145673045D01*
X154495097Y145674048D01*
X154495558Y145675009D01*
X154507571Y145707981D01*
X154532165Y145774885D01*
X154532331Y145775943D01*
X154602855Y145969513D01*
X154603370Y145970367D01*
X154627446Y146037012D01*
X154639649Y146070505D01*
X154639901Y146071486D01*
X154640236Y146072414D01*
X154648822Y146106249D01*
X154666619Y146175602D01*
X154666674Y146176603D01*
X154734905Y146445493D01*
X154743380Y146477987D01*
X154743761Y146480395D01*
X154744361Y146482759D01*
X154749395Y146515994D01*
X154794154Y146798814D01*
X154795385Y146802256D01*
X154805460Y146870254D01*
X154810542Y146902365D01*
X154810756Y146905994D01*
X154811288Y146909587D01*
X154812877Y146942045D01*
X154816917Y147010680D01*
X154816416Y147014301D01*
X154830849Y147309055D01*
X154832606Y147344454D01*
X154832594Y147344693D01*
X154832606Y147344930D01*
X154830865Y147380253D01*
X154816398Y147677748D01*
X154816917Y147681495D01*
X154812883Y147750039D01*
X154811312Y147782340D01*
X154810763Y147786053D01*
X154810542Y147789810D01*
X154805472Y147821844D01*
X154795445Y147889676D01*
X154794174Y147893233D01*
X154749394Y148176184D01*
X154744363Y148209405D01*
X154743762Y148211773D01*
X154743380Y148214188D01*
X154734901Y148246697D01*
X154666446Y148516488D01*
X154666335Y148518427D01*
X154648642Y148586658D01*
X154640240Y148619772D01*
X154639585Y148621584D01*
X154639100Y148623456D01*
X154627270Y148655674D01*
X154603375Y148721820D01*
X154602374Y148723478D01*
X154507559Y148981707D01*
X154495642Y149014448D01*
X154495196Y149015378D01*
X154494839Y149016350D01*
X154479637Y149047815D01*
X154361252Y149294619D01*
X154361123Y149295119D01*
X154329864Y149360055D01*
X154314550Y149391981D01*
X154314285Y149392418D01*
X154314061Y149392883D01*
X154295337Y149423642D01*
X154258261Y149484740D01*
X154257916Y149485117D01*
X154117854Y149715207D01*
X154099314Y149745765D01*
X154098984Y149746205D01*
X154098704Y149746665D01*
X154077519Y149774825D01*
X153872549Y150048119D01*
X153852061Y150075657D01*
X153851112Y150076701D01*
X153850251Y150077849D01*
X153826667Y150103591D01*
X153599952Y150352983D01*
X153576690Y150378752D01*
X153575745Y150379612D01*
X153574884Y150380559D01*
X153549053Y150403901D01*
X153348846Y150586085D01*
X153348288Y150586836D01*
X153295466Y150634659D01*
X153269294Y150658475D01*
X153268542Y150659035D01*
X153267854Y150659658D01*
X153239588Y150680598D01*
X153182272Y150723283D01*
X153181427Y150723685D01*
X152966644Y150882800D01*
X152939988Y150902852D01*
X152937683Y150904255D01*
X152935515Y150905861D01*
X152906890Y150922997D01*
X152617639Y151099049D01*
X152587401Y151117531D01*
X152586784Y151117829D01*
X152586203Y151118183D01*
X152554438Y151133472D01*
X152309216Y151252063D01*
X152308360Y151252705D01*
X152244191Y151283509D01*
X152212508Y151298831D01*
X152211505Y151299200D01*
X152210544Y151299661D01*
X152177477Y151311708D01*
X152110668Y151336267D01*
X152109614Y151336433D01*
X151850260Y151430923D01*
X151818048Y151442815D01*
X151816532Y151443211D01*
X151815047Y151443752D01*
X151781587Y151452339D01*
X151510130Y151523242D01*
X151507659Y151524419D01*
X151440143Y151541523D01*
X151407806Y151549969D01*
X151405119Y151550395D01*
X151402479Y151551064D01*
X151369380Y151556064D01*
X151300644Y151566967D01*
X151297913Y151566860D01*
X151084259Y151599136D01*
X151083272Y151599489D01*
X151012941Y151609910D01*
X150978021Y151615185D01*
X150976971Y151615239D01*
X150975941Y151615392D01*
X150940936Y151617106D01*
X150869665Y151620798D01*
X150868626Y151620647D01*
X150576166Y151634967D01*
X150541079Y151636709D01*
X150540838Y151636697D01*
X150540599Y151636709D01*
X150505717Y151634990D01*
X150210382Y151620629D01*
X150209221Y151620798D01*
X150138249Y151617122D01*
X150103193Y151615417D01*
X150102033Y151615246D01*
X150100864Y151615185D01*
X150066216Y151609951D01*
X149995857Y151599550D01*
X149994751Y151599155D01*
X149780971Y151566860D01*
X149778231Y151566967D01*
X149709500Y151556063D01*
X149676408Y151551064D01*
X149673759Y151550393D01*
X149671068Y151549966D01*
X149638756Y151541526D01*
X149571228Y151524419D01*
X149568752Y151523240D01*
X149296112Y151452023D01*
X149262112Y151443207D01*
X149261495Y151442981D01*
X149260850Y151442812D01*
X149227555Y151430519D01*
X148904152Y151311782D01*
X148871065Y151299738D01*
X148870143Y151299296D01*
X148869196Y151298948D01*
X148837907Y151283832D01*
X148590940Y151165361D01*
X148590472Y151165240D01*
X148526024Y151134220D01*
X148493554Y151118644D01*
X148493137Y151118391D01*
X148492705Y151118183D01*
X148462264Y151099655D01*
X148400796Y151062352D01*
X148400440Y151062026D01*
X148172032Y150923005D01*
X148143394Y150905861D01*
X148141226Y150904255D01*
X148138921Y150902852D01*
X148112244Y150882785D01*
X147896003Y150722589D01*
X147893500Y150721384D01*
X147837814Y150679482D01*
X147811055Y150659658D01*
X147809014Y150657811D01*
X147806801Y150656145D01*
X147782171Y150633508D01*
X147730620Y150586836D01*
X147728964Y150584606D01*
X147532505Y150404042D01*
X147509418Y150383410D01*
X147505943Y150379629D01*
X147502166Y150376158D01*
X147481538Y150353078D01*
X147300924Y150156581D01*
X147298667Y150154905D01*
X147251968Y150103320D01*
X147229408Y150078776D01*
X147227728Y150076544D01*
X147225848Y150074467D01*
X147205967Y150047627D01*
X147164165Y149992081D01*
X147162945Y149989548D01*
X147002750Y149773284D01*
X146982702Y149746633D01*
X146981288Y149744310D01*
X146979671Y149742127D01*
X146962556Y149713534D01*
X146823521Y149485103D01*
X146823188Y149484740D01*
X146785974Y149423414D01*
X146767370Y149392849D01*
X146767156Y149392405D01*
X146766899Y149391981D01*
X146751585Y149360054D01*
X146720313Y149295082D01*
X146720189Y149294603D01*
X146601791Y149047770D01*
X146586628Y149016390D01*
X146586265Y149015403D01*
X146585807Y149014447D01*
X146573831Y148981543D01*
X146454842Y148657540D01*
X146442702Y148624650D01*
X146442551Y148624071D01*
X146442340Y148623497D01*
X146433371Y148588919D01*
X146362305Y148316774D01*
X146361148Y148314344D01*
X146344044Y148246844D01*
X146335574Y148214407D01*
X146335154Y148211757D01*
X146334497Y148209165D01*
X146329501Y148176104D01*
X146318582Y148107243D01*
X146318687Y148104552D01*
X146286385Y147890804D01*
X146285981Y147889674D01*
X146275580Y147819311D01*
X146270351Y147784709D01*
X146270290Y147783526D01*
X146270114Y147782338D01*
X146268404Y147747162D01*
X146264731Y147676353D01*
X146264903Y147675171D01*
X146250541Y147379814D01*
X146248822Y147344932D01*
X141275732Y147344932D01*
X141275732Y173633448D01*
X146149268Y173633448D01*
X146106700Y173623162D01*
G04 #@! TA.AperFunction,NonConductor*
D11*
G36*
X146106700Y173623162D02*
G01*
X146053339Y173598467D01*
X145864922Y173519590D01*
X145814644Y173501528D01*
X145767284Y173473060D01*
X145718632Y173446819D01*
X145677461Y173412770D01*
X145522022Y173297184D01*
X145489419Y173277359D01*
X145437504Y173229701D01*
X145385286Y173182252D01*
X145362592Y173151571D01*
X145246762Y173022125D01*
X145230508Y173008378D01*
X145198590Y172968290D01*
X145188611Y172957138D01*
X145176110Y172940056D01*
X145162924Y172923495D01*
X145154795Y172910931D01*
X145124532Y172869578D01*
X145115553Y172850277D01*
X145064109Y172770763D01*
X145055728Y172761527D01*
X145024845Y172710074D01*
X145011948Y172690140D01*
X145006266Y172679120D01*
X144999889Y172668496D01*
X144989730Y172647051D01*
X144962222Y172593703D01*
X144958778Y172581715D01*
X144919261Y172498296D01*
X144912959Y172489261D01*
X144888316Y172432975D01*
X144877529Y172410204D01*
X144873832Y172399892D01*
X144869443Y172389867D01*
X144861655Y172365928D01*
X144840912Y172308067D01*
X144839289Y172297170D01*
X144811396Y172211425D01*
X144810314Y172209467D01*
X144789034Y172142683D01*
X144778526Y172110380D01*
X144778048Y172108203D01*
X144777373Y172106086D01*
X144770307Y172072981D01*
X144755236Y172004407D01*
X144755191Y172002166D01*
X144735407Y171909478D01*
X144733061Y171903771D01*
X144720305Y171838725D01*
X144714046Y171809404D01*
X144713361Y171803317D01*
X144712180Y171797297D01*
X144709318Y171767408D01*
X144701906Y171701583D01*
X144702425Y171695438D01*
X144685969Y171523609D01*
X144682523Y171488624D01*
X144682523Y171487631D01*
X144682429Y171486649D01*
X144682523Y171451721D01*
X144682523Y171387989D01*
X144681642Y171368671D01*
X144682523Y171351936D01*
X144682523Y171335153D01*
X144684421Y171315880D01*
X144692891Y171154999D01*
X144691856Y171146454D01*
X144696692Y171082794D01*
X144698142Y171055254D01*
X144699427Y171046798D01*
X144700075Y171038264D01*
X144704850Y171011097D01*
X144714439Y170947982D01*
X144717368Y170939886D01*
X144734622Y170841729D01*
X144734600Y170840579D01*
X144747178Y170770302D01*
X144753207Y170736001D01*
X144753512Y170734908D01*
X144753715Y170733774D01*
X144763293Y170699865D01*
X144782375Y170631492D01*
X144782893Y170630468D01*
X144807525Y170543259D01*
X144808569Y170533412D01*
X144827180Y170473670D01*
X144834322Y170448383D01*
X144837909Y170439227D01*
X144840840Y170429820D01*
X144851090Y170405588D01*
X144873906Y170347358D01*
X144879249Y170339019D01*
X144914167Y170256471D01*
X144916301Y170247321D01*
X144942337Y170189874D01*
X144952774Y170165200D01*
X144957235Y170157001D01*
X144961091Y170148494D01*
X144974495Y170125283D01*
X145004635Y170069894D01*
X145010649Y170062677D01*
X145058541Y169979744D01*
X145067229Y169958561D01*
X145094670Y169917181D01*
X145101351Y169905612D01*
X145114606Y169887119D01*
X145127195Y169868135D01*
X145135645Y169857766D01*
X145164560Y169817423D01*
X145181266Y169801779D01*
X145294817Y169662430D01*
X145314840Y169632228D01*
X145340430Y169606454D01*
X145340457Y169606420D01*
X145367451Y169579237D01*
X145391286Y169555230D01*
X145391316Y169555206D01*
X145416912Y169529430D01*
X145446975Y169509191D01*
X145591873Y169389400D01*
X145627888Y169355618D01*
X145678235Y169324258D01*
X145727431Y169291130D01*
X145772977Y169272072D01*
X145954613Y169182331D01*
X146004757Y169154916D01*
X146053922Y169139493D01*
X146102144Y169121303D01*
X146158534Y169111950D01*
X146327800Y169076615D01*
X146350841Y169068563D01*
X146398509Y169061854D01*
X146410114Y169059431D01*
X146434247Y169056823D01*
X146458285Y169053440D01*
X146470129Y169052946D01*
X146517989Y169047775D01*
X146539954Y169049729D01*
X146549822Y169048757D01*
X146570636Y169048757D01*
X146591388Y169047892D01*
X146606679Y169048757D01*
X148941615Y169048757D01*
X148956493Y169046422D01*
X149013869Y169048757D01*
X149035042Y169048757D01*
X149049951Y169050225D01*
X149064905Y169050834D01*
X149085852Y169053761D01*
X149143022Y169059392D01*
X149157439Y169063765D01*
X149323445Y169086964D01*
X149381951Y169092949D01*
X149429622Y169107606D01*
X149478093Y169119315D01*
X149531472Y169144014D01*
X149719900Y169222896D01*
X149770164Y169240949D01*
X149817546Y169269427D01*
X149866210Y169295674D01*
X149907375Y169329717D01*
X150062834Y169445306D01*
X150095481Y169465160D01*
X150147464Y169512888D01*
X150199552Y169560212D01*
X150222272Y169590924D01*
X150338078Y169720360D01*
X150354295Y169734073D01*
X150386247Y169774197D01*
X150396260Y169785389D01*
X150408733Y169802436D01*
X150421885Y169818951D01*
X150430041Y169831555D01*
X150460333Y169872953D01*
X150469289Y169892207D01*
X150522921Y169975089D01*
X150533896Y169987451D01*
X150562181Y170035761D01*
X150572886Y170052304D01*
X150580419Y170066911D01*
X150588718Y170081085D01*
X150596957Y170098978D01*
X150622619Y170148737D01*
X150627183Y170164622D01*
X150663663Y170243846D01*
X150665383Y170246256D01*
X150693918Y170309551D01*
X150707804Y170339709D01*
X150708767Y170342491D01*
X150709976Y170345172D01*
X150720579Y170376601D01*
X150743307Y170442238D01*
X150743712Y170445172D01*
X150771489Y170527512D01*
X150774503Y170532965D01*
X150794612Y170596053D01*
X150804178Y170624410D01*
X150805572Y170630439D01*
X150807454Y170636344D01*
X150813710Y170665640D01*
X150828618Y170730124D01*
X150828810Y170736352D01*
X150850270Y170836845D01*
X150854025Y170846265D01*
X150865362Y170907522D01*
X150870808Y170933024D01*
X150871938Y170943051D01*
X150873771Y170952956D01*
X150875977Y170978900D01*
X150882957Y171040844D01*
X150882104Y171050952D01*
X150895748Y171211388D01*
X150898290Y171230922D01*
X150898802Y171247308D01*
X150900194Y171263673D01*
X150899931Y171283398D01*
X150901795Y171343038D01*
X150903200Y171373781D01*
X150902922Y171379070D01*
X150903088Y171384378D01*
X150901026Y171415143D01*
X150891967Y171587491D01*
X150893010Y171596106D01*
X150888172Y171659712D01*
X150886728Y171687176D01*
X150885434Y171695698D01*
X150884780Y171704296D01*
X150880013Y171731402D01*
X150870440Y171794449D01*
X150867491Y171802604D01*
X150850226Y171900770D01*
X150850247Y171901847D01*
X150837725Y171971853D01*
X150831621Y172006559D01*
X150831331Y172007598D01*
X150831142Y172008654D01*
X150821624Y172042364D01*
X150802443Y172111065D01*
X150801955Y172112029D01*
X150776714Y172201429D01*
X150775344Y172213616D01*
X150757066Y172271018D01*
X150750564Y172294046D01*
X150746123Y172305384D01*
X150742423Y172317003D01*
X150732952Y172339008D01*
X150710990Y172395074D01*
X150704377Y172405399D01*
X150666718Y172492894D01*
X150664545Y172501958D01*
X150638133Y172559307D01*
X150627511Y172583985D01*
X150623033Y172592092D01*
X150619156Y172600511D01*
X150605573Y172623705D01*
X150575053Y172678964D01*
X150569041Y172686088D01*
X150524322Y172762449D01*
X150517658Y172779050D01*
X150487810Y172824797D01*
X150478537Y172840632D01*
X150468086Y172855028D01*
X150458369Y172869921D01*
X150446889Y172884226D01*
X150414794Y172928436D01*
X150401660Y172940586D01*
X150290069Y173079638D01*
X150266980Y173113978D01*
X150219267Y173161415D01*
X150172190Y173209535D01*
X150138035Y173232901D01*
X149990045Y173353638D01*
X149957190Y173384748D01*
X149903498Y173418544D01*
X149850660Y173453628D01*
X149808808Y173470822D01*
X149631792Y173559320D01*
X149580168Y173587550D01*
X149532626Y173602469D01*
X149486079Y173620278D01*
X149428061Y173630182D01*
X149412426Y173633448D01*
X159805695Y173633448D01*
X159805696Y46833456D01*
X149435583Y46833456D01*
X149478090Y46843724D01*
X149531463Y46868420D01*
X149719899Y46947305D01*
X149770166Y46965360D01*
X149817549Y46993839D01*
X149866210Y47020084D01*
X149907371Y47054124D01*
X150062839Y47169720D01*
X150095481Y47189571D01*
X150147415Y47237254D01*
X150199554Y47284625D01*
X150222274Y47315337D01*
X150338078Y47444770D01*
X150354293Y47458482D01*
X150386247Y47498609D01*
X150396260Y47509800D01*
X150408729Y47526840D01*
X150421884Y47543360D01*
X150430044Y47555970D01*
X150460333Y47597364D01*
X150469287Y47616616D01*
X150522921Y47699500D01*
X150533896Y47711861D01*
X150562179Y47760167D01*
X150572885Y47776712D01*
X150580421Y47791323D01*
X150588718Y47805495D01*
X150596953Y47823379D01*
X150622619Y47873145D01*
X150627185Y47889035D01*
X150663663Y47968256D01*
X150665383Y47970666D01*
X150693918Y48033961D01*
X150707804Y48064119D01*
X150708767Y48066901D01*
X150709976Y48069582D01*
X150720579Y48101011D01*
X150743307Y48166648D01*
X150743712Y48169582D01*
X150771489Y48251922D01*
X150774503Y48257375D01*
X150794612Y48320463D01*
X150804178Y48348820D01*
X150805572Y48354849D01*
X150807454Y48360754D01*
X150813710Y48390050D01*
X150828618Y48454534D01*
X150828810Y48460762D01*
X150850270Y48561255D01*
X150854025Y48570675D01*
X150865362Y48631932D01*
X150870808Y48657434D01*
X150871938Y48667461D01*
X150873771Y48677366D01*
X150875977Y48703310D01*
X150882957Y48765254D01*
X150882104Y48775362D01*
X150895748Y48935798D01*
X150898290Y48955332D01*
X150898802Y48971718D01*
X150900194Y48988083D01*
X150899931Y49007808D01*
X150901795Y49067450D01*
X150903200Y49098192D01*
X150902922Y49103481D01*
X150903088Y49108789D01*
X150901026Y49139554D01*
X150891967Y49311903D01*
X150893010Y49320518D01*
X150888171Y49384126D01*
X150886728Y49411587D01*
X150885434Y49420108D01*
X150884780Y49428708D01*
X150880012Y49455816D01*
X150870440Y49518860D01*
X150867490Y49527016D01*
X150850226Y49625177D01*
X150850247Y49626257D01*
X150837674Y49696544D01*
X150831620Y49730969D01*
X150831333Y49731998D01*
X150831142Y49733064D01*
X150821535Y49767092D01*
X150802442Y49835475D01*
X150801956Y49836435D01*
X150776714Y49925839D01*
X150775344Y49938026D01*
X150757066Y49995428D01*
X150750564Y50018456D01*
X150746123Y50029794D01*
X150742423Y50041413D01*
X150732952Y50063418D01*
X150710990Y50119484D01*
X150704377Y50129809D01*
X150666718Y50217304D01*
X150664545Y50226368D01*
X150638133Y50283717D01*
X150627511Y50308395D01*
X150623033Y50316502D01*
X150619156Y50324921D01*
X150605573Y50348115D01*
X150575053Y50403374D01*
X150569041Y50410498D01*
X150524322Y50486859D01*
X150517658Y50503460D01*
X150487810Y50549207D01*
X150478537Y50565042D01*
X150468086Y50579438D01*
X150458369Y50594331D01*
X150446889Y50608636D01*
X150414794Y50652846D01*
X150401660Y50664996D01*
X150290069Y50804048D01*
X150266980Y50838388D01*
X150219267Y50885825D01*
X150172190Y50933945D01*
X150138035Y50957311D01*
X149990052Y51078042D01*
X149957193Y51109156D01*
X149903502Y51142951D01*
X149850660Y51178038D01*
X149808807Y51195232D01*
X149631807Y51283724D01*
X149580166Y51311963D01*
X149532623Y51326882D01*
X149486082Y51344689D01*
X149428054Y51354595D01*
X149257094Y51390300D01*
X149234022Y51398362D01*
X149186381Y51405068D01*
X149174811Y51407484D01*
X149150658Y51410096D01*
X149126579Y51413485D01*
X149114760Y51413978D01*
X149066937Y51419149D01*
X149044935Y51417194D01*
X149035042Y51418168D01*
X149014228Y51418168D01*
X148993476Y51419033D01*
X148978185Y51418168D01*
X146643220Y51418168D01*
X146628316Y51420506D01*
X146570970Y51418168D01*
X146549822Y51418168D01*
X146534884Y51416697D01*
X146519903Y51416086D01*
X146498982Y51413161D01*
X146441842Y51407533D01*
X146427399Y51403152D01*
X146261369Y51379937D01*
X146202889Y51373955D01*
X146155197Y51359291D01*
X146106697Y51347571D01*
X146053335Y51322875D01*
X145864922Y51244000D01*
X145814644Y51225938D01*
X145767284Y51197470D01*
X145718632Y51171229D01*
X145677461Y51137180D01*
X145522022Y51021594D01*
X145489419Y51001769D01*
X145437504Y50954111D01*
X145385286Y50906662D01*
X145362592Y50875981D01*
X145246762Y50746535D01*
X145230508Y50732788D01*
X145198590Y50692700D01*
X145188611Y50681548D01*
X145176110Y50664466D01*
X145162924Y50647905D01*
X145154795Y50635341D01*
X145124532Y50593988D01*
X145115553Y50574687D01*
X145064109Y50495173D01*
X145055728Y50485937D01*
X145024845Y50434484D01*
X145011948Y50414550D01*
X145006266Y50403530D01*
X144999889Y50392906D01*
X144989730Y50371461D01*
X144962222Y50318113D01*
X144958778Y50306125D01*
X144919261Y50222706D01*
X144912959Y50213671D01*
X144888316Y50157385D01*
X144877529Y50134614D01*
X144873832Y50124302D01*
X144869443Y50114277D01*
X144861655Y50090338D01*
X144840912Y50032477D01*
X144839289Y50021580D01*
X144811396Y49935835D01*
X144810314Y49933877D01*
X144789034Y49867093D01*
X144778526Y49834790D01*
X144778048Y49832613D01*
X144777373Y49830496D01*
X144770305Y49797384D01*
X144755236Y49728817D01*
X144755191Y49726577D01*
X144735407Y49633888D01*
X144733061Y49628182D01*
X144720307Y49563146D01*
X144714046Y49533816D01*
X144713360Y49527727D01*
X144712180Y49521708D01*
X144709318Y49491824D01*
X144701906Y49425994D01*
X144702425Y49419849D01*
X144685968Y49248014D01*
X144682523Y49213034D01*
X144682523Y49212041D01*
X144682429Y49211059D01*
X144682523Y49176131D01*
X144682523Y49112400D01*
X144681642Y49093082D01*
X144682523Y49076347D01*
X144682523Y49059564D01*
X144684421Y49040291D01*
X144692891Y48879409D01*
X144691856Y48870864D01*
X144696692Y48807204D01*
X144698142Y48779664D01*
X144699427Y48771208D01*
X144700075Y48762674D01*
X144704850Y48735507D01*
X144714439Y48672392D01*
X144717368Y48664296D01*
X144734622Y48566139D01*
X144734600Y48564989D01*
X144747178Y48494712D01*
X144753207Y48460411D01*
X144753512Y48459318D01*
X144753715Y48458184D01*
X144763293Y48424275D01*
X144782375Y48355902D01*
X144782893Y48354878D01*
X144807524Y48267671D01*
X144808569Y48257820D01*
X144827180Y48198079D01*
X144834322Y48172793D01*
X144837911Y48163634D01*
X144840841Y48154228D01*
X144851088Y48130003D01*
X144873906Y48071768D01*
X144879249Y48063428D01*
X144914168Y47980877D01*
X144916301Y47971734D01*
X144942326Y47914309D01*
X144952774Y47889610D01*
X144957238Y47881407D01*
X144961090Y47872907D01*
X144974491Y47849701D01*
X145004636Y47794304D01*
X145010649Y47787088D01*
X145058540Y47704156D01*
X145067229Y47682971D01*
X145094671Y47641589D01*
X145101350Y47630024D01*
X145114602Y47611534D01*
X145127195Y47592545D01*
X145135645Y47582175D01*
X145164559Y47541834D01*
X145181266Y47526190D01*
X145294817Y47386840D01*
X145314840Y47356638D01*
X145340430Y47330864D01*
X145340457Y47330830D01*
X145367451Y47303647D01*
X145391286Y47279640D01*
X145391316Y47279616D01*
X145416912Y47253840D01*
X145446975Y47233601D01*
X145591873Y47113810D01*
X145627888Y47080028D01*
X145678235Y47048668D01*
X145727431Y47015540D01*
X145772977Y46996482D01*
X145954613Y46906741D01*
X146004757Y46879326D01*
X146053922Y46863903D01*
X146102144Y46845713D01*
X146158534Y46836360D01*
X146172446Y46833456D01*
X141275732Y46833456D01*
X141275732Y61469635D01*
X149368498Y61469635D01*
X149368569Y61468124D01*
X149368498Y61466625D01*
X149370250Y61432264D01*
X149382164Y61178181D01*
X149381796Y61175617D01*
X149385552Y61105926D01*
X149387124Y61072397D01*
X149387496Y61069849D01*
X149387635Y61067273D01*
X149392725Y61034049D01*
X149402805Y60965033D01*
X149403672Y60962593D01*
X149430540Y60787211D01*
X149430500Y60786243D01*
X149441449Y60716007D01*
X149446823Y60680927D01*
X149447065Y60679982D01*
X149447212Y60679036D01*
X149455943Y60645240D01*
X149473687Y60575803D01*
X149474107Y60574925D01*
X149534960Y60339368D01*
X149543831Y60304908D01*
X149543937Y60304617D01*
X149544015Y60304316D01*
X149556192Y60271059D01*
X149638604Y60045382D01*
X149638857Y60043798D01*
X149663454Y59977334D01*
X149675270Y59944978D01*
X149675958Y59943547D01*
X149676516Y59942040D01*
X149691719Y59910777D01*
X149722299Y59847198D01*
X149723261Y59845918D01*
X149825499Y59635687D01*
X149839580Y59606058D01*
X149841288Y59603220D01*
X149842735Y59600245D01*
X149859883Y59572327D01*
X150015586Y59313640D01*
X150033694Y59283456D01*
X150034007Y59283035D01*
X150034281Y59282579D01*
X150055524Y59254046D01*
X150196565Y59064037D01*
X150197736Y59061609D01*
X150239644Y59006002D01*
X150259624Y58979084D01*
X150261430Y58977093D01*
X150263039Y58974958D01*
X150285647Y58950396D01*
X150332523Y58898719D01*
X150334689Y58897114D01*
X150490842Y58727462D01*
X150512606Y58703350D01*
X150515251Y58700943D01*
X150517678Y58698306D01*
X150541955Y58676640D01*
X150764471Y58474132D01*
X150790199Y58450560D01*
X150791176Y58449827D01*
X150792074Y58449010D01*
X150819953Y58428244D01*
X151062018Y58246696D01*
X151089602Y58225852D01*
X151090729Y58225162D01*
X151091794Y58224364D01*
X151121572Y58206298D01*
X151322064Y58083669D01*
X151323608Y58082260D01*
X151383810Y58045902D01*
X151412836Y58028149D01*
X151414703Y58027245D01*
X151416487Y58026168D01*
X151447300Y58011469D01*
X151510500Y57980880D01*
X151512522Y57980354D01*
X151725025Y57878979D01*
X151756319Y57863925D01*
X151757437Y57863516D01*
X151758518Y57863001D01*
X151791378Y57851120D01*
X152082152Y57744913D01*
X152115701Y57732629D01*
X152115982Y57732556D01*
X152116246Y57732460D01*
X152150075Y57723749D01*
X152386312Y57662721D01*
X152387184Y57662303D01*
X152456342Y57644629D01*
X152490419Y57635826D01*
X152491370Y57635678D01*
X152492308Y57635438D01*
X152527237Y57630087D01*
X152597627Y57619114D01*
X152598594Y57619154D01*
X152773953Y57592288D01*
X152776397Y57591420D01*
X152845455Y57581334D01*
X152878631Y57576251D01*
X152881206Y57576112D01*
X152883761Y57575739D01*
X152917338Y57574165D01*
X152986976Y57570411D01*
X152989542Y57570779D01*
X153243436Y57558874D01*
X153277745Y57557112D01*
X153279383Y57557189D01*
X153281021Y57557112D01*
X153315352Y57558875D01*
X153569197Y57570779D01*
X153571759Y57570411D01*
X153641411Y57574165D01*
X153674983Y57575739D01*
X153677533Y57576112D01*
X153680103Y57576250D01*
X153713305Y57581337D01*
X153782347Y57591421D01*
X153784784Y57592287D01*
X153960913Y57619269D01*
X153962635Y57619201D01*
X154032377Y57630217D01*
X154066448Y57635437D01*
X154068111Y57635862D01*
X154069808Y57636130D01*
X154103169Y57644821D01*
X154171573Y57662301D01*
X154173129Y57663046D01*
X154406128Y57723744D01*
X154439976Y57732460D01*
X154440947Y57732815D01*
X154441950Y57733076D01*
X154474867Y57745204D01*
X154763663Y57850688D01*
X154795301Y57862001D01*
X154797560Y57863069D01*
X154799904Y57863925D01*
X154830138Y57878469D01*
X155044982Y57980029D01*
X155048287Y57980889D01*
X155110335Y58010923D01*
X155139981Y58024937D01*
X155142899Y58026685D01*
X155145950Y58028162D01*
X155173859Y58045233D01*
X155233058Y58080700D01*
X155235588Y58082993D01*
X155437314Y58206385D01*
X155466923Y58224347D01*
X155468004Y58225158D01*
X155469162Y58225866D01*
X155496861Y58246798D01*
X155738648Y58428124D01*
X155766689Y58449010D01*
X155767581Y58449822D01*
X155768540Y58450541D01*
X155794156Y58474008D01*
X156018529Y58678206D01*
X156044320Y58701512D01*
X156045195Y58702474D01*
X156046157Y58703350D01*
X156069431Y58729135D01*
X156223393Y58898497D01*
X156223730Y58898747D01*
X156271808Y58951756D01*
X156296089Y58978465D01*
X156296342Y58978805D01*
X156296624Y58979116D01*
X156318111Y59008066D01*
X156360853Y59065519D01*
X156361032Y59065895D01*
X156499141Y59251976D01*
X156518970Y59278215D01*
X156520631Y59280930D01*
X156522530Y59283489D01*
X156539454Y59311703D01*
X156697703Y59570410D01*
X156716050Y59600285D01*
X156716333Y59600866D01*
X156716675Y59601426D01*
X156732221Y59633543D01*
X156835480Y59845909D01*
X156836419Y59847157D01*
X156867134Y59911009D01*
X156882243Y59942082D01*
X156882781Y59943536D01*
X156883454Y59944935D01*
X156895323Y59977429D01*
X156919897Y60043841D01*
X156920143Y60045383D01*
X156978593Y60205410D01*
X156979933Y60207648D01*
X157003400Y60273328D01*
X157014918Y60304862D01*
X157015565Y60307376D01*
X157016440Y60309824D01*
X157024590Y60342425D01*
X157041974Y60409937D01*
X157042119Y60412541D01*
X157100932Y60647794D01*
X157109399Y60680928D01*
X157109690Y60682826D01*
X157110154Y60684683D01*
X157115143Y60718424D01*
X157163192Y61032057D01*
X157168526Y61066686D01*
X157168542Y61066978D01*
X157168587Y61067272D01*
X157170503Y61102831D01*
X157184564Y61359844D01*
X157185580Y61364007D01*
X157188517Y61432106D01*
X157190256Y61463896D01*
X157190071Y61468144D01*
X157190255Y61472409D01*
X157188497Y61504293D01*
X157185536Y61572296D01*
X157184518Y61576458D01*
X157170532Y61830125D01*
X157168676Y61865331D01*
X157168542Y61866214D01*
X157168493Y61867099D01*
X157163152Y61901678D01*
X157115059Y62218112D01*
X157109869Y62252737D01*
X157109687Y62253460D01*
X157109573Y62254208D01*
X157100844Y62288535D01*
X157042078Y62521642D01*
X157041974Y62523514D01*
X157024420Y62591689D01*
X157016017Y62625019D01*
X157015384Y62626781D01*
X157014918Y62628589D01*
X157003149Y62660810D01*
X156979308Y62727123D01*
X156978341Y62728731D01*
X156920143Y62888068D01*
X156919897Y62889610D01*
X156895323Y62956022D01*
X156883454Y62988516D01*
X156882781Y62989915D01*
X156882243Y62991369D01*
X156867134Y63022442D01*
X156836419Y63086294D01*
X156835480Y63087542D01*
X156732167Y63300020D01*
X156716688Y63332001D01*
X156716339Y63332571D01*
X156716050Y63333166D01*
X156697669Y63363096D01*
X156539469Y63621744D01*
X156522513Y63650009D01*
X156520629Y63652547D01*
X156518985Y63655235D01*
X156499174Y63681452D01*
X156361025Y63867570D01*
X156360853Y63867933D01*
X156318061Y63925453D01*
X156296605Y63954359D01*
X156296334Y63954658D01*
X156296089Y63954987D01*
X156271614Y63981910D01*
X156223707Y64034725D01*
X156223385Y64034964D01*
X156069431Y64204317D01*
X156046157Y64230102D01*
X156045195Y64230978D01*
X156044320Y64231940D01*
X156018529Y64255246D01*
X155794245Y64459363D01*
X155768572Y64482885D01*
X155767593Y64483619D01*
X155766689Y64484442D01*
X155738750Y64505252D01*
X155496718Y64686781D01*
X155469124Y64707632D01*
X155468009Y64708314D01*
X155466957Y64709103D01*
X155437225Y64727141D01*
X155235593Y64850461D01*
X155233096Y64852723D01*
X155173885Y64888201D01*
X155145910Y64905311D01*
X155142895Y64906770D01*
X155140023Y64908491D01*
X155110394Y64922499D01*
X155048244Y64952578D01*
X155044982Y64953426D01*
X154830118Y65055013D01*
X154799859Y65069567D01*
X154797562Y65070406D01*
X154795345Y65071454D01*
X154763630Y65082797D01*
X154474736Y65188295D01*
X154441950Y65200375D01*
X154440927Y65200641D01*
X154439929Y65201006D01*
X154405945Y65209755D01*
X154173133Y65270404D01*
X154171575Y65271150D01*
X154103032Y65288666D01*
X154069808Y65297321D01*
X154068119Y65297588D01*
X154066451Y65298014D01*
X154032265Y65303251D01*
X153962635Y65314250D01*
X153960917Y65314182D01*
X153715304Y65351810D01*
X153680689Y65357141D01*
X153680400Y65357157D01*
X153680105Y65357202D01*
X153644271Y65359133D01*
X153387694Y65373169D01*
X153383687Y65374149D01*
X153315465Y65377120D01*
X153283478Y65378870D01*
X153279383Y65378692D01*
X153275287Y65378870D01*
X153243288Y65377120D01*
X153175080Y65374149D01*
X153171075Y65373170D01*
X152914419Y65359130D01*
X152878629Y65357201D01*
X152878339Y65357157D01*
X152878055Y65357141D01*
X152843605Y65351835D01*
X152598594Y65314297D01*
X152597627Y65314337D01*
X152527097Y65303343D01*
X152492305Y65298012D01*
X152491372Y65297774D01*
X152490419Y65297625D01*
X152456226Y65288792D01*
X152387182Y65271147D01*
X152386312Y65270730D01*
X152150891Y65209913D01*
X152116292Y65201006D01*
X152115999Y65200899D01*
X152115701Y65200822D01*
X152082873Y65188802D01*
X151791400Y65082362D01*
X151758474Y65070454D01*
X151757434Y65069958D01*
X151756364Y65069567D01*
X151725077Y65054519D01*
X151512522Y64953102D01*
X151510542Y64952587D01*
X151447161Y64921916D01*
X151416445Y64907260D01*
X151414710Y64906212D01*
X151412875Y64905324D01*
X151383653Y64887453D01*
X151323570Y64851162D01*
X151322065Y64849789D01*
X151121392Y64727066D01*
X151091760Y64709086D01*
X151090736Y64708318D01*
X151089639Y64707647D01*
X151061893Y64686683D01*
X150819983Y64505230D01*
X150792074Y64484442D01*
X150791159Y64483610D01*
X150790168Y64482866D01*
X150764480Y64459329D01*
X150541955Y64256812D01*
X150517678Y64235146D01*
X150515251Y64232509D01*
X150512606Y64230102D01*
X150490842Y64205990D01*
X150334699Y64036349D01*
X150332545Y64034753D01*
X150285675Y63983087D01*
X150263039Y63958494D01*
X150261438Y63956370D01*
X150259643Y63954391D01*
X150239654Y63927464D01*
X150197736Y63871843D01*
X150196571Y63869429D01*
X150055164Y63678942D01*
X150034266Y63650871D01*
X150034012Y63650448D01*
X150033710Y63650042D01*
X150015288Y63619338D01*
X149859872Y63361108D01*
X149842735Y63333206D01*
X149841283Y63330220D01*
X149839567Y63327369D01*
X149825488Y63297742D01*
X149723261Y63087533D01*
X149722299Y63086253D01*
X149691719Y63022674D01*
X149676516Y62991411D01*
X149675958Y62989904D01*
X149675270Y62988473D01*
X149663454Y62956117D01*
X149638857Y62889653D01*
X149638604Y62888069D01*
X149556542Y62663350D01*
X149544462Y62630564D01*
X149544196Y62629541D01*
X149543831Y62628543D01*
X149535082Y62594559D01*
X149474322Y62361320D01*
X149473388Y62359364D01*
X149456070Y62291259D01*
X149447516Y62258422D01*
X149447181Y62256299D01*
X149446649Y62254208D01*
X149441528Y62220512D01*
X149430587Y62151249D01*
X149430673Y62149090D01*
X149403545Y61970600D01*
X149402870Y61968702D01*
X149392682Y61899121D01*
X149387546Y61865331D01*
X149387440Y61863327D01*
X149387150Y61861344D01*
X149385540Y61827267D01*
X149381835Y61756979D01*
X149382124Y61754982D01*
X149370275Y61504225D01*
X149368498Y61469635D01*
X141275732Y61469635D01*
X141275732Y76468330D01*
X143764425Y76468330D01*
X143764496Y76466822D01*
X143764425Y76465325D01*
X143766179Y76430917D01*
X143778092Y76176876D01*
X143777724Y76174314D01*
X143781478Y76104649D01*
X143783052Y76071092D01*
X143783424Y76068543D01*
X143783563Y76065970D01*
X143788654Y76032737D01*
X143798734Y75963728D01*
X143799600Y75961291D01*
X143826468Y75785908D01*
X143826428Y75784940D01*
X143837377Y75714704D01*
X143842751Y75679624D01*
X143842993Y75678679D01*
X143843140Y75677733D01*
X143851871Y75643937D01*
X143869615Y75574500D01*
X143870035Y75573622D01*
X143930888Y75338065D01*
X143939759Y75303605D01*
X143939865Y75303314D01*
X143939943Y75303013D01*
X143952120Y75269756D01*
X144034532Y75044079D01*
X144034785Y75042495D01*
X144059382Y74976031D01*
X144071198Y74943675D01*
X144071886Y74942244D01*
X144072444Y74940737D01*
X144087647Y74909474D01*
X144118227Y74845895D01*
X144119189Y74844615D01*
X144221417Y74634404D01*
X144235507Y74604756D01*
X144237218Y74601913D01*
X144238663Y74598942D01*
X144255788Y74571061D01*
X144411682Y74312056D01*
X144429623Y74282151D01*
X144429931Y74281735D01*
X144430208Y74281276D01*
X144451646Y74252481D01*
X144592492Y74062735D01*
X144593663Y74060308D01*
X144635625Y74004627D01*
X144655553Y73977780D01*
X144657350Y73975799D01*
X144658965Y73973656D01*
X144681670Y73948988D01*
X144728452Y73897415D01*
X144730615Y73895812D01*
X144886769Y73726159D01*
X144908536Y73702044D01*
X144911179Y73699638D01*
X144913605Y73697003D01*
X144937873Y73675345D01*
X145160445Y73472786D01*
X145186126Y73449258D01*
X145187102Y73448526D01*
X145188003Y73447706D01*
X145215857Y73426960D01*
X145457802Y73245501D01*
X145485530Y73224548D01*
X145486661Y73223856D01*
X145487720Y73223062D01*
X145517365Y73205077D01*
X145717993Y73082365D01*
X145719535Y73080958D01*
X145779702Y73044622D01*
X145808766Y73026845D01*
X145810635Y73025941D01*
X145812414Y73024866D01*
X145843154Y73010201D01*
X145906430Y72979576D01*
X145908454Y72979050D01*
X146120809Y72877745D01*
X146152246Y72862622D01*
X146153369Y72862212D01*
X146154444Y72861699D01*
X146187219Y72849848D01*
X146477984Y72743645D01*
X146511629Y72731326D01*
X146511907Y72731254D01*
X146512173Y72731157D01*
X146546340Y72722359D01*
X146782237Y72661418D01*
X146783109Y72661001D01*
X146852270Y72643327D01*
X146886348Y72634523D01*
X146887298Y72634375D01*
X146888233Y72634136D01*
X146923094Y72628795D01*
X146993556Y72617811D01*
X146994522Y72617851D01*
X147169880Y72590984D01*
X147172327Y72590115D01*
X147241345Y72580035D01*
X147274555Y72574947D01*
X147277137Y72574808D01*
X147279690Y72574435D01*
X147313216Y72572863D01*
X147382900Y72569107D01*
X147385468Y72569475D01*
X147639330Y72557573D01*
X147673670Y72555809D01*
X147675310Y72555886D01*
X147676951Y72555809D01*
X147711309Y72557574D01*
X147965125Y72569475D01*
X147967689Y72569107D01*
X148037380Y72572863D01*
X148070909Y72574435D01*
X148073457Y72574807D01*
X148076033Y72574946D01*
X148109264Y72580037D01*
X148178272Y72590116D01*
X148180711Y72590983D01*
X148356845Y72617966D01*
X148358563Y72617898D01*
X148428193Y72628897D01*
X148462379Y72634134D01*
X148464047Y72634560D01*
X148465736Y72634827D01*
X148498960Y72643482D01*
X148567503Y72660998D01*
X148569061Y72661744D01*
X148802056Y72722441D01*
X148835904Y72731157D01*
X148836875Y72731512D01*
X148837878Y72731773D01*
X148870795Y72743901D01*
X149159591Y72849385D01*
X149191229Y72860698D01*
X149193488Y72861766D01*
X149195832Y72862622D01*
X149226066Y72877166D01*
X149440910Y72978726D01*
X149444215Y72979586D01*
X149506263Y73009620D01*
X149535909Y73023634D01*
X149538827Y73025382D01*
X149541878Y73026859D01*
X149569787Y73043930D01*
X149628986Y73079397D01*
X149631516Y73081690D01*
X149833242Y73205082D01*
X149862851Y73223044D01*
X149863932Y73223855D01*
X149865090Y73224563D01*
X149892789Y73245495D01*
X150134573Y73426819D01*
X150162616Y73447706D01*
X150163510Y73448519D01*
X150164468Y73449238D01*
X150190052Y73472675D01*
X150414483Y73676926D01*
X150440249Y73700209D01*
X150441122Y73701170D01*
X150442083Y73702044D01*
X150465345Y73727815D01*
X150619321Y73897195D01*
X150619656Y73897443D01*
X150667828Y73950554D01*
X150692018Y73977164D01*
X150692268Y73977500D01*
X150692551Y73977812D01*
X150714166Y74006935D01*
X150756782Y74064218D01*
X150756960Y74064593D01*
X150895054Y74250652D01*
X150914899Y74276912D01*
X150916562Y74279631D01*
X150918457Y74282184D01*
X150935345Y74310337D01*
X151093743Y74569290D01*
X151111978Y74598982D01*
X151112259Y74599560D01*
X151112604Y74600124D01*
X151128190Y74632325D01*
X151231408Y74844606D01*
X151232347Y74845854D01*
X151263062Y74909706D01*
X151278171Y74940779D01*
X151278709Y74942233D01*
X151279382Y74943632D01*
X151291251Y74976126D01*
X151315825Y75042538D01*
X151316071Y75044080D01*
X151374521Y75204107D01*
X151375861Y75206345D01*
X151399328Y75272025D01*
X151410846Y75303559D01*
X151411493Y75306073D01*
X151412368Y75308521D01*
X151420518Y75341122D01*
X151437902Y75408634D01*
X151438047Y75411238D01*
X151496860Y75646491D01*
X151505327Y75679625D01*
X151505618Y75681523D01*
X151506082Y75683380D01*
X151511071Y75717121D01*
X151559248Y76031588D01*
X151564454Y76065385D01*
X151564470Y76065674D01*
X151564515Y76065969D01*
X151566445Y76101781D01*
X151580491Y76358539D01*
X151581507Y76362702D01*
X151584445Y76430817D01*
X151586183Y76462596D01*
X151585998Y76466841D01*
X151586182Y76471104D01*
X151584423Y76503009D01*
X151581462Y76570995D01*
X151580445Y76575152D01*
X151566465Y76828718D01*
X151564604Y76864028D01*
X151564470Y76864913D01*
X151564421Y76865793D01*
X151559085Y76900338D01*
X151510987Y77216809D01*
X151505797Y77251434D01*
X151505615Y77252157D01*
X151505501Y77252905D01*
X151496772Y77287232D01*
X151438006Y77520339D01*
X151437902Y77522211D01*
X151420348Y77590386D01*
X151411945Y77623716D01*
X151411312Y77625478D01*
X151410846Y77627286D01*
X151399077Y77659507D01*
X151375236Y77725820D01*
X151374269Y77727428D01*
X151316071Y77886765D01*
X151315825Y77888307D01*
X151291251Y77954719D01*
X151279382Y77987213D01*
X151278709Y77988612D01*
X151278171Y77990066D01*
X151263062Y78021139D01*
X151232347Y78084991D01*
X151231408Y78086239D01*
X151128095Y78298717D01*
X151112616Y78330698D01*
X151112267Y78331268D01*
X151111978Y78331863D01*
X151093597Y78361793D01*
X150935397Y78620441D01*
X150918441Y78648706D01*
X150916557Y78651244D01*
X150914913Y78653932D01*
X150895102Y78680149D01*
X150756953Y78866267D01*
X150756781Y78866630D01*
X150713989Y78924150D01*
X150692533Y78953056D01*
X150692262Y78953355D01*
X150692017Y78953684D01*
X150667542Y78980607D01*
X150619635Y79033422D01*
X150619313Y79033661D01*
X150465332Y79203044D01*
X150442083Y79228801D01*
X150441122Y79229676D01*
X150440248Y79230637D01*
X150414468Y79253933D01*
X150190277Y79457965D01*
X150164502Y79481580D01*
X150163519Y79482318D01*
X150162616Y79483139D01*
X150134776Y79503875D01*
X149892695Y79685441D01*
X149865052Y79706329D01*
X149863935Y79707012D01*
X149862886Y79707799D01*
X149833194Y79725813D01*
X149631521Y79849158D01*
X149629024Y79851420D01*
X149569813Y79886898D01*
X149541838Y79904008D01*
X149538823Y79905467D01*
X149535951Y79907188D01*
X149506322Y79921196D01*
X149444172Y79951275D01*
X149440910Y79952123D01*
X149226046Y80053710D01*
X149195787Y80068264D01*
X149193490Y80069103D01*
X149191273Y80070151D01*
X149159558Y80081494D01*
X148870664Y80186992D01*
X148837878Y80199072D01*
X148836855Y80199338D01*
X148835857Y80199703D01*
X148801873Y80208452D01*
X148569061Y80269101D01*
X148567503Y80269847D01*
X148498960Y80287363D01*
X148465736Y80296018D01*
X148464047Y80296285D01*
X148462379Y80296711D01*
X148428193Y80301948D01*
X148358563Y80312947D01*
X148356845Y80312879D01*
X148111232Y80350507D01*
X148076617Y80355838D01*
X148076328Y80355854D01*
X148076033Y80355899D01*
X148040193Y80357831D01*
X147783621Y80371866D01*
X147779614Y80372846D01*
X147711393Y80375817D01*
X147679405Y80377567D01*
X147675310Y80377389D01*
X147671214Y80377567D01*
X147639215Y80375817D01*
X147571007Y80372846D01*
X147567002Y80371867D01*
X147310414Y80357831D01*
X147274555Y80355898D01*
X147274264Y80355853D01*
X147273982Y80355838D01*
X147239687Y80350556D01*
X146994522Y80312994D01*
X146993556Y80313034D01*
X146923094Y80302050D01*
X146888233Y80296709D01*
X146887298Y80296470D01*
X146886348Y80296322D01*
X146852270Y80287518D01*
X146783109Y80269844D01*
X146782237Y80269427D01*
X146547130Y80208690D01*
X146512219Y80199703D01*
X146511923Y80199595D01*
X146511629Y80199519D01*
X146478723Y80187471D01*
X146187238Y80081026D01*
X146154400Y80069150D01*
X146153365Y80068656D01*
X146152291Y80068264D01*
X146120855Y80053144D01*
X145908450Y79951798D01*
X145906472Y79951284D01*
X145843161Y79920647D01*
X145812372Y79905956D01*
X145810633Y79904905D01*
X145808805Y79904021D01*
X145779711Y79886228D01*
X145719497Y79849859D01*
X145717988Y79848482D01*
X145517312Y79725759D01*
X145487684Y79707781D01*
X145486664Y79707016D01*
X145485567Y79706345D01*
X145457789Y79685357D01*
X145215773Y79503823D01*
X145188003Y79483139D01*
X145187088Y79482307D01*
X145186093Y79481560D01*
X145160371Y79457992D01*
X144937879Y79255506D01*
X144913606Y79233843D01*
X144911180Y79231207D01*
X144908536Y79228801D01*
X144886764Y79204681D01*
X144730627Y79035046D01*
X144728473Y79033450D01*
X144681603Y78981784D01*
X144658967Y78957191D01*
X144657366Y78955067D01*
X144655571Y78953088D01*
X144635582Y78926161D01*
X144593664Y78870540D01*
X144592499Y78868126D01*
X144451092Y78677639D01*
X144430194Y78649568D01*
X144429940Y78649145D01*
X144429638Y78648739D01*
X144411216Y78618035D01*
X144255800Y78359805D01*
X144238663Y78331903D01*
X144237211Y78328917D01*
X144235495Y78326066D01*
X144221416Y78296439D01*
X144119189Y78086230D01*
X144118227Y78084950D01*
X144087647Y78021371D01*
X144072444Y77990108D01*
X144071886Y77988601D01*
X144071198Y77987170D01*
X144059382Y77954814D01*
X144034785Y77888350D01*
X144034532Y77886766D01*
X143952470Y77662047D01*
X143940390Y77629261D01*
X143940124Y77628238D01*
X143939759Y77627240D01*
X143931010Y77593256D01*
X143870250Y77360017D01*
X143869316Y77358061D01*
X143851998Y77289956D01*
X143843444Y77257119D01*
X143843109Y77254996D01*
X143842577Y77252905D01*
X143837456Y77219209D01*
X143826515Y77149946D01*
X143826601Y77147787D01*
X143799473Y76969296D01*
X143798799Y76967401D01*
X143788611Y76897829D01*
X143783474Y76864028D01*
X143783369Y76862027D01*
X143783078Y76860043D01*
X143781466Y76825930D01*
X143777763Y76755676D01*
X143778052Y76753681D01*
X143766200Y76502887D01*
X143764425Y76468330D01*
X141275732Y76468330D01*
X141275732Y128086499D01*
X146629819Y128086499D01*
X146629896Y128084861D01*
X146629819Y128083223D01*
X146631581Y128048914D01*
X146643486Y127795020D01*
X146643118Y127792454D01*
X146646871Y127722821D01*
X146648446Y127689239D01*
X146648819Y127686683D01*
X146648958Y127684110D01*
X146654039Y127650945D01*
X146664127Y127581876D01*
X146664995Y127579432D01*
X146691861Y127404073D01*
X146691821Y127403107D01*
X146702771Y127332864D01*
X146708145Y127297786D01*
X146708386Y127296843D01*
X146708533Y127295900D01*
X146717269Y127262082D01*
X146735010Y127192662D01*
X146735429Y127191787D01*
X146796441Y126955611D01*
X146805167Y126921725D01*
X146805263Y126921461D01*
X146805336Y126921180D01*
X146817655Y126887535D01*
X146899942Y126662247D01*
X146900188Y126660705D01*
X146924779Y126594249D01*
X146936632Y126561797D01*
X146937304Y126560400D01*
X146937842Y126558946D01*
X146952991Y126527791D01*
X146983668Y126464019D01*
X146984603Y126462775D01*
X147086856Y126252480D01*
X147100910Y126222908D01*
X147102597Y126220105D01*
X147104035Y126217148D01*
X147121235Y126189141D01*
X147240348Y125991254D01*
X147240791Y125990037D01*
X147277626Y125929322D01*
X147295633Y125899407D01*
X147296404Y125898372D01*
X147297071Y125897272D01*
X147318000Y125869366D01*
X147360431Y125812379D01*
X147361390Y125811513D01*
X147500951Y125625431D01*
X147521717Y125597552D01*
X147522534Y125596654D01*
X147523267Y125595677D01*
X147546836Y125569951D01*
X147750779Y125345859D01*
X147773927Y125320214D01*
X147775041Y125319200D01*
X147776055Y125318086D01*
X147801698Y125294940D01*
X148025852Y125090940D01*
X148051511Y125067432D01*
X148052489Y125066698D01*
X148053395Y125065874D01*
X148081363Y125045042D01*
X148267363Y124905537D01*
X148268224Y124904584D01*
X148325227Y124862138D01*
X148353126Y124841213D01*
X148354218Y124840550D01*
X148355250Y124839782D01*
X148385216Y124821744D01*
X148445890Y124784931D01*
X148447100Y124784491D01*
X148645035Y124665339D01*
X148672992Y124648170D01*
X148675929Y124646742D01*
X148678728Y124645057D01*
X148708387Y124630960D01*
X148918638Y124528729D01*
X148919904Y124527777D01*
X148983698Y124497095D01*
X149014789Y124481977D01*
X149016266Y124481430D01*
X149017685Y124480748D01*
X149050138Y124468897D01*
X149116548Y124444323D01*
X149118113Y124444074D01*
X149344117Y124361541D01*
X149377023Y124349493D01*
X149377317Y124349417D01*
X149377613Y124349309D01*
X149412524Y124340322D01*
X149647639Y124279583D01*
X149648513Y124279165D01*
X149717588Y124261513D01*
X149751742Y124252690D01*
X149752698Y124252541D01*
X149753637Y124252301D01*
X149788476Y124246964D01*
X149858950Y124235978D01*
X149859921Y124236019D01*
X150035301Y124209151D01*
X150037738Y124208285D01*
X150106793Y124198199D01*
X150139982Y124193114D01*
X150142550Y124192976D01*
X150145101Y124192603D01*
X150178683Y124191028D01*
X150248327Y124187275D01*
X150250888Y124187643D01*
X150504928Y124175730D01*
X150539335Y124173976D01*
X150540832Y124174047D01*
X150542340Y124173976D01*
X150576893Y124175751D01*
X150827694Y124187603D01*
X150829684Y124187315D01*
X150899850Y124191013D01*
X150934053Y124192629D01*
X150936039Y124192920D01*
X150938035Y124193025D01*
X150971775Y124198153D01*
X151041411Y124208350D01*
X151043307Y124209024D01*
X151221793Y124236151D01*
X151223956Y124236065D01*
X151293287Y124247016D01*
X151326913Y124252127D01*
X151329000Y124252658D01*
X151331129Y124252994D01*
X151364048Y124261570D01*
X151432069Y124278866D01*
X151434023Y124279799D01*
X151667266Y124340560D01*
X151701250Y124349309D01*
X151702248Y124349674D01*
X151703271Y124349940D01*
X151736057Y124362020D01*
X151959503Y124443618D01*
X151959756Y124443657D01*
X152027822Y124468566D01*
X152061180Y124480748D01*
X152061406Y124480857D01*
X152061650Y124480946D01*
X152094886Y124496960D01*
X152158960Y124527777D01*
X152159160Y124527928D01*
X152371929Y124630442D01*
X152402655Y124645045D01*
X152404330Y124646053D01*
X152406100Y124646906D01*
X152435310Y124664701D01*
X152634329Y124784495D01*
X152635565Y124784945D01*
X152696200Y124821737D01*
X152726156Y124839768D01*
X152727210Y124840553D01*
X152728326Y124841230D01*
X152756161Y124862109D01*
X152813184Y124904566D01*
X152814065Y124905542D01*
X153000250Y125045197D01*
X153028012Y125065875D01*
X153028922Y125066703D01*
X153029919Y125067451D01*
X153055716Y125091088D01*
X153227808Y125247707D01*
X153228467Y125248106D01*
X153281375Y125296458D01*
X153307479Y125320215D01*
X153307990Y125320781D01*
X153308561Y125321303D01*
X153332391Y125347814D01*
X153380180Y125400759D01*
X153380574Y125401419D01*
X153533597Y125571662D01*
X153555573Y125595646D01*
X153557678Y125598452D01*
X153560030Y125601069D01*
X153579343Y125627336D01*
X153759390Y125867371D01*
X153780354Y125895117D01*
X153781025Y125896214D01*
X153781793Y125897238D01*
X153799773Y125926870D01*
X153959079Y126187364D01*
X153977348Y126217107D01*
X153977655Y126217738D01*
X153978031Y126218353D01*
X153993619Y126250565D01*
X154096819Y126462775D01*
X154097786Y126464061D01*
X154128473Y126527865D01*
X154143567Y126558902D01*
X154144121Y126560400D01*
X154144815Y126561842D01*
X154156684Y126594345D01*
X154181227Y126660658D01*
X154181480Y126662244D01*
X154239928Y126822295D01*
X154241255Y126824512D01*
X154264715Y126890173D01*
X154276254Y126921770D01*
X154276896Y126924265D01*
X154277762Y126926688D01*
X154285901Y126959243D01*
X154303304Y127026847D01*
X154303448Y127029433D01*
X154362270Y127264721D01*
X154370719Y127297784D01*
X154371010Y127299682D01*
X154371476Y127301547D01*
X154376475Y127335354D01*
X154424566Y127649238D01*
X154429848Y127683533D01*
X154429863Y127683815D01*
X154429908Y127684106D01*
X154431841Y127719965D01*
X154445877Y127976553D01*
X154446856Y127980558D01*
X154449827Y128048764D01*
X154451577Y128080765D01*
X154451399Y128084861D01*
X154451577Y128088957D01*
X154449827Y128120948D01*
X154446856Y128189165D01*
X154445876Y128193172D01*
X154431839Y128449772D01*
X154429909Y128485584D01*
X154429864Y128485879D01*
X154429848Y128486168D01*
X154424521Y128520757D01*
X154376333Y128835293D01*
X154371191Y128869601D01*
X154370902Y128870749D01*
X154370721Y128871928D01*
X154362067Y128905792D01*
X154303407Y129138479D01*
X154303304Y129140332D01*
X154285723Y129208625D01*
X154277339Y129241883D01*
X154276715Y129243620D01*
X154276254Y129245409D01*
X154264458Y129277710D01*
X154240630Y129343987D01*
X154239676Y129345574D01*
X154181937Y129503684D01*
X154181894Y129503959D01*
X154156985Y129572012D01*
X154144815Y129605337D01*
X154144697Y129605583D01*
X154144599Y129605850D01*
X154128653Y129638939D01*
X154097786Y129703118D01*
X154097620Y129703339D01*
X154025441Y129853122D01*
X154025284Y129853725D01*
X153993983Y129918402D01*
X153978612Y129950299D01*
X153978291Y129950826D01*
X153978018Y129951390D01*
X153959301Y129981993D01*
X153922156Y130042957D01*
X153921735Y130043414D01*
X153799841Y130242717D01*
X153781810Y130272436D01*
X153781021Y130273488D01*
X153780339Y130274603D01*
X153759456Y130302240D01*
X153579359Y130542363D01*
X153560031Y130568650D01*
X153557687Y130571258D01*
X153555592Y130574051D01*
X153533608Y130598046D01*
X153379041Y130770006D01*
X153377456Y130772627D01*
X153330691Y130823797D01*
X153308562Y130848417D01*
X153306314Y130850472D01*
X153304259Y130852720D01*
X153279645Y130874844D01*
X153228469Y130921614D01*
X153225848Y130923200D01*
X153053930Y131077728D01*
X153029886Y131099756D01*
X153027089Y131101854D01*
X153024492Y131104188D01*
X152998259Y131123476D01*
X152758196Y131303523D01*
X152730481Y131324466D01*
X152729350Y131325158D01*
X152728291Y131325952D01*
X152698631Y131343947D01*
X152496899Y131467333D01*
X152494381Y131469614D01*
X152435223Y131505056D01*
X152407247Y131522167D01*
X152404202Y131523641D01*
X152401304Y131525377D01*
X152371700Y131539372D01*
X152309582Y131569436D01*
X152306290Y131570292D01*
X152094017Y131670638D01*
X152066403Y131684183D01*
X152061430Y131686043D01*
X152056623Y131688315D01*
X152027617Y131698687D01*
X151803871Y131782357D01*
X151799830Y131784787D01*
X151736115Y131807694D01*
X151706667Y131818706D01*
X151702140Y131819909D01*
X151697725Y131821496D01*
X151667200Y131829191D01*
X151601802Y131846566D01*
X151597098Y131846864D01*
X151361048Y131906373D01*
X151326915Y131915052D01*
X151326172Y131915165D01*
X151325442Y131915349D01*
X151290616Y131920569D01*
X150974218Y131968656D01*
X150939803Y131973972D01*
X150938923Y131974021D01*
X150938038Y131974155D01*
X150902726Y131976016D01*
X150649162Y131989996D01*
X150645005Y131991013D01*
X150577015Y131993974D01*
X150545113Y131995733D01*
X150540850Y131995549D01*
X150536606Y131995734D01*
X150504829Y131993996D01*
X150436712Y131991058D01*
X150432549Y131990042D01*
X150175791Y131975996D01*
X150139979Y131974066D01*
X150139684Y131974021D01*
X150139395Y131974005D01*
X150104806Y131968678D01*
X149791131Y131920622D01*
X149757390Y131915633D01*
X149755533Y131915169D01*
X149753635Y131914878D01*
X149720501Y131906411D01*
X149482499Y131846911D01*
X149477061Y131846566D01*
X149412336Y131829370D01*
X149382531Y131821919D01*
X149377431Y131820097D01*
X149372196Y131818706D01*
X149343397Y131807937D01*
X149280355Y131785412D01*
X149275684Y131782615D01*
X149049989Y131698217D01*
X149019837Y131687314D01*
X149016222Y131685589D01*
X149012461Y131684183D01*
X148983630Y131670041D01*
X148773836Y131569957D01*
X148771798Y131569427D01*
X148708509Y131538792D01*
X148677806Y131524145D01*
X148676016Y131523064D01*
X148674136Y131522154D01*
X148645121Y131504406D01*
X148584927Y131468054D01*
X148583373Y131466636D01*
X148382833Y131343969D01*
X148353161Y131325969D01*
X148352078Y131325157D01*
X148350924Y131324451D01*
X148323270Y131303552D01*
X148083184Y131123503D01*
X148056915Y131104189D01*
X148054327Y131101863D01*
X148051543Y131099775D01*
X148027484Y131077735D01*
X147857261Y130924731D01*
X147856598Y130924335D01*
X147803536Y130876440D01*
X147777148Y130852721D01*
X147776628Y130852153D01*
X147776054Y130851634D01*
X147752156Y130825375D01*
X147703950Y130772628D01*
X147703549Y130771966D01*
X147546685Y130599603D01*
X147523248Y130574019D01*
X147522529Y130573061D01*
X147521716Y130572167D01*
X147500829Y130544124D01*
X147361388Y130358188D01*
X147360449Y130357340D01*
X147318088Y130300449D01*
X147297054Y130272402D01*
X147296397Y130271319D01*
X147295648Y130270313D01*
X147277735Y130240555D01*
X147240778Y130179635D01*
X147240344Y130178442D01*
X147120553Y129979447D01*
X147102771Y129950257D01*
X147101925Y129948501D01*
X147100922Y129946835D01*
X147086294Y129916059D01*
X146983804Y129703341D01*
X146983668Y129703160D01*
X146952886Y129639171D01*
X146936811Y129605807D01*
X146936730Y129605586D01*
X146936632Y129605382D01*
X146924476Y129572101D01*
X146899522Y129503913D01*
X146899486Y129503684D01*
X146817911Y129280345D01*
X146805783Y129247428D01*
X146805522Y129246425D01*
X146805167Y129245454D01*
X146796451Y129211606D01*
X146735753Y128978607D01*
X146735008Y128977051D01*
X146717528Y128908647D01*
X146708837Y128875286D01*
X146708569Y128873589D01*
X146708144Y128871926D01*
X146702924Y128837855D01*
X146691908Y128768113D01*
X146691976Y128766391D01*
X146664994Y128590262D01*
X146664128Y128587825D01*
X146654044Y128518783D01*
X146648957Y128485581D01*
X146648819Y128483011D01*
X146648446Y128480461D01*
X146646872Y128446889D01*
X146643118Y128377237D01*
X146643486Y128374675D01*
X146631582Y128120830D01*
X146629819Y128086499D01*
X141275732Y128086499D01*
X141275732Y147344932D01*
X146248822Y147344932D01*
X146248834Y147344693D01*
X146248822Y147344452D01*
X146250563Y147309371D01*
X146264885Y147016882D01*
X146264731Y147015822D01*
X146268419Y146944722D01*
X146270139Y146909589D01*
X146270296Y146908531D01*
X146270351Y146907466D01*
X146275592Y146872787D01*
X146286042Y146802258D01*
X146286403Y146801248D01*
X146318688Y146587616D01*
X146318583Y146584920D01*
X146329504Y146516050D01*
X146334497Y146483010D01*
X146335154Y146480415D01*
X146335576Y146477757D01*
X146344055Y146445290D01*
X146361148Y146377831D01*
X146362307Y146375397D01*
X146433192Y146103963D01*
X146441791Y146070465D01*
X146442318Y146069018D01*
X146442705Y146067537D01*
X146454615Y146035273D01*
X146549121Y145775922D01*
X146549284Y145774886D01*
X146573866Y145708015D01*
X146585908Y145674969D01*
X146586361Y145674026D01*
X146586721Y145673046D01*
X146602037Y145641376D01*
X146632870Y145577156D01*
X146633498Y145576319D01*
X146752070Y145331135D01*
X146767370Y145299347D01*
X146767723Y145298766D01*
X146768021Y145298151D01*
X146786437Y145268020D01*
X146962551Y144978670D01*
X146979672Y144950068D01*
X146981287Y144947888D01*
X146982702Y144945563D01*
X147002773Y144918881D01*
X147161840Y144704142D01*
X147162249Y144703281D01*
X147204995Y144645882D01*
X147225850Y144617728D01*
X147226482Y144617030D01*
X147227056Y144616259D01*
X147250994Y144589953D01*
X147298668Y144537290D01*
X147299433Y144536722D01*
X147481577Y144336558D01*
X147504994Y144310644D01*
X147505946Y144309779D01*
X147506800Y144308840D01*
X147532411Y144285720D01*
X147782127Y144058712D01*
X147807703Y144035280D01*
X147808845Y144034424D01*
X147809896Y144033468D01*
X147837550Y144012895D01*
X148110906Y143807878D01*
X148138919Y143786805D01*
X148139365Y143786534D01*
X148139787Y143786217D01*
X148170248Y143767737D01*
X148400443Y143627628D01*
X148400798Y143627302D01*
X148462071Y143590117D01*
X148492703Y143571473D01*
X148493138Y143571263D01*
X148493556Y143571010D01*
X148525892Y143555498D01*
X148590469Y143524416D01*
X148590941Y143524294D01*
X148837791Y143405880D01*
X148869156Y143390725D01*
X148870127Y143390369D01*
X148871068Y143389917D01*
X148904038Y143377916D01*
X149162075Y143283160D01*
X149163762Y143282142D01*
X149229963Y143258230D01*
X149262070Y143246440D01*
X149263967Y143245948D01*
X149265811Y143245282D01*
X149298963Y143236872D01*
X149367098Y143219201D01*
X149369065Y143219088D01*
X149571095Y143167836D01*
X149571187Y143167792D01*
X149639488Y143150485D01*
X149676157Y143141183D01*
X149676264Y143141167D01*
X149676366Y143141141D01*
X149711738Y143135795D01*
X149783436Y143124939D01*
X149783542Y143124944D01*
X150063893Y143082576D01*
X150098165Y143077269D01*
X150099497Y143077195D01*
X150100821Y143076995D01*
X150135517Y143075195D01*
X150432558Y143058706D01*
X150437283Y143057556D01*
X150504756Y143054698D01*
X150536025Y143052962D01*
X150540857Y143053169D01*
X150545687Y143052964D01*
X150576941Y143054711D01*
X150644428Y143057596D01*
X150649153Y143058748D01*
X150943700Y143075213D01*
X150978064Y143076995D01*
X150979519Y143077215D01*
X150981005Y143077298D01*
X151015343Y143082629D01*
X151295341Y143124943D01*
X151295438Y143124939D01*
X151365301Y143135516D01*
X151402521Y143141141D01*
X151402621Y143141166D01*
X151402718Y143141181D01*
X151437941Y143150116D01*
X151507700Y143167792D01*
X151507788Y143167834D01*
X151708941Y143218860D01*
X151709993Y143218918D01*
X151779142Y143236668D01*
X151813088Y143245279D01*
X151814070Y143245634D01*
X151815088Y143245895D01*
X151848227Y143257971D01*
X151915138Y143282138D01*
X151916036Y143282680D01*
X152109632Y143353225D01*
X152110666Y143353388D01*
X152177628Y143378003D01*
X152210584Y143390012D01*
X152211521Y143390462D01*
X152212506Y143390824D01*
X152244326Y143406212D01*
X152308397Y143436974D01*
X152309232Y143437601D01*
X152554430Y143556179D01*
X152586205Y143571473D01*
X152586785Y143571826D01*
X152587399Y143572123D01*
X152617523Y143590535D01*
X152908660Y143767737D01*
X152939121Y143786217D01*
X152939543Y143786534D01*
X152939989Y143786805D01*
X152968002Y143807878D01*
X153239798Y144011725D01*
X153266189Y144031156D01*
X153268601Y144033327D01*
X153271205Y144035280D01*
X153295450Y144057492D01*
X153495132Y144237217D01*
X153497347Y144238555D01*
X153548851Y144285567D01*
X153573850Y144308067D01*
X153575589Y144309972D01*
X153577485Y144311703D01*
X153599906Y144336616D01*
X153646994Y144388209D01*
X153648332Y144390424D01*
X153828079Y144590149D01*
X153850250Y144614348D01*
X153852209Y144616960D01*
X153854395Y144619389D01*
X153873849Y144645813D01*
X154077512Y144917363D01*
X154098704Y144945531D01*
X154098985Y144945993D01*
X154099313Y144946430D01*
X154117736Y144976796D01*
X154295126Y145268208D01*
X154313428Y145298152D01*
X154313713Y145298741D01*
X154314061Y145299313D01*
X154329566Y145331523D01*
X154447960Y145576337D01*
X154448602Y145577193D01*
X154479406Y145641362D01*
X154494728Y145673045D01*
X154495097Y145674048D01*
X154495558Y145675009D01*
X154507571Y145707981D01*
X154532165Y145774885D01*
X154532331Y145775943D01*
X154602855Y145969513D01*
X154603370Y145970367D01*
X154627446Y146037012D01*
X154639649Y146070505D01*
X154639901Y146071486D01*
X154640236Y146072414D01*
X154648822Y146106249D01*
X154666619Y146175602D01*
X154666674Y146176603D01*
X154734905Y146445493D01*
X154743380Y146477987D01*
X154743761Y146480395D01*
X154744361Y146482759D01*
X154749395Y146515994D01*
X154794154Y146798814D01*
X154795385Y146802256D01*
X154805460Y146870254D01*
X154810542Y146902365D01*
X154810756Y146905994D01*
X154811288Y146909587D01*
X154812877Y146942045D01*
X154816917Y147010680D01*
X154816416Y147014301D01*
X154830849Y147309055D01*
X154832606Y147344454D01*
X154832594Y147344693D01*
X154832606Y147344930D01*
X154830865Y147380253D01*
X154816398Y147677748D01*
X154816917Y147681495D01*
X154812883Y147750039D01*
X154811312Y147782340D01*
X154810763Y147786053D01*
X154810542Y147789810D01*
X154805472Y147821844D01*
X154795445Y147889676D01*
X154794174Y147893233D01*
X154749394Y148176184D01*
X154744363Y148209405D01*
X154743762Y148211773D01*
X154743380Y148214188D01*
X154734901Y148246697D01*
X154666446Y148516488D01*
X154666335Y148518427D01*
X154648642Y148586658D01*
X154640240Y148619772D01*
X154639585Y148621584D01*
X154639100Y148623456D01*
X154627270Y148655674D01*
X154603375Y148721820D01*
X154602374Y148723478D01*
X154507559Y148981707D01*
X154495642Y149014448D01*
X154495196Y149015378D01*
X154494839Y149016350D01*
X154479637Y149047815D01*
X154361252Y149294619D01*
X154361123Y149295119D01*
X154329864Y149360055D01*
X154314550Y149391981D01*
X154314285Y149392418D01*
X154314061Y149392883D01*
X154295337Y149423642D01*
X154258261Y149484740D01*
X154257916Y149485117D01*
X154117854Y149715207D01*
X154099314Y149745765D01*
X154098984Y149746205D01*
X154098704Y149746665D01*
X154077519Y149774825D01*
X153872549Y150048119D01*
X153852061Y150075657D01*
X153851112Y150076701D01*
X153850251Y150077849D01*
X153826667Y150103591D01*
X153599952Y150352983D01*
X153576690Y150378752D01*
X153575745Y150379612D01*
X153574884Y150380559D01*
X153549053Y150403901D01*
X153348846Y150586085D01*
X153348288Y150586836D01*
X153295466Y150634659D01*
X153269294Y150658475D01*
X153268542Y150659035D01*
X153267854Y150659658D01*
X153239588Y150680598D01*
X153182272Y150723283D01*
X153181427Y150723685D01*
X152966644Y150882800D01*
X152939988Y150902852D01*
X152937683Y150904255D01*
X152935515Y150905861D01*
X152906890Y150922997D01*
X152617639Y151099049D01*
X152587401Y151117531D01*
X152586784Y151117829D01*
X152586203Y151118183D01*
X152554438Y151133472D01*
X152309216Y151252063D01*
X152308360Y151252705D01*
X152244191Y151283509D01*
X152212508Y151298831D01*
X152211505Y151299200D01*
X152210544Y151299661D01*
X152177477Y151311708D01*
X152110668Y151336267D01*
X152109614Y151336433D01*
X151850260Y151430923D01*
X151818048Y151442815D01*
X151816532Y151443211D01*
X151815047Y151443752D01*
X151781587Y151452339D01*
X151510130Y151523242D01*
X151507659Y151524419D01*
X151440143Y151541523D01*
X151407806Y151549969D01*
X151405119Y151550395D01*
X151402479Y151551064D01*
X151369380Y151556064D01*
X151300644Y151566967D01*
X151297913Y151566860D01*
X151084259Y151599136D01*
X151083272Y151599489D01*
X151012941Y151609910D01*
X150978021Y151615185D01*
X150976971Y151615239D01*
X150975941Y151615392D01*
X150940936Y151617106D01*
X150869665Y151620798D01*
X150868626Y151620647D01*
X150576166Y151634967D01*
X150541079Y151636709D01*
X150540838Y151636697D01*
X150540599Y151636709D01*
X150505717Y151634990D01*
X150210382Y151620629D01*
X150209221Y151620798D01*
X150138249Y151617122D01*
X150103193Y151615417D01*
X150102033Y151615246D01*
X150100864Y151615185D01*
X150066216Y151609951D01*
X149995857Y151599550D01*
X149994751Y151599155D01*
X149780971Y151566860D01*
X149778231Y151566967D01*
X149709500Y151556063D01*
X149676408Y151551064D01*
X149673759Y151550393D01*
X149671068Y151549966D01*
X149638756Y151541526D01*
X149571228Y151524419D01*
X149568752Y151523240D01*
X149296112Y151452023D01*
X149262112Y151443207D01*
X149261495Y151442981D01*
X149260850Y151442812D01*
X149227555Y151430519D01*
X148904152Y151311782D01*
X148871065Y151299738D01*
X148870143Y151299296D01*
X148869196Y151298948D01*
X148837907Y151283832D01*
X148590940Y151165361D01*
X148590472Y151165240D01*
X148526024Y151134220D01*
X148493554Y151118644D01*
X148493137Y151118391D01*
X148492705Y151118183D01*
X148462264Y151099655D01*
X148400796Y151062352D01*
X148400440Y151062026D01*
X148172032Y150923005D01*
X148143394Y150905861D01*
X148141226Y150904255D01*
X148138921Y150902852D01*
X148112244Y150882785D01*
X147896003Y150722589D01*
X147893500Y150721384D01*
X147837814Y150679482D01*
X147811055Y150659658D01*
X147809014Y150657811D01*
X147806801Y150656145D01*
X147782171Y150633508D01*
X147730620Y150586836D01*
X147728964Y150584606D01*
X147532505Y150404042D01*
X147509418Y150383410D01*
X147505943Y150379629D01*
X147502166Y150376158D01*
X147481538Y150353078D01*
X147300924Y150156581D01*
X147298667Y150154905D01*
X147251968Y150103320D01*
X147229408Y150078776D01*
X147227728Y150076544D01*
X147225848Y150074467D01*
X147205967Y150047627D01*
X147164165Y149992081D01*
X147162945Y149989548D01*
X147002750Y149773284D01*
X146982702Y149746633D01*
X146981288Y149744310D01*
X146979671Y149742127D01*
X146962556Y149713534D01*
X146823521Y149485103D01*
X146823188Y149484740D01*
X146785974Y149423414D01*
X146767370Y149392849D01*
X146767156Y149392405D01*
X146766899Y149391981D01*
X146751585Y149360054D01*
X146720313Y149295082D01*
X146720189Y149294603D01*
X146601791Y149047770D01*
X146586628Y149016390D01*
X146586265Y149015403D01*
X146585807Y149014447D01*
X146573831Y148981543D01*
X146454842Y148657540D01*
X146442702Y148624650D01*
X146442551Y148624071D01*
X146442340Y148623497D01*
X146433371Y148588919D01*
X146362305Y148316774D01*
X146361148Y148314344D01*
X146344044Y148246844D01*
X146335574Y148214407D01*
X146335154Y148211757D01*
X146334497Y148209165D01*
X146329501Y148176104D01*
X146318582Y148107243D01*
X146318687Y148104552D01*
X146286385Y147890804D01*
X146285981Y147889674D01*
X146275580Y147819311D01*
X146270351Y147784709D01*
X146270290Y147783526D01*
X146270114Y147782338D01*
X146268404Y147747162D01*
X146264731Y147676353D01*
X146264903Y147675171D01*
X146250541Y147379814D01*
X146248822Y147344932D01*
X141275732Y147344932D01*
X141275732Y173633448D01*
X146149268Y173633448D01*
X146106700Y173623162D01*
G37*
G04 #@! TD.AperFunction*
M02*
