G04 #@! TF.GenerationSoftware,KiCad,Pcbnew,(5.1.10)-1*
G04 #@! TF.CreationDate,2021-10-06T15:16:57-05:00*
G04 #@! TF.ProjectId,Slew Limiter Front Panel,536c6577-204c-4696-9d69-746572204672,rev?*
G04 #@! TF.SameCoordinates,Original*
G04 #@! TF.FileFunction,Profile,NP*
%FSLAX46Y46*%
G04 Gerber Fmt 4.6, Leading zero omitted, Abs format (unit mm)*
G04 Created by KiCad (PCBNEW (5.1.10)-1) date 2021-10-06 15:16:57*
%MOMM*%
%LPD*%
G01*
G04 APERTURE LIST*
G04 #@! TA.AperFunction,Profile*
%ADD10C,0.200000*%
G04 #@! TD*
G04 APERTURE END LIST*
D10*
X150540703Y124909860D02*
X150215594Y124925105D01*
X150863293Y124925105D02*
X150540703Y124909860D01*
X151180780Y124973357D02*
X150863293Y124925105D01*
X151483044Y125052099D02*
X151180780Y124973357D01*
X151775145Y125158768D02*
X151483044Y125052099D01*
X152054543Y125293385D02*
X151775145Y125158768D01*
X152316176Y125450869D02*
X152054543Y125293385D01*
X152560003Y125633761D02*
X152316176Y125450869D01*
X152786065Y125839498D02*
X152560003Y125633761D01*
X152989262Y126065560D02*
X152786065Y125839498D01*
X153172153Y126309387D02*
X152989262Y126065560D01*
X153332156Y126571020D02*
X153172153Y126309387D01*
X153466795Y126847877D02*
X153332156Y126571020D01*
X153573464Y127139978D02*
X153466795Y126847877D01*
X153649665Y127444783D02*
X153573464Y127139978D01*
X153697918Y127759729D02*
X153649665Y127444783D01*
X153715703Y128084860D02*
X153697918Y127759729D01*
X153697918Y128409969D02*
X153715703Y128084860D01*
X153649665Y128724937D02*
X153697918Y128409969D01*
X153573464Y129027201D02*
X153649665Y128724937D01*
X153466795Y129319302D02*
X153573464Y129027201D01*
X153332156Y129598700D02*
X153466795Y129319302D01*
X153172153Y129860312D02*
X153332156Y129598700D01*
X152989262Y130104160D02*
X153172153Y129860312D01*
X152786065Y130330223D02*
X152989262Y130104160D01*
X152560003Y130533419D02*
X152786065Y130330223D01*
X152316176Y130716289D02*
X152560003Y130533419D01*
X152054543Y130876313D02*
X152316176Y130716289D01*
X151775145Y131008390D02*
X152054543Y130876313D01*
X151483044Y131117621D02*
X151775145Y131008390D01*
X151180780Y131193822D02*
X151483044Y131117621D01*
X150863293Y131242075D02*
X151180780Y131193822D01*
X150540703Y131259860D02*
X150863293Y131242075D01*
X150215594Y131242075D02*
X150540703Y131259860D01*
X149900626Y131193822D02*
X150215594Y131242075D01*
X149595821Y131117621D02*
X149900626Y131193822D01*
X149303720Y131008390D02*
X149595821Y131117621D01*
X149026863Y130876313D02*
X149303720Y131008390D01*
X148765251Y130716289D02*
X149026863Y130876313D01*
X148521403Y130533419D02*
X148765251Y130716289D01*
X148295340Y130330223D02*
X148521403Y130533419D01*
X148089604Y130104160D02*
X148295340Y130330223D01*
X147906734Y129860312D02*
X148089604Y130104160D01*
X147749250Y129598700D02*
X147906734Y129860312D01*
X147614633Y129319302D02*
X147749250Y129598700D01*
X147507942Y129027201D02*
X147614633Y129319302D01*
X147429200Y128724937D02*
X147507942Y129027201D01*
X147380948Y128409969D02*
X147429200Y128724937D01*
X147365703Y128084860D02*
X147380948Y128409969D01*
X147380948Y127759729D02*
X147365703Y128084860D01*
X147429200Y127444783D02*
X147380948Y127759729D01*
X147507942Y127139978D02*
X147429200Y127444783D01*
X147614633Y126847877D02*
X147507942Y127139978D01*
X147749250Y126571020D02*
X147614633Y126847877D01*
X147906734Y126309387D02*
X147749250Y126571020D01*
X148089604Y126065560D02*
X147906734Y126309387D01*
X148295340Y125839498D02*
X148089604Y126065560D01*
X148521403Y125633761D02*
X148295340Y125839498D01*
X148765251Y125450869D02*
X148521403Y125633761D01*
X149026863Y125293385D02*
X148765251Y125450869D01*
X149303720Y125158768D02*
X149026863Y125293385D01*
X149595821Y125052099D02*
X149303720Y125158768D01*
X149900626Y124973357D02*
X149595821Y125052099D01*
X150215594Y124925105D02*
X149900626Y124973357D01*
X150174952Y150883038D02*
X150540714Y150900823D01*
X149821895Y150829703D02*
X150174952Y150883038D01*
X149481541Y150740798D02*
X149821895Y150829703D01*
X149156410Y150621426D02*
X149481541Y150740798D01*
X148844004Y150471564D02*
X149156410Y150621426D01*
X148551903Y150293776D02*
X148844004Y150471564D01*
X148277587Y150090558D02*
X148551903Y150293776D01*
X148026117Y149859435D02*
X148277587Y150090558D01*
X147794973Y149607965D02*
X148026117Y149859435D01*
X147591777Y149333649D02*
X147794973Y149607965D01*
X147413988Y149041548D02*
X147591777Y149333649D01*
X147264126Y148729121D02*
X147413988Y149041548D01*
X147144732Y148404012D02*
X147264126Y148729121D01*
X147055849Y148063636D02*
X147144732Y148404012D01*
X147002493Y147710579D02*
X147055849Y148063636D01*
X146984708Y147344817D02*
X147002493Y147710579D01*
X147002493Y146981596D02*
X146984708Y147344817D01*
X147055849Y146628539D02*
X147002493Y146981596D01*
X147144732Y146288185D02*
X147055849Y146628539D01*
X147264126Y145960535D02*
X147144732Y146288185D01*
X147413988Y145650648D02*
X147264126Y145960535D01*
X147591777Y145358547D02*
X147413988Y145650648D01*
X147794973Y145084232D02*
X147591777Y145358547D01*
X148026117Y144830220D02*
X147794973Y145084232D01*
X148277587Y144601617D02*
X148026117Y144830220D01*
X148551903Y144395880D02*
X148277587Y144601617D01*
X148844004Y144218091D02*
X148551903Y144395880D01*
X149156410Y144068230D02*
X148844004Y144218091D01*
X149481541Y143948836D02*
X149156410Y144068230D01*
X149821895Y143862493D02*
X149481541Y143948836D01*
X150174952Y143809137D02*
X149821895Y143862493D01*
X150540714Y143788833D02*
X150174952Y143809137D01*
X150903934Y143809137D02*
X150540714Y143788833D01*
X151256992Y143862493D02*
X150903934Y143809137D01*
X151597368Y143948836D02*
X151256992Y143862493D01*
X151925018Y144068230D02*
X151597368Y143948836D01*
X152234904Y144218091D02*
X151925018Y144068230D01*
X152527005Y144395880D02*
X152234904Y144218091D01*
X152801321Y144601617D02*
X152527005Y144395880D01*
X153055310Y144830220D02*
X152801321Y144601617D01*
X153283914Y145084232D02*
X153055310Y144830220D01*
X153489651Y145358547D02*
X153283914Y145084232D01*
X153667461Y145650648D02*
X153489651Y145358547D01*
X153817323Y145960535D02*
X153667461Y145650648D01*
X153936695Y146288185D02*
X153817323Y145960535D01*
X154023059Y146628539D02*
X153936695Y146288185D01*
X154078934Y146981596D02*
X154023059Y146628539D01*
X154096720Y147344817D02*
X154078934Y146981596D01*
X154078934Y147710579D02*
X154096720Y147344817D01*
X154023059Y148063636D02*
X154078934Y147710579D01*
X153936695Y148404012D02*
X154023059Y148063636D01*
X153817323Y148729121D02*
X153936695Y148404012D01*
X153667461Y149041548D02*
X153817323Y148729121D01*
X153489651Y149333649D02*
X153667461Y149041548D01*
X153283914Y149607965D02*
X153489651Y149333649D01*
X153055310Y149859435D02*
X153283914Y149607965D01*
X152801321Y150090558D02*
X153055310Y149859435D01*
X152527005Y150293776D02*
X152801321Y150090558D01*
X152234904Y150471564D02*
X152527005Y150293776D01*
X151925018Y150621426D02*
X152234904Y150471564D01*
X151597368Y150740798D02*
X151925018Y150621426D01*
X151256992Y150829703D02*
X151597368Y150740798D01*
X150903934Y150883038D02*
X151256992Y150829703D01*
X150540714Y150900823D02*
X150903934Y150883038D01*
X150850309Y76466693D02*
X150832524Y76141584D01*
X150832524Y76789283D02*
X150850309Y76466693D01*
X150784271Y77106770D02*
X150832524Y76789283D01*
X150708070Y77409034D02*
X150784271Y77106770D01*
X150601380Y77701135D02*
X150708070Y77409034D01*
X150466763Y77977992D02*
X150601380Y77701135D01*
X150306738Y78239625D02*
X150466763Y77977992D01*
X150123868Y78485993D02*
X150306738Y78239625D01*
X149920672Y78709515D02*
X150123868Y78485993D01*
X149694609Y78915251D02*
X149920672Y78709515D01*
X149450761Y79098143D02*
X149694609Y78915251D01*
X149189149Y79258146D02*
X149450761Y79098143D01*
X148909752Y79390244D02*
X149189149Y79258146D01*
X148617651Y79496913D02*
X148909752Y79390244D01*
X148315387Y79575655D02*
X148617651Y79496913D01*
X148000419Y79623908D02*
X148315387Y79575655D01*
X147675309Y79641693D02*
X148000419Y79623908D01*
X147350178Y79623908D02*
X147675309Y79641693D01*
X147035232Y79575655D02*
X147350178Y79623908D01*
X146730427Y79496913D02*
X147035232Y79575655D01*
X146438326Y79390244D02*
X146730427Y79496913D01*
X146161470Y79258146D02*
X146438326Y79390244D01*
X145899836Y79098143D02*
X146161470Y79258146D01*
X145656010Y78915251D02*
X145899836Y79098143D01*
X145429947Y78709515D02*
X145656010Y78915251D01*
X145224210Y78485993D02*
X145429947Y78709515D01*
X145041319Y78239625D02*
X145224210Y78485993D01*
X144883856Y77977992D02*
X145041319Y78239625D01*
X144749218Y77701135D02*
X144883856Y77977992D01*
X144642549Y77409034D02*
X144749218Y77701135D01*
X144563807Y77106770D02*
X144642549Y77409034D01*
X144515554Y76789283D02*
X144563807Y77106770D01*
X144500309Y76466693D02*
X144515554Y76789283D01*
X144515554Y76141584D02*
X144500309Y76466693D01*
X144563807Y75826616D02*
X144515554Y76141584D01*
X144642549Y75521811D02*
X144563807Y75826616D01*
X144749218Y75229710D02*
X144642549Y75521811D01*
X144883856Y74952853D02*
X144749218Y75229710D01*
X145041319Y74691241D02*
X144883856Y74952853D01*
X145224210Y74444853D02*
X145041319Y74691241D01*
X145429947Y74221330D02*
X145224210Y74444853D01*
X145656010Y74015594D02*
X145429947Y74221330D01*
X145899836Y73832724D02*
X145656010Y74015594D01*
X146161470Y73672699D02*
X145899836Y73832724D01*
X146438326Y73540623D02*
X146161470Y73672699D01*
X146730427Y73433932D02*
X146438326Y73540623D01*
X147035232Y73355190D02*
X146730427Y73433932D01*
X147350178Y73306937D02*
X147035232Y73355190D01*
X147675309Y73291693D02*
X147350178Y73306937D01*
X148000419Y73306937D02*
X147675309Y73291693D01*
X148315387Y73355190D02*
X148000419Y73306937D01*
X148617651Y73433932D02*
X148315387Y73355190D01*
X148909752Y73540623D02*
X148617651Y73433932D01*
X149189149Y73672699D02*
X148909752Y73540623D01*
X149450761Y73832724D02*
X149189149Y73672699D01*
X149694609Y74015594D02*
X149450761Y73832724D01*
X149920672Y74221330D02*
X149694609Y74015594D01*
X150123868Y74444853D02*
X149920672Y74221330D01*
X150306738Y74691241D02*
X150123868Y74444853D01*
X150466763Y74952853D02*
X150306738Y74691241D01*
X150601380Y75229710D02*
X150466763Y74952853D01*
X150708070Y75521811D02*
X150601380Y75229710D01*
X150784271Y75826616D02*
X150708070Y75521811D01*
X150832524Y76141584D02*
X150784271Y75826616D01*
X156454382Y61467996D02*
X156436596Y61142887D01*
X156436596Y61790586D02*
X156454382Y61467996D01*
X156388343Y62108073D02*
X156436596Y61790586D01*
X156312142Y62410337D02*
X156388343Y62108073D01*
X156205452Y62702438D02*
X156312142Y62410337D01*
X156070835Y62979295D02*
X156205452Y62702438D01*
X155910810Y63240928D02*
X156070835Y62979295D01*
X155727940Y63487296D02*
X155910810Y63240928D01*
X155524744Y63710818D02*
X155727940Y63487296D01*
X155298681Y63916555D02*
X155524744Y63710818D01*
X155054833Y64099446D02*
X155298681Y63916555D01*
X154793221Y64259449D02*
X155054833Y64099446D01*
X154513824Y64391547D02*
X154793221Y64259449D01*
X154221723Y64498216D02*
X154513824Y64391547D01*
X153919459Y64576958D02*
X154221723Y64498216D01*
X153604491Y64625211D02*
X153919459Y64576958D01*
X153279382Y64642996D02*
X153604491Y64625211D01*
X152954251Y64625211D02*
X153279382Y64642996D01*
X152639304Y64576958D02*
X152954251Y64625211D01*
X152334500Y64498216D02*
X152639304Y64576958D01*
X152042399Y64391547D02*
X152334500Y64498216D01*
X151765542Y64259449D02*
X152042399Y64391547D01*
X151503909Y64099446D02*
X151765542Y64259449D01*
X151260082Y63916555D02*
X151503909Y64099446D01*
X151034019Y63710818D02*
X151260082Y63916555D01*
X150828282Y63487296D02*
X151034019Y63710818D01*
X150645391Y63240928D02*
X150828282Y63487296D01*
X150487928Y62979295D02*
X150645391Y63240928D01*
X150353290Y62702438D02*
X150487928Y62979295D01*
X150246621Y62410337D02*
X150353290Y62702438D01*
X150167879Y62108073D02*
X150246621Y62410337D01*
X150119626Y61790586D02*
X150167879Y62108073D01*
X150104382Y61467996D02*
X150119626Y61790586D01*
X150119626Y61142887D02*
X150104382Y61467996D01*
X150167879Y60827919D02*
X150119626Y61142887D01*
X150246621Y60523114D02*
X150167879Y60827919D01*
X150353290Y60231013D02*
X150246621Y60523114D01*
X150487928Y59954156D02*
X150353290Y60231013D01*
X150645391Y59692545D02*
X150487928Y59954156D01*
X150828282Y59446156D02*
X150645391Y59692545D01*
X151034019Y59222634D02*
X150828282Y59446156D01*
X151260082Y59016897D02*
X151034019Y59222634D01*
X151503909Y58834027D02*
X151260082Y59016897D01*
X151765542Y58674002D02*
X151503909Y58834027D01*
X152042399Y58541926D02*
X151765542Y58674002D01*
X152334500Y58435235D02*
X152042399Y58541926D01*
X152639304Y58356493D02*
X152334500Y58435235D01*
X152954251Y58308241D02*
X152639304Y58356493D01*
X153279382Y58292996D02*
X152954251Y58308241D01*
X153604491Y58308241D02*
X153279382Y58292996D01*
X153919459Y58356493D02*
X153604491Y58308241D01*
X154221723Y58435235D02*
X153919459Y58356493D01*
X154513824Y58541926D02*
X154221723Y58435235D01*
X154793221Y58674002D02*
X154513824Y58541926D01*
X155054833Y58834027D02*
X154793221Y58674002D01*
X155298681Y59016897D02*
X155054833Y58834027D01*
X155524744Y59222634D02*
X155298681Y59016897D01*
X155727940Y59446156D02*
X155524744Y59222634D01*
X155910810Y59692545D02*
X155727940Y59446156D01*
X156070835Y59954156D02*
X155910810Y59692545D01*
X156205452Y60231013D02*
X156070835Y59954156D01*
X156312142Y60523114D02*
X156205452Y60231013D01*
X156388343Y60827919D02*
X156312142Y60523114D01*
X156436596Y61142887D02*
X156388343Y60827919D01*
X150167319Y49095668D02*
X150164778Y49014385D01*
X150154637Y49336954D02*
X150167319Y49095668D01*
X150113985Y49568098D02*
X150154637Y49336954D01*
X150053028Y49783998D02*
X150113985Y49568098D01*
X149966664Y49984653D02*
X150053028Y49783998D01*
X149862536Y50162463D02*
X149966664Y49984653D01*
X149697430Y50368200D02*
X149862536Y50162463D01*
X149504397Y50525684D02*
X149697430Y50368200D01*
X149291038Y50632353D02*
X149504397Y50525684D01*
X149059893Y50680627D02*
X149291038Y50632353D01*
X148998937Y50683168D02*
X149059893Y50680627D01*
X146585927Y50683168D02*
X148998937Y50683168D01*
X146349701Y50650138D02*
X146585927Y50683168D01*
X146131261Y50558692D02*
X146349701Y50650138D01*
X145933146Y50411371D02*
X146131261Y50558692D01*
X145760418Y50218338D02*
X145933146Y50411371D01*
X145648667Y50045610D02*
X145760418Y50218338D01*
X145557222Y49852577D02*
X145648667Y50045610D01*
X145488643Y49641758D02*
X145557222Y49852577D01*
X145440390Y49415696D02*
X145488643Y49641758D01*
X145417523Y49176929D02*
X145440390Y49415696D01*
X145417523Y49095668D02*
X145417523Y49176929D01*
X145430227Y48854360D02*
X145417523Y49095668D01*
X145470857Y48623216D02*
X145430227Y48854360D01*
X145531836Y48407316D02*
X145470857Y48623216D01*
X145615638Y48209202D02*
X145531836Y48407316D01*
X145719787Y48028851D02*
X145615638Y48209202D01*
X145887434Y47823114D02*
X145719787Y48028851D01*
X146077926Y47665630D02*
X145887434Y47823114D01*
X146293826Y47558961D02*
X146077926Y47665630D01*
X146524970Y47510708D02*
X146293826Y47558961D01*
X146585927Y47508168D02*
X146524970Y47510708D01*
X148998937Y47508168D02*
X146585927Y47508168D01*
X149235141Y47541176D02*
X148998937Y47508168D01*
X149453582Y47632622D02*
X149235141Y47541176D01*
X149651718Y47779943D02*
X149453582Y47632622D01*
X149824425Y47972976D02*
X149651718Y47779943D01*
X149936196Y48145704D02*
X149824425Y47972976D01*
X150025080Y48338737D02*
X149936196Y48145704D01*
X150096200Y48549555D02*
X150025080Y48338737D01*
X150144474Y48775618D02*
X150096200Y48549555D01*
X150164778Y49014385D02*
X150144474Y48775618D01*
X150167319Y171371257D02*
X150164778Y171289975D01*
X150154637Y171612543D02*
X150167319Y171371257D01*
X150113985Y171843688D02*
X150154637Y171612543D01*
X150053028Y172059588D02*
X150113985Y171843688D01*
X149966664Y172260243D02*
X150053028Y172059588D01*
X149862536Y172438053D02*
X149966664Y172260243D01*
X149697430Y172643790D02*
X149862536Y172438053D01*
X149504397Y172801274D02*
X149697430Y172643790D01*
X149291038Y172907942D02*
X149504397Y172801274D01*
X149059893Y172956217D02*
X149291038Y172907942D01*
X148998937Y172958757D02*
X149059893Y172956217D01*
X146585927Y172958757D02*
X148998937Y172958757D01*
X146349701Y172925728D02*
X146585927Y172958757D01*
X146131261Y172834282D02*
X146349701Y172925728D01*
X145933146Y172686961D02*
X146131261Y172834282D01*
X145760418Y172493928D02*
X145933146Y172686961D01*
X145648667Y172321200D02*
X145760418Y172493928D01*
X145557222Y172128167D02*
X145648667Y172321200D01*
X145488643Y171917348D02*
X145557222Y172128167D01*
X145440390Y171691285D02*
X145488643Y171917348D01*
X145417523Y171452519D02*
X145440390Y171691285D01*
X145417523Y171371257D02*
X145417523Y171452519D01*
X145430227Y171129950D02*
X145417523Y171371257D01*
X145470857Y170898806D02*
X145430227Y171129950D01*
X145531836Y170682906D02*
X145470857Y170898806D01*
X145615638Y170484791D02*
X145531836Y170682906D01*
X145719787Y170304441D02*
X145615638Y170484791D01*
X145887434Y170098704D02*
X145719787Y170304441D01*
X146077926Y169941220D02*
X145887434Y170098704D01*
X146293826Y169834551D02*
X146077926Y169941220D01*
X146524970Y169786298D02*
X146293826Y169834551D01*
X146585927Y169783757D02*
X146524970Y169786298D01*
X148998937Y169783757D02*
X146585927Y169783757D01*
X149235141Y169816766D02*
X148998937Y169783757D01*
X149453582Y169908212D02*
X149235141Y169816766D01*
X149651718Y170055532D02*
X149453582Y169908212D01*
X149824425Y170248565D02*
X149651718Y170055532D01*
X149936196Y170421294D02*
X149824425Y170248565D01*
X150025080Y170614327D02*
X149936196Y170421294D01*
X150096200Y170825145D02*
X150025080Y170614327D01*
X150144474Y171051208D02*
X150096200Y170825145D01*
X150164778Y171289975D02*
X150144474Y171051208D01*
X160540695Y174368448D02*
X160540695Y46098456D01*
X140540732Y174368448D02*
X160540695Y174368448D01*
X140540732Y46098456D02*
X140540732Y174368448D01*
X160540695Y46098456D02*
X140540732Y46098456D01*
M02*
