%FSLAX45Y45*%
G04 Gerber Fmt 4.5, Leading zero omitted, Abs format (unit mm)*
G04 Created by KiCad (PCBNEW (5.1.10)-1) date 2021-10-20 10:43:21*
%MOMM*%
%LPD*%
G01*
G04 APERTURE LIST*
%TA.AperFunction,Profile*%
%ADD10C,0.500000*%
%TD*%
%ADD11C,0.200000*%
%ADD12C,0.300000*%
G04 APERTURE END LIST*
D10*
X1000000Y-5000000D02*
X1000000Y5000000D01*
X-1000000Y5000000D02*
X-1000000Y-5000000D01*
X-1000000Y5000000D02*
X1000000Y5000000D01*
X-1000000Y-5000000D02*
X1000000Y-5000000D01*
D11*
X-637500Y-570500D02*
X-562500Y-645500D01*
X-562500Y-570500D02*
X-637500Y-645500D01*
X-637500Y-1332500D02*
X-562500Y-1407500D01*
X-562500Y-1332500D02*
X-637500Y-1407500D01*
X-337500Y-570500D02*
X-262500Y-645500D01*
X-262500Y-570500D02*
X-337500Y-645500D01*
X-337500Y-1332500D02*
X-262500Y-1407500D01*
X-262500Y-1332500D02*
X-337500Y-1407500D01*
X-190000Y3882000D02*
X-115000Y3807000D01*
X-115000Y3882000D02*
X-190000Y3807000D01*
X-190000Y3120000D02*
X-115000Y3045000D01*
X-115000Y3120000D02*
X-190000Y3045000D01*
X112500Y3882000D02*
X187500Y3807000D01*
X187500Y3882000D02*
X112500Y3807000D01*
X112500Y3120000D02*
X187500Y3045000D01*
X187500Y3120000D02*
X112500Y3045000D01*
X-710000Y-1870000D02*
G75*
G03*
X-710000Y-1870000I-40000J0D01*
G01*
X-710000Y-2370000D02*
G75*
G03*
X-710000Y-2370000I-40000J0D01*
G01*
X-710000Y-2880000D02*
G75*
G03*
X-710000Y-2880000I-40000J0D01*
G01*
X-710000Y-3134000D02*
G75*
G03*
X-710000Y-3134000I-40000J0D01*
G01*
X-560000Y3600000D02*
G75*
G03*
X-560000Y3600000I-40000J0D01*
G01*
X-560000Y3350000D02*
G75*
G03*
X-560000Y3350000I-40000J0D01*
G01*
X-347000Y-1738000D02*
G75*
G03*
X-347000Y-1738000I-40000J0D01*
G01*
X-347000Y-2500000D02*
G75*
G03*
X-347000Y-2500000I-40000J0D01*
G01*
X-335000Y-2876000D02*
G75*
G03*
X-335000Y-2876000I-40000J0D01*
G01*
X-335000Y-3130000D02*
G75*
G03*
X-335000Y-3130000I-40000J0D01*
G01*
X-93000Y-1738000D02*
G75*
G03*
X-93000Y-1738000I-40000J0D01*
G01*
X-93000Y-2500000D02*
G75*
G03*
X-93000Y-2500000I-40000J0D01*
G01*
X40000Y1330000D02*
G75*
G03*
X40000Y1330000I-40000J0D01*
G01*
X40000Y1130000D02*
G75*
G03*
X40000Y1130000I-40000J0D01*
G01*
X40000Y-1116000D02*
G75*
G03*
X40000Y-1116000I-40000J0D01*
G01*
X40000Y-1370000D02*
G75*
G03*
X40000Y-1370000I-40000J0D01*
G01*
X161000Y-1738000D02*
G75*
G03*
X161000Y-1738000I-40000J0D01*
G01*
X161000Y-2500000D02*
G75*
G03*
X161000Y-2500000I-40000J0D01*
G01*
X415000Y-1116000D02*
G75*
G03*
X415000Y-1116000I-40000J0D01*
G01*
X415000Y-1370000D02*
G75*
G03*
X415000Y-1370000I-40000J0D01*
G01*
X415000Y-1738000D02*
G75*
G03*
X415000Y-1738000I-40000J0D01*
G01*
X415000Y-2500000D02*
G75*
G03*
X415000Y-2500000I-40000J0D01*
G01*
X640000Y3600000D02*
G75*
G03*
X640000Y3600000I-40000J0D01*
G01*
X640000Y3350000D02*
G75*
G03*
X640000Y3350000I-40000J0D01*
G01*
X790000Y-1116000D02*
G75*
G03*
X790000Y-1116000I-40000J0D01*
G01*
X790000Y-1370000D02*
G75*
G03*
X790000Y-1370000I-40000J0D01*
G01*
X790000Y-1870000D02*
G75*
G03*
X790000Y-1870000I-40000J0D01*
G01*
X790000Y-2370000D02*
G75*
G03*
X790000Y-2370000I-40000J0D01*
G01*
X-254000Y1738000D02*
X-254000Y1638000D01*
X-304000Y1688000D02*
X-204000Y1688000D01*
X-4000Y1738000D02*
X-4000Y1638000D01*
X-54000Y1688000D02*
X46000Y1688000D01*
X246000Y1738000D02*
X246000Y1638000D01*
X196000Y1688000D02*
X296000Y1688000D01*
X-473079Y4606479D02*
X-473079Y4678321D01*
X-544921Y4678321D01*
X-544921Y4606479D01*
X-473079Y4606479D01*
X-473079Y4327079D02*
X-473079Y4398921D01*
X-544921Y4398921D01*
X-544921Y4327079D01*
X-473079Y4327079D01*
X-219079Y4606479D02*
X-219079Y4678321D01*
X-290921Y4678321D01*
X-290921Y4606479D01*
X-219079Y4606479D01*
X-219079Y4327079D02*
X-219079Y4398921D01*
X-290921Y4398921D01*
X-290921Y4327079D01*
X-219079Y4327079D01*
X34921Y4606479D02*
X34921Y4678321D01*
X-36921Y4678321D01*
X-36921Y4606479D01*
X34921Y4606479D01*
X34921Y4327079D02*
X34921Y4398921D01*
X-36921Y4398921D01*
X-36921Y4327079D01*
X34921Y4327079D01*
X288921Y4606479D02*
X288921Y4678321D01*
X217079Y4678321D01*
X217079Y4606479D01*
X288921Y4606479D01*
X288921Y4327079D02*
X288921Y4398921D01*
X217079Y4398921D01*
X217079Y4327079D01*
X288921Y4327079D01*
X542921Y4606479D02*
X542921Y4678321D01*
X471079Y4678321D01*
X471079Y4606479D01*
X542921Y4606479D01*
X542921Y4327079D02*
X542921Y4398921D01*
X471079Y4398921D01*
X471079Y4327079D01*
X542921Y4327079D01*
X-484000Y2383000D02*
X-429000Y2438000D01*
X-484000Y2493000D01*
X-539000Y2438000D01*
X-484000Y2383000D01*
X-439000Y2403000D02*
X-439000Y2473000D01*
X-529000Y2403000D02*
X-529000Y2473000D01*
X-439000Y2473000D02*
G75*
G03*
X-529000Y2473000I-45000J0D01*
G01*
X-529000Y2403000D02*
G75*
G03*
X-439000Y2403000I45000J0D01*
G01*
X476000Y2383000D02*
X531000Y2438000D01*
X476000Y2493000D01*
X421000Y2438000D01*
X476000Y2383000D01*
X521000Y2403000D02*
X521000Y2473000D01*
X431000Y2403000D02*
X431000Y2473000D01*
X521000Y2473000D02*
G75*
G03*
X431000Y2473000I-45000J0D01*
G01*
X431000Y2403000D02*
G75*
G03*
X521000Y2403000I45000J0D01*
G01*
X-561000Y-4689000D02*
X-439000Y-4811000D01*
X-439000Y-4689000D02*
X-561000Y-4811000D01*
X-439000Y-4750000D02*
G75*
G03*
X-439000Y-4750000I-61000J0D01*
G01*
X439000Y-4689000D02*
X561000Y-4811000D01*
X561000Y-4689000D02*
X439000Y-4811000D01*
X561000Y-4750000D02*
G75*
G03*
X561000Y-4750000I-61000J0D01*
G01*
X-571000Y-4369000D02*
X-429000Y-4511000D01*
X-429000Y-4369000D02*
X-571000Y-4511000D01*
X-500000Y-4369000D02*
X-500000Y-4511000D01*
X-571000Y-4440000D02*
X-429000Y-4440000D01*
X429000Y-4369000D02*
X571000Y-4511000D01*
X571000Y-4369000D02*
X429000Y-4511000D01*
X500000Y-4369000D02*
X500000Y-4511000D01*
X429000Y-4440000D02*
X571000Y-4440000D01*
X-571500Y-3538500D02*
X-428500Y-3681500D01*
X-428500Y-3538500D02*
X-571500Y-3681500D01*
X-449441Y-3660559D02*
X-449441Y-3559441D01*
X-550559Y-3559441D01*
X-550559Y-3660559D01*
X-449441Y-3660559D01*
X428500Y-3538500D02*
X571500Y-3681500D01*
X571500Y-3538500D02*
X428500Y-3681500D01*
X550559Y-3660559D02*
X550559Y-3559441D01*
X449441Y-3559441D01*
X449441Y-3660559D01*
X550559Y-3660559D01*
X-105000Y795000D02*
X105000Y585000D01*
X105000Y795000D02*
X-105000Y585000D01*
X0Y585000D02*
X105000Y690000D01*
X0Y795000D01*
X-105000Y690000D01*
X0Y585000D01*
X-105000Y325000D02*
X105000Y115000D01*
X105000Y325000D02*
X-105000Y115000D01*
X0Y115000D02*
X105000Y220000D01*
X0Y325000D01*
X-105000Y220000D01*
X0Y115000D01*
X-105000Y-145000D02*
X105000Y-355000D01*
X105000Y-145000D02*
X-105000Y-355000D01*
X0Y-355000D02*
X105000Y-250000D01*
X0Y-145000D01*
X-105000Y-250000D01*
X0Y-355000D01*
D12*
X-738571Y-5490714D02*
X-738571Y-5190714D01*
X-667143Y-5190714D01*
X-624286Y-5205000D01*
X-595714Y-5233572D01*
X-581429Y-5262143D01*
X-567143Y-5319286D01*
X-567143Y-5362143D01*
X-581429Y-5419286D01*
X-595714Y-5447857D01*
X-624286Y-5476429D01*
X-667143Y-5490714D01*
X-738571Y-5490714D01*
X-438571Y-5490714D02*
X-438571Y-5290714D01*
X-438571Y-5347857D02*
X-424286Y-5319286D01*
X-410000Y-5305000D01*
X-381429Y-5290714D01*
X-352857Y-5290714D01*
X-252857Y-5490714D02*
X-252857Y-5290714D01*
X-252857Y-5190714D02*
X-267143Y-5205000D01*
X-252857Y-5219286D01*
X-238571Y-5205000D01*
X-252857Y-5190714D01*
X-252857Y-5219286D01*
X-67143Y-5490714D02*
X-95714Y-5476429D01*
X-110000Y-5447857D01*
X-110000Y-5190714D01*
X90000Y-5490714D02*
X61428Y-5476429D01*
X47143Y-5447857D01*
X47143Y-5190714D01*
X432857Y-5490714D02*
X432857Y-5190714D01*
X532857Y-5405000D01*
X632857Y-5190714D01*
X632857Y-5490714D01*
X904286Y-5490714D02*
X904286Y-5333572D01*
X890000Y-5305000D01*
X861428Y-5290714D01*
X804286Y-5290714D01*
X775714Y-5305000D01*
X904286Y-5476429D02*
X875714Y-5490714D01*
X804286Y-5490714D01*
X775714Y-5476429D01*
X761428Y-5447857D01*
X761428Y-5419286D01*
X775714Y-5390714D01*
X804286Y-5376429D01*
X875714Y-5376429D01*
X904286Y-5362143D01*
X1047143Y-5290714D02*
X1047143Y-5590714D01*
X1047143Y-5305000D02*
X1075714Y-5290714D01*
X1132857Y-5290714D01*
X1161428Y-5305000D01*
X1175714Y-5319286D01*
X1190000Y-5347857D01*
X1190000Y-5433572D01*
X1175714Y-5462143D01*
X1161428Y-5476429D01*
X1132857Y-5490714D01*
X1075714Y-5490714D01*
X1047143Y-5476429D01*
X1318571Y-5462143D02*
X1332857Y-5476429D01*
X1318571Y-5490714D01*
X1304286Y-5476429D01*
X1318571Y-5462143D01*
X1318571Y-5490714D01*
X1318571Y-5305000D02*
X1332857Y-5319286D01*
X1318571Y-5333572D01*
X1304286Y-5319286D01*
X1318571Y-5305000D01*
X1318571Y-5333572D01*
X-1100000Y-5947500D02*
X-1025000Y-6022500D01*
X-1025000Y-5947500D02*
X-1100000Y-6022500D01*
X-681429Y-5820714D02*
X-652857Y-5820714D01*
X-624286Y-5835000D01*
X-610000Y-5849286D01*
X-595714Y-5877857D01*
X-581429Y-5935000D01*
X-581429Y-6006429D01*
X-595714Y-6063571D01*
X-610000Y-6092143D01*
X-624286Y-6106429D01*
X-652857Y-6120714D01*
X-681429Y-6120714D01*
X-710000Y-6106429D01*
X-724286Y-6092143D01*
X-738571Y-6063571D01*
X-752857Y-6006429D01*
X-752857Y-5935000D01*
X-738571Y-5877857D01*
X-724286Y-5849286D01*
X-710000Y-5835000D01*
X-681429Y-5820714D01*
X-452857Y-6092143D02*
X-438571Y-6106429D01*
X-452857Y-6120714D01*
X-467143Y-6106429D01*
X-452857Y-6092143D01*
X-452857Y-6120714D01*
X-338572Y-5820714D02*
X-138572Y-5820714D01*
X-267143Y-6120714D01*
X118571Y-5820714D02*
X-24286Y-5820714D01*
X-38572Y-5963571D01*
X-24286Y-5949286D01*
X4286Y-5935000D01*
X75714Y-5935000D01*
X104286Y-5949286D01*
X118571Y-5963571D01*
X132857Y-5992143D01*
X132857Y-6063571D01*
X118571Y-6092143D01*
X104286Y-6106429D01*
X75714Y-6120714D01*
X4286Y-6120714D01*
X-24286Y-6106429D01*
X-38572Y-6092143D01*
X318571Y-5820714D02*
X347143Y-5820714D01*
X375714Y-5835000D01*
X390000Y-5849286D01*
X404286Y-5877857D01*
X418571Y-5935000D01*
X418571Y-6006429D01*
X404286Y-6063571D01*
X390000Y-6092143D01*
X375714Y-6106429D01*
X347143Y-6120714D01*
X318571Y-6120714D01*
X290000Y-6106429D01*
X275714Y-6092143D01*
X261428Y-6063571D01*
X247143Y-6006429D01*
X247143Y-5935000D01*
X261428Y-5877857D01*
X275714Y-5849286D01*
X290000Y-5835000D01*
X318571Y-5820714D01*
X547143Y-6120714D02*
X547143Y-5920714D01*
X547143Y-5949286D02*
X561428Y-5935000D01*
X590000Y-5920714D01*
X632857Y-5920714D01*
X661428Y-5935000D01*
X675714Y-5963571D01*
X675714Y-6120714D01*
X675714Y-5963571D02*
X690000Y-5935000D01*
X718571Y-5920714D01*
X761428Y-5920714D01*
X790000Y-5935000D01*
X804286Y-5963571D01*
X804286Y-6120714D01*
X947143Y-6120714D02*
X947143Y-5920714D01*
X947143Y-5949286D02*
X961428Y-5935000D01*
X990000Y-5920714D01*
X1032857Y-5920714D01*
X1061428Y-5935000D01*
X1075714Y-5963571D01*
X1075714Y-6120714D01*
X1075714Y-5963571D02*
X1090000Y-5935000D01*
X1118571Y-5920714D01*
X1161428Y-5920714D01*
X1190000Y-5935000D01*
X1204286Y-5963571D01*
X1204286Y-6120714D01*
X1790000Y-5806429D02*
X1532857Y-6192143D01*
X2175714Y-5820714D02*
X2204286Y-5820714D01*
X2232857Y-5835000D01*
X2247143Y-5849286D01*
X2261428Y-5877857D01*
X2275714Y-5935000D01*
X2275714Y-6006429D01*
X2261428Y-6063571D01*
X2247143Y-6092143D01*
X2232857Y-6106429D01*
X2204286Y-6120714D01*
X2175714Y-6120714D01*
X2147143Y-6106429D01*
X2132857Y-6092143D01*
X2118571Y-6063571D01*
X2104286Y-6006429D01*
X2104286Y-5935000D01*
X2118571Y-5877857D01*
X2132857Y-5849286D01*
X2147143Y-5835000D01*
X2175714Y-5820714D01*
X2404286Y-6092143D02*
X2418571Y-6106429D01*
X2404286Y-6120714D01*
X2390000Y-6106429D01*
X2404286Y-6092143D01*
X2404286Y-6120714D01*
X2604286Y-5820714D02*
X2632857Y-5820714D01*
X2661428Y-5835000D01*
X2675714Y-5849286D01*
X2690000Y-5877857D01*
X2704286Y-5935000D01*
X2704286Y-6006429D01*
X2690000Y-6063571D01*
X2675714Y-6092143D01*
X2661428Y-6106429D01*
X2632857Y-6120714D01*
X2604286Y-6120714D01*
X2575714Y-6106429D01*
X2561428Y-6092143D01*
X2547143Y-6063571D01*
X2532857Y-6006429D01*
X2532857Y-5935000D01*
X2547143Y-5877857D01*
X2561428Y-5849286D01*
X2575714Y-5835000D01*
X2604286Y-5820714D01*
X2818571Y-5849286D02*
X2832857Y-5835000D01*
X2861428Y-5820714D01*
X2932857Y-5820714D01*
X2961428Y-5835000D01*
X2975714Y-5849286D01*
X2990000Y-5877857D01*
X2990000Y-5906429D01*
X2975714Y-5949286D01*
X2804286Y-6120714D01*
X2990000Y-6120714D01*
X3132857Y-6120714D02*
X3190000Y-6120714D01*
X3218571Y-6106429D01*
X3232857Y-6092143D01*
X3261428Y-6049286D01*
X3275714Y-5992143D01*
X3275714Y-5877857D01*
X3261428Y-5849286D01*
X3247143Y-5835000D01*
X3218571Y-5820714D01*
X3161428Y-5820714D01*
X3132857Y-5835000D01*
X3118571Y-5849286D01*
X3104286Y-5877857D01*
X3104286Y-5949286D01*
X3118571Y-5977857D01*
X3132857Y-5992143D01*
X3161428Y-6006429D01*
X3218571Y-6006429D01*
X3247143Y-5992143D01*
X3261428Y-5977857D01*
X3275714Y-5949286D01*
X3547143Y-5820714D02*
X3404286Y-5820714D01*
X3390000Y-5963571D01*
X3404286Y-5949286D01*
X3432857Y-5935000D01*
X3504286Y-5935000D01*
X3532857Y-5949286D01*
X3547143Y-5963571D01*
X3561428Y-5992143D01*
X3561428Y-6063571D01*
X3547143Y-6092143D01*
X3532857Y-6106429D01*
X3504286Y-6120714D01*
X3432857Y-6120714D01*
X3404286Y-6106429D01*
X3390000Y-6092143D01*
X3675714Y-5820714D02*
X3675714Y-5877857D01*
X3790000Y-5820714D02*
X3790000Y-5877857D01*
X4232857Y-6235000D02*
X4218571Y-6220714D01*
X4190000Y-6177857D01*
X4175714Y-6149286D01*
X4161428Y-6106429D01*
X4147143Y-6035000D01*
X4147143Y-5977857D01*
X4161428Y-5906429D01*
X4175714Y-5863571D01*
X4190000Y-5835000D01*
X4218571Y-5792143D01*
X4232857Y-5777857D01*
X4390000Y-5949286D02*
X4361428Y-5935000D01*
X4347143Y-5920714D01*
X4332857Y-5892143D01*
X4332857Y-5877857D01*
X4347143Y-5849286D01*
X4361428Y-5835000D01*
X4390000Y-5820714D01*
X4447143Y-5820714D01*
X4475714Y-5835000D01*
X4490000Y-5849286D01*
X4504286Y-5877857D01*
X4504286Y-5892143D01*
X4490000Y-5920714D01*
X4475714Y-5935000D01*
X4447143Y-5949286D01*
X4390000Y-5949286D01*
X4361428Y-5963571D01*
X4347143Y-5977857D01*
X4332857Y-6006429D01*
X4332857Y-6063571D01*
X4347143Y-6092143D01*
X4361428Y-6106429D01*
X4390000Y-6120714D01*
X4447143Y-6120714D01*
X4475714Y-6106429D01*
X4490000Y-6092143D01*
X4504286Y-6063571D01*
X4504286Y-6006429D01*
X4490000Y-5977857D01*
X4475714Y-5963571D01*
X4447143Y-5949286D01*
X4861428Y-6120714D02*
X4861428Y-5820714D01*
X4990000Y-6120714D02*
X4990000Y-5963571D01*
X4975714Y-5935000D01*
X4947143Y-5920714D01*
X4904286Y-5920714D01*
X4875714Y-5935000D01*
X4861428Y-5949286D01*
X5175714Y-6120714D02*
X5147143Y-6106429D01*
X5132857Y-6092143D01*
X5118571Y-6063571D01*
X5118571Y-5977857D01*
X5132857Y-5949286D01*
X5147143Y-5935000D01*
X5175714Y-5920714D01*
X5218571Y-5920714D01*
X5247143Y-5935000D01*
X5261428Y-5949286D01*
X5275714Y-5977857D01*
X5275714Y-6063571D01*
X5261428Y-6092143D01*
X5247143Y-6106429D01*
X5218571Y-6120714D01*
X5175714Y-6120714D01*
X5447143Y-6120714D02*
X5418571Y-6106429D01*
X5404286Y-6077857D01*
X5404286Y-5820714D01*
X5675714Y-6106429D02*
X5647143Y-6120714D01*
X5590000Y-6120714D01*
X5561428Y-6106429D01*
X5547143Y-6077857D01*
X5547143Y-5963571D01*
X5561428Y-5935000D01*
X5590000Y-5920714D01*
X5647143Y-5920714D01*
X5675714Y-5935000D01*
X5690000Y-5963571D01*
X5690000Y-5992143D01*
X5547143Y-6020714D01*
X5804286Y-6106429D02*
X5832857Y-6120714D01*
X5890000Y-6120714D01*
X5918571Y-6106429D01*
X5932857Y-6077857D01*
X5932857Y-6063571D01*
X5918571Y-6035000D01*
X5890000Y-6020714D01*
X5847143Y-6020714D01*
X5818571Y-6006429D01*
X5804286Y-5977857D01*
X5804286Y-5963571D01*
X5818571Y-5935000D01*
X5847143Y-5920714D01*
X5890000Y-5920714D01*
X5918571Y-5935000D01*
X6032857Y-6235000D02*
X6047143Y-6220714D01*
X6075714Y-6177857D01*
X6090000Y-6149286D01*
X6104286Y-6106429D01*
X6118571Y-6035000D01*
X6118571Y-5977857D01*
X6104286Y-5906429D01*
X6090000Y-5863571D01*
X6075714Y-5835000D01*
X6047143Y-5792143D01*
X6032857Y-5777857D01*
X-1025000Y-6381000D02*
G75*
G03*
X-1025000Y-6381000I-40000J0D01*
G01*
X-681429Y-6216714D02*
X-652857Y-6216714D01*
X-624286Y-6231000D01*
X-610000Y-6245286D01*
X-595714Y-6273857D01*
X-581429Y-6331000D01*
X-581429Y-6402429D01*
X-595714Y-6459571D01*
X-610000Y-6488143D01*
X-624286Y-6502429D01*
X-652857Y-6516714D01*
X-681429Y-6516714D01*
X-710000Y-6502429D01*
X-724286Y-6488143D01*
X-738571Y-6459571D01*
X-752857Y-6402429D01*
X-752857Y-6331000D01*
X-738571Y-6273857D01*
X-724286Y-6245286D01*
X-710000Y-6231000D01*
X-681429Y-6216714D01*
X-452857Y-6488143D02*
X-438571Y-6502429D01*
X-452857Y-6516714D01*
X-467143Y-6502429D01*
X-452857Y-6488143D01*
X-452857Y-6516714D01*
X-267143Y-6345286D02*
X-295714Y-6331000D01*
X-310000Y-6316714D01*
X-324286Y-6288143D01*
X-324286Y-6273857D01*
X-310000Y-6245286D01*
X-295714Y-6231000D01*
X-267143Y-6216714D01*
X-210000Y-6216714D01*
X-181429Y-6231000D01*
X-167143Y-6245286D01*
X-152857Y-6273857D01*
X-152857Y-6288143D01*
X-167143Y-6316714D01*
X-181429Y-6331000D01*
X-210000Y-6345286D01*
X-267143Y-6345286D01*
X-295714Y-6359571D01*
X-310000Y-6373857D01*
X-324286Y-6402429D01*
X-324286Y-6459571D01*
X-310000Y-6488143D01*
X-295714Y-6502429D01*
X-267143Y-6516714D01*
X-210000Y-6516714D01*
X-181429Y-6502429D01*
X-167143Y-6488143D01*
X-152857Y-6459571D01*
X-152857Y-6402429D01*
X-167143Y-6373857D01*
X-181429Y-6359571D01*
X-210000Y-6345286D01*
X32857Y-6216714D02*
X61428Y-6216714D01*
X90000Y-6231000D01*
X104286Y-6245286D01*
X118571Y-6273857D01*
X132857Y-6331000D01*
X132857Y-6402429D01*
X118571Y-6459571D01*
X104286Y-6488143D01*
X90000Y-6502429D01*
X61428Y-6516714D01*
X32857Y-6516714D01*
X4286Y-6502429D01*
X-10000Y-6488143D01*
X-24286Y-6459571D01*
X-38572Y-6402429D01*
X-38572Y-6331000D01*
X-24286Y-6273857D01*
X-10000Y-6245286D01*
X4286Y-6231000D01*
X32857Y-6216714D01*
X318571Y-6216714D02*
X347143Y-6216714D01*
X375714Y-6231000D01*
X390000Y-6245286D01*
X404286Y-6273857D01*
X418571Y-6331000D01*
X418571Y-6402429D01*
X404286Y-6459571D01*
X390000Y-6488143D01*
X375714Y-6502429D01*
X347143Y-6516714D01*
X318571Y-6516714D01*
X290000Y-6502429D01*
X275714Y-6488143D01*
X261428Y-6459571D01*
X247143Y-6402429D01*
X247143Y-6331000D01*
X261428Y-6273857D01*
X275714Y-6245286D01*
X290000Y-6231000D01*
X318571Y-6216714D01*
X547143Y-6516714D02*
X547143Y-6316714D01*
X547143Y-6345286D02*
X561428Y-6331000D01*
X590000Y-6316714D01*
X632857Y-6316714D01*
X661428Y-6331000D01*
X675714Y-6359571D01*
X675714Y-6516714D01*
X675714Y-6359571D02*
X690000Y-6331000D01*
X718571Y-6316714D01*
X761428Y-6316714D01*
X790000Y-6331000D01*
X804286Y-6359571D01*
X804286Y-6516714D01*
X947143Y-6516714D02*
X947143Y-6316714D01*
X947143Y-6345286D02*
X961428Y-6331000D01*
X990000Y-6316714D01*
X1032857Y-6316714D01*
X1061428Y-6331000D01*
X1075714Y-6359571D01*
X1075714Y-6516714D01*
X1075714Y-6359571D02*
X1090000Y-6331000D01*
X1118571Y-6316714D01*
X1161428Y-6316714D01*
X1190000Y-6331000D01*
X1204286Y-6359571D01*
X1204286Y-6516714D01*
X1790000Y-6202429D02*
X1532857Y-6588143D01*
X2175714Y-6216714D02*
X2204286Y-6216714D01*
X2232857Y-6231000D01*
X2247143Y-6245286D01*
X2261428Y-6273857D01*
X2275714Y-6331000D01*
X2275714Y-6402429D01*
X2261428Y-6459571D01*
X2247143Y-6488143D01*
X2232857Y-6502429D01*
X2204286Y-6516714D01*
X2175714Y-6516714D01*
X2147143Y-6502429D01*
X2132857Y-6488143D01*
X2118571Y-6459571D01*
X2104286Y-6402429D01*
X2104286Y-6331000D01*
X2118571Y-6273857D01*
X2132857Y-6245286D01*
X2147143Y-6231000D01*
X2175714Y-6216714D01*
X2404286Y-6488143D02*
X2418571Y-6502429D01*
X2404286Y-6516714D01*
X2390000Y-6502429D01*
X2404286Y-6488143D01*
X2404286Y-6516714D01*
X2604286Y-6216714D02*
X2632857Y-6216714D01*
X2661428Y-6231000D01*
X2675714Y-6245286D01*
X2690000Y-6273857D01*
X2704286Y-6331000D01*
X2704286Y-6402429D01*
X2690000Y-6459571D01*
X2675714Y-6488143D01*
X2661428Y-6502429D01*
X2632857Y-6516714D01*
X2604286Y-6516714D01*
X2575714Y-6502429D01*
X2561428Y-6488143D01*
X2547143Y-6459571D01*
X2532857Y-6402429D01*
X2532857Y-6331000D01*
X2547143Y-6273857D01*
X2561428Y-6245286D01*
X2575714Y-6231000D01*
X2604286Y-6216714D01*
X2804286Y-6216714D02*
X2990000Y-6216714D01*
X2890000Y-6331000D01*
X2932857Y-6331000D01*
X2961428Y-6345286D01*
X2975714Y-6359571D01*
X2990000Y-6388143D01*
X2990000Y-6459571D01*
X2975714Y-6488143D01*
X2961428Y-6502429D01*
X2932857Y-6516714D01*
X2847143Y-6516714D01*
X2818571Y-6502429D01*
X2804286Y-6488143D01*
X3275714Y-6516714D02*
X3104286Y-6516714D01*
X3190000Y-6516714D02*
X3190000Y-6216714D01*
X3161428Y-6259571D01*
X3132857Y-6288143D01*
X3104286Y-6302429D01*
X3547143Y-6216714D02*
X3404286Y-6216714D01*
X3390000Y-6359571D01*
X3404286Y-6345286D01*
X3432857Y-6331000D01*
X3504286Y-6331000D01*
X3532857Y-6345286D01*
X3547143Y-6359571D01*
X3561428Y-6388143D01*
X3561428Y-6459571D01*
X3547143Y-6488143D01*
X3532857Y-6502429D01*
X3504286Y-6516714D01*
X3432857Y-6516714D01*
X3404286Y-6502429D01*
X3390000Y-6488143D01*
X3675714Y-6216714D02*
X3675714Y-6273857D01*
X3790000Y-6216714D02*
X3790000Y-6273857D01*
X4232857Y-6631000D02*
X4218571Y-6616714D01*
X4190000Y-6573857D01*
X4175714Y-6545286D01*
X4161428Y-6502429D01*
X4147143Y-6431000D01*
X4147143Y-6373857D01*
X4161428Y-6302429D01*
X4175714Y-6259571D01*
X4190000Y-6231000D01*
X4218571Y-6188143D01*
X4232857Y-6173857D01*
X4332857Y-6245286D02*
X4347143Y-6231000D01*
X4375714Y-6216714D01*
X4447143Y-6216714D01*
X4475714Y-6231000D01*
X4490000Y-6245286D01*
X4504286Y-6273857D01*
X4504286Y-6302429D01*
X4490000Y-6345286D01*
X4318571Y-6516714D01*
X4504286Y-6516714D01*
X4675714Y-6345286D02*
X4647143Y-6331000D01*
X4632857Y-6316714D01*
X4618571Y-6288143D01*
X4618571Y-6273857D01*
X4632857Y-6245286D01*
X4647143Y-6231000D01*
X4675714Y-6216714D01*
X4732857Y-6216714D01*
X4761428Y-6231000D01*
X4775714Y-6245286D01*
X4790000Y-6273857D01*
X4790000Y-6288143D01*
X4775714Y-6316714D01*
X4761428Y-6331000D01*
X4732857Y-6345286D01*
X4675714Y-6345286D01*
X4647143Y-6359571D01*
X4632857Y-6373857D01*
X4618571Y-6402429D01*
X4618571Y-6459571D01*
X4632857Y-6488143D01*
X4647143Y-6502429D01*
X4675714Y-6516714D01*
X4732857Y-6516714D01*
X4761428Y-6502429D01*
X4775714Y-6488143D01*
X4790000Y-6459571D01*
X4790000Y-6402429D01*
X4775714Y-6373857D01*
X4761428Y-6359571D01*
X4732857Y-6345286D01*
X5147143Y-6516714D02*
X5147143Y-6216714D01*
X5275714Y-6516714D02*
X5275714Y-6359571D01*
X5261428Y-6331000D01*
X5232857Y-6316714D01*
X5190000Y-6316714D01*
X5161428Y-6331000D01*
X5147143Y-6345286D01*
X5461428Y-6516714D02*
X5432857Y-6502429D01*
X5418571Y-6488143D01*
X5404286Y-6459571D01*
X5404286Y-6373857D01*
X5418571Y-6345286D01*
X5432857Y-6331000D01*
X5461428Y-6316714D01*
X5504286Y-6316714D01*
X5532857Y-6331000D01*
X5547143Y-6345286D01*
X5561428Y-6373857D01*
X5561428Y-6459571D01*
X5547143Y-6488143D01*
X5532857Y-6502429D01*
X5504286Y-6516714D01*
X5461428Y-6516714D01*
X5732857Y-6516714D02*
X5704286Y-6502429D01*
X5690000Y-6473857D01*
X5690000Y-6216714D01*
X5961428Y-6502429D02*
X5932857Y-6516714D01*
X5875714Y-6516714D01*
X5847143Y-6502429D01*
X5832857Y-6473857D01*
X5832857Y-6359571D01*
X5847143Y-6331000D01*
X5875714Y-6316714D01*
X5932857Y-6316714D01*
X5961428Y-6331000D01*
X5975714Y-6359571D01*
X5975714Y-6388143D01*
X5832857Y-6416714D01*
X6090000Y-6502429D02*
X6118571Y-6516714D01*
X6175714Y-6516714D01*
X6204286Y-6502429D01*
X6218571Y-6473857D01*
X6218571Y-6459571D01*
X6204286Y-6431000D01*
X6175714Y-6416714D01*
X6132857Y-6416714D01*
X6104286Y-6402429D01*
X6090000Y-6373857D01*
X6090000Y-6359571D01*
X6104286Y-6331000D01*
X6132857Y-6316714D01*
X6175714Y-6316714D01*
X6204286Y-6331000D01*
X6318571Y-6631000D02*
X6332857Y-6616714D01*
X6361428Y-6573857D01*
X6375714Y-6545286D01*
X6390000Y-6502429D01*
X6404286Y-6431000D01*
X6404286Y-6373857D01*
X6390000Y-6302429D01*
X6375714Y-6259571D01*
X6361428Y-6231000D01*
X6332857Y-6188143D01*
X6318571Y-6173857D01*
X-1075000Y-6727000D02*
X-1075000Y-6827000D01*
X-1125000Y-6777000D02*
X-1025000Y-6777000D01*
X-581429Y-6912714D02*
X-752857Y-6912714D01*
X-667143Y-6912714D02*
X-667143Y-6612714D01*
X-695714Y-6655571D01*
X-724286Y-6684143D01*
X-752857Y-6698429D01*
X-452857Y-6884143D02*
X-438571Y-6898429D01*
X-452857Y-6912714D01*
X-467143Y-6898429D01*
X-452857Y-6884143D01*
X-452857Y-6912714D01*
X-252857Y-6612714D02*
X-224286Y-6612714D01*
X-195714Y-6627000D01*
X-181429Y-6641286D01*
X-167143Y-6669857D01*
X-152857Y-6727000D01*
X-152857Y-6798429D01*
X-167143Y-6855571D01*
X-181429Y-6884143D01*
X-195714Y-6898429D01*
X-224286Y-6912714D01*
X-252857Y-6912714D01*
X-281429Y-6898429D01*
X-295714Y-6884143D01*
X-310000Y-6855571D01*
X-324286Y-6798429D01*
X-324286Y-6727000D01*
X-310000Y-6669857D01*
X-295714Y-6641286D01*
X-281429Y-6627000D01*
X-252857Y-6612714D01*
X32857Y-6612714D02*
X61428Y-6612714D01*
X90000Y-6627000D01*
X104286Y-6641286D01*
X118571Y-6669857D01*
X132857Y-6727000D01*
X132857Y-6798429D01*
X118571Y-6855571D01*
X104286Y-6884143D01*
X90000Y-6898429D01*
X61428Y-6912714D01*
X32857Y-6912714D01*
X4286Y-6898429D01*
X-10000Y-6884143D01*
X-24286Y-6855571D01*
X-38572Y-6798429D01*
X-38572Y-6727000D01*
X-24286Y-6669857D01*
X-10000Y-6641286D01*
X4286Y-6627000D01*
X32857Y-6612714D01*
X318571Y-6612714D02*
X347143Y-6612714D01*
X375714Y-6627000D01*
X390000Y-6641286D01*
X404286Y-6669857D01*
X418571Y-6727000D01*
X418571Y-6798429D01*
X404286Y-6855571D01*
X390000Y-6884143D01*
X375714Y-6898429D01*
X347143Y-6912714D01*
X318571Y-6912714D01*
X290000Y-6898429D01*
X275714Y-6884143D01*
X261428Y-6855571D01*
X247143Y-6798429D01*
X247143Y-6727000D01*
X261428Y-6669857D01*
X275714Y-6641286D01*
X290000Y-6627000D01*
X318571Y-6612714D01*
X547143Y-6912714D02*
X547143Y-6712714D01*
X547143Y-6741286D02*
X561428Y-6727000D01*
X590000Y-6712714D01*
X632857Y-6712714D01*
X661428Y-6727000D01*
X675714Y-6755571D01*
X675714Y-6912714D01*
X675714Y-6755571D02*
X690000Y-6727000D01*
X718571Y-6712714D01*
X761428Y-6712714D01*
X790000Y-6727000D01*
X804286Y-6755571D01*
X804286Y-6912714D01*
X947143Y-6912714D02*
X947143Y-6712714D01*
X947143Y-6741286D02*
X961428Y-6727000D01*
X990000Y-6712714D01*
X1032857Y-6712714D01*
X1061428Y-6727000D01*
X1075714Y-6755571D01*
X1075714Y-6912714D01*
X1075714Y-6755571D02*
X1090000Y-6727000D01*
X1118571Y-6712714D01*
X1161428Y-6712714D01*
X1190000Y-6727000D01*
X1204286Y-6755571D01*
X1204286Y-6912714D01*
X1790000Y-6598429D02*
X1532857Y-6984143D01*
X2175714Y-6612714D02*
X2204286Y-6612714D01*
X2232857Y-6627000D01*
X2247143Y-6641286D01*
X2261428Y-6669857D01*
X2275714Y-6727000D01*
X2275714Y-6798429D01*
X2261428Y-6855571D01*
X2247143Y-6884143D01*
X2232857Y-6898429D01*
X2204286Y-6912714D01*
X2175714Y-6912714D01*
X2147143Y-6898429D01*
X2132857Y-6884143D01*
X2118571Y-6855571D01*
X2104286Y-6798429D01*
X2104286Y-6727000D01*
X2118571Y-6669857D01*
X2132857Y-6641286D01*
X2147143Y-6627000D01*
X2175714Y-6612714D01*
X2404286Y-6884143D02*
X2418571Y-6898429D01*
X2404286Y-6912714D01*
X2390000Y-6898429D01*
X2404286Y-6884143D01*
X2404286Y-6912714D01*
X2604286Y-6612714D02*
X2632857Y-6612714D01*
X2661428Y-6627000D01*
X2675714Y-6641286D01*
X2690000Y-6669857D01*
X2704286Y-6727000D01*
X2704286Y-6798429D01*
X2690000Y-6855571D01*
X2675714Y-6884143D01*
X2661428Y-6898429D01*
X2632857Y-6912714D01*
X2604286Y-6912714D01*
X2575714Y-6898429D01*
X2561428Y-6884143D01*
X2547143Y-6855571D01*
X2532857Y-6798429D01*
X2532857Y-6727000D01*
X2547143Y-6669857D01*
X2561428Y-6641286D01*
X2575714Y-6627000D01*
X2604286Y-6612714D01*
X2804286Y-6612714D02*
X2990000Y-6612714D01*
X2890000Y-6727000D01*
X2932857Y-6727000D01*
X2961428Y-6741286D01*
X2975714Y-6755571D01*
X2990000Y-6784143D01*
X2990000Y-6855571D01*
X2975714Y-6884143D01*
X2961428Y-6898429D01*
X2932857Y-6912714D01*
X2847143Y-6912714D01*
X2818571Y-6898429D01*
X2804286Y-6884143D01*
X3132857Y-6912714D02*
X3190000Y-6912714D01*
X3218571Y-6898429D01*
X3232857Y-6884143D01*
X3261428Y-6841286D01*
X3275714Y-6784143D01*
X3275714Y-6669857D01*
X3261428Y-6641286D01*
X3247143Y-6627000D01*
X3218571Y-6612714D01*
X3161428Y-6612714D01*
X3132857Y-6627000D01*
X3118571Y-6641286D01*
X3104286Y-6669857D01*
X3104286Y-6741286D01*
X3118571Y-6769857D01*
X3132857Y-6784143D01*
X3161428Y-6798429D01*
X3218571Y-6798429D01*
X3247143Y-6784143D01*
X3261428Y-6769857D01*
X3275714Y-6741286D01*
X3532857Y-6712714D02*
X3532857Y-6912714D01*
X3461428Y-6598429D02*
X3390000Y-6812714D01*
X3575714Y-6812714D01*
X3675714Y-6612714D02*
X3675714Y-6669857D01*
X3790000Y-6612714D02*
X3790000Y-6669857D01*
X4232857Y-7027000D02*
X4218571Y-7012714D01*
X4190000Y-6969857D01*
X4175714Y-6941286D01*
X4161428Y-6898429D01*
X4147143Y-6827000D01*
X4147143Y-6769857D01*
X4161428Y-6698429D01*
X4175714Y-6655571D01*
X4190000Y-6627000D01*
X4218571Y-6584143D01*
X4232857Y-6569857D01*
X4318571Y-6612714D02*
X4504286Y-6612714D01*
X4404286Y-6727000D01*
X4447143Y-6727000D01*
X4475714Y-6741286D01*
X4490000Y-6755571D01*
X4504286Y-6784143D01*
X4504286Y-6855571D01*
X4490000Y-6884143D01*
X4475714Y-6898429D01*
X4447143Y-6912714D01*
X4361428Y-6912714D01*
X4332857Y-6898429D01*
X4318571Y-6884143D01*
X4861428Y-6912714D02*
X4861428Y-6612714D01*
X4990000Y-6912714D02*
X4990000Y-6755571D01*
X4975714Y-6727000D01*
X4947143Y-6712714D01*
X4904286Y-6712714D01*
X4875714Y-6727000D01*
X4861428Y-6741286D01*
X5175714Y-6912714D02*
X5147143Y-6898429D01*
X5132857Y-6884143D01*
X5118571Y-6855571D01*
X5118571Y-6769857D01*
X5132857Y-6741286D01*
X5147143Y-6727000D01*
X5175714Y-6712714D01*
X5218571Y-6712714D01*
X5247143Y-6727000D01*
X5261428Y-6741286D01*
X5275714Y-6769857D01*
X5275714Y-6855571D01*
X5261428Y-6884143D01*
X5247143Y-6898429D01*
X5218571Y-6912714D01*
X5175714Y-6912714D01*
X5447143Y-6912714D02*
X5418571Y-6898429D01*
X5404286Y-6869857D01*
X5404286Y-6612714D01*
X5675714Y-6898429D02*
X5647143Y-6912714D01*
X5590000Y-6912714D01*
X5561428Y-6898429D01*
X5547143Y-6869857D01*
X5547143Y-6755571D01*
X5561428Y-6727000D01*
X5590000Y-6712714D01*
X5647143Y-6712714D01*
X5675714Y-6727000D01*
X5690000Y-6755571D01*
X5690000Y-6784143D01*
X5547143Y-6812714D01*
X5804286Y-6898429D02*
X5832857Y-6912714D01*
X5890000Y-6912714D01*
X5918571Y-6898429D01*
X5932857Y-6869857D01*
X5932857Y-6855571D01*
X5918571Y-6827000D01*
X5890000Y-6812714D01*
X5847143Y-6812714D01*
X5818571Y-6798429D01*
X5804286Y-6769857D01*
X5804286Y-6755571D01*
X5818571Y-6727000D01*
X5847143Y-6712714D01*
X5890000Y-6712714D01*
X5918571Y-6727000D01*
X6032857Y-7027000D02*
X6047143Y-7012714D01*
X6075714Y-6969857D01*
X6090000Y-6941286D01*
X6104286Y-6898429D01*
X6118571Y-6827000D01*
X6118571Y-6769857D01*
X6104286Y-6698429D01*
X6090000Y-6655571D01*
X6075714Y-6627000D01*
X6047143Y-6584143D01*
X6032857Y-6569857D01*
X-1039879Y-7208921D02*
X-1039879Y-7137079D01*
X-1111722Y-7137079D01*
X-1111722Y-7208921D01*
X-1039879Y-7208921D01*
X-581429Y-7308714D02*
X-752857Y-7308714D01*
X-667143Y-7308714D02*
X-667143Y-7008714D01*
X-695714Y-7051571D01*
X-724286Y-7080143D01*
X-752857Y-7094429D01*
X-452857Y-7280143D02*
X-438571Y-7294429D01*
X-452857Y-7308714D01*
X-467143Y-7294429D01*
X-452857Y-7280143D01*
X-452857Y-7308714D01*
X-252857Y-7008714D02*
X-224286Y-7008714D01*
X-195714Y-7023000D01*
X-181429Y-7037286D01*
X-167143Y-7065857D01*
X-152857Y-7123000D01*
X-152857Y-7194429D01*
X-167143Y-7251571D01*
X-181429Y-7280143D01*
X-195714Y-7294429D01*
X-224286Y-7308714D01*
X-252857Y-7308714D01*
X-281429Y-7294429D01*
X-295714Y-7280143D01*
X-310000Y-7251571D01*
X-324286Y-7194429D01*
X-324286Y-7123000D01*
X-310000Y-7065857D01*
X-295714Y-7037286D01*
X-281429Y-7023000D01*
X-252857Y-7008714D01*
X132857Y-7308714D02*
X-38572Y-7308714D01*
X47143Y-7308714D02*
X47143Y-7008714D01*
X18571Y-7051571D01*
X-10000Y-7080143D01*
X-38572Y-7094429D01*
X390000Y-7008714D02*
X332857Y-7008714D01*
X304286Y-7023000D01*
X290000Y-7037286D01*
X261428Y-7080143D01*
X247143Y-7137286D01*
X247143Y-7251571D01*
X261428Y-7280143D01*
X275714Y-7294429D01*
X304286Y-7308714D01*
X361428Y-7308714D01*
X390000Y-7294429D01*
X404286Y-7280143D01*
X418571Y-7251571D01*
X418571Y-7180143D01*
X404286Y-7151571D01*
X390000Y-7137286D01*
X361428Y-7123000D01*
X304286Y-7123000D01*
X275714Y-7137286D01*
X261428Y-7151571D01*
X247143Y-7180143D01*
X547143Y-7308714D02*
X547143Y-7108714D01*
X547143Y-7137286D02*
X561428Y-7123000D01*
X590000Y-7108714D01*
X632857Y-7108714D01*
X661428Y-7123000D01*
X675714Y-7151571D01*
X675714Y-7308714D01*
X675714Y-7151571D02*
X690000Y-7123000D01*
X718571Y-7108714D01*
X761428Y-7108714D01*
X790000Y-7123000D01*
X804286Y-7151571D01*
X804286Y-7308714D01*
X947143Y-7308714D02*
X947143Y-7108714D01*
X947143Y-7137286D02*
X961428Y-7123000D01*
X990000Y-7108714D01*
X1032857Y-7108714D01*
X1061428Y-7123000D01*
X1075714Y-7151571D01*
X1075714Y-7308714D01*
X1075714Y-7151571D02*
X1090000Y-7123000D01*
X1118571Y-7108714D01*
X1161428Y-7108714D01*
X1190000Y-7123000D01*
X1204286Y-7151571D01*
X1204286Y-7308714D01*
X1790000Y-6994429D02*
X1532857Y-7380143D01*
X2175714Y-7008714D02*
X2204286Y-7008714D01*
X2232857Y-7023000D01*
X2247143Y-7037286D01*
X2261428Y-7065857D01*
X2275714Y-7123000D01*
X2275714Y-7194429D01*
X2261428Y-7251571D01*
X2247143Y-7280143D01*
X2232857Y-7294429D01*
X2204286Y-7308714D01*
X2175714Y-7308714D01*
X2147143Y-7294429D01*
X2132857Y-7280143D01*
X2118571Y-7251571D01*
X2104286Y-7194429D01*
X2104286Y-7123000D01*
X2118571Y-7065857D01*
X2132857Y-7037286D01*
X2147143Y-7023000D01*
X2175714Y-7008714D01*
X2404286Y-7280143D02*
X2418571Y-7294429D01*
X2404286Y-7308714D01*
X2390000Y-7294429D01*
X2404286Y-7280143D01*
X2404286Y-7308714D01*
X2604286Y-7008714D02*
X2632857Y-7008714D01*
X2661428Y-7023000D01*
X2675714Y-7037286D01*
X2690000Y-7065857D01*
X2704286Y-7123000D01*
X2704286Y-7194429D01*
X2690000Y-7251571D01*
X2675714Y-7280143D01*
X2661428Y-7294429D01*
X2632857Y-7308714D01*
X2604286Y-7308714D01*
X2575714Y-7294429D01*
X2561428Y-7280143D01*
X2547143Y-7251571D01*
X2532857Y-7194429D01*
X2532857Y-7123000D01*
X2547143Y-7065857D01*
X2561428Y-7037286D01*
X2575714Y-7023000D01*
X2604286Y-7008714D01*
X2961428Y-7108714D02*
X2961428Y-7308714D01*
X2890000Y-6994429D02*
X2818571Y-7208714D01*
X3004286Y-7208714D01*
X3175714Y-7008714D02*
X3204286Y-7008714D01*
X3232857Y-7023000D01*
X3247143Y-7037286D01*
X3261428Y-7065857D01*
X3275714Y-7123000D01*
X3275714Y-7194429D01*
X3261428Y-7251571D01*
X3247143Y-7280143D01*
X3232857Y-7294429D01*
X3204286Y-7308714D01*
X3175714Y-7308714D01*
X3147143Y-7294429D01*
X3132857Y-7280143D01*
X3118571Y-7251571D01*
X3104286Y-7194429D01*
X3104286Y-7123000D01*
X3118571Y-7065857D01*
X3132857Y-7037286D01*
X3147143Y-7023000D01*
X3175714Y-7008714D01*
X3461428Y-7008714D02*
X3490000Y-7008714D01*
X3518571Y-7023000D01*
X3532857Y-7037286D01*
X3547143Y-7065857D01*
X3561428Y-7123000D01*
X3561428Y-7194429D01*
X3547143Y-7251571D01*
X3532857Y-7280143D01*
X3518571Y-7294429D01*
X3490000Y-7308714D01*
X3461428Y-7308714D01*
X3432857Y-7294429D01*
X3418571Y-7280143D01*
X3404286Y-7251571D01*
X3390000Y-7194429D01*
X3390000Y-7123000D01*
X3404286Y-7065857D01*
X3418571Y-7037286D01*
X3432857Y-7023000D01*
X3461428Y-7008714D01*
X3675714Y-7008714D02*
X3675714Y-7065857D01*
X3790000Y-7008714D02*
X3790000Y-7065857D01*
X4232857Y-7423000D02*
X4218571Y-7408714D01*
X4190000Y-7365857D01*
X4175714Y-7337286D01*
X4161428Y-7294429D01*
X4147143Y-7223000D01*
X4147143Y-7165857D01*
X4161428Y-7094429D01*
X4175714Y-7051571D01*
X4190000Y-7023000D01*
X4218571Y-6980143D01*
X4232857Y-6965857D01*
X4504286Y-7308714D02*
X4332857Y-7308714D01*
X4418571Y-7308714D02*
X4418571Y-7008714D01*
X4390000Y-7051571D01*
X4361428Y-7080143D01*
X4332857Y-7094429D01*
X4690000Y-7008714D02*
X4718571Y-7008714D01*
X4747143Y-7023000D01*
X4761428Y-7037286D01*
X4775714Y-7065857D01*
X4790000Y-7123000D01*
X4790000Y-7194429D01*
X4775714Y-7251571D01*
X4761428Y-7280143D01*
X4747143Y-7294429D01*
X4718571Y-7308714D01*
X4690000Y-7308714D01*
X4661428Y-7294429D01*
X4647143Y-7280143D01*
X4632857Y-7251571D01*
X4618571Y-7194429D01*
X4618571Y-7123000D01*
X4632857Y-7065857D01*
X4647143Y-7037286D01*
X4661428Y-7023000D01*
X4690000Y-7008714D01*
X5147143Y-7308714D02*
X5147143Y-7008714D01*
X5275714Y-7308714D02*
X5275714Y-7151571D01*
X5261428Y-7123000D01*
X5232857Y-7108714D01*
X5190000Y-7108714D01*
X5161428Y-7123000D01*
X5147143Y-7137286D01*
X5461428Y-7308714D02*
X5432857Y-7294429D01*
X5418571Y-7280143D01*
X5404286Y-7251571D01*
X5404286Y-7165857D01*
X5418571Y-7137286D01*
X5432857Y-7123000D01*
X5461428Y-7108714D01*
X5504286Y-7108714D01*
X5532857Y-7123000D01*
X5547143Y-7137286D01*
X5561428Y-7165857D01*
X5561428Y-7251571D01*
X5547143Y-7280143D01*
X5532857Y-7294429D01*
X5504286Y-7308714D01*
X5461428Y-7308714D01*
X5732857Y-7308714D02*
X5704286Y-7294429D01*
X5690000Y-7265857D01*
X5690000Y-7008714D01*
X5961428Y-7294429D02*
X5932857Y-7308714D01*
X5875714Y-7308714D01*
X5847143Y-7294429D01*
X5832857Y-7265857D01*
X5832857Y-7151571D01*
X5847143Y-7123000D01*
X5875714Y-7108714D01*
X5932857Y-7108714D01*
X5961428Y-7123000D01*
X5975714Y-7151571D01*
X5975714Y-7180143D01*
X5832857Y-7208714D01*
X6090000Y-7294429D02*
X6118571Y-7308714D01*
X6175714Y-7308714D01*
X6204286Y-7294429D01*
X6218571Y-7265857D01*
X6218571Y-7251571D01*
X6204286Y-7223000D01*
X6175714Y-7208714D01*
X6132857Y-7208714D01*
X6104286Y-7194429D01*
X6090000Y-7165857D01*
X6090000Y-7151571D01*
X6104286Y-7123000D01*
X6132857Y-7108714D01*
X6175714Y-7108714D01*
X6204286Y-7123000D01*
X6318571Y-7423000D02*
X6332857Y-7408714D01*
X6361428Y-7365857D01*
X6375714Y-7337286D01*
X6390000Y-7294429D01*
X6404286Y-7223000D01*
X6404286Y-7165857D01*
X6390000Y-7094429D01*
X6375714Y-7051571D01*
X6361428Y-7023000D01*
X6332857Y-6980143D01*
X6318571Y-6965857D01*
X-1080000Y-7624000D02*
X-1025000Y-7569000D01*
X-1080000Y-7514000D01*
X-1135000Y-7569000D01*
X-1080000Y-7624000D01*
X-581429Y-7704714D02*
X-752857Y-7704714D01*
X-667143Y-7704714D02*
X-667143Y-7404714D01*
X-695714Y-7447571D01*
X-724286Y-7476143D01*
X-752857Y-7490429D01*
X-452857Y-7676143D02*
X-438571Y-7690429D01*
X-452857Y-7704714D01*
X-467143Y-7690429D01*
X-452857Y-7676143D01*
X-452857Y-7704714D01*
X-152857Y-7704714D02*
X-324286Y-7704714D01*
X-238571Y-7704714D02*
X-238571Y-7404714D01*
X-267143Y-7447571D01*
X-295714Y-7476143D01*
X-324286Y-7490429D01*
X32857Y-7404714D02*
X61428Y-7404714D01*
X90000Y-7419000D01*
X104286Y-7433286D01*
X118571Y-7461857D01*
X132857Y-7519000D01*
X132857Y-7590429D01*
X118571Y-7647571D01*
X104286Y-7676143D01*
X90000Y-7690429D01*
X61428Y-7704714D01*
X32857Y-7704714D01*
X4286Y-7690429D01*
X-10000Y-7676143D01*
X-24286Y-7647571D01*
X-38572Y-7590429D01*
X-38572Y-7519000D01*
X-24286Y-7461857D01*
X-10000Y-7433286D01*
X4286Y-7419000D01*
X32857Y-7404714D01*
X318571Y-7404714D02*
X347143Y-7404714D01*
X375714Y-7419000D01*
X390000Y-7433286D01*
X404286Y-7461857D01*
X418571Y-7519000D01*
X418571Y-7590429D01*
X404286Y-7647571D01*
X390000Y-7676143D01*
X375714Y-7690429D01*
X347143Y-7704714D01*
X318571Y-7704714D01*
X290000Y-7690429D01*
X275714Y-7676143D01*
X261428Y-7647571D01*
X247143Y-7590429D01*
X247143Y-7519000D01*
X261428Y-7461857D01*
X275714Y-7433286D01*
X290000Y-7419000D01*
X318571Y-7404714D01*
X547143Y-7704714D02*
X547143Y-7504714D01*
X547143Y-7533286D02*
X561428Y-7519000D01*
X590000Y-7504714D01*
X632857Y-7504714D01*
X661428Y-7519000D01*
X675714Y-7547571D01*
X675714Y-7704714D01*
X675714Y-7547571D02*
X690000Y-7519000D01*
X718571Y-7504714D01*
X761428Y-7504714D01*
X790000Y-7519000D01*
X804286Y-7547571D01*
X804286Y-7704714D01*
X947143Y-7704714D02*
X947143Y-7504714D01*
X947143Y-7533286D02*
X961428Y-7519000D01*
X990000Y-7504714D01*
X1032857Y-7504714D01*
X1061428Y-7519000D01*
X1075714Y-7547571D01*
X1075714Y-7704714D01*
X1075714Y-7547571D02*
X1090000Y-7519000D01*
X1118571Y-7504714D01*
X1161428Y-7504714D01*
X1190000Y-7519000D01*
X1204286Y-7547571D01*
X1204286Y-7704714D01*
X1790000Y-7390429D02*
X1532857Y-7776143D01*
X2175714Y-7404714D02*
X2204286Y-7404714D01*
X2232857Y-7419000D01*
X2247143Y-7433286D01*
X2261428Y-7461857D01*
X2275714Y-7519000D01*
X2275714Y-7590429D01*
X2261428Y-7647571D01*
X2247143Y-7676143D01*
X2232857Y-7690429D01*
X2204286Y-7704714D01*
X2175714Y-7704714D01*
X2147143Y-7690429D01*
X2132857Y-7676143D01*
X2118571Y-7647571D01*
X2104286Y-7590429D01*
X2104286Y-7519000D01*
X2118571Y-7461857D01*
X2132857Y-7433286D01*
X2147143Y-7419000D01*
X2175714Y-7404714D01*
X2404286Y-7676143D02*
X2418571Y-7690429D01*
X2404286Y-7704714D01*
X2390000Y-7690429D01*
X2404286Y-7676143D01*
X2404286Y-7704714D01*
X2604286Y-7404714D02*
X2632857Y-7404714D01*
X2661428Y-7419000D01*
X2675714Y-7433286D01*
X2690000Y-7461857D01*
X2704286Y-7519000D01*
X2704286Y-7590429D01*
X2690000Y-7647571D01*
X2675714Y-7676143D01*
X2661428Y-7690429D01*
X2632857Y-7704714D01*
X2604286Y-7704714D01*
X2575714Y-7690429D01*
X2561428Y-7676143D01*
X2547143Y-7647571D01*
X2532857Y-7590429D01*
X2532857Y-7519000D01*
X2547143Y-7461857D01*
X2561428Y-7433286D01*
X2575714Y-7419000D01*
X2604286Y-7404714D01*
X2961428Y-7504714D02*
X2961428Y-7704714D01*
X2890000Y-7390429D02*
X2818571Y-7604714D01*
X3004286Y-7604714D01*
X3090000Y-7404714D02*
X3275714Y-7404714D01*
X3175714Y-7519000D01*
X3218571Y-7519000D01*
X3247143Y-7533286D01*
X3261428Y-7547571D01*
X3275714Y-7576143D01*
X3275714Y-7647571D01*
X3261428Y-7676143D01*
X3247143Y-7690429D01*
X3218571Y-7704714D01*
X3132857Y-7704714D01*
X3104286Y-7690429D01*
X3090000Y-7676143D01*
X3375714Y-7404714D02*
X3561428Y-7404714D01*
X3461428Y-7519000D01*
X3504286Y-7519000D01*
X3532857Y-7533286D01*
X3547143Y-7547571D01*
X3561428Y-7576143D01*
X3561428Y-7647571D01*
X3547143Y-7676143D01*
X3532857Y-7690429D01*
X3504286Y-7704714D01*
X3418571Y-7704714D01*
X3390000Y-7690429D01*
X3375714Y-7676143D01*
X3675714Y-7404714D02*
X3675714Y-7461857D01*
X3790000Y-7404714D02*
X3790000Y-7461857D01*
X4232857Y-7819000D02*
X4218571Y-7804714D01*
X4190000Y-7761857D01*
X4175714Y-7733286D01*
X4161428Y-7690429D01*
X4147143Y-7619000D01*
X4147143Y-7561857D01*
X4161428Y-7490429D01*
X4175714Y-7447571D01*
X4190000Y-7419000D01*
X4218571Y-7376143D01*
X4232857Y-7361857D01*
X4404286Y-7404714D02*
X4432857Y-7404714D01*
X4461428Y-7419000D01*
X4475714Y-7433286D01*
X4490000Y-7461857D01*
X4504286Y-7519000D01*
X4504286Y-7590429D01*
X4490000Y-7647571D01*
X4475714Y-7676143D01*
X4461428Y-7690429D01*
X4432857Y-7704714D01*
X4404286Y-7704714D01*
X4375714Y-7690429D01*
X4361428Y-7676143D01*
X4347143Y-7647571D01*
X4332857Y-7590429D01*
X4332857Y-7519000D01*
X4347143Y-7461857D01*
X4361428Y-7433286D01*
X4375714Y-7419000D01*
X4404286Y-7404714D01*
X4861428Y-7704714D02*
X4861428Y-7404714D01*
X4990000Y-7704714D02*
X4990000Y-7547571D01*
X4975714Y-7519000D01*
X4947143Y-7504714D01*
X4904286Y-7504714D01*
X4875714Y-7519000D01*
X4861428Y-7533286D01*
X5175714Y-7704714D02*
X5147143Y-7690429D01*
X5132857Y-7676143D01*
X5118571Y-7647571D01*
X5118571Y-7561857D01*
X5132857Y-7533286D01*
X5147143Y-7519000D01*
X5175714Y-7504714D01*
X5218571Y-7504714D01*
X5247143Y-7519000D01*
X5261428Y-7533286D01*
X5275714Y-7561857D01*
X5275714Y-7647571D01*
X5261428Y-7676143D01*
X5247143Y-7690429D01*
X5218571Y-7704714D01*
X5175714Y-7704714D01*
X5447143Y-7704714D02*
X5418571Y-7690429D01*
X5404286Y-7661857D01*
X5404286Y-7404714D01*
X5675714Y-7690429D02*
X5647143Y-7704714D01*
X5590000Y-7704714D01*
X5561428Y-7690429D01*
X5547143Y-7661857D01*
X5547143Y-7547571D01*
X5561428Y-7519000D01*
X5590000Y-7504714D01*
X5647143Y-7504714D01*
X5675714Y-7519000D01*
X5690000Y-7547571D01*
X5690000Y-7576143D01*
X5547143Y-7604714D01*
X5804286Y-7690429D02*
X5832857Y-7704714D01*
X5890000Y-7704714D01*
X5918571Y-7690429D01*
X5932857Y-7661857D01*
X5932857Y-7647571D01*
X5918571Y-7619000D01*
X5890000Y-7604714D01*
X5847143Y-7604714D01*
X5818571Y-7590429D01*
X5804286Y-7561857D01*
X5804286Y-7547571D01*
X5818571Y-7519000D01*
X5847143Y-7504714D01*
X5890000Y-7504714D01*
X5918571Y-7519000D01*
X6290000Y-7590429D02*
X6518571Y-7590429D01*
X6404286Y-7704714D02*
X6404286Y-7476143D01*
X6875714Y-7433286D02*
X6890000Y-7419000D01*
X6918571Y-7404714D01*
X6990000Y-7404714D01*
X7018571Y-7419000D01*
X7032857Y-7433286D01*
X7047143Y-7461857D01*
X7047143Y-7490429D01*
X7032857Y-7533286D01*
X6861428Y-7704714D01*
X7047143Y-7704714D01*
X7390000Y-7690429D02*
X7418571Y-7704714D01*
X7475714Y-7704714D01*
X7504286Y-7690429D01*
X7518571Y-7661857D01*
X7518571Y-7647571D01*
X7504286Y-7619000D01*
X7475714Y-7604714D01*
X7432857Y-7604714D01*
X7404286Y-7590429D01*
X7390000Y-7561857D01*
X7390000Y-7547571D01*
X7404286Y-7519000D01*
X7432857Y-7504714D01*
X7475714Y-7504714D01*
X7504286Y-7519000D01*
X7690000Y-7704714D02*
X7661428Y-7690429D01*
X7647143Y-7661857D01*
X7647143Y-7404714D01*
X7847143Y-7704714D02*
X7818571Y-7690429D01*
X7804286Y-7676143D01*
X7790000Y-7647571D01*
X7790000Y-7561857D01*
X7804286Y-7533286D01*
X7818571Y-7519000D01*
X7847143Y-7504714D01*
X7890000Y-7504714D01*
X7918571Y-7519000D01*
X7932857Y-7533286D01*
X7947143Y-7561857D01*
X7947143Y-7647571D01*
X7932857Y-7676143D01*
X7918571Y-7690429D01*
X7890000Y-7704714D01*
X7847143Y-7704714D01*
X8032857Y-7504714D02*
X8147143Y-7504714D01*
X8075714Y-7404714D02*
X8075714Y-7661857D01*
X8090000Y-7690429D01*
X8118571Y-7704714D01*
X8147143Y-7704714D01*
X8232857Y-7690429D02*
X8261428Y-7704714D01*
X8318571Y-7704714D01*
X8347143Y-7690429D01*
X8361428Y-7661857D01*
X8361428Y-7647571D01*
X8347143Y-7619000D01*
X8318571Y-7604714D01*
X8275714Y-7604714D01*
X8247143Y-7590429D01*
X8232857Y-7561857D01*
X8232857Y-7547571D01*
X8247143Y-7519000D01*
X8275714Y-7504714D01*
X8318571Y-7504714D01*
X8347143Y-7519000D01*
X8461428Y-7819000D02*
X8475714Y-7804714D01*
X8504286Y-7761857D01*
X8518571Y-7733286D01*
X8532857Y-7690429D01*
X8547143Y-7619000D01*
X8547143Y-7561857D01*
X8532857Y-7490429D01*
X8518571Y-7447571D01*
X8504286Y-7419000D01*
X8475714Y-7376143D01*
X8461428Y-7361857D01*
X-1147000Y-7904000D02*
X-1025000Y-8026000D01*
X-1025000Y-7904000D02*
X-1147000Y-8026000D01*
X-1025000Y-7965000D02*
G75*
G03*
X-1025000Y-7965000I-61000J0D01*
G01*
X-581429Y-8100714D02*
X-752857Y-8100714D01*
X-667143Y-8100714D02*
X-667143Y-7800714D01*
X-695714Y-7843571D01*
X-724286Y-7872143D01*
X-752857Y-7886429D01*
X-452857Y-8072143D02*
X-438571Y-8086429D01*
X-452857Y-8100714D01*
X-467143Y-8086429D01*
X-452857Y-8072143D01*
X-452857Y-8100714D01*
X-324286Y-7829286D02*
X-310000Y-7815000D01*
X-281429Y-7800714D01*
X-210000Y-7800714D01*
X-181429Y-7815000D01*
X-167143Y-7829286D01*
X-152857Y-7857857D01*
X-152857Y-7886429D01*
X-167143Y-7929286D01*
X-338572Y-8100714D01*
X-152857Y-8100714D01*
X-38572Y-7829286D02*
X-24286Y-7815000D01*
X4286Y-7800714D01*
X75714Y-7800714D01*
X104286Y-7815000D01*
X118571Y-7829286D01*
X132857Y-7857857D01*
X132857Y-7886429D01*
X118571Y-7929286D01*
X-52857Y-8100714D01*
X132857Y-8100714D01*
X318571Y-7800714D02*
X347143Y-7800714D01*
X375714Y-7815000D01*
X390000Y-7829286D01*
X404286Y-7857857D01*
X418571Y-7915000D01*
X418571Y-7986429D01*
X404286Y-8043571D01*
X390000Y-8072143D01*
X375714Y-8086429D01*
X347143Y-8100714D01*
X318571Y-8100714D01*
X290000Y-8086429D01*
X275714Y-8072143D01*
X261428Y-8043571D01*
X247143Y-7986429D01*
X247143Y-7915000D01*
X261428Y-7857857D01*
X275714Y-7829286D01*
X290000Y-7815000D01*
X318571Y-7800714D01*
X547143Y-8100714D02*
X547143Y-7900714D01*
X547143Y-7929286D02*
X561428Y-7915000D01*
X590000Y-7900714D01*
X632857Y-7900714D01*
X661428Y-7915000D01*
X675714Y-7943571D01*
X675714Y-8100714D01*
X675714Y-7943571D02*
X690000Y-7915000D01*
X718571Y-7900714D01*
X761428Y-7900714D01*
X790000Y-7915000D01*
X804286Y-7943571D01*
X804286Y-8100714D01*
X947143Y-8100714D02*
X947143Y-7900714D01*
X947143Y-7929286D02*
X961428Y-7915000D01*
X990000Y-7900714D01*
X1032857Y-7900714D01*
X1061428Y-7915000D01*
X1075714Y-7943571D01*
X1075714Y-8100714D01*
X1075714Y-7943571D02*
X1090000Y-7915000D01*
X1118571Y-7900714D01*
X1161428Y-7900714D01*
X1190000Y-7915000D01*
X1204286Y-7943571D01*
X1204286Y-8100714D01*
X1790000Y-7786429D02*
X1532857Y-8172143D01*
X2175714Y-7800714D02*
X2204286Y-7800714D01*
X2232857Y-7815000D01*
X2247143Y-7829286D01*
X2261428Y-7857857D01*
X2275714Y-7915000D01*
X2275714Y-7986429D01*
X2261428Y-8043571D01*
X2247143Y-8072143D01*
X2232857Y-8086429D01*
X2204286Y-8100714D01*
X2175714Y-8100714D01*
X2147143Y-8086429D01*
X2132857Y-8072143D01*
X2118571Y-8043571D01*
X2104286Y-7986429D01*
X2104286Y-7915000D01*
X2118571Y-7857857D01*
X2132857Y-7829286D01*
X2147143Y-7815000D01*
X2175714Y-7800714D01*
X2404286Y-8072143D02*
X2418571Y-8086429D01*
X2404286Y-8100714D01*
X2390000Y-8086429D01*
X2404286Y-8072143D01*
X2404286Y-8100714D01*
X2604286Y-7800714D02*
X2632857Y-7800714D01*
X2661428Y-7815000D01*
X2675714Y-7829286D01*
X2690000Y-7857857D01*
X2704286Y-7915000D01*
X2704286Y-7986429D01*
X2690000Y-8043571D01*
X2675714Y-8072143D01*
X2661428Y-8086429D01*
X2632857Y-8100714D01*
X2604286Y-8100714D01*
X2575714Y-8086429D01*
X2561428Y-8072143D01*
X2547143Y-8043571D01*
X2532857Y-7986429D01*
X2532857Y-7915000D01*
X2547143Y-7857857D01*
X2561428Y-7829286D01*
X2575714Y-7815000D01*
X2604286Y-7800714D01*
X2961428Y-7900714D02*
X2961428Y-8100714D01*
X2890000Y-7786429D02*
X2818571Y-8000714D01*
X3004286Y-8000714D01*
X3161428Y-7929286D02*
X3132857Y-7915000D01*
X3118571Y-7900714D01*
X3104286Y-7872143D01*
X3104286Y-7857857D01*
X3118571Y-7829286D01*
X3132857Y-7815000D01*
X3161428Y-7800714D01*
X3218571Y-7800714D01*
X3247143Y-7815000D01*
X3261428Y-7829286D01*
X3275714Y-7857857D01*
X3275714Y-7872143D01*
X3261428Y-7900714D01*
X3247143Y-7915000D01*
X3218571Y-7929286D01*
X3161428Y-7929286D01*
X3132857Y-7943571D01*
X3118571Y-7957857D01*
X3104286Y-7986429D01*
X3104286Y-8043571D01*
X3118571Y-8072143D01*
X3132857Y-8086429D01*
X3161428Y-8100714D01*
X3218571Y-8100714D01*
X3247143Y-8086429D01*
X3261428Y-8072143D01*
X3275714Y-8043571D01*
X3275714Y-7986429D01*
X3261428Y-7957857D01*
X3247143Y-7943571D01*
X3218571Y-7929286D01*
X3461428Y-7800714D02*
X3490000Y-7800714D01*
X3518571Y-7815000D01*
X3532857Y-7829286D01*
X3547143Y-7857857D01*
X3561428Y-7915000D01*
X3561428Y-7986429D01*
X3547143Y-8043571D01*
X3532857Y-8072143D01*
X3518571Y-8086429D01*
X3490000Y-8100714D01*
X3461428Y-8100714D01*
X3432857Y-8086429D01*
X3418571Y-8072143D01*
X3404286Y-8043571D01*
X3390000Y-7986429D01*
X3390000Y-7915000D01*
X3404286Y-7857857D01*
X3418571Y-7829286D01*
X3432857Y-7815000D01*
X3461428Y-7800714D01*
X3675714Y-7800714D02*
X3675714Y-7857857D01*
X3790000Y-7800714D02*
X3790000Y-7857857D01*
X4232857Y-8215000D02*
X4218571Y-8200714D01*
X4190000Y-8157857D01*
X4175714Y-8129286D01*
X4161428Y-8086429D01*
X4147143Y-8015000D01*
X4147143Y-7957857D01*
X4161428Y-7886429D01*
X4175714Y-7843571D01*
X4190000Y-7815000D01*
X4218571Y-7772143D01*
X4232857Y-7757857D01*
X4332857Y-7829286D02*
X4347143Y-7815000D01*
X4375714Y-7800714D01*
X4447143Y-7800714D01*
X4475714Y-7815000D01*
X4490000Y-7829286D01*
X4504286Y-7857857D01*
X4504286Y-7886429D01*
X4490000Y-7929286D01*
X4318571Y-8100714D01*
X4504286Y-8100714D01*
X4861428Y-8100714D02*
X4861428Y-7800714D01*
X4990000Y-8100714D02*
X4990000Y-7943571D01*
X4975714Y-7915000D01*
X4947143Y-7900714D01*
X4904286Y-7900714D01*
X4875714Y-7915000D01*
X4861428Y-7929286D01*
X5175714Y-8100714D02*
X5147143Y-8086429D01*
X5132857Y-8072143D01*
X5118571Y-8043571D01*
X5118571Y-7957857D01*
X5132857Y-7929286D01*
X5147143Y-7915000D01*
X5175714Y-7900714D01*
X5218571Y-7900714D01*
X5247143Y-7915000D01*
X5261428Y-7929286D01*
X5275714Y-7957857D01*
X5275714Y-8043571D01*
X5261428Y-8072143D01*
X5247143Y-8086429D01*
X5218571Y-8100714D01*
X5175714Y-8100714D01*
X5447143Y-8100714D02*
X5418571Y-8086429D01*
X5404286Y-8057857D01*
X5404286Y-7800714D01*
X5675714Y-8086429D02*
X5647143Y-8100714D01*
X5590000Y-8100714D01*
X5561428Y-8086429D01*
X5547143Y-8057857D01*
X5547143Y-7943571D01*
X5561428Y-7915000D01*
X5590000Y-7900714D01*
X5647143Y-7900714D01*
X5675714Y-7915000D01*
X5690000Y-7943571D01*
X5690000Y-7972143D01*
X5547143Y-8000714D01*
X5804286Y-8086429D02*
X5832857Y-8100714D01*
X5890000Y-8100714D01*
X5918571Y-8086429D01*
X5932857Y-8057857D01*
X5932857Y-8043571D01*
X5918571Y-8015000D01*
X5890000Y-8000714D01*
X5847143Y-8000714D01*
X5818571Y-7986429D01*
X5804286Y-7957857D01*
X5804286Y-7943571D01*
X5818571Y-7915000D01*
X5847143Y-7900714D01*
X5890000Y-7900714D01*
X5918571Y-7915000D01*
X6032857Y-8215000D02*
X6047143Y-8200714D01*
X6075714Y-8157857D01*
X6090000Y-8129286D01*
X6104286Y-8086429D01*
X6118571Y-8015000D01*
X6118571Y-7957857D01*
X6104286Y-7886429D01*
X6090000Y-7843571D01*
X6075714Y-7815000D01*
X6047143Y-7772143D01*
X6032857Y-7757857D01*
X-1167000Y-8290000D02*
X-1025000Y-8432000D01*
X-1025000Y-8290000D02*
X-1167000Y-8432000D01*
X-1096000Y-8290000D02*
X-1096000Y-8432000D01*
X-1167000Y-8361000D02*
X-1025000Y-8361000D01*
X-581429Y-8496714D02*
X-752857Y-8496714D01*
X-667143Y-8496714D02*
X-667143Y-8196714D01*
X-695714Y-8239571D01*
X-724286Y-8268143D01*
X-752857Y-8282429D01*
X-452857Y-8468143D02*
X-438571Y-8482429D01*
X-452857Y-8496714D01*
X-467143Y-8482429D01*
X-452857Y-8468143D01*
X-452857Y-8496714D01*
X-181429Y-8296714D02*
X-181429Y-8496714D01*
X-252857Y-8182429D02*
X-324286Y-8396714D01*
X-138572Y-8396714D01*
X-38572Y-8225286D02*
X-24286Y-8211000D01*
X4286Y-8196714D01*
X75714Y-8196714D01*
X104286Y-8211000D01*
X118571Y-8225286D01*
X132857Y-8253857D01*
X132857Y-8282429D01*
X118571Y-8325286D01*
X-52857Y-8496714D01*
X132857Y-8496714D01*
X318571Y-8196714D02*
X347143Y-8196714D01*
X375714Y-8211000D01*
X390000Y-8225286D01*
X404286Y-8253857D01*
X418571Y-8311000D01*
X418571Y-8382429D01*
X404286Y-8439572D01*
X390000Y-8468143D01*
X375714Y-8482429D01*
X347143Y-8496714D01*
X318571Y-8496714D01*
X290000Y-8482429D01*
X275714Y-8468143D01*
X261428Y-8439572D01*
X247143Y-8382429D01*
X247143Y-8311000D01*
X261428Y-8253857D01*
X275714Y-8225286D01*
X290000Y-8211000D01*
X318571Y-8196714D01*
X547143Y-8496714D02*
X547143Y-8296714D01*
X547143Y-8325286D02*
X561428Y-8311000D01*
X590000Y-8296714D01*
X632857Y-8296714D01*
X661428Y-8311000D01*
X675714Y-8339571D01*
X675714Y-8496714D01*
X675714Y-8339571D02*
X690000Y-8311000D01*
X718571Y-8296714D01*
X761428Y-8296714D01*
X790000Y-8311000D01*
X804286Y-8339571D01*
X804286Y-8496714D01*
X947143Y-8496714D02*
X947143Y-8296714D01*
X947143Y-8325286D02*
X961428Y-8311000D01*
X990000Y-8296714D01*
X1032857Y-8296714D01*
X1061428Y-8311000D01*
X1075714Y-8339571D01*
X1075714Y-8496714D01*
X1075714Y-8339571D02*
X1090000Y-8311000D01*
X1118571Y-8296714D01*
X1161428Y-8296714D01*
X1190000Y-8311000D01*
X1204286Y-8339571D01*
X1204286Y-8496714D01*
X1790000Y-8182429D02*
X1532857Y-8568143D01*
X2175714Y-8196714D02*
X2204286Y-8196714D01*
X2232857Y-8211000D01*
X2247143Y-8225286D01*
X2261428Y-8253857D01*
X2275714Y-8311000D01*
X2275714Y-8382429D01*
X2261428Y-8439572D01*
X2247143Y-8468143D01*
X2232857Y-8482429D01*
X2204286Y-8496714D01*
X2175714Y-8496714D01*
X2147143Y-8482429D01*
X2132857Y-8468143D01*
X2118571Y-8439572D01*
X2104286Y-8382429D01*
X2104286Y-8311000D01*
X2118571Y-8253857D01*
X2132857Y-8225286D01*
X2147143Y-8211000D01*
X2175714Y-8196714D01*
X2404286Y-8468143D02*
X2418571Y-8482429D01*
X2404286Y-8496714D01*
X2390000Y-8482429D01*
X2404286Y-8468143D01*
X2404286Y-8496714D01*
X2604286Y-8196714D02*
X2632857Y-8196714D01*
X2661428Y-8211000D01*
X2675714Y-8225286D01*
X2690000Y-8253857D01*
X2704286Y-8311000D01*
X2704286Y-8382429D01*
X2690000Y-8439572D01*
X2675714Y-8468143D01*
X2661428Y-8482429D01*
X2632857Y-8496714D01*
X2604286Y-8496714D01*
X2575714Y-8482429D01*
X2561428Y-8468143D01*
X2547143Y-8439572D01*
X2532857Y-8382429D01*
X2532857Y-8311000D01*
X2547143Y-8253857D01*
X2561428Y-8225286D01*
X2575714Y-8211000D01*
X2604286Y-8196714D01*
X2975714Y-8196714D02*
X2832857Y-8196714D01*
X2818571Y-8339571D01*
X2832857Y-8325286D01*
X2861428Y-8311000D01*
X2932857Y-8311000D01*
X2961428Y-8325286D01*
X2975714Y-8339571D01*
X2990000Y-8368143D01*
X2990000Y-8439572D01*
X2975714Y-8468143D01*
X2961428Y-8482429D01*
X2932857Y-8496714D01*
X2861428Y-8496714D01*
X2832857Y-8482429D01*
X2818571Y-8468143D01*
X3261428Y-8196714D02*
X3118571Y-8196714D01*
X3104286Y-8339571D01*
X3118571Y-8325286D01*
X3147143Y-8311000D01*
X3218571Y-8311000D01*
X3247143Y-8325286D01*
X3261428Y-8339571D01*
X3275714Y-8368143D01*
X3275714Y-8439572D01*
X3261428Y-8468143D01*
X3247143Y-8482429D01*
X3218571Y-8496714D01*
X3147143Y-8496714D01*
X3118571Y-8482429D01*
X3104286Y-8468143D01*
X3418571Y-8496714D02*
X3475714Y-8496714D01*
X3504286Y-8482429D01*
X3518571Y-8468143D01*
X3547143Y-8425286D01*
X3561428Y-8368143D01*
X3561428Y-8253857D01*
X3547143Y-8225286D01*
X3532857Y-8211000D01*
X3504286Y-8196714D01*
X3447143Y-8196714D01*
X3418571Y-8211000D01*
X3404286Y-8225286D01*
X3390000Y-8253857D01*
X3390000Y-8325286D01*
X3404286Y-8353857D01*
X3418571Y-8368143D01*
X3447143Y-8382429D01*
X3504286Y-8382429D01*
X3532857Y-8368143D01*
X3547143Y-8353857D01*
X3561428Y-8325286D01*
X3675714Y-8196714D02*
X3675714Y-8253857D01*
X3790000Y-8196714D02*
X3790000Y-8253857D01*
X4232857Y-8611000D02*
X4218571Y-8596714D01*
X4190000Y-8553857D01*
X4175714Y-8525286D01*
X4161428Y-8482429D01*
X4147143Y-8411000D01*
X4147143Y-8353857D01*
X4161428Y-8282429D01*
X4175714Y-8239571D01*
X4190000Y-8211000D01*
X4218571Y-8168143D01*
X4232857Y-8153857D01*
X4332857Y-8225286D02*
X4347143Y-8211000D01*
X4375714Y-8196714D01*
X4447143Y-8196714D01*
X4475714Y-8211000D01*
X4490000Y-8225286D01*
X4504286Y-8253857D01*
X4504286Y-8282429D01*
X4490000Y-8325286D01*
X4318571Y-8496714D01*
X4504286Y-8496714D01*
X4861428Y-8496714D02*
X4861428Y-8196714D01*
X4990000Y-8496714D02*
X4990000Y-8339571D01*
X4975714Y-8311000D01*
X4947143Y-8296714D01*
X4904286Y-8296714D01*
X4875714Y-8311000D01*
X4861428Y-8325286D01*
X5175714Y-8496714D02*
X5147143Y-8482429D01*
X5132857Y-8468143D01*
X5118571Y-8439572D01*
X5118571Y-8353857D01*
X5132857Y-8325286D01*
X5147143Y-8311000D01*
X5175714Y-8296714D01*
X5218571Y-8296714D01*
X5247143Y-8311000D01*
X5261428Y-8325286D01*
X5275714Y-8353857D01*
X5275714Y-8439572D01*
X5261428Y-8468143D01*
X5247143Y-8482429D01*
X5218571Y-8496714D01*
X5175714Y-8496714D01*
X5447143Y-8496714D02*
X5418571Y-8482429D01*
X5404286Y-8453857D01*
X5404286Y-8196714D01*
X5675714Y-8482429D02*
X5647143Y-8496714D01*
X5590000Y-8496714D01*
X5561428Y-8482429D01*
X5547143Y-8453857D01*
X5547143Y-8339571D01*
X5561428Y-8311000D01*
X5590000Y-8296714D01*
X5647143Y-8296714D01*
X5675714Y-8311000D01*
X5690000Y-8339571D01*
X5690000Y-8368143D01*
X5547143Y-8396714D01*
X5804286Y-8482429D02*
X5832857Y-8496714D01*
X5890000Y-8496714D01*
X5918571Y-8482429D01*
X5932857Y-8453857D01*
X5932857Y-8439572D01*
X5918571Y-8411000D01*
X5890000Y-8396714D01*
X5847143Y-8396714D01*
X5818571Y-8382429D01*
X5804286Y-8353857D01*
X5804286Y-8339571D01*
X5818571Y-8311000D01*
X5847143Y-8296714D01*
X5890000Y-8296714D01*
X5918571Y-8311000D01*
X6032857Y-8611000D02*
X6047143Y-8596714D01*
X6075714Y-8553857D01*
X6090000Y-8525286D01*
X6104286Y-8482429D01*
X6118571Y-8411000D01*
X6118571Y-8353857D01*
X6104286Y-8282429D01*
X6090000Y-8239571D01*
X6075714Y-8211000D01*
X6047143Y-8168143D01*
X6032857Y-8153857D01*
X-1168000Y-8685500D02*
X-1025000Y-8828500D01*
X-1025000Y-8685500D02*
X-1168000Y-8828500D01*
X-1045941Y-8807559D02*
X-1045941Y-8706442D01*
X-1147059Y-8706442D01*
X-1147059Y-8807559D01*
X-1045941Y-8807559D01*
X-581429Y-8892714D02*
X-752857Y-8892714D01*
X-667143Y-8892714D02*
X-667143Y-8592714D01*
X-695714Y-8635572D01*
X-724286Y-8664143D01*
X-752857Y-8678429D01*
X-452857Y-8864143D02*
X-438571Y-8878429D01*
X-452857Y-8892714D01*
X-467143Y-8878429D01*
X-452857Y-8864143D01*
X-452857Y-8892714D01*
X-181429Y-8692714D02*
X-181429Y-8892714D01*
X-252857Y-8578429D02*
X-324286Y-8792714D01*
X-138572Y-8792714D01*
X-52857Y-8592714D02*
X132857Y-8592714D01*
X32857Y-8707000D01*
X75714Y-8707000D01*
X104286Y-8721286D01*
X118571Y-8735572D01*
X132857Y-8764143D01*
X132857Y-8835572D01*
X118571Y-8864143D01*
X104286Y-8878429D01*
X75714Y-8892714D01*
X-10000Y-8892714D01*
X-38572Y-8878429D01*
X-52857Y-8864143D01*
X318571Y-8592714D02*
X347143Y-8592714D01*
X375714Y-8607000D01*
X390000Y-8621286D01*
X404286Y-8649857D01*
X418571Y-8707000D01*
X418571Y-8778429D01*
X404286Y-8835572D01*
X390000Y-8864143D01*
X375714Y-8878429D01*
X347143Y-8892714D01*
X318571Y-8892714D01*
X290000Y-8878429D01*
X275714Y-8864143D01*
X261428Y-8835572D01*
X247143Y-8778429D01*
X247143Y-8707000D01*
X261428Y-8649857D01*
X275714Y-8621286D01*
X290000Y-8607000D01*
X318571Y-8592714D01*
X547143Y-8892714D02*
X547143Y-8692714D01*
X547143Y-8721286D02*
X561428Y-8707000D01*
X590000Y-8692714D01*
X632857Y-8692714D01*
X661428Y-8707000D01*
X675714Y-8735572D01*
X675714Y-8892714D01*
X675714Y-8735572D02*
X690000Y-8707000D01*
X718571Y-8692714D01*
X761428Y-8692714D01*
X790000Y-8707000D01*
X804286Y-8735572D01*
X804286Y-8892714D01*
X947143Y-8892714D02*
X947143Y-8692714D01*
X947143Y-8721286D02*
X961428Y-8707000D01*
X990000Y-8692714D01*
X1032857Y-8692714D01*
X1061428Y-8707000D01*
X1075714Y-8735572D01*
X1075714Y-8892714D01*
X1075714Y-8735572D02*
X1090000Y-8707000D01*
X1118571Y-8692714D01*
X1161428Y-8692714D01*
X1190000Y-8707000D01*
X1204286Y-8735572D01*
X1204286Y-8892714D01*
X1790000Y-8578429D02*
X1532857Y-8964143D01*
X2175714Y-8592714D02*
X2204286Y-8592714D01*
X2232857Y-8607000D01*
X2247143Y-8621286D01*
X2261428Y-8649857D01*
X2275714Y-8707000D01*
X2275714Y-8778429D01*
X2261428Y-8835572D01*
X2247143Y-8864143D01*
X2232857Y-8878429D01*
X2204286Y-8892714D01*
X2175714Y-8892714D01*
X2147143Y-8878429D01*
X2132857Y-8864143D01*
X2118571Y-8835572D01*
X2104286Y-8778429D01*
X2104286Y-8707000D01*
X2118571Y-8649857D01*
X2132857Y-8621286D01*
X2147143Y-8607000D01*
X2175714Y-8592714D01*
X2404286Y-8864143D02*
X2418571Y-8878429D01*
X2404286Y-8892714D01*
X2390000Y-8878429D01*
X2404286Y-8864143D01*
X2404286Y-8892714D01*
X2604286Y-8592714D02*
X2632857Y-8592714D01*
X2661428Y-8607000D01*
X2675714Y-8621286D01*
X2690000Y-8649857D01*
X2704286Y-8707000D01*
X2704286Y-8778429D01*
X2690000Y-8835572D01*
X2675714Y-8864143D01*
X2661428Y-8878429D01*
X2632857Y-8892714D01*
X2604286Y-8892714D01*
X2575714Y-8878429D01*
X2561428Y-8864143D01*
X2547143Y-8835572D01*
X2532857Y-8778429D01*
X2532857Y-8707000D01*
X2547143Y-8649857D01*
X2561428Y-8621286D01*
X2575714Y-8607000D01*
X2604286Y-8592714D01*
X2975714Y-8592714D02*
X2832857Y-8592714D01*
X2818571Y-8735572D01*
X2832857Y-8721286D01*
X2861428Y-8707000D01*
X2932857Y-8707000D01*
X2961428Y-8721286D01*
X2975714Y-8735572D01*
X2990000Y-8764143D01*
X2990000Y-8835572D01*
X2975714Y-8864143D01*
X2961428Y-8878429D01*
X2932857Y-8892714D01*
X2861428Y-8892714D01*
X2832857Y-8878429D01*
X2818571Y-8864143D01*
X3247143Y-8592714D02*
X3190000Y-8592714D01*
X3161428Y-8607000D01*
X3147143Y-8621286D01*
X3118571Y-8664143D01*
X3104286Y-8721286D01*
X3104286Y-8835572D01*
X3118571Y-8864143D01*
X3132857Y-8878429D01*
X3161428Y-8892714D01*
X3218571Y-8892714D01*
X3247143Y-8878429D01*
X3261428Y-8864143D01*
X3275714Y-8835572D01*
X3275714Y-8764143D01*
X3261428Y-8735572D01*
X3247143Y-8721286D01*
X3218571Y-8707000D01*
X3161428Y-8707000D01*
X3132857Y-8721286D01*
X3118571Y-8735572D01*
X3104286Y-8764143D01*
X3375714Y-8592714D02*
X3561428Y-8592714D01*
X3461428Y-8707000D01*
X3504286Y-8707000D01*
X3532857Y-8721286D01*
X3547143Y-8735572D01*
X3561428Y-8764143D01*
X3561428Y-8835572D01*
X3547143Y-8864143D01*
X3532857Y-8878429D01*
X3504286Y-8892714D01*
X3418571Y-8892714D01*
X3390000Y-8878429D01*
X3375714Y-8864143D01*
X3675714Y-8592714D02*
X3675714Y-8649857D01*
X3790000Y-8592714D02*
X3790000Y-8649857D01*
X4232857Y-9007000D02*
X4218571Y-8992714D01*
X4190000Y-8949857D01*
X4175714Y-8921286D01*
X4161428Y-8878429D01*
X4147143Y-8807000D01*
X4147143Y-8749857D01*
X4161428Y-8678429D01*
X4175714Y-8635572D01*
X4190000Y-8607000D01*
X4218571Y-8564143D01*
X4232857Y-8549857D01*
X4332857Y-8621286D02*
X4347143Y-8607000D01*
X4375714Y-8592714D01*
X4447143Y-8592714D01*
X4475714Y-8607000D01*
X4490000Y-8621286D01*
X4504286Y-8649857D01*
X4504286Y-8678429D01*
X4490000Y-8721286D01*
X4318571Y-8892714D01*
X4504286Y-8892714D01*
X4861428Y-8892714D02*
X4861428Y-8592714D01*
X4990000Y-8892714D02*
X4990000Y-8735572D01*
X4975714Y-8707000D01*
X4947143Y-8692714D01*
X4904286Y-8692714D01*
X4875714Y-8707000D01*
X4861428Y-8721286D01*
X5175714Y-8892714D02*
X5147143Y-8878429D01*
X5132857Y-8864143D01*
X5118571Y-8835572D01*
X5118571Y-8749857D01*
X5132857Y-8721286D01*
X5147143Y-8707000D01*
X5175714Y-8692714D01*
X5218571Y-8692714D01*
X5247143Y-8707000D01*
X5261428Y-8721286D01*
X5275714Y-8749857D01*
X5275714Y-8835572D01*
X5261428Y-8864143D01*
X5247143Y-8878429D01*
X5218571Y-8892714D01*
X5175714Y-8892714D01*
X5447143Y-8892714D02*
X5418571Y-8878429D01*
X5404286Y-8849857D01*
X5404286Y-8592714D01*
X5675714Y-8878429D02*
X5647143Y-8892714D01*
X5590000Y-8892714D01*
X5561428Y-8878429D01*
X5547143Y-8849857D01*
X5547143Y-8735572D01*
X5561428Y-8707000D01*
X5590000Y-8692714D01*
X5647143Y-8692714D01*
X5675714Y-8707000D01*
X5690000Y-8735572D01*
X5690000Y-8764143D01*
X5547143Y-8792714D01*
X5804286Y-8878429D02*
X5832857Y-8892714D01*
X5890000Y-8892714D01*
X5918571Y-8878429D01*
X5932857Y-8849857D01*
X5932857Y-8835572D01*
X5918571Y-8807000D01*
X5890000Y-8792714D01*
X5847143Y-8792714D01*
X5818571Y-8778429D01*
X5804286Y-8749857D01*
X5804286Y-8735572D01*
X5818571Y-8707000D01*
X5847143Y-8692714D01*
X5890000Y-8692714D01*
X5918571Y-8707000D01*
X6032857Y-9007000D02*
X6047143Y-8992714D01*
X6075714Y-8949857D01*
X6090000Y-8921286D01*
X6104286Y-8878429D01*
X6118571Y-8807000D01*
X6118571Y-8749857D01*
X6104286Y-8678429D01*
X6090000Y-8635572D01*
X6075714Y-8607000D01*
X6047143Y-8564143D01*
X6032857Y-8549857D01*
X-1235000Y-9048000D02*
X-1025000Y-9258000D01*
X-1025000Y-9048000D02*
X-1235000Y-9258000D01*
X-1130000Y-9258000D02*
X-1025000Y-9153000D01*
X-1130000Y-9048000D01*
X-1235000Y-9153000D01*
X-1130000Y-9258000D01*
X-752857Y-9017286D02*
X-738571Y-9003000D01*
X-710000Y-8988714D01*
X-638572Y-8988714D01*
X-610000Y-9003000D01*
X-595714Y-9017286D01*
X-581429Y-9045857D01*
X-581429Y-9074429D01*
X-595714Y-9117286D01*
X-767143Y-9288714D01*
X-581429Y-9288714D01*
X-452857Y-9260143D02*
X-438571Y-9274429D01*
X-452857Y-9288714D01*
X-467143Y-9274429D01*
X-452857Y-9260143D01*
X-452857Y-9288714D01*
X-152857Y-9288714D02*
X-324286Y-9288714D01*
X-238571Y-9288714D02*
X-238571Y-8988714D01*
X-267143Y-9031572D01*
X-295714Y-9060143D01*
X-324286Y-9074429D01*
X32857Y-8988714D02*
X61428Y-8988714D01*
X90000Y-9003000D01*
X104286Y-9017286D01*
X118571Y-9045857D01*
X132857Y-9103000D01*
X132857Y-9174429D01*
X118571Y-9231572D01*
X104286Y-9260143D01*
X90000Y-9274429D01*
X61428Y-9288714D01*
X32857Y-9288714D01*
X4286Y-9274429D01*
X-10000Y-9260143D01*
X-24286Y-9231572D01*
X-38572Y-9174429D01*
X-38572Y-9103000D01*
X-24286Y-9045857D01*
X-10000Y-9017286D01*
X4286Y-9003000D01*
X32857Y-8988714D01*
X318571Y-8988714D02*
X347143Y-8988714D01*
X375714Y-9003000D01*
X390000Y-9017286D01*
X404286Y-9045857D01*
X418571Y-9103000D01*
X418571Y-9174429D01*
X404286Y-9231572D01*
X390000Y-9260143D01*
X375714Y-9274429D01*
X347143Y-9288714D01*
X318571Y-9288714D01*
X290000Y-9274429D01*
X275714Y-9260143D01*
X261428Y-9231572D01*
X247143Y-9174429D01*
X247143Y-9103000D01*
X261428Y-9045857D01*
X275714Y-9017286D01*
X290000Y-9003000D01*
X318571Y-8988714D01*
X547143Y-9288714D02*
X547143Y-9088714D01*
X547143Y-9117286D02*
X561428Y-9103000D01*
X590000Y-9088714D01*
X632857Y-9088714D01*
X661428Y-9103000D01*
X675714Y-9131572D01*
X675714Y-9288714D01*
X675714Y-9131572D02*
X690000Y-9103000D01*
X718571Y-9088714D01*
X761428Y-9088714D01*
X790000Y-9103000D01*
X804286Y-9131572D01*
X804286Y-9288714D01*
X947143Y-9288714D02*
X947143Y-9088714D01*
X947143Y-9117286D02*
X961428Y-9103000D01*
X990000Y-9088714D01*
X1032857Y-9088714D01*
X1061428Y-9103000D01*
X1075714Y-9131572D01*
X1075714Y-9288714D01*
X1075714Y-9131572D02*
X1090000Y-9103000D01*
X1118571Y-9088714D01*
X1161428Y-9088714D01*
X1190000Y-9103000D01*
X1204286Y-9131572D01*
X1204286Y-9288714D01*
X1790000Y-8974429D02*
X1532857Y-9360143D01*
X2175714Y-8988714D02*
X2204286Y-8988714D01*
X2232857Y-9003000D01*
X2247143Y-9017286D01*
X2261428Y-9045857D01*
X2275714Y-9103000D01*
X2275714Y-9174429D01*
X2261428Y-9231572D01*
X2247143Y-9260143D01*
X2232857Y-9274429D01*
X2204286Y-9288714D01*
X2175714Y-9288714D01*
X2147143Y-9274429D01*
X2132857Y-9260143D01*
X2118571Y-9231572D01*
X2104286Y-9174429D01*
X2104286Y-9103000D01*
X2118571Y-9045857D01*
X2132857Y-9017286D01*
X2147143Y-9003000D01*
X2175714Y-8988714D01*
X2404286Y-9260143D02*
X2418571Y-9274429D01*
X2404286Y-9288714D01*
X2390000Y-9274429D01*
X2404286Y-9260143D01*
X2404286Y-9288714D01*
X2604286Y-8988714D02*
X2632857Y-8988714D01*
X2661428Y-9003000D01*
X2675714Y-9017286D01*
X2690000Y-9045857D01*
X2704286Y-9103000D01*
X2704286Y-9174429D01*
X2690000Y-9231572D01*
X2675714Y-9260143D01*
X2661428Y-9274429D01*
X2632857Y-9288714D01*
X2604286Y-9288714D01*
X2575714Y-9274429D01*
X2561428Y-9260143D01*
X2547143Y-9231572D01*
X2532857Y-9174429D01*
X2532857Y-9103000D01*
X2547143Y-9045857D01*
X2561428Y-9017286D01*
X2575714Y-9003000D01*
X2604286Y-8988714D01*
X2875714Y-9117286D02*
X2847143Y-9103000D01*
X2832857Y-9088714D01*
X2818571Y-9060143D01*
X2818571Y-9045857D01*
X2832857Y-9017286D01*
X2847143Y-9003000D01*
X2875714Y-8988714D01*
X2932857Y-8988714D01*
X2961428Y-9003000D01*
X2975714Y-9017286D01*
X2990000Y-9045857D01*
X2990000Y-9060143D01*
X2975714Y-9088714D01*
X2961428Y-9103000D01*
X2932857Y-9117286D01*
X2875714Y-9117286D01*
X2847143Y-9131572D01*
X2832857Y-9145857D01*
X2818571Y-9174429D01*
X2818571Y-9231572D01*
X2832857Y-9260143D01*
X2847143Y-9274429D01*
X2875714Y-9288714D01*
X2932857Y-9288714D01*
X2961428Y-9274429D01*
X2975714Y-9260143D01*
X2990000Y-9231572D01*
X2990000Y-9174429D01*
X2975714Y-9145857D01*
X2961428Y-9131572D01*
X2932857Y-9117286D01*
X3104286Y-9017286D02*
X3118571Y-9003000D01*
X3147143Y-8988714D01*
X3218571Y-8988714D01*
X3247143Y-9003000D01*
X3261428Y-9017286D01*
X3275714Y-9045857D01*
X3275714Y-9074429D01*
X3261428Y-9117286D01*
X3090000Y-9288714D01*
X3275714Y-9288714D01*
X3375714Y-8988714D02*
X3575714Y-8988714D01*
X3447143Y-9288714D01*
X3675714Y-8988714D02*
X3675714Y-9045857D01*
X3790000Y-8988714D02*
X3790000Y-9045857D01*
X4232857Y-9403000D02*
X4218571Y-9388714D01*
X4190000Y-9345857D01*
X4175714Y-9317286D01*
X4161428Y-9274429D01*
X4147143Y-9203000D01*
X4147143Y-9145857D01*
X4161428Y-9074429D01*
X4175714Y-9031572D01*
X4190000Y-9003000D01*
X4218571Y-8960143D01*
X4232857Y-8945857D01*
X4318571Y-8988714D02*
X4504286Y-8988714D01*
X4404286Y-9103000D01*
X4447143Y-9103000D01*
X4475714Y-9117286D01*
X4490000Y-9131572D01*
X4504286Y-9160143D01*
X4504286Y-9231572D01*
X4490000Y-9260143D01*
X4475714Y-9274429D01*
X4447143Y-9288714D01*
X4361428Y-9288714D01*
X4332857Y-9274429D01*
X4318571Y-9260143D01*
X4861428Y-9288714D02*
X4861428Y-8988714D01*
X4990000Y-9288714D02*
X4990000Y-9131572D01*
X4975714Y-9103000D01*
X4947143Y-9088714D01*
X4904286Y-9088714D01*
X4875714Y-9103000D01*
X4861428Y-9117286D01*
X5175714Y-9288714D02*
X5147143Y-9274429D01*
X5132857Y-9260143D01*
X5118571Y-9231572D01*
X5118571Y-9145857D01*
X5132857Y-9117286D01*
X5147143Y-9103000D01*
X5175714Y-9088714D01*
X5218571Y-9088714D01*
X5247143Y-9103000D01*
X5261428Y-9117286D01*
X5275714Y-9145857D01*
X5275714Y-9231572D01*
X5261428Y-9260143D01*
X5247143Y-9274429D01*
X5218571Y-9288714D01*
X5175714Y-9288714D01*
X5447143Y-9288714D02*
X5418571Y-9274429D01*
X5404286Y-9245857D01*
X5404286Y-8988714D01*
X5675714Y-9274429D02*
X5647143Y-9288714D01*
X5590000Y-9288714D01*
X5561428Y-9274429D01*
X5547143Y-9245857D01*
X5547143Y-9131572D01*
X5561428Y-9103000D01*
X5590000Y-9088714D01*
X5647143Y-9088714D01*
X5675714Y-9103000D01*
X5690000Y-9131572D01*
X5690000Y-9160143D01*
X5547143Y-9188714D01*
X5804286Y-9274429D02*
X5832857Y-9288714D01*
X5890000Y-9288714D01*
X5918571Y-9274429D01*
X5932857Y-9245857D01*
X5932857Y-9231572D01*
X5918571Y-9203000D01*
X5890000Y-9188714D01*
X5847143Y-9188714D01*
X5818571Y-9174429D01*
X5804286Y-9145857D01*
X5804286Y-9131572D01*
X5818571Y-9103000D01*
X5847143Y-9088714D01*
X5890000Y-9088714D01*
X5918571Y-9103000D01*
X6032857Y-9403000D02*
X6047143Y-9388714D01*
X6075714Y-9345857D01*
X6090000Y-9317286D01*
X6104286Y-9274429D01*
X6118571Y-9203000D01*
X6118571Y-9145857D01*
X6104286Y-9074429D01*
X6090000Y-9031572D01*
X6075714Y-9003000D01*
X6047143Y-8960143D01*
X6032857Y-8945857D01*
M02*
