M48
; DRILL file {KiCad (5.1.10)-1} date 10/20/21 10:43:20
; FORMAT={-:-/ absolute / metric / decimal}
; #@! TF.CreationDate,2021-10-20T10:43:20-05:00
; #@! TF.GenerationSoftware,Kicad,Pcbnew,(5.1.10)-1
; #@! TF.FileFunction,Plated,1,2,PTH
FMAT,2
METRIC
T1C0.750
T2C0.800
T3C1.000
T4C1.016
T5C1.100
T6C1.220
T7C1.420
T8C1.430
T9C2.100
%
G90
G05
T1
X-6.0Y-6.08
X-6.0Y-13.7
X-3.0Y-6.08
X-3.0Y-13.7
X-1.525Y38.445
X-1.525Y30.825
X1.5Y38.445
X1.5Y30.825
T2
X-7.5Y-18.7
X-7.5Y-23.7
X-7.5Y-28.8
X-7.5Y-31.34
X-6.0Y36.0
X-6.0Y33.5
X-3.87Y-17.38
X-3.87Y-25.0
X-3.75Y-28.76
X-3.75Y-31.3
X-1.33Y-17.38
X-1.33Y-25.0
X0.0Y13.3
X0.0Y11.3
X0.0Y-11.16
X0.0Y-13.7
X1.21Y-17.38
X1.21Y-25.0
X3.75Y-11.16
X3.75Y-13.7
X3.75Y-17.38
X3.75Y-25.0
X6.0Y36.0
X6.0Y33.5
X7.5Y-11.16
X7.5Y-13.7
X7.5Y-18.7
X7.5Y-23.7
T3
X-2.54Y16.88
X-0.04Y16.88
X2.46Y16.88
T4
X-5.09Y46.424
X-5.09Y43.63
X-2.55Y46.424
X-2.55Y43.63
X-0.01Y46.424
X-0.01Y43.63
X2.53Y46.424
X2.53Y43.63
X5.07Y46.424
X5.07Y43.63
T6
X-5.0Y-47.5
X5.0Y-47.5
T7
X-5.0Y-44.4
X5.0Y-44.4
T8
X-5.0Y-36.1
X5.0Y-36.1
T9
X0.0Y6.9
X0.0Y2.2
X0.0Y-2.5
T5
X-4.84Y24.03G85X-4.84Y24.73
G05
X4.76Y24.03G85X4.76Y24.73
G05
T0
M30
