G04 #@! TF.GenerationSoftware,KiCad,Pcbnew,(5.1.10)-1*
G04 #@! TF.CreationDate,2021-10-20T10:43:16-05:00*
G04 #@! TF.ProjectId,Slew Limiter Board,536c6577-204c-4696-9d69-74657220426f,1.2*
G04 #@! TF.SameCoordinates,Original*
G04 #@! TF.FileFunction,Legend,Top*
G04 #@! TF.FilePolarity,Positive*
%FSLAX46Y46*%
G04 Gerber Fmt 4.6, Leading zero omitted, Abs format (unit mm)*
G04 Created by KiCad (PCBNEW (5.1.10)-1) date 2021-10-20 10:43:16*
%MOMM*%
%LPD*%
G01*
G04 APERTURE LIST*
%ADD10C,0.120000*%
%ADD11C,0.150000*%
%ADD12C,2.082800*%
%ADD13C,1.600000*%
%ADD14O,1.600000X1.600000*%
%ADD15C,3.100000*%
%ADD16C,2.130000*%
%ADD17R,1.930000X1.830000*%
%ADD18O,2.720000X3.240000*%
%ADD19C,1.800000*%
%ADD20R,1.800000X1.800000*%
%ADD21R,1.500000X1.500000*%
%ADD22O,1.500000X1.500000*%
%ADD23R,1.600000X1.600000*%
%ADD24O,1.600000X2.400000*%
%ADD25R,1.600000X2.400000*%
G04 APERTURE END LIST*
D10*
X-3430000Y-4150000D02*
X-3430000Y8550000D01*
X-3430000Y8550000D02*
X3430000Y8550000D01*
X3430000Y8540000D02*
X3430000Y-4150000D01*
X3430000Y-4150000D02*
X-3420000Y-4150000D01*
X-3420000Y-4150000D02*
X-3420000Y-4140000D01*
X6060000Y-48500000D02*
X5200000Y-48500000D01*
X6060000Y-48500000D02*
X6060000Y-47700000D01*
X6800000Y-41020000D02*
G75*
G03*
X6800000Y-41020000I-1800000J0D01*
G01*
X5350000Y-45520000D02*
X9500000Y-45520000D01*
X500000Y-45520000D02*
X4650000Y-45520000D01*
X5500000Y-35020000D02*
X9500000Y-35020000D01*
X500000Y-35020000D02*
X4500000Y-35020000D01*
X500000Y-45520000D02*
X500000Y-35020000D01*
X9500000Y-45520000D02*
X9500000Y-35020000D01*
X-3940000Y-48500000D02*
X-4800000Y-48500000D01*
X-3940000Y-48500000D02*
X-3940000Y-47700000D01*
X-3200000Y-41020000D02*
G75*
G03*
X-3200000Y-41020000I-1800000J0D01*
G01*
X-4650000Y-45520000D02*
X-500000Y-45520000D01*
X-9500000Y-45520000D02*
X-5350000Y-45520000D01*
X-4500000Y-35020000D02*
X-500000Y-35020000D01*
X-9500000Y-35020000D02*
X-5500000Y-35020000D01*
X-9500000Y-45520000D02*
X-9500000Y-35020000D01*
X-500000Y-45520000D02*
X-500000Y-35020000D01*
X4830000Y29350000D02*
X-4910000Y29350000D01*
X4830000Y17760000D02*
X3340000Y17760000D01*
X4830000Y26290000D02*
X4830000Y29350000D01*
X-4920000Y17760000D02*
X-4920000Y22480000D01*
X-4910000Y26290000D02*
X-4910000Y29350000D01*
X4830000Y17760000D02*
X4830000Y22480000D01*
X-3730000Y17760000D02*
X-4910000Y17760000D01*
X-830000Y17760000D02*
X-1360000Y17760000D01*
X1620000Y17760000D02*
X790000Y17760000D01*
D11*
X-999999Y-5503571D02*
X-892857Y-5539285D01*
X-714285Y-5539285D01*
X-642857Y-5503571D01*
X-607142Y-5467857D01*
X-571428Y-5396428D01*
X-571428Y-5325000D01*
X-607142Y-5253571D01*
X-642857Y-5217857D01*
X-714285Y-5182142D01*
X-857142Y-5146428D01*
X-928571Y-5110714D01*
X-964285Y-5075000D01*
X-999999Y-5003571D01*
X-999999Y-4932142D01*
X-964285Y-4860714D01*
X-928571Y-4825000D01*
X-857142Y-4789285D01*
X-678571Y-4789285D01*
X-571428Y-4825000D01*
X-321428Y-4789285D02*
X-142857Y-5539285D01*
X0Y-5003571D01*
X142857Y-5539285D01*
X321428Y-4789285D01*
X1000000Y-5539285D02*
X571428Y-5539285D01*
X785714Y-5539285D02*
X785714Y-4789285D01*
X714285Y-4896428D01*
X642857Y-4967857D01*
X571428Y-5003571D01*
X8696666Y-45872380D02*
X8696666Y-46586666D01*
X8649047Y-46729523D01*
X8553809Y-46824761D01*
X8410952Y-46872380D01*
X8315714Y-46872380D01*
X9125238Y-45967619D02*
X9172857Y-45920000D01*
X9268095Y-45872380D01*
X9506190Y-45872380D01*
X9601428Y-45920000D01*
X9649047Y-45967619D01*
X9696666Y-46062857D01*
X9696666Y-46158095D01*
X9649047Y-46300952D01*
X9077619Y-46872380D01*
X9696666Y-46872380D01*
X-1303333Y-45872380D02*
X-1303333Y-46586666D01*
X-1350952Y-46729523D01*
X-1446190Y-46824761D01*
X-1589047Y-46872380D01*
X-1684285Y-46872380D01*
X-303333Y-46872380D02*
X-874761Y-46872380D01*
X-589047Y-46872380D02*
X-589047Y-45872380D01*
X-684285Y-46015238D01*
X-779523Y-46110476D01*
X-874761Y-46158095D01*
X-6727619Y22994761D02*
X-7203809Y22661428D01*
X-6727619Y22423333D02*
X-7727619Y22423333D01*
X-7727619Y22804285D01*
X-7680000Y22899523D01*
X-7632380Y22947142D01*
X-7537142Y22994761D01*
X-7394285Y22994761D01*
X-7299047Y22947142D01*
X-7251428Y22899523D01*
X-7203809Y22804285D01*
X-7203809Y22423333D01*
X-7727619Y23280476D02*
X-6727619Y23613809D01*
X-7727619Y23947142D01*
X-6727619Y24804285D02*
X-6727619Y24232857D01*
X-6727619Y24518571D02*
X-7727619Y24518571D01*
X-7584761Y24423333D01*
X-7489523Y24328095D01*
X-7441904Y24232857D01*
%LPC*%
D12*
X5070000Y43630000D03*
X5070000Y46424000D03*
X2530000Y43630000D03*
X2530000Y46424000D03*
X-10000Y43630000D03*
X-10000Y46424000D03*
X-2550000Y43630000D03*
X-2550000Y46424000D03*
X-5090000Y43630000D03*
X-5090000Y46424000D03*
D13*
X0Y11300000D03*
X0Y13300000D03*
D14*
X7500000Y-11160000D03*
D13*
X7500000Y-13700000D03*
D14*
X0Y-11160000D03*
D13*
X0Y-13700000D03*
D14*
X3750000Y-11160000D03*
D13*
X3750000Y-13700000D03*
D14*
X-3750000Y-31300000D03*
D13*
X-3750000Y-28760000D03*
D14*
X-7500000Y-31340000D03*
D13*
X-7500000Y-28800000D03*
D15*
X0Y2200000D03*
X0Y-2500000D03*
X0Y6900000D03*
D16*
X5000000Y-44400000D03*
D17*
X5000000Y-47500000D03*
D16*
X5000000Y-36100000D03*
X-5000000Y-44400000D03*
D17*
X-5000000Y-47500000D03*
D16*
X-5000000Y-36100000D03*
D18*
X-4840000Y24380000D03*
X4760000Y24380000D03*
D19*
X2460000Y16880000D03*
X-40000Y16880000D03*
D20*
X-2540000Y16880000D03*
D13*
X7500000Y-18700000D03*
X7500000Y-23700000D03*
X-7500000Y-23700000D03*
X-7500000Y-18700000D03*
D21*
X1500000Y30825000D03*
D22*
X1500000Y38445000D03*
D21*
X-1525000Y38445000D03*
D22*
X-1525000Y30825000D03*
X-6000000Y-13700000D03*
D21*
X-6000000Y-6080000D03*
D22*
X-3000000Y-6080000D03*
D21*
X-3000000Y-13700000D03*
D23*
X6000000Y36000000D03*
D13*
X6000000Y33500000D03*
D23*
X-6000000Y36000000D03*
D13*
X-6000000Y33500000D03*
D24*
X3750000Y-17380000D03*
X-3870000Y-25000000D03*
X1210000Y-17380000D03*
X-1330000Y-25000000D03*
X-1330000Y-17380000D03*
X1210000Y-25000000D03*
X-3870000Y-17380000D03*
D25*
X3750000Y-25000000D03*
M02*
