G04 #@! TF.GenerationSoftware,KiCad,Pcbnew,(5.1.10)-1*
G04 #@! TF.CreationDate,2021-10-20T10:43:16-05:00*
G04 #@! TF.ProjectId,Slew Limiter Board,536c6577-204c-4696-9d69-74657220426f,1.2*
G04 #@! TF.SameCoordinates,Original*
G04 #@! TF.FileFunction,Copper,L1,Top*
G04 #@! TF.FilePolarity,Positive*
%FSLAX46Y46*%
G04 Gerber Fmt 4.6, Leading zero omitted, Abs format (unit mm)*
G04 Created by KiCad (PCBNEW (5.1.10)-1) date 2021-10-20 10:43:16*
%MOMM*%
%LPD*%
G01*
G04 APERTURE LIST*
G04 #@! TA.AperFunction,ComponentPad*
%ADD10C,1.879600*%
G04 #@! TD*
G04 #@! TA.AperFunction,ComponentPad*
%ADD11C,1.600000*%
G04 #@! TD*
G04 #@! TA.AperFunction,ComponentPad*
%ADD12O,1.600000X1.600000*%
G04 #@! TD*
G04 #@! TA.AperFunction,ComponentPad*
%ADD13C,3.100000*%
G04 #@! TD*
G04 #@! TA.AperFunction,ComponentPad*
%ADD14C,2.130000*%
G04 #@! TD*
G04 #@! TA.AperFunction,ComponentPad*
%ADD15R,1.930000X1.830000*%
G04 #@! TD*
G04 #@! TA.AperFunction,ComponentPad*
%ADD16O,2.720000X3.240000*%
G04 #@! TD*
G04 #@! TA.AperFunction,ComponentPad*
%ADD17C,1.800000*%
G04 #@! TD*
G04 #@! TA.AperFunction,ComponentPad*
%ADD18R,1.800000X1.800000*%
G04 #@! TD*
G04 #@! TA.AperFunction,ComponentPad*
%ADD19R,1.500000X1.500000*%
G04 #@! TD*
G04 #@! TA.AperFunction,ComponentPad*
%ADD20O,1.500000X1.500000*%
G04 #@! TD*
G04 #@! TA.AperFunction,ComponentPad*
%ADD21R,1.600000X1.600000*%
G04 #@! TD*
G04 #@! TA.AperFunction,ComponentPad*
%ADD22O,1.600000X2.400000*%
G04 #@! TD*
G04 #@! TA.AperFunction,ComponentPad*
%ADD23R,1.600000X2.400000*%
G04 #@! TD*
G04 #@! TA.AperFunction,Conductor*
%ADD24C,0.889000*%
G04 #@! TD*
G04 #@! TA.AperFunction,Conductor*
%ADD25C,0.508000*%
G04 #@! TD*
G04 #@! TA.AperFunction,Conductor*
%ADD26C,0.254000*%
G04 #@! TD*
G04 #@! TA.AperFunction,Conductor*
%ADD27C,1.000000*%
G04 #@! TD*
G04 APERTURE END LIST*
D10*
X5070000Y43630000D03*
X5070000Y46424000D03*
X2530000Y43630000D03*
X2530000Y46424000D03*
X-10000Y43630000D03*
X-10000Y46424000D03*
X-2550000Y43630000D03*
X-2550000Y46424000D03*
X-5090000Y43630000D03*
X-5090000Y46424000D03*
D11*
X0Y11300000D03*
X0Y13300000D03*
D12*
X7500000Y-11160000D03*
D11*
X7500000Y-13700000D03*
D12*
X0Y-11160000D03*
D11*
X0Y-13700000D03*
D12*
X3750000Y-11160000D03*
D11*
X3750000Y-13700000D03*
D12*
X-3750000Y-31300000D03*
D11*
X-3750000Y-28760000D03*
D12*
X-7500000Y-31340000D03*
D11*
X-7500000Y-28800000D03*
D13*
X0Y2200000D03*
X0Y-2500000D03*
X0Y6900000D03*
D14*
X5000000Y-44400000D03*
D15*
X5000000Y-47500000D03*
D14*
X5000000Y-36100000D03*
X-5000000Y-44400000D03*
D15*
X-5000000Y-47500000D03*
D14*
X-5000000Y-36100000D03*
D16*
X-4840000Y24380000D03*
X4760000Y24380000D03*
D17*
X2460000Y16880000D03*
X-40000Y16880000D03*
D18*
X-2540000Y16880000D03*
D11*
X7500000Y-18700000D03*
X7500000Y-23700000D03*
X-7500000Y-23700000D03*
X-7500000Y-18700000D03*
D19*
X1500000Y30825000D03*
D20*
X1500000Y38445000D03*
D19*
X-1525000Y38445000D03*
D20*
X-1525000Y30825000D03*
X-6000000Y-13700000D03*
D19*
X-6000000Y-6080000D03*
D20*
X-3000000Y-6080000D03*
D19*
X-3000000Y-13700000D03*
D21*
X6000000Y36000000D03*
D11*
X6000000Y33500000D03*
D21*
X-6000000Y36000000D03*
D11*
X-6000000Y33500000D03*
D22*
X3750000Y-17380000D03*
X-3870000Y-25000000D03*
X1210000Y-17380000D03*
X-1330000Y-25000000D03*
X-1330000Y-17380000D03*
X1210000Y-25000000D03*
X-3870000Y-17380000D03*
D23*
X3750000Y-25000000D03*
D24*
X-9023901Y-22176099D02*
X-7500000Y-23700000D01*
X-3325000Y30825000D02*
X-6000000Y33500000D01*
X-1525000Y30825000D02*
X-3325000Y30825000D01*
X-9023901Y25126099D02*
X-9023901Y-22176099D01*
X-3325000Y30825000D02*
X-9023901Y25126099D01*
X-7500000Y-23700000D02*
X-6075000Y-25125000D01*
X-3995000Y-25125000D02*
X-3870000Y-25000000D01*
X-6075000Y-25125000D02*
X-3995000Y-25125000D01*
X3325000Y30825000D02*
X6000000Y33500000D01*
X1500000Y30825000D02*
X3325000Y30825000D01*
X7500000Y-18700000D02*
X9026090Y-17173910D01*
X9026090Y25123910D02*
X3325000Y30825000D01*
X9026090Y-17173910D02*
X9026090Y25123910D01*
X7500000Y-18700000D02*
X6275000Y-17475000D01*
X3845000Y-17475000D02*
X3750000Y-17380000D01*
X6275000Y-17475000D02*
X3845000Y-17475000D01*
D25*
X-3000000Y3900000D02*
X0Y6900000D01*
X-3000000Y-6080000D02*
X-3000000Y3900000D01*
X7500000Y-5300000D02*
X0Y2200000D01*
X7500000Y-11160000D02*
X7500000Y-5300000D01*
X5070000Y46424000D02*
X5070000Y43630000D01*
X5070000Y42015000D02*
X1500000Y38445000D01*
X5070000Y43630000D02*
X5070000Y42015000D01*
X-5090000Y46424000D02*
X-5090000Y43630000D01*
X-5090000Y42010000D02*
X-1525000Y38445000D01*
X-5090000Y43630000D02*
X-5090000Y42010000D01*
D26*
X9115001Y26561643D02*
X4851642Y30825000D01*
X6091643Y32065000D01*
X6141335Y32065000D01*
X6418574Y32120147D01*
X6679727Y32228320D01*
X6914759Y32385363D01*
X7114637Y32585241D01*
X7271680Y32820273D01*
X7379853Y33081426D01*
X7435000Y33358665D01*
X7435000Y33641335D01*
X7379853Y33918574D01*
X7271680Y34179727D01*
X7114637Y34414759D01*
X6948057Y34581339D01*
X7044180Y34610498D01*
X7154494Y34669463D01*
X7251185Y34748815D01*
X7330537Y34845506D01*
X7389502Y34955820D01*
X7425812Y35075518D01*
X7438072Y35200000D01*
X7435000Y35714250D01*
X7276250Y35873000D01*
X6127000Y35873000D01*
X6127000Y35853000D01*
X5873000Y35853000D01*
X5873000Y35873000D01*
X4723750Y35873000D01*
X4565000Y35714250D01*
X4561928Y35200000D01*
X4574188Y35075518D01*
X4610498Y34955820D01*
X4669463Y34845506D01*
X4748815Y34748815D01*
X4845506Y34669463D01*
X4955820Y34610498D01*
X5051943Y34581339D01*
X4885363Y34414759D01*
X4728320Y34179727D01*
X4620147Y33918574D01*
X4565000Y33641335D01*
X4565000Y33591643D01*
X2877858Y31904500D01*
X2793897Y31904500D01*
X2780537Y31929494D01*
X2701185Y32026185D01*
X2604494Y32105537D01*
X2494180Y32164502D01*
X2374482Y32200812D01*
X2250000Y32213072D01*
X750000Y32213072D01*
X625518Y32200812D01*
X505820Y32164502D01*
X395506Y32105537D01*
X298815Y32026185D01*
X219463Y31929494D01*
X160498Y31819180D01*
X124188Y31699482D01*
X111928Y31575000D01*
X111928Y30075000D01*
X124188Y29950518D01*
X160498Y29830820D01*
X219463Y29720506D01*
X298815Y29623815D01*
X395506Y29544463D01*
X505820Y29485498D01*
X625518Y29449188D01*
X750000Y29436928D01*
X2250000Y29436928D01*
X2374482Y29449188D01*
X2494180Y29485498D01*
X2604494Y29544463D01*
X2701185Y29623815D01*
X2780537Y29720506D01*
X2793897Y29745500D01*
X2877858Y29745500D01*
X7946591Y24676765D01*
X7946590Y-4489354D01*
X2040562Y1416673D01*
X2101031Y1562659D01*
X2185000Y1984796D01*
X2185000Y2415204D01*
X2101031Y2837341D01*
X1936322Y3234985D01*
X1697200Y3592856D01*
X1392856Y3897200D01*
X1034985Y4136322D01*
X637341Y4301031D01*
X215204Y4385000D01*
X-215204Y4385000D01*
X-637341Y4301031D01*
X-1034985Y4136322D01*
X-1392856Y3897200D01*
X-1697200Y3592856D01*
X-1936322Y3234985D01*
X-2101031Y2837341D01*
X-2111000Y2787224D01*
X-2111000Y3531765D01*
X-783326Y4859438D01*
X-637341Y4798969D01*
X-215204Y4715000D01*
X215204Y4715000D01*
X637341Y4798969D01*
X1034985Y4963678D01*
X1392856Y5202800D01*
X1697200Y5507144D01*
X1936322Y5865015D01*
X2101031Y6262659D01*
X2185000Y6684796D01*
X2185000Y7115204D01*
X2101031Y7537341D01*
X1936322Y7934985D01*
X1697200Y8292856D01*
X1392856Y8597200D01*
X1034985Y8836322D01*
X637341Y9001031D01*
X215204Y9085000D01*
X-215204Y9085000D01*
X-637341Y9001031D01*
X-1034985Y8836322D01*
X-1392856Y8597200D01*
X-1697200Y8292856D01*
X-1936322Y7934985D01*
X-2101031Y7537341D01*
X-2185000Y7115204D01*
X-2185000Y6684796D01*
X-2101031Y6262659D01*
X-2040562Y6116674D01*
X-3597741Y4559494D01*
X-3631658Y4531659D01*
X-3659493Y4497742D01*
X-3659495Y4497740D01*
X-3742752Y4396291D01*
X-3825302Y4241852D01*
X-3876136Y4074274D01*
X-3893300Y3900000D01*
X-3888999Y3856330D01*
X-3889000Y-5010315D01*
X-4075799Y-5197114D01*
X-4227371Y-5423957D01*
X-4331775Y-5676011D01*
X-4385000Y-5943589D01*
X-4385000Y-6216411D01*
X-4331775Y-6483989D01*
X-4227371Y-6736043D01*
X-4075799Y-6962886D01*
X-3882886Y-7155799D01*
X-3656043Y-7307371D01*
X-3403989Y-7411775D01*
X-3136411Y-7465000D01*
X-2863589Y-7465000D01*
X-2596011Y-7411775D01*
X-2343957Y-7307371D01*
X-2117114Y-7155799D01*
X-1924201Y-6962886D01*
X-1772629Y-6736043D01*
X-1668225Y-6483989D01*
X-1615000Y-6216411D01*
X-1615000Y-5943589D01*
X-1668225Y-5676011D01*
X-1772629Y-5423957D01*
X-1924201Y-5197114D01*
X-2111000Y-5010315D01*
X-2111000Y-3087224D01*
X-2101031Y-3137341D01*
X-1936322Y-3534985D01*
X-1697200Y-3892856D01*
X-1392856Y-4197200D01*
X-1034985Y-4436322D01*
X-637341Y-4601031D01*
X-215204Y-4685000D01*
X215204Y-4685000D01*
X637341Y-4601031D01*
X1034985Y-4436322D01*
X1392856Y-4197200D01*
X1697200Y-3892856D01*
X1936322Y-3534985D01*
X2101031Y-3137341D01*
X2185000Y-2715204D01*
X2185000Y-2284796D01*
X2101031Y-1862659D01*
X1936322Y-1465015D01*
X1697200Y-1107144D01*
X1392856Y-802800D01*
X1034985Y-563678D01*
X637341Y-398969D01*
X215204Y-315000D01*
X-215204Y-315000D01*
X-637341Y-398969D01*
X-1034985Y-563678D01*
X-1392856Y-802800D01*
X-1697200Y-1107144D01*
X-1936322Y-1465015D01*
X-2101031Y-1862659D01*
X-2111000Y-1912776D01*
X-2111000Y1612776D01*
X-2101031Y1562659D01*
X-1936322Y1165015D01*
X-1697200Y807144D01*
X-1392856Y502800D01*
X-1034985Y263678D01*
X-637341Y98969D01*
X-215204Y15000D01*
X215204Y15000D01*
X637341Y98969D01*
X783327Y159438D01*
X6611001Y-5668237D01*
X6611000Y-10028151D01*
X6585241Y-10045363D01*
X6385363Y-10245241D01*
X6228320Y-10480273D01*
X6120147Y-10741426D01*
X6065000Y-11018665D01*
X6065000Y-11301335D01*
X6120147Y-11578574D01*
X6228320Y-11839727D01*
X6385363Y-12074759D01*
X6585241Y-12274637D01*
X6817759Y-12430000D01*
X6585241Y-12585363D01*
X6385363Y-12785241D01*
X6228320Y-13020273D01*
X6120147Y-13281426D01*
X6065000Y-13558665D01*
X6065000Y-13841335D01*
X6120147Y-14118574D01*
X6228320Y-14379727D01*
X6385363Y-14614759D01*
X6585241Y-14814637D01*
X6820273Y-14971680D01*
X7081426Y-15079853D01*
X7358665Y-15135000D01*
X7641335Y-15135000D01*
X7918574Y-15079853D01*
X7946590Y-15068248D01*
X7946590Y-16726767D01*
X7500000Y-17173357D01*
X7075826Y-16749184D01*
X7042015Y-16707985D01*
X6877640Y-16573086D01*
X6690106Y-16472847D01*
X6486619Y-16411120D01*
X6328029Y-16395500D01*
X6275000Y-16390277D01*
X6221971Y-16395500D01*
X5064708Y-16395500D01*
X4948932Y-16178899D01*
X4769607Y-15960392D01*
X4551100Y-15781068D01*
X4301807Y-15647818D01*
X4031308Y-15565764D01*
X3750000Y-15538057D01*
X3468691Y-15565764D01*
X3198192Y-15647818D01*
X2948899Y-15781068D01*
X2730392Y-15960393D01*
X2551068Y-16178900D01*
X2480000Y-16311858D01*
X2408932Y-16178899D01*
X2229607Y-15960392D01*
X2011100Y-15781068D01*
X1761807Y-15647818D01*
X1491308Y-15565764D01*
X1210000Y-15538057D01*
X928691Y-15565764D01*
X658192Y-15647818D01*
X408899Y-15781068D01*
X190392Y-15960393D01*
X11068Y-16178900D01*
X-60000Y-16311858D01*
X-131068Y-16178899D01*
X-310393Y-15960392D01*
X-528900Y-15781068D01*
X-778193Y-15647818D01*
X-1048692Y-15565764D01*
X-1330000Y-15538057D01*
X-1611309Y-15565764D01*
X-1881808Y-15647818D01*
X-2131101Y-15781068D01*
X-2349608Y-15960393D01*
X-2528932Y-16178900D01*
X-2600000Y-16311858D01*
X-2671068Y-16178899D01*
X-2850393Y-15960392D01*
X-3068900Y-15781068D01*
X-3318193Y-15647818D01*
X-3588692Y-15565764D01*
X-3870000Y-15538057D01*
X-4151309Y-15565764D01*
X-4421808Y-15647818D01*
X-4671101Y-15781068D01*
X-4889608Y-15960393D01*
X-5068932Y-16178900D01*
X-5202182Y-16428193D01*
X-5284236Y-16698692D01*
X-5305000Y-16909509D01*
X-5305000Y-17850492D01*
X-5284236Y-18061309D01*
X-5202182Y-18331808D01*
X-5068932Y-18581101D01*
X-4889607Y-18799608D01*
X-4671100Y-18978932D01*
X-4421807Y-19112182D01*
X-4151308Y-19194236D01*
X-3870000Y-19221943D01*
X-3588691Y-19194236D01*
X-3318192Y-19112182D01*
X-3068899Y-18978932D01*
X-2850392Y-18799608D01*
X-2671068Y-18581101D01*
X-2600000Y-18448142D01*
X-2528932Y-18581101D01*
X-2349607Y-18799608D01*
X-2131100Y-18978932D01*
X-1881807Y-19112182D01*
X-1611308Y-19194236D01*
X-1330000Y-19221943D01*
X-1048691Y-19194236D01*
X-778192Y-19112182D01*
X-528899Y-18978932D01*
X-310392Y-18799608D01*
X-131068Y-18581101D01*
X-60000Y-18448142D01*
X11068Y-18581101D01*
X190393Y-18799608D01*
X408900Y-18978932D01*
X658193Y-19112182D01*
X928692Y-19194236D01*
X1210000Y-19221943D01*
X1491309Y-19194236D01*
X1761808Y-19112182D01*
X2011101Y-18978932D01*
X2229608Y-18799608D01*
X2408932Y-18581101D01*
X2480000Y-18448142D01*
X2551068Y-18581101D01*
X2730393Y-18799608D01*
X2948900Y-18978932D01*
X3198193Y-19112182D01*
X3468692Y-19194236D01*
X3750000Y-19221943D01*
X4031309Y-19194236D01*
X4301808Y-19112182D01*
X4551101Y-18978932D01*
X4769608Y-18799608D01*
X4948932Y-18581101D01*
X4963151Y-18554500D01*
X5827857Y-18554500D01*
X6065000Y-18791643D01*
X6065000Y-18841335D01*
X6120147Y-19118574D01*
X6228320Y-19379727D01*
X6385363Y-19614759D01*
X6585241Y-19814637D01*
X6820273Y-19971680D01*
X7081426Y-20079853D01*
X7358665Y-20135000D01*
X7641335Y-20135000D01*
X7918574Y-20079853D01*
X8179727Y-19971680D01*
X8414759Y-19814637D01*
X8614637Y-19614759D01*
X8771680Y-19379727D01*
X8879853Y-19118574D01*
X8935000Y-18841335D01*
X8935000Y-18791642D01*
X9115000Y-18611642D01*
X9115000Y-49115000D01*
X-9115000Y-49115000D01*
X-9115000Y-48415000D01*
X-6603072Y-48415000D01*
X-6590812Y-48539482D01*
X-6554502Y-48659180D01*
X-6495537Y-48769494D01*
X-6416185Y-48866185D01*
X-6319494Y-48945537D01*
X-6209180Y-49004502D01*
X-6089482Y-49040812D01*
X-5965000Y-49053072D01*
X-5285750Y-49050000D01*
X-5127000Y-48891250D01*
X-5127000Y-47627000D01*
X-4873000Y-47627000D01*
X-4873000Y-48891250D01*
X-4714250Y-49050000D01*
X-4035000Y-49053072D01*
X-3910518Y-49040812D01*
X-3790820Y-49004502D01*
X-3680506Y-48945537D01*
X-3583815Y-48866185D01*
X-3504463Y-48769494D01*
X-3445498Y-48659180D01*
X-3409188Y-48539482D01*
X-3396928Y-48415000D01*
X3396928Y-48415000D01*
X3409188Y-48539482D01*
X3445498Y-48659180D01*
X3504463Y-48769494D01*
X3583815Y-48866185D01*
X3680506Y-48945537D01*
X3790820Y-49004502D01*
X3910518Y-49040812D01*
X4035000Y-49053072D01*
X4714250Y-49050000D01*
X4873000Y-48891250D01*
X4873000Y-47627000D01*
X5127000Y-47627000D01*
X5127000Y-48891250D01*
X5285750Y-49050000D01*
X5965000Y-49053072D01*
X6089482Y-49040812D01*
X6209180Y-49004502D01*
X6319494Y-48945537D01*
X6416185Y-48866185D01*
X6495537Y-48769494D01*
X6554502Y-48659180D01*
X6590812Y-48539482D01*
X6603072Y-48415000D01*
X6600000Y-47785750D01*
X6441250Y-47627000D01*
X5127000Y-47627000D01*
X4873000Y-47627000D01*
X3558750Y-47627000D01*
X3400000Y-47785750D01*
X3396928Y-48415000D01*
X-3396928Y-48415000D01*
X-3400000Y-47785750D01*
X-3558750Y-47627000D01*
X-4873000Y-47627000D01*
X-5127000Y-47627000D01*
X-6441250Y-47627000D01*
X-6600000Y-47785750D01*
X-6603072Y-48415000D01*
X-9115000Y-48415000D01*
X-9115000Y-44232565D01*
X-6700000Y-44232565D01*
X-6700000Y-44567435D01*
X-6634670Y-44895872D01*
X-6506521Y-45205252D01*
X-6320477Y-45483687D01*
X-6083687Y-45720477D01*
X-5805252Y-45906521D01*
X-5704860Y-45948105D01*
X-5965000Y-45946928D01*
X-6089482Y-45959188D01*
X-6209180Y-45995498D01*
X-6319494Y-46054463D01*
X-6416185Y-46133815D01*
X-6495537Y-46230506D01*
X-6554502Y-46340820D01*
X-6590812Y-46460518D01*
X-6603072Y-46585000D01*
X-6600000Y-47214250D01*
X-6441250Y-47373000D01*
X-5127000Y-47373000D01*
X-5127000Y-47353000D01*
X-4873000Y-47353000D01*
X-4873000Y-47373000D01*
X-3558750Y-47373000D01*
X-3400000Y-47214250D01*
X-3396928Y-46585000D01*
X-3409188Y-46460518D01*
X-3445498Y-46340820D01*
X-3504463Y-46230506D01*
X-3583815Y-46133815D01*
X-3680506Y-46054463D01*
X-3790820Y-45995498D01*
X-3910518Y-45959188D01*
X-4035000Y-45946928D01*
X-4295140Y-45948105D01*
X-4194748Y-45906521D01*
X-3916313Y-45720477D01*
X-3679523Y-45483687D01*
X-3493479Y-45205252D01*
X-3365330Y-44895872D01*
X-3300000Y-44567435D01*
X-3300000Y-44232565D01*
X3300000Y-44232565D01*
X3300000Y-44567435D01*
X3365330Y-44895872D01*
X3493479Y-45205252D01*
X3679523Y-45483687D01*
X3916313Y-45720477D01*
X4194748Y-45906521D01*
X4295140Y-45948105D01*
X4035000Y-45946928D01*
X3910518Y-45959188D01*
X3790820Y-45995498D01*
X3680506Y-46054463D01*
X3583815Y-46133815D01*
X3504463Y-46230506D01*
X3445498Y-46340820D01*
X3409188Y-46460518D01*
X3396928Y-46585000D01*
X3400000Y-47214250D01*
X3558750Y-47373000D01*
X4873000Y-47373000D01*
X4873000Y-47353000D01*
X5127000Y-47353000D01*
X5127000Y-47373000D01*
X6441250Y-47373000D01*
X6600000Y-47214250D01*
X6603072Y-46585000D01*
X6590812Y-46460518D01*
X6554502Y-46340820D01*
X6495537Y-46230506D01*
X6416185Y-46133815D01*
X6319494Y-46054463D01*
X6209180Y-45995498D01*
X6089482Y-45959188D01*
X5965000Y-45946928D01*
X5704860Y-45948105D01*
X5805252Y-45906521D01*
X6083687Y-45720477D01*
X6320477Y-45483687D01*
X6506521Y-45205252D01*
X6634670Y-44895872D01*
X6700000Y-44567435D01*
X6700000Y-44232565D01*
X6634670Y-43904128D01*
X6506521Y-43594748D01*
X6320477Y-43316313D01*
X6083687Y-43079523D01*
X5805252Y-42893479D01*
X5495872Y-42765330D01*
X5167435Y-42700000D01*
X4832565Y-42700000D01*
X4504128Y-42765330D01*
X4194748Y-42893479D01*
X3916313Y-43079523D01*
X3679523Y-43316313D01*
X3493479Y-43594748D01*
X3365330Y-43904128D01*
X3300000Y-44232565D01*
X-3300000Y-44232565D01*
X-3365330Y-43904128D01*
X-3493479Y-43594748D01*
X-3679523Y-43316313D01*
X-3916313Y-43079523D01*
X-4194748Y-42893479D01*
X-4504128Y-42765330D01*
X-4832565Y-42700000D01*
X-5167435Y-42700000D01*
X-5495872Y-42765330D01*
X-5805252Y-42893479D01*
X-6083687Y-43079523D01*
X-6320477Y-43316313D01*
X-6506521Y-43594748D01*
X-6634670Y-43904128D01*
X-6700000Y-44232565D01*
X-9115000Y-44232565D01*
X-9115000Y-35932565D01*
X-6700000Y-35932565D01*
X-6700000Y-36267435D01*
X-6634670Y-36595872D01*
X-6506521Y-36905252D01*
X-6320477Y-37183687D01*
X-6083687Y-37420477D01*
X-5805252Y-37606521D01*
X-5495872Y-37734670D01*
X-5167435Y-37800000D01*
X-4832565Y-37800000D01*
X-4504128Y-37734670D01*
X-4194748Y-37606521D01*
X-3916313Y-37420477D01*
X-3679523Y-37183687D01*
X-3493479Y-36905252D01*
X-3365330Y-36595872D01*
X-3300000Y-36267435D01*
X-3300000Y-35932565D01*
X3300000Y-35932565D01*
X3300000Y-36267435D01*
X3365330Y-36595872D01*
X3493479Y-36905252D01*
X3679523Y-37183687D01*
X3916313Y-37420477D01*
X4194748Y-37606521D01*
X4504128Y-37734670D01*
X4832565Y-37800000D01*
X5167435Y-37800000D01*
X5495872Y-37734670D01*
X5805252Y-37606521D01*
X6083687Y-37420477D01*
X6320477Y-37183687D01*
X6506521Y-36905252D01*
X6634670Y-36595872D01*
X6700000Y-36267435D01*
X6700000Y-35932565D01*
X6634670Y-35604128D01*
X6506521Y-35294748D01*
X6320477Y-35016313D01*
X6083687Y-34779523D01*
X5805252Y-34593479D01*
X5495872Y-34465330D01*
X5167435Y-34400000D01*
X4832565Y-34400000D01*
X4504128Y-34465330D01*
X4194748Y-34593479D01*
X3916313Y-34779523D01*
X3679523Y-35016313D01*
X3493479Y-35294748D01*
X3365330Y-35604128D01*
X3300000Y-35932565D01*
X-3300000Y-35932565D01*
X-3365330Y-35604128D01*
X-3493479Y-35294748D01*
X-3679523Y-35016313D01*
X-3916313Y-34779523D01*
X-4194748Y-34593479D01*
X-4504128Y-34465330D01*
X-4832565Y-34400000D01*
X-5167435Y-34400000D01*
X-5495872Y-34465330D01*
X-5805252Y-34593479D01*
X-6083687Y-34779523D01*
X-6320477Y-35016313D01*
X-6506521Y-35294748D01*
X-6634670Y-35604128D01*
X-6700000Y-35932565D01*
X-9115000Y-35932565D01*
X-9115000Y-28658665D01*
X-8935000Y-28658665D01*
X-8935000Y-28941335D01*
X-8879853Y-29218574D01*
X-8771680Y-29479727D01*
X-8614637Y-29714759D01*
X-8414759Y-29914637D01*
X-8182241Y-30070000D01*
X-8414759Y-30225363D01*
X-8614637Y-30425241D01*
X-8771680Y-30660273D01*
X-8879853Y-30921426D01*
X-8935000Y-31198665D01*
X-8935000Y-31481335D01*
X-8879853Y-31758574D01*
X-8771680Y-32019727D01*
X-8614637Y-32254759D01*
X-8414759Y-32454637D01*
X-8179727Y-32611680D01*
X-7918574Y-32719853D01*
X-7641335Y-32775000D01*
X-7358665Y-32775000D01*
X-7081426Y-32719853D01*
X-6820273Y-32611680D01*
X-6585241Y-32454637D01*
X-6385363Y-32254759D01*
X-6228320Y-32019727D01*
X-6120147Y-31758574D01*
X-6065000Y-31481335D01*
X-6065000Y-31198665D01*
X-6072956Y-31158665D01*
X-5185000Y-31158665D01*
X-5185000Y-31441335D01*
X-5129853Y-31718574D01*
X-5021680Y-31979727D01*
X-4864637Y-32214759D01*
X-4664759Y-32414637D01*
X-4429727Y-32571680D01*
X-4168574Y-32679853D01*
X-3891335Y-32735000D01*
X-3608665Y-32735000D01*
X-3331426Y-32679853D01*
X-3070273Y-32571680D01*
X-2835241Y-32414637D01*
X-2635363Y-32214759D01*
X-2478320Y-31979727D01*
X-2370147Y-31718574D01*
X-2315000Y-31441335D01*
X-2315000Y-31158665D01*
X-2370147Y-30881426D01*
X-2478320Y-30620273D01*
X-2635363Y-30385241D01*
X-2835241Y-30185363D01*
X-3069128Y-30029085D01*
X-3008486Y-29996671D01*
X-2936903Y-29752702D01*
X-3750000Y-28939605D01*
X-4563097Y-29752702D01*
X-4491514Y-29996671D01*
X-4427008Y-30027194D01*
X-4429727Y-30028320D01*
X-4664759Y-30185363D01*
X-4864637Y-30385241D01*
X-5021680Y-30620273D01*
X-5129853Y-30881426D01*
X-5185000Y-31158665D01*
X-6072956Y-31158665D01*
X-6120147Y-30921426D01*
X-6228320Y-30660273D01*
X-6385363Y-30425241D01*
X-6585241Y-30225363D01*
X-6817759Y-30070000D01*
X-6585241Y-29914637D01*
X-6385363Y-29714759D01*
X-6228320Y-29479727D01*
X-6120147Y-29218574D01*
X-6065000Y-28941335D01*
X-6065000Y-28830512D01*
X-5190217Y-28830512D01*
X-5148787Y-29110130D01*
X-5053603Y-29376292D01*
X-4986671Y-29501514D01*
X-4742702Y-29573097D01*
X-3929605Y-28760000D01*
X-3570395Y-28760000D01*
X-2757298Y-29573097D01*
X-2513329Y-29501514D01*
X-2392429Y-29246004D01*
X-2323700Y-28971816D01*
X-2309783Y-28689488D01*
X-2351213Y-28409870D01*
X-2446397Y-28143708D01*
X-2513329Y-28018486D01*
X-2757298Y-27946903D01*
X-3570395Y-28760000D01*
X-3929605Y-28760000D01*
X-4742702Y-27946903D01*
X-4986671Y-28018486D01*
X-5107571Y-28273996D01*
X-5176300Y-28548184D01*
X-5190217Y-28830512D01*
X-6065000Y-28830512D01*
X-6065000Y-28658665D01*
X-6120147Y-28381426D01*
X-6228320Y-28120273D01*
X-6385363Y-27885241D01*
X-6503306Y-27767298D01*
X-4563097Y-27767298D01*
X-3750000Y-28580395D01*
X-2936903Y-27767298D01*
X-3008486Y-27523329D01*
X-3263996Y-27402429D01*
X-3538184Y-27333700D01*
X-3820512Y-27319783D01*
X-4100130Y-27361213D01*
X-4366292Y-27456397D01*
X-4491514Y-27523329D01*
X-4563097Y-27767298D01*
X-6503306Y-27767298D01*
X-6585241Y-27685363D01*
X-6820273Y-27528320D01*
X-7081426Y-27420147D01*
X-7358665Y-27365000D01*
X-7641335Y-27365000D01*
X-7918574Y-27420147D01*
X-8179727Y-27528320D01*
X-8414759Y-27685363D01*
X-8614637Y-27885241D01*
X-8771680Y-28120273D01*
X-8879853Y-28381426D01*
X-8935000Y-28658665D01*
X-9115000Y-28658665D01*
X-9115000Y-23611642D01*
X-8935000Y-23791643D01*
X-8935000Y-23841335D01*
X-8879853Y-24118574D01*
X-8771680Y-24379727D01*
X-8614637Y-24614759D01*
X-8414759Y-24814637D01*
X-8179727Y-24971680D01*
X-7918574Y-25079853D01*
X-7641335Y-25135000D01*
X-7591642Y-25135000D01*
X-6875822Y-25850821D01*
X-6842015Y-25892015D01*
X-6677640Y-26026914D01*
X-6490106Y-26127153D01*
X-6286619Y-26188880D01*
X-6128029Y-26204500D01*
X-6128022Y-26204500D01*
X-6075001Y-26209722D01*
X-6021979Y-26204500D01*
X-5066142Y-26204500D01*
X-4889607Y-26419608D01*
X-4671100Y-26598932D01*
X-4421807Y-26732182D01*
X-4151308Y-26814236D01*
X-3870000Y-26841943D01*
X-3588691Y-26814236D01*
X-3318192Y-26732182D01*
X-3068899Y-26598932D01*
X-2850392Y-26419608D01*
X-2671068Y-26201101D01*
X-2600000Y-26068142D01*
X-2528932Y-26201101D01*
X-2349607Y-26419608D01*
X-2131100Y-26598932D01*
X-1881807Y-26732182D01*
X-1611308Y-26814236D01*
X-1330000Y-26841943D01*
X-1048691Y-26814236D01*
X-778192Y-26732182D01*
X-528899Y-26598932D01*
X-310392Y-26419608D01*
X-131068Y-26201101D01*
X-60000Y-26068142D01*
X11068Y-26201101D01*
X190393Y-26419608D01*
X408900Y-26598932D01*
X658193Y-26732182D01*
X928692Y-26814236D01*
X1210000Y-26841943D01*
X1491309Y-26814236D01*
X1761808Y-26732182D01*
X2011101Y-26598932D01*
X2229608Y-26419608D01*
X2322419Y-26306518D01*
X2324188Y-26324482D01*
X2360498Y-26444180D01*
X2419463Y-26554494D01*
X2498815Y-26651185D01*
X2595506Y-26730537D01*
X2705820Y-26789502D01*
X2825518Y-26825812D01*
X2950000Y-26838072D01*
X4550000Y-26838072D01*
X4674482Y-26825812D01*
X4794180Y-26789502D01*
X4904494Y-26730537D01*
X5001185Y-26651185D01*
X5080537Y-26554494D01*
X5139502Y-26444180D01*
X5175812Y-26324482D01*
X5188072Y-26200000D01*
X5188072Y-24692702D01*
X6686903Y-24692702D01*
X6758486Y-24936671D01*
X7013996Y-25057571D01*
X7288184Y-25126300D01*
X7570512Y-25140217D01*
X7850130Y-25098787D01*
X8116292Y-25003603D01*
X8241514Y-24936671D01*
X8313097Y-24692702D01*
X7500000Y-23879605D01*
X6686903Y-24692702D01*
X5188072Y-24692702D01*
X5188072Y-23800000D01*
X5185168Y-23770512D01*
X6059783Y-23770512D01*
X6101213Y-24050130D01*
X6196397Y-24316292D01*
X6263329Y-24441514D01*
X6507298Y-24513097D01*
X7320395Y-23700000D01*
X7679605Y-23700000D01*
X8492702Y-24513097D01*
X8736671Y-24441514D01*
X8857571Y-24186004D01*
X8926300Y-23911816D01*
X8940217Y-23629488D01*
X8898787Y-23349870D01*
X8803603Y-23083708D01*
X8736671Y-22958486D01*
X8492702Y-22886903D01*
X7679605Y-23700000D01*
X7320395Y-23700000D01*
X6507298Y-22886903D01*
X6263329Y-22958486D01*
X6142429Y-23213996D01*
X6073700Y-23488184D01*
X6059783Y-23770512D01*
X5185168Y-23770512D01*
X5175812Y-23675518D01*
X5139502Y-23555820D01*
X5080537Y-23445506D01*
X5001185Y-23348815D01*
X4904494Y-23269463D01*
X4794180Y-23210498D01*
X4674482Y-23174188D01*
X4550000Y-23161928D01*
X2950000Y-23161928D01*
X2825518Y-23174188D01*
X2705820Y-23210498D01*
X2595506Y-23269463D01*
X2498815Y-23348815D01*
X2419463Y-23445506D01*
X2360498Y-23555820D01*
X2324188Y-23675518D01*
X2322419Y-23693483D01*
X2229607Y-23580392D01*
X2011100Y-23401068D01*
X1761807Y-23267818D01*
X1491308Y-23185764D01*
X1210000Y-23158057D01*
X928691Y-23185764D01*
X658192Y-23267818D01*
X408899Y-23401068D01*
X190392Y-23580393D01*
X11068Y-23798900D01*
X-60000Y-23931858D01*
X-131068Y-23798899D01*
X-310393Y-23580392D01*
X-528900Y-23401068D01*
X-778193Y-23267818D01*
X-1048692Y-23185764D01*
X-1330000Y-23158057D01*
X-1611309Y-23185764D01*
X-1881808Y-23267818D01*
X-2131101Y-23401068D01*
X-2349608Y-23580393D01*
X-2528932Y-23798900D01*
X-2600000Y-23931858D01*
X-2671068Y-23798899D01*
X-2850393Y-23580392D01*
X-3068900Y-23401068D01*
X-3318193Y-23267818D01*
X-3588692Y-23185764D01*
X-3870000Y-23158057D01*
X-4151309Y-23185764D01*
X-4421808Y-23267818D01*
X-4671101Y-23401068D01*
X-4889608Y-23580393D01*
X-5068932Y-23798900D01*
X-5200743Y-24045500D01*
X-5627857Y-24045500D01*
X-6065000Y-23608358D01*
X-6065000Y-23558665D01*
X-6120147Y-23281426D01*
X-6228320Y-23020273D01*
X-6385363Y-22785241D01*
X-6463306Y-22707298D01*
X6686903Y-22707298D01*
X7500000Y-23520395D01*
X8313097Y-22707298D01*
X8241514Y-22463329D01*
X7986004Y-22342429D01*
X7711816Y-22273700D01*
X7429488Y-22259783D01*
X7149870Y-22301213D01*
X6883708Y-22396397D01*
X6758486Y-22463329D01*
X6686903Y-22707298D01*
X-6463306Y-22707298D01*
X-6585241Y-22585363D01*
X-6820273Y-22428320D01*
X-7081426Y-22320147D01*
X-7358665Y-22265000D01*
X-7408357Y-22265000D01*
X-7944401Y-21728957D01*
X-7944401Y-20067999D01*
X-7711816Y-20126300D01*
X-7429488Y-20140217D01*
X-7149870Y-20098787D01*
X-6883708Y-20003603D01*
X-6758486Y-19936671D01*
X-6686903Y-19692702D01*
X-7500000Y-18879605D01*
X-7514143Y-18893748D01*
X-7693748Y-18714143D01*
X-7679605Y-18700000D01*
X-7320395Y-18700000D01*
X-6507298Y-19513097D01*
X-6263329Y-19441514D01*
X-6142429Y-19186004D01*
X-6073700Y-18911816D01*
X-6059783Y-18629488D01*
X-6101213Y-18349870D01*
X-6196397Y-18083708D01*
X-6263329Y-17958486D01*
X-6507298Y-17886903D01*
X-7320395Y-18700000D01*
X-7679605Y-18700000D01*
X-7693748Y-18685858D01*
X-7514143Y-18506253D01*
X-7500000Y-18520395D01*
X-6686903Y-17707298D01*
X-6758486Y-17463329D01*
X-7013996Y-17342429D01*
X-7288184Y-17273700D01*
X-7570512Y-17259783D01*
X-7850130Y-17301213D01*
X-7944401Y-17334926D01*
X-7944401Y-13563589D01*
X-7385000Y-13563589D01*
X-7385000Y-13836411D01*
X-7331775Y-14103989D01*
X-7227371Y-14356043D01*
X-7075799Y-14582886D01*
X-6882886Y-14775799D01*
X-6656043Y-14927371D01*
X-6403989Y-15031775D01*
X-6136411Y-15085000D01*
X-5863589Y-15085000D01*
X-5596011Y-15031775D01*
X-5343957Y-14927371D01*
X-5117114Y-14775799D01*
X-4924201Y-14582886D01*
X-4772629Y-14356043D01*
X-4668225Y-14103989D01*
X-4615000Y-13836411D01*
X-4615000Y-13563589D01*
X-4668225Y-13296011D01*
X-4772629Y-13043957D01*
X-4835409Y-12950000D01*
X-4388072Y-12950000D01*
X-4388072Y-14450000D01*
X-4375812Y-14574482D01*
X-4339502Y-14694180D01*
X-4280537Y-14804494D01*
X-4201185Y-14901185D01*
X-4104494Y-14980537D01*
X-3994180Y-15039502D01*
X-3874482Y-15075812D01*
X-3750000Y-15088072D01*
X-2250000Y-15088072D01*
X-2125518Y-15075812D01*
X-2005820Y-15039502D01*
X-1895506Y-14980537D01*
X-1798815Y-14901185D01*
X-1719463Y-14804494D01*
X-1660498Y-14694180D01*
X-1624188Y-14574482D01*
X-1611928Y-14450000D01*
X-1611928Y-13558665D01*
X-1435000Y-13558665D01*
X-1435000Y-13841335D01*
X-1379853Y-14118574D01*
X-1271680Y-14379727D01*
X-1114637Y-14614759D01*
X-914759Y-14814637D01*
X-679727Y-14971680D01*
X-418574Y-15079853D01*
X-141335Y-15135000D01*
X141335Y-15135000D01*
X418574Y-15079853D01*
X679727Y-14971680D01*
X914759Y-14814637D01*
X1114637Y-14614759D01*
X1271680Y-14379727D01*
X1379853Y-14118574D01*
X1435000Y-13841335D01*
X1435000Y-13558665D01*
X1379853Y-13281426D01*
X1271680Y-13020273D01*
X1114637Y-12785241D01*
X914759Y-12585363D01*
X679727Y-12428320D01*
X668435Y-12423643D01*
X737420Y-12391037D01*
X963414Y-12223519D01*
X1152385Y-12015131D01*
X1297070Y-11773881D01*
X1391909Y-11509040D01*
X1270624Y-11287000D01*
X127000Y-11287000D01*
X127000Y-11307000D01*
X-127000Y-11307000D01*
X-127000Y-11287000D01*
X-1270624Y-11287000D01*
X-1391909Y-11509040D01*
X-1297070Y-11773881D01*
X-1152385Y-12015131D01*
X-963414Y-12223519D01*
X-737420Y-12391037D01*
X-668435Y-12423643D01*
X-679727Y-12428320D01*
X-914759Y-12585363D01*
X-1114637Y-12785241D01*
X-1271680Y-13020273D01*
X-1379853Y-13281426D01*
X-1435000Y-13558665D01*
X-1611928Y-13558665D01*
X-1611928Y-12950000D01*
X-1624188Y-12825518D01*
X-1660498Y-12705820D01*
X-1719463Y-12595506D01*
X-1798815Y-12498815D01*
X-1895506Y-12419463D01*
X-2005820Y-12360498D01*
X-2125518Y-12324188D01*
X-2250000Y-12311928D01*
X-3750000Y-12311928D01*
X-3874482Y-12324188D01*
X-3994180Y-12360498D01*
X-4104494Y-12419463D01*
X-4201185Y-12498815D01*
X-4280537Y-12595506D01*
X-4339502Y-12705820D01*
X-4375812Y-12825518D01*
X-4388072Y-12950000D01*
X-4835409Y-12950000D01*
X-4924201Y-12817114D01*
X-5117114Y-12624201D01*
X-5343957Y-12472629D01*
X-5596011Y-12368225D01*
X-5863589Y-12315000D01*
X-6136411Y-12315000D01*
X-6403989Y-12368225D01*
X-6656043Y-12472629D01*
X-6882886Y-12624201D01*
X-7075799Y-12817114D01*
X-7227371Y-13043957D01*
X-7331775Y-13296011D01*
X-7385000Y-13563589D01*
X-7944401Y-13563589D01*
X-7944401Y-10810960D01*
X-1391909Y-10810960D01*
X-1270624Y-11033000D01*
X-127000Y-11033000D01*
X-127000Y-9890085D01*
X127000Y-9890085D01*
X127000Y-11033000D01*
X1270624Y-11033000D01*
X1278454Y-11018665D01*
X2315000Y-11018665D01*
X2315000Y-11301335D01*
X2370147Y-11578574D01*
X2478320Y-11839727D01*
X2635363Y-12074759D01*
X2835241Y-12274637D01*
X3067759Y-12430000D01*
X2835241Y-12585363D01*
X2635363Y-12785241D01*
X2478320Y-13020273D01*
X2370147Y-13281426D01*
X2315000Y-13558665D01*
X2315000Y-13841335D01*
X2370147Y-14118574D01*
X2478320Y-14379727D01*
X2635363Y-14614759D01*
X2835241Y-14814637D01*
X3070273Y-14971680D01*
X3331426Y-15079853D01*
X3608665Y-15135000D01*
X3891335Y-15135000D01*
X4168574Y-15079853D01*
X4429727Y-14971680D01*
X4664759Y-14814637D01*
X4864637Y-14614759D01*
X5021680Y-14379727D01*
X5129853Y-14118574D01*
X5185000Y-13841335D01*
X5185000Y-13558665D01*
X5129853Y-13281426D01*
X5021680Y-13020273D01*
X4864637Y-12785241D01*
X4664759Y-12585363D01*
X4432241Y-12430000D01*
X4664759Y-12274637D01*
X4864637Y-12074759D01*
X5021680Y-11839727D01*
X5129853Y-11578574D01*
X5185000Y-11301335D01*
X5185000Y-11018665D01*
X5129853Y-10741426D01*
X5021680Y-10480273D01*
X4864637Y-10245241D01*
X4664759Y-10045363D01*
X4429727Y-9888320D01*
X4168574Y-9780147D01*
X3891335Y-9725000D01*
X3608665Y-9725000D01*
X3331426Y-9780147D01*
X3070273Y-9888320D01*
X2835241Y-10045363D01*
X2635363Y-10245241D01*
X2478320Y-10480273D01*
X2370147Y-10741426D01*
X2315000Y-11018665D01*
X1278454Y-11018665D01*
X1391909Y-10810960D01*
X1297070Y-10546119D01*
X1152385Y-10304869D01*
X963414Y-10096481D01*
X737420Y-9928963D01*
X483087Y-9808754D01*
X349039Y-9768096D01*
X127000Y-9890085D01*
X-127000Y-9890085D01*
X-349039Y-9768096D01*
X-483087Y-9808754D01*
X-737420Y-9928963D01*
X-963414Y-10096481D01*
X-1152385Y-10304869D01*
X-1297070Y-10546119D01*
X-1391909Y-10810960D01*
X-7944401Y-10810960D01*
X-7944401Y-5330000D01*
X-7388072Y-5330000D01*
X-7388072Y-6830000D01*
X-7375812Y-6954482D01*
X-7339502Y-7074180D01*
X-7280537Y-7184494D01*
X-7201185Y-7281185D01*
X-7104494Y-7360537D01*
X-6994180Y-7419502D01*
X-6874482Y-7455812D01*
X-6750000Y-7468072D01*
X-5250000Y-7468072D01*
X-5125518Y-7455812D01*
X-5005820Y-7419502D01*
X-4895506Y-7360537D01*
X-4798815Y-7281185D01*
X-4719463Y-7184494D01*
X-4660498Y-7074180D01*
X-4624188Y-6954482D01*
X-4611928Y-6830000D01*
X-4611928Y-5330000D01*
X-4624188Y-5205518D01*
X-4660498Y-5085820D01*
X-4719463Y-4975506D01*
X-4798815Y-4878815D01*
X-4895506Y-4799463D01*
X-5005820Y-4740498D01*
X-5125518Y-4704188D01*
X-5250000Y-4691928D01*
X-6750000Y-4691928D01*
X-6874482Y-4704188D01*
X-6994180Y-4740498D01*
X-7104494Y-4799463D01*
X-7201185Y-4878815D01*
X-7280537Y-4975506D01*
X-7339502Y-5085820D01*
X-7375812Y-5205518D01*
X-7388072Y-5330000D01*
X-7944401Y-5330000D01*
X-7944401Y10307298D01*
X-813097Y10307298D01*
X-741514Y10063329D01*
X-486004Y9942429D01*
X-211816Y9873700D01*
X70512Y9859783D01*
X350130Y9901213D01*
X616292Y9996397D01*
X741514Y10063329D01*
X813097Y10307298D01*
X0Y11120395D01*
X-813097Y10307298D01*
X-7944401Y10307298D01*
X-7944401Y11229488D01*
X-1440217Y11229488D01*
X-1398787Y10949870D01*
X-1303603Y10683708D01*
X-1236671Y10558486D01*
X-992702Y10486903D01*
X-179605Y11300000D01*
X-193748Y11314143D01*
X-14143Y11493748D01*
X0Y11479605D01*
X14143Y11493748D01*
X193748Y11314143D01*
X179605Y11300000D01*
X992702Y10486903D01*
X1236671Y10558486D01*
X1357571Y10813996D01*
X1426300Y11088184D01*
X1440217Y11370512D01*
X1398787Y11650130D01*
X1303603Y11916292D01*
X1236671Y12041514D01*
X992704Y12113097D01*
X1108977Y12229370D01*
X1033872Y12304476D01*
X1114637Y12385241D01*
X1271680Y12620273D01*
X1379853Y12881426D01*
X1435000Y13158665D01*
X1435000Y13441335D01*
X1379853Y13718574D01*
X1271680Y13979727D01*
X1114637Y14214759D01*
X914759Y14414637D01*
X679727Y14571680D01*
X418574Y14679853D01*
X141335Y14735000D01*
X-141335Y14735000D01*
X-418574Y14679853D01*
X-679727Y14571680D01*
X-914759Y14414637D01*
X-1114637Y14214759D01*
X-1271680Y13979727D01*
X-1379853Y13718574D01*
X-1435000Y13441335D01*
X-1435000Y13158665D01*
X-1379853Y12881426D01*
X-1271680Y12620273D01*
X-1114637Y12385241D01*
X-1033872Y12304476D01*
X-1108977Y12229370D01*
X-992704Y12113097D01*
X-1236671Y12041514D01*
X-1357571Y11786004D01*
X-1426300Y11511816D01*
X-1440217Y11229488D01*
X-7944401Y11229488D01*
X-7944401Y17780000D01*
X-4078072Y17780000D01*
X-4078072Y15980000D01*
X-4065812Y15855518D01*
X-4029502Y15735820D01*
X-3970537Y15625506D01*
X-3891185Y15528815D01*
X-3794494Y15449463D01*
X-3684180Y15390498D01*
X-3564482Y15354188D01*
X-3440000Y15341928D01*
X-1640000Y15341928D01*
X-1515518Y15354188D01*
X-1395820Y15390498D01*
X-1285506Y15449463D01*
X-1188815Y15528815D01*
X-1109463Y15625506D01*
X-1056120Y15725303D01*
X-1018505Y15687688D01*
X-767095Y15519701D01*
X-487743Y15403989D01*
X-191184Y15345000D01*
X111184Y15345000D01*
X407743Y15403989D01*
X687095Y15519701D01*
X938505Y15687688D01*
X1152312Y15901495D01*
X1210000Y15987831D01*
X1267688Y15901495D01*
X1481495Y15687688D01*
X1732905Y15519701D01*
X2012257Y15403989D01*
X2308816Y15345000D01*
X2611184Y15345000D01*
X2907743Y15403989D01*
X3187095Y15519701D01*
X3438505Y15687688D01*
X3652312Y15901495D01*
X3820299Y16152905D01*
X3936011Y16432257D01*
X3995000Y16728816D01*
X3995000Y17031184D01*
X3936011Y17327743D01*
X3820299Y17607095D01*
X3652312Y17858505D01*
X3438505Y18072312D01*
X3187095Y18240299D01*
X2907743Y18356011D01*
X2611184Y18415000D01*
X2308816Y18415000D01*
X2012257Y18356011D01*
X1732905Y18240299D01*
X1481495Y18072312D01*
X1267688Y17858505D01*
X1210000Y17772169D01*
X1152312Y17858505D01*
X938505Y18072312D01*
X687095Y18240299D01*
X407743Y18356011D01*
X111184Y18415000D01*
X-191184Y18415000D01*
X-487743Y18356011D01*
X-767095Y18240299D01*
X-1018505Y18072312D01*
X-1056120Y18034697D01*
X-1109463Y18134494D01*
X-1188815Y18231185D01*
X-1285506Y18310537D01*
X-1395820Y18369502D01*
X-1515518Y18405812D01*
X-1640000Y18418072D01*
X-3440000Y18418072D01*
X-3564482Y18405812D01*
X-3684180Y18369502D01*
X-3794494Y18310537D01*
X-3891185Y18231185D01*
X-3970537Y18134494D01*
X-4029502Y18024180D01*
X-4065812Y17904482D01*
X-4078072Y17780000D01*
X-7944401Y17780000D01*
X-7944401Y24678957D01*
X-7885360Y24737998D01*
X-6835000Y24737998D01*
X-6835000Y24022003D01*
X-6806133Y23728913D01*
X-6692057Y23352854D01*
X-6506807Y23006275D01*
X-6257503Y22702497D01*
X-5953725Y22453193D01*
X-5607147Y22267943D01*
X-5231088Y22153867D01*
X-4840000Y22115348D01*
X-4448913Y22153867D01*
X-4072854Y22267943D01*
X-3726275Y22453193D01*
X-3422497Y22702497D01*
X-3173193Y23006275D01*
X-2987943Y23352853D01*
X-2873867Y23728912D01*
X-2845000Y24022002D01*
X-2845000Y24737997D01*
X-2845000Y24737998D01*
X2765000Y24737998D01*
X2765000Y24022003D01*
X2793867Y23728913D01*
X2907943Y23352854D01*
X3093193Y23006275D01*
X3342497Y22702497D01*
X3646275Y22453193D01*
X3992853Y22267943D01*
X4368912Y22153867D01*
X4760000Y22115348D01*
X5151087Y22153867D01*
X5527146Y22267943D01*
X5873725Y22453193D01*
X6177503Y22702497D01*
X6426807Y23006275D01*
X6612057Y23352853D01*
X6726133Y23728912D01*
X6755000Y24022002D01*
X6755000Y24737997D01*
X6726133Y25031087D01*
X6612057Y25407147D01*
X6426807Y25753725D01*
X6177503Y26057503D01*
X5873725Y26306807D01*
X5527147Y26492057D01*
X5151088Y26606133D01*
X4760000Y26644652D01*
X4368913Y26606133D01*
X3992854Y26492057D01*
X3646276Y26306807D01*
X3342498Y26057503D01*
X3093193Y25753725D01*
X2907943Y25407147D01*
X2793867Y25031088D01*
X2765000Y24737998D01*
X-2845000Y24737998D01*
X-2873867Y25031087D01*
X-2987943Y25407147D01*
X-3173193Y25753725D01*
X-3422497Y26057503D01*
X-3726275Y26306807D01*
X-4072853Y26492057D01*
X-4448912Y26606133D01*
X-4840000Y26644652D01*
X-5231087Y26606133D01*
X-5607146Y26492057D01*
X-5953724Y26306807D01*
X-6257502Y26057503D01*
X-6506807Y25753725D01*
X-6692057Y25407147D01*
X-6806133Y25031088D01*
X-6835000Y24737998D01*
X-7885360Y24737998D01*
X-2877857Y29745500D01*
X-2402347Y29745500D01*
X-2181043Y29597629D01*
X-1928989Y29493225D01*
X-1661411Y29440000D01*
X-1388589Y29440000D01*
X-1121011Y29493225D01*
X-868957Y29597629D01*
X-642114Y29749201D01*
X-449201Y29942114D01*
X-297629Y30168957D01*
X-193225Y30421011D01*
X-140000Y30688589D01*
X-140000Y30961411D01*
X-193225Y31228989D01*
X-297629Y31481043D01*
X-449201Y31707886D01*
X-642114Y31900799D01*
X-868957Y32052371D01*
X-1121011Y32156775D01*
X-1388589Y32210000D01*
X-1661411Y32210000D01*
X-1928989Y32156775D01*
X-2181043Y32052371D01*
X-2402347Y31904500D01*
X-2877857Y31904500D01*
X-4565000Y33591642D01*
X-4565000Y33641335D01*
X-4620147Y33918574D01*
X-4728320Y34179727D01*
X-4885363Y34414759D01*
X-5051943Y34581339D01*
X-4955820Y34610498D01*
X-4845506Y34669463D01*
X-4748815Y34748815D01*
X-4669463Y34845506D01*
X-4610498Y34955820D01*
X-4574188Y35075518D01*
X-4561928Y35200000D01*
X-4565000Y35714250D01*
X-4723750Y35873000D01*
X-5873000Y35873000D01*
X-5873000Y35853000D01*
X-6127000Y35853000D01*
X-6127000Y35873000D01*
X-7276250Y35873000D01*
X-7435000Y35714250D01*
X-7438072Y35200000D01*
X-7425812Y35075518D01*
X-7389502Y34955820D01*
X-7330537Y34845506D01*
X-7251185Y34748815D01*
X-7154494Y34669463D01*
X-7044180Y34610498D01*
X-6948057Y34581339D01*
X-7114637Y34414759D01*
X-7271680Y34179727D01*
X-7379853Y33918574D01*
X-7435000Y33641335D01*
X-7435000Y33358665D01*
X-7379853Y33081426D01*
X-7271680Y32820273D01*
X-7114637Y32585241D01*
X-6914759Y32385363D01*
X-6679727Y32228320D01*
X-6418574Y32120147D01*
X-6141335Y32065000D01*
X-6091642Y32065000D01*
X-4851643Y30825000D01*
X-9115000Y26561642D01*
X-9115000Y36800000D01*
X-7438072Y36800000D01*
X-7435000Y36285750D01*
X-7276250Y36127000D01*
X-6127000Y36127000D01*
X-6127000Y37276250D01*
X-5873000Y37276250D01*
X-5873000Y36127000D01*
X-4723750Y36127000D01*
X-4565000Y36285750D01*
X-4561928Y36800000D01*
X4561928Y36800000D01*
X4565000Y36285750D01*
X4723750Y36127000D01*
X5873000Y36127000D01*
X5873000Y37276250D01*
X6127000Y37276250D01*
X6127000Y36127000D01*
X7276250Y36127000D01*
X7435000Y36285750D01*
X7438072Y36800000D01*
X7425812Y36924482D01*
X7389502Y37044180D01*
X7330537Y37154494D01*
X7251185Y37251185D01*
X7154494Y37330537D01*
X7044180Y37389502D01*
X6924482Y37425812D01*
X6800000Y37438072D01*
X6285750Y37435000D01*
X6127000Y37276250D01*
X5873000Y37276250D01*
X5714250Y37435000D01*
X5200000Y37438072D01*
X5075518Y37425812D01*
X4955820Y37389502D01*
X4845506Y37330537D01*
X4748815Y37251185D01*
X4669463Y37154494D01*
X4610498Y37044180D01*
X4574188Y36924482D01*
X4561928Y36800000D01*
X-4561928Y36800000D01*
X-4574188Y36924482D01*
X-4610498Y37044180D01*
X-4669463Y37154494D01*
X-4748815Y37251185D01*
X-4845506Y37330537D01*
X-4955820Y37389502D01*
X-5075518Y37425812D01*
X-5200000Y37438072D01*
X-5714250Y37435000D01*
X-5873000Y37276250D01*
X-6127000Y37276250D01*
X-6285750Y37435000D01*
X-6800000Y37438072D01*
X-6924482Y37425812D01*
X-7044180Y37389502D01*
X-7154494Y37330537D01*
X-7251185Y37251185D01*
X-7330537Y37154494D01*
X-7389502Y37044180D01*
X-7425812Y36924482D01*
X-7438072Y36800000D01*
X-9115000Y36800000D01*
X-9115000Y46579104D01*
X-6664800Y46579104D01*
X-6664800Y46268896D01*
X-6604282Y45964648D01*
X-6485570Y45678052D01*
X-6313227Y45420123D01*
X-6093877Y45200773D01*
X-5979000Y45124014D01*
X-5978999Y44929986D01*
X-6093877Y44853227D01*
X-6313227Y44633877D01*
X-6485570Y44375948D01*
X-6604282Y44089352D01*
X-6664800Y43785104D01*
X-6664800Y43474896D01*
X-6604282Y43170648D01*
X-6485570Y42884052D01*
X-6313227Y42626123D01*
X-6093877Y42406773D01*
X-5978999Y42330014D01*
X-5978999Y42053670D01*
X-5983300Y42010000D01*
X-5966136Y41835726D01*
X-5915302Y41668148D01*
X-5832752Y41513709D01*
X-5753597Y41417259D01*
X-5721658Y41378341D01*
X-5687741Y41350506D01*
X-2913072Y38575837D01*
X-2913072Y37695000D01*
X-2900812Y37570518D01*
X-2864502Y37450820D01*
X-2805537Y37340506D01*
X-2726185Y37243815D01*
X-2629494Y37164463D01*
X-2519180Y37105498D01*
X-2399482Y37069188D01*
X-2275000Y37056928D01*
X-775000Y37056928D01*
X-650518Y37069188D01*
X-530820Y37105498D01*
X-420506Y37164463D01*
X-323815Y37243815D01*
X-244463Y37340506D01*
X-185498Y37450820D01*
X-149188Y37570518D01*
X-136928Y37695000D01*
X-136928Y38581411D01*
X115000Y38581411D01*
X115000Y38308589D01*
X168225Y38041011D01*
X272629Y37788957D01*
X424201Y37562114D01*
X617114Y37369201D01*
X843957Y37217629D01*
X1096011Y37113225D01*
X1363589Y37060000D01*
X1636411Y37060000D01*
X1903989Y37113225D01*
X2156043Y37217629D01*
X2382886Y37369201D01*
X2575799Y37562114D01*
X2727371Y37788957D01*
X2831775Y38041011D01*
X2885000Y38308589D01*
X2885000Y38572765D01*
X5667736Y41355501D01*
X5701659Y41383341D01*
X5812753Y41518709D01*
X5895303Y41673149D01*
X5915296Y41739058D01*
X5946136Y41840724D01*
X5949406Y41873924D01*
X5959000Y41971333D01*
X5959000Y41971339D01*
X5963300Y42014999D01*
X5959000Y42058659D01*
X5959000Y42330014D01*
X6073877Y42406773D01*
X6293227Y42626123D01*
X6465570Y42884052D01*
X6584282Y43170648D01*
X6644800Y43474896D01*
X6644800Y43785104D01*
X6584282Y44089352D01*
X6465570Y44375948D01*
X6293227Y44633877D01*
X6073877Y44853227D01*
X5959000Y44929986D01*
X5959000Y45124014D01*
X6073877Y45200773D01*
X6293227Y45420123D01*
X6465570Y45678052D01*
X6584282Y45964648D01*
X6644800Y46268896D01*
X6644800Y46579104D01*
X6584282Y46883352D01*
X6465570Y47169948D01*
X6293227Y47427877D01*
X6073877Y47647227D01*
X5815948Y47819570D01*
X5529352Y47938282D01*
X5225104Y47998800D01*
X4914896Y47998800D01*
X4610648Y47938282D01*
X4324052Y47819570D01*
X4066123Y47647227D01*
X3846773Y47427877D01*
X3755505Y47291286D01*
X3622476Y47336871D01*
X2709605Y46424000D01*
X3622476Y45511129D01*
X3755505Y45556714D01*
X3846773Y45420123D01*
X4066123Y45200773D01*
X4181000Y45124014D01*
X4181001Y44929986D01*
X4066123Y44853227D01*
X3846773Y44633877D01*
X3755505Y44497286D01*
X3622476Y44542871D01*
X2709605Y43630000D01*
X3622476Y42717129D01*
X3755505Y42762714D01*
X3846773Y42626123D01*
X4066123Y42406773D01*
X4149097Y42351332D01*
X1627765Y39830000D01*
X1363589Y39830000D01*
X1096011Y39776775D01*
X843957Y39672371D01*
X617114Y39520799D01*
X424201Y39327886D01*
X272629Y39101043D01*
X168225Y38848989D01*
X115000Y38581411D01*
X-136928Y38581411D01*
X-136928Y39195000D01*
X-149188Y39319482D01*
X-185498Y39439180D01*
X-244463Y39549494D01*
X-323815Y39646185D01*
X-420506Y39725537D01*
X-530820Y39784502D01*
X-650518Y39820812D01*
X-775000Y39833072D01*
X-1655837Y39833072D01*
X-4172094Y42349329D01*
X-4086123Y42406773D01*
X-3955372Y42537524D01*
X-3462871Y42537524D01*
X-3374377Y42279277D01*
X-3095024Y42144403D01*
X-2794725Y42066619D01*
X-2485023Y42048916D01*
X-2177816Y42091973D01*
X-1884914Y42194135D01*
X-1725623Y42279277D01*
X-1637129Y42537524D01*
X-922871Y42537524D01*
X-834377Y42279277D01*
X-555024Y42144403D01*
X-254725Y42066619D01*
X54977Y42048916D01*
X362184Y42091973D01*
X655086Y42194135D01*
X814377Y42279277D01*
X902871Y42537524D01*
X1617129Y42537524D01*
X1705623Y42279277D01*
X1984976Y42144403D01*
X2285275Y42066619D01*
X2594977Y42048916D01*
X2902184Y42091973D01*
X3195086Y42194135D01*
X3354377Y42279277D01*
X3442871Y42537524D01*
X2530000Y43450395D01*
X1617129Y42537524D01*
X902871Y42537524D01*
X-10000Y43450395D01*
X-922871Y42537524D01*
X-1637129Y42537524D01*
X-2550000Y43450395D01*
X-3462871Y42537524D01*
X-3955372Y42537524D01*
X-3866773Y42626123D01*
X-3775505Y42762714D01*
X-3642476Y42717129D01*
X-2729605Y43630000D01*
X-2370395Y43630000D01*
X-1457524Y42717129D01*
X-1280000Y42777961D01*
X-1102476Y42717129D01*
X-189605Y43630000D01*
X169605Y43630000D01*
X1082476Y42717129D01*
X1260000Y42777961D01*
X1437524Y42717129D01*
X2350395Y43630000D01*
X1437524Y44542871D01*
X1260000Y44482039D01*
X1082476Y44542871D01*
X169605Y43630000D01*
X-189605Y43630000D01*
X-1102476Y44542871D01*
X-1280000Y44482039D01*
X-1457524Y44542871D01*
X-2370395Y43630000D01*
X-2729605Y43630000D01*
X-3642476Y44542871D01*
X-3775505Y44497286D01*
X-3866773Y44633877D01*
X-4086123Y44853227D01*
X-4201000Y44929986D01*
X-4201000Y45124014D01*
X-4086123Y45200773D01*
X-3955372Y45331524D01*
X-3462871Y45331524D01*
X-3374377Y45073277D01*
X-3283398Y45029352D01*
X-3374377Y44980723D01*
X-3462871Y44722476D01*
X-2550000Y43809605D01*
X-1637129Y44722476D01*
X-1725623Y44980723D01*
X-1816602Y45024648D01*
X-1725623Y45073277D01*
X-1637129Y45331524D01*
X-922871Y45331524D01*
X-834377Y45073277D01*
X-743398Y45029352D01*
X-834377Y44980723D01*
X-922871Y44722476D01*
X-10000Y43809605D01*
X902871Y44722476D01*
X814377Y44980723D01*
X723398Y45024648D01*
X814377Y45073277D01*
X902871Y45331524D01*
X1617129Y45331524D01*
X1705623Y45073277D01*
X1796602Y45029352D01*
X1705623Y44980723D01*
X1617129Y44722476D01*
X2530000Y43809605D01*
X3442871Y44722476D01*
X3354377Y44980723D01*
X3263398Y45024648D01*
X3354377Y45073277D01*
X3442871Y45331524D01*
X2530000Y46244395D01*
X1617129Y45331524D01*
X902871Y45331524D01*
X-10000Y46244395D01*
X-922871Y45331524D01*
X-1637129Y45331524D01*
X-2550000Y46244395D01*
X-3462871Y45331524D01*
X-3955372Y45331524D01*
X-3866773Y45420123D01*
X-3775505Y45556714D01*
X-3642476Y45511129D01*
X-2729605Y46424000D01*
X-2370395Y46424000D01*
X-1457524Y45511129D01*
X-1280000Y45571961D01*
X-1102476Y45511129D01*
X-189605Y46424000D01*
X169605Y46424000D01*
X1082476Y45511129D01*
X1260000Y45571961D01*
X1437524Y45511129D01*
X2350395Y46424000D01*
X1437524Y47336871D01*
X1260000Y47276039D01*
X1082476Y47336871D01*
X169605Y46424000D01*
X-189605Y46424000D01*
X-1102476Y47336871D01*
X-1280000Y47276039D01*
X-1457524Y47336871D01*
X-2370395Y46424000D01*
X-2729605Y46424000D01*
X-3642476Y47336871D01*
X-3775505Y47291286D01*
X-3866773Y47427877D01*
X-3955372Y47516476D01*
X-3462871Y47516476D01*
X-2550000Y46603605D01*
X-1637129Y47516476D01*
X-922871Y47516476D01*
X-10000Y46603605D01*
X902871Y47516476D01*
X1617129Y47516476D01*
X2530000Y46603605D01*
X3442871Y47516476D01*
X3354377Y47774723D01*
X3075024Y47909597D01*
X2774725Y47987381D01*
X2465023Y48005084D01*
X2157816Y47962027D01*
X1864914Y47859865D01*
X1705623Y47774723D01*
X1617129Y47516476D01*
X902871Y47516476D01*
X814377Y47774723D01*
X535024Y47909597D01*
X234725Y47987381D01*
X-74977Y48005084D01*
X-382184Y47962027D01*
X-675086Y47859865D01*
X-834377Y47774723D01*
X-922871Y47516476D01*
X-1637129Y47516476D01*
X-1725623Y47774723D01*
X-2004976Y47909597D01*
X-2305275Y47987381D01*
X-2614977Y48005084D01*
X-2922184Y47962027D01*
X-3215086Y47859865D01*
X-3374377Y47774723D01*
X-3462871Y47516476D01*
X-3955372Y47516476D01*
X-4086123Y47647227D01*
X-4344052Y47819570D01*
X-4630648Y47938282D01*
X-4934896Y47998800D01*
X-5245104Y47998800D01*
X-5549352Y47938282D01*
X-5835948Y47819570D01*
X-6093877Y47647227D01*
X-6313227Y47427877D01*
X-6485570Y47169948D01*
X-6604282Y46883352D01*
X-6664800Y46579104D01*
X-9115000Y46579104D01*
X-9115000Y49115000D01*
X9115001Y49115000D01*
X9115001Y26561643D01*
G04 #@! TA.AperFunction,Conductor*
D27*
G36*
X9115001Y26561643D02*
G01*
X4851642Y30825000D01*
X6091643Y32065000D01*
X6141335Y32065000D01*
X6418574Y32120147D01*
X6679727Y32228320D01*
X6914759Y32385363D01*
X7114637Y32585241D01*
X7271680Y32820273D01*
X7379853Y33081426D01*
X7435000Y33358665D01*
X7435000Y33641335D01*
X7379853Y33918574D01*
X7271680Y34179727D01*
X7114637Y34414759D01*
X6948057Y34581339D01*
X7044180Y34610498D01*
X7154494Y34669463D01*
X7251185Y34748815D01*
X7330537Y34845506D01*
X7389502Y34955820D01*
X7425812Y35075518D01*
X7438072Y35200000D01*
X7435000Y35714250D01*
X7276250Y35873000D01*
X6127000Y35873000D01*
X6127000Y35853000D01*
X5873000Y35853000D01*
X5873000Y35873000D01*
X4723750Y35873000D01*
X4565000Y35714250D01*
X4561928Y35200000D01*
X4574188Y35075518D01*
X4610498Y34955820D01*
X4669463Y34845506D01*
X4748815Y34748815D01*
X4845506Y34669463D01*
X4955820Y34610498D01*
X5051943Y34581339D01*
X4885363Y34414759D01*
X4728320Y34179727D01*
X4620147Y33918574D01*
X4565000Y33641335D01*
X4565000Y33591643D01*
X2877858Y31904500D01*
X2793897Y31904500D01*
X2780537Y31929494D01*
X2701185Y32026185D01*
X2604494Y32105537D01*
X2494180Y32164502D01*
X2374482Y32200812D01*
X2250000Y32213072D01*
X750000Y32213072D01*
X625518Y32200812D01*
X505820Y32164502D01*
X395506Y32105537D01*
X298815Y32026185D01*
X219463Y31929494D01*
X160498Y31819180D01*
X124188Y31699482D01*
X111928Y31575000D01*
X111928Y30075000D01*
X124188Y29950518D01*
X160498Y29830820D01*
X219463Y29720506D01*
X298815Y29623815D01*
X395506Y29544463D01*
X505820Y29485498D01*
X625518Y29449188D01*
X750000Y29436928D01*
X2250000Y29436928D01*
X2374482Y29449188D01*
X2494180Y29485498D01*
X2604494Y29544463D01*
X2701185Y29623815D01*
X2780537Y29720506D01*
X2793897Y29745500D01*
X2877858Y29745500D01*
X7946591Y24676765D01*
X7946590Y-4489354D01*
X2040562Y1416673D01*
X2101031Y1562659D01*
X2185000Y1984796D01*
X2185000Y2415204D01*
X2101031Y2837341D01*
X1936322Y3234985D01*
X1697200Y3592856D01*
X1392856Y3897200D01*
X1034985Y4136322D01*
X637341Y4301031D01*
X215204Y4385000D01*
X-215204Y4385000D01*
X-637341Y4301031D01*
X-1034985Y4136322D01*
X-1392856Y3897200D01*
X-1697200Y3592856D01*
X-1936322Y3234985D01*
X-2101031Y2837341D01*
X-2111000Y2787224D01*
X-2111000Y3531765D01*
X-783326Y4859438D01*
X-637341Y4798969D01*
X-215204Y4715000D01*
X215204Y4715000D01*
X637341Y4798969D01*
X1034985Y4963678D01*
X1392856Y5202800D01*
X1697200Y5507144D01*
X1936322Y5865015D01*
X2101031Y6262659D01*
X2185000Y6684796D01*
X2185000Y7115204D01*
X2101031Y7537341D01*
X1936322Y7934985D01*
X1697200Y8292856D01*
X1392856Y8597200D01*
X1034985Y8836322D01*
X637341Y9001031D01*
X215204Y9085000D01*
X-215204Y9085000D01*
X-637341Y9001031D01*
X-1034985Y8836322D01*
X-1392856Y8597200D01*
X-1697200Y8292856D01*
X-1936322Y7934985D01*
X-2101031Y7537341D01*
X-2185000Y7115204D01*
X-2185000Y6684796D01*
X-2101031Y6262659D01*
X-2040562Y6116674D01*
X-3597741Y4559494D01*
X-3631658Y4531659D01*
X-3659493Y4497742D01*
X-3659495Y4497740D01*
X-3742752Y4396291D01*
X-3825302Y4241852D01*
X-3876136Y4074274D01*
X-3893300Y3900000D01*
X-3888999Y3856330D01*
X-3889000Y-5010315D01*
X-4075799Y-5197114D01*
X-4227371Y-5423957D01*
X-4331775Y-5676011D01*
X-4385000Y-5943589D01*
X-4385000Y-6216411D01*
X-4331775Y-6483989D01*
X-4227371Y-6736043D01*
X-4075799Y-6962886D01*
X-3882886Y-7155799D01*
X-3656043Y-7307371D01*
X-3403989Y-7411775D01*
X-3136411Y-7465000D01*
X-2863589Y-7465000D01*
X-2596011Y-7411775D01*
X-2343957Y-7307371D01*
X-2117114Y-7155799D01*
X-1924201Y-6962886D01*
X-1772629Y-6736043D01*
X-1668225Y-6483989D01*
X-1615000Y-6216411D01*
X-1615000Y-5943589D01*
X-1668225Y-5676011D01*
X-1772629Y-5423957D01*
X-1924201Y-5197114D01*
X-2111000Y-5010315D01*
X-2111000Y-3087224D01*
X-2101031Y-3137341D01*
X-1936322Y-3534985D01*
X-1697200Y-3892856D01*
X-1392856Y-4197200D01*
X-1034985Y-4436322D01*
X-637341Y-4601031D01*
X-215204Y-4685000D01*
X215204Y-4685000D01*
X637341Y-4601031D01*
X1034985Y-4436322D01*
X1392856Y-4197200D01*
X1697200Y-3892856D01*
X1936322Y-3534985D01*
X2101031Y-3137341D01*
X2185000Y-2715204D01*
X2185000Y-2284796D01*
X2101031Y-1862659D01*
X1936322Y-1465015D01*
X1697200Y-1107144D01*
X1392856Y-802800D01*
X1034985Y-563678D01*
X637341Y-398969D01*
X215204Y-315000D01*
X-215204Y-315000D01*
X-637341Y-398969D01*
X-1034985Y-563678D01*
X-1392856Y-802800D01*
X-1697200Y-1107144D01*
X-1936322Y-1465015D01*
X-2101031Y-1862659D01*
X-2111000Y-1912776D01*
X-2111000Y1612776D01*
X-2101031Y1562659D01*
X-1936322Y1165015D01*
X-1697200Y807144D01*
X-1392856Y502800D01*
X-1034985Y263678D01*
X-637341Y98969D01*
X-215204Y15000D01*
X215204Y15000D01*
X637341Y98969D01*
X783327Y159438D01*
X6611001Y-5668237D01*
X6611000Y-10028151D01*
X6585241Y-10045363D01*
X6385363Y-10245241D01*
X6228320Y-10480273D01*
X6120147Y-10741426D01*
X6065000Y-11018665D01*
X6065000Y-11301335D01*
X6120147Y-11578574D01*
X6228320Y-11839727D01*
X6385363Y-12074759D01*
X6585241Y-12274637D01*
X6817759Y-12430000D01*
X6585241Y-12585363D01*
X6385363Y-12785241D01*
X6228320Y-13020273D01*
X6120147Y-13281426D01*
X6065000Y-13558665D01*
X6065000Y-13841335D01*
X6120147Y-14118574D01*
X6228320Y-14379727D01*
X6385363Y-14614759D01*
X6585241Y-14814637D01*
X6820273Y-14971680D01*
X7081426Y-15079853D01*
X7358665Y-15135000D01*
X7641335Y-15135000D01*
X7918574Y-15079853D01*
X7946590Y-15068248D01*
X7946590Y-16726767D01*
X7500000Y-17173357D01*
X7075826Y-16749184D01*
X7042015Y-16707985D01*
X6877640Y-16573086D01*
X6690106Y-16472847D01*
X6486619Y-16411120D01*
X6328029Y-16395500D01*
X6275000Y-16390277D01*
X6221971Y-16395500D01*
X5064708Y-16395500D01*
X4948932Y-16178899D01*
X4769607Y-15960392D01*
X4551100Y-15781068D01*
X4301807Y-15647818D01*
X4031308Y-15565764D01*
X3750000Y-15538057D01*
X3468691Y-15565764D01*
X3198192Y-15647818D01*
X2948899Y-15781068D01*
X2730392Y-15960393D01*
X2551068Y-16178900D01*
X2480000Y-16311858D01*
X2408932Y-16178899D01*
X2229607Y-15960392D01*
X2011100Y-15781068D01*
X1761807Y-15647818D01*
X1491308Y-15565764D01*
X1210000Y-15538057D01*
X928691Y-15565764D01*
X658192Y-15647818D01*
X408899Y-15781068D01*
X190392Y-15960393D01*
X11068Y-16178900D01*
X-60000Y-16311858D01*
X-131068Y-16178899D01*
X-310393Y-15960392D01*
X-528900Y-15781068D01*
X-778193Y-15647818D01*
X-1048692Y-15565764D01*
X-1330000Y-15538057D01*
X-1611309Y-15565764D01*
X-1881808Y-15647818D01*
X-2131101Y-15781068D01*
X-2349608Y-15960393D01*
X-2528932Y-16178900D01*
X-2600000Y-16311858D01*
X-2671068Y-16178899D01*
X-2850393Y-15960392D01*
X-3068900Y-15781068D01*
X-3318193Y-15647818D01*
X-3588692Y-15565764D01*
X-3870000Y-15538057D01*
X-4151309Y-15565764D01*
X-4421808Y-15647818D01*
X-4671101Y-15781068D01*
X-4889608Y-15960393D01*
X-5068932Y-16178900D01*
X-5202182Y-16428193D01*
X-5284236Y-16698692D01*
X-5305000Y-16909509D01*
X-5305000Y-17850492D01*
X-5284236Y-18061309D01*
X-5202182Y-18331808D01*
X-5068932Y-18581101D01*
X-4889607Y-18799608D01*
X-4671100Y-18978932D01*
X-4421807Y-19112182D01*
X-4151308Y-19194236D01*
X-3870000Y-19221943D01*
X-3588691Y-19194236D01*
X-3318192Y-19112182D01*
X-3068899Y-18978932D01*
X-2850392Y-18799608D01*
X-2671068Y-18581101D01*
X-2600000Y-18448142D01*
X-2528932Y-18581101D01*
X-2349607Y-18799608D01*
X-2131100Y-18978932D01*
X-1881807Y-19112182D01*
X-1611308Y-19194236D01*
X-1330000Y-19221943D01*
X-1048691Y-19194236D01*
X-778192Y-19112182D01*
X-528899Y-18978932D01*
X-310392Y-18799608D01*
X-131068Y-18581101D01*
X-60000Y-18448142D01*
X11068Y-18581101D01*
X190393Y-18799608D01*
X408900Y-18978932D01*
X658193Y-19112182D01*
X928692Y-19194236D01*
X1210000Y-19221943D01*
X1491309Y-19194236D01*
X1761808Y-19112182D01*
X2011101Y-18978932D01*
X2229608Y-18799608D01*
X2408932Y-18581101D01*
X2480000Y-18448142D01*
X2551068Y-18581101D01*
X2730393Y-18799608D01*
X2948900Y-18978932D01*
X3198193Y-19112182D01*
X3468692Y-19194236D01*
X3750000Y-19221943D01*
X4031309Y-19194236D01*
X4301808Y-19112182D01*
X4551101Y-18978932D01*
X4769608Y-18799608D01*
X4948932Y-18581101D01*
X4963151Y-18554500D01*
X5827857Y-18554500D01*
X6065000Y-18791643D01*
X6065000Y-18841335D01*
X6120147Y-19118574D01*
X6228320Y-19379727D01*
X6385363Y-19614759D01*
X6585241Y-19814637D01*
X6820273Y-19971680D01*
X7081426Y-20079853D01*
X7358665Y-20135000D01*
X7641335Y-20135000D01*
X7918574Y-20079853D01*
X8179727Y-19971680D01*
X8414759Y-19814637D01*
X8614637Y-19614759D01*
X8771680Y-19379727D01*
X8879853Y-19118574D01*
X8935000Y-18841335D01*
X8935000Y-18791642D01*
X9115000Y-18611642D01*
X9115000Y-49115000D01*
X-9115000Y-49115000D01*
X-9115000Y-48415000D01*
X-6603072Y-48415000D01*
X-6590812Y-48539482D01*
X-6554502Y-48659180D01*
X-6495537Y-48769494D01*
X-6416185Y-48866185D01*
X-6319494Y-48945537D01*
X-6209180Y-49004502D01*
X-6089482Y-49040812D01*
X-5965000Y-49053072D01*
X-5285750Y-49050000D01*
X-5127000Y-48891250D01*
X-5127000Y-47627000D01*
X-4873000Y-47627000D01*
X-4873000Y-48891250D01*
X-4714250Y-49050000D01*
X-4035000Y-49053072D01*
X-3910518Y-49040812D01*
X-3790820Y-49004502D01*
X-3680506Y-48945537D01*
X-3583815Y-48866185D01*
X-3504463Y-48769494D01*
X-3445498Y-48659180D01*
X-3409188Y-48539482D01*
X-3396928Y-48415000D01*
X3396928Y-48415000D01*
X3409188Y-48539482D01*
X3445498Y-48659180D01*
X3504463Y-48769494D01*
X3583815Y-48866185D01*
X3680506Y-48945537D01*
X3790820Y-49004502D01*
X3910518Y-49040812D01*
X4035000Y-49053072D01*
X4714250Y-49050000D01*
X4873000Y-48891250D01*
X4873000Y-47627000D01*
X5127000Y-47627000D01*
X5127000Y-48891250D01*
X5285750Y-49050000D01*
X5965000Y-49053072D01*
X6089482Y-49040812D01*
X6209180Y-49004502D01*
X6319494Y-48945537D01*
X6416185Y-48866185D01*
X6495537Y-48769494D01*
X6554502Y-48659180D01*
X6590812Y-48539482D01*
X6603072Y-48415000D01*
X6600000Y-47785750D01*
X6441250Y-47627000D01*
X5127000Y-47627000D01*
X4873000Y-47627000D01*
X3558750Y-47627000D01*
X3400000Y-47785750D01*
X3396928Y-48415000D01*
X-3396928Y-48415000D01*
X-3400000Y-47785750D01*
X-3558750Y-47627000D01*
X-4873000Y-47627000D01*
X-5127000Y-47627000D01*
X-6441250Y-47627000D01*
X-6600000Y-47785750D01*
X-6603072Y-48415000D01*
X-9115000Y-48415000D01*
X-9115000Y-44232565D01*
X-6700000Y-44232565D01*
X-6700000Y-44567435D01*
X-6634670Y-44895872D01*
X-6506521Y-45205252D01*
X-6320477Y-45483687D01*
X-6083687Y-45720477D01*
X-5805252Y-45906521D01*
X-5704860Y-45948105D01*
X-5965000Y-45946928D01*
X-6089482Y-45959188D01*
X-6209180Y-45995498D01*
X-6319494Y-46054463D01*
X-6416185Y-46133815D01*
X-6495537Y-46230506D01*
X-6554502Y-46340820D01*
X-6590812Y-46460518D01*
X-6603072Y-46585000D01*
X-6600000Y-47214250D01*
X-6441250Y-47373000D01*
X-5127000Y-47373000D01*
X-5127000Y-47353000D01*
X-4873000Y-47353000D01*
X-4873000Y-47373000D01*
X-3558750Y-47373000D01*
X-3400000Y-47214250D01*
X-3396928Y-46585000D01*
X-3409188Y-46460518D01*
X-3445498Y-46340820D01*
X-3504463Y-46230506D01*
X-3583815Y-46133815D01*
X-3680506Y-46054463D01*
X-3790820Y-45995498D01*
X-3910518Y-45959188D01*
X-4035000Y-45946928D01*
X-4295140Y-45948105D01*
X-4194748Y-45906521D01*
X-3916313Y-45720477D01*
X-3679523Y-45483687D01*
X-3493479Y-45205252D01*
X-3365330Y-44895872D01*
X-3300000Y-44567435D01*
X-3300000Y-44232565D01*
X3300000Y-44232565D01*
X3300000Y-44567435D01*
X3365330Y-44895872D01*
X3493479Y-45205252D01*
X3679523Y-45483687D01*
X3916313Y-45720477D01*
X4194748Y-45906521D01*
X4295140Y-45948105D01*
X4035000Y-45946928D01*
X3910518Y-45959188D01*
X3790820Y-45995498D01*
X3680506Y-46054463D01*
X3583815Y-46133815D01*
X3504463Y-46230506D01*
X3445498Y-46340820D01*
X3409188Y-46460518D01*
X3396928Y-46585000D01*
X3400000Y-47214250D01*
X3558750Y-47373000D01*
X4873000Y-47373000D01*
X4873000Y-47353000D01*
X5127000Y-47353000D01*
X5127000Y-47373000D01*
X6441250Y-47373000D01*
X6600000Y-47214250D01*
X6603072Y-46585000D01*
X6590812Y-46460518D01*
X6554502Y-46340820D01*
X6495537Y-46230506D01*
X6416185Y-46133815D01*
X6319494Y-46054463D01*
X6209180Y-45995498D01*
X6089482Y-45959188D01*
X5965000Y-45946928D01*
X5704860Y-45948105D01*
X5805252Y-45906521D01*
X6083687Y-45720477D01*
X6320477Y-45483687D01*
X6506521Y-45205252D01*
X6634670Y-44895872D01*
X6700000Y-44567435D01*
X6700000Y-44232565D01*
X6634670Y-43904128D01*
X6506521Y-43594748D01*
X6320477Y-43316313D01*
X6083687Y-43079523D01*
X5805252Y-42893479D01*
X5495872Y-42765330D01*
X5167435Y-42700000D01*
X4832565Y-42700000D01*
X4504128Y-42765330D01*
X4194748Y-42893479D01*
X3916313Y-43079523D01*
X3679523Y-43316313D01*
X3493479Y-43594748D01*
X3365330Y-43904128D01*
X3300000Y-44232565D01*
X-3300000Y-44232565D01*
X-3365330Y-43904128D01*
X-3493479Y-43594748D01*
X-3679523Y-43316313D01*
X-3916313Y-43079523D01*
X-4194748Y-42893479D01*
X-4504128Y-42765330D01*
X-4832565Y-42700000D01*
X-5167435Y-42700000D01*
X-5495872Y-42765330D01*
X-5805252Y-42893479D01*
X-6083687Y-43079523D01*
X-6320477Y-43316313D01*
X-6506521Y-43594748D01*
X-6634670Y-43904128D01*
X-6700000Y-44232565D01*
X-9115000Y-44232565D01*
X-9115000Y-35932565D01*
X-6700000Y-35932565D01*
X-6700000Y-36267435D01*
X-6634670Y-36595872D01*
X-6506521Y-36905252D01*
X-6320477Y-37183687D01*
X-6083687Y-37420477D01*
X-5805252Y-37606521D01*
X-5495872Y-37734670D01*
X-5167435Y-37800000D01*
X-4832565Y-37800000D01*
X-4504128Y-37734670D01*
X-4194748Y-37606521D01*
X-3916313Y-37420477D01*
X-3679523Y-37183687D01*
X-3493479Y-36905252D01*
X-3365330Y-36595872D01*
X-3300000Y-36267435D01*
X-3300000Y-35932565D01*
X3300000Y-35932565D01*
X3300000Y-36267435D01*
X3365330Y-36595872D01*
X3493479Y-36905252D01*
X3679523Y-37183687D01*
X3916313Y-37420477D01*
X4194748Y-37606521D01*
X4504128Y-37734670D01*
X4832565Y-37800000D01*
X5167435Y-37800000D01*
X5495872Y-37734670D01*
X5805252Y-37606521D01*
X6083687Y-37420477D01*
X6320477Y-37183687D01*
X6506521Y-36905252D01*
X6634670Y-36595872D01*
X6700000Y-36267435D01*
X6700000Y-35932565D01*
X6634670Y-35604128D01*
X6506521Y-35294748D01*
X6320477Y-35016313D01*
X6083687Y-34779523D01*
X5805252Y-34593479D01*
X5495872Y-34465330D01*
X5167435Y-34400000D01*
X4832565Y-34400000D01*
X4504128Y-34465330D01*
X4194748Y-34593479D01*
X3916313Y-34779523D01*
X3679523Y-35016313D01*
X3493479Y-35294748D01*
X3365330Y-35604128D01*
X3300000Y-35932565D01*
X-3300000Y-35932565D01*
X-3365330Y-35604128D01*
X-3493479Y-35294748D01*
X-3679523Y-35016313D01*
X-3916313Y-34779523D01*
X-4194748Y-34593479D01*
X-4504128Y-34465330D01*
X-4832565Y-34400000D01*
X-5167435Y-34400000D01*
X-5495872Y-34465330D01*
X-5805252Y-34593479D01*
X-6083687Y-34779523D01*
X-6320477Y-35016313D01*
X-6506521Y-35294748D01*
X-6634670Y-35604128D01*
X-6700000Y-35932565D01*
X-9115000Y-35932565D01*
X-9115000Y-28658665D01*
X-8935000Y-28658665D01*
X-8935000Y-28941335D01*
X-8879853Y-29218574D01*
X-8771680Y-29479727D01*
X-8614637Y-29714759D01*
X-8414759Y-29914637D01*
X-8182241Y-30070000D01*
X-8414759Y-30225363D01*
X-8614637Y-30425241D01*
X-8771680Y-30660273D01*
X-8879853Y-30921426D01*
X-8935000Y-31198665D01*
X-8935000Y-31481335D01*
X-8879853Y-31758574D01*
X-8771680Y-32019727D01*
X-8614637Y-32254759D01*
X-8414759Y-32454637D01*
X-8179727Y-32611680D01*
X-7918574Y-32719853D01*
X-7641335Y-32775000D01*
X-7358665Y-32775000D01*
X-7081426Y-32719853D01*
X-6820273Y-32611680D01*
X-6585241Y-32454637D01*
X-6385363Y-32254759D01*
X-6228320Y-32019727D01*
X-6120147Y-31758574D01*
X-6065000Y-31481335D01*
X-6065000Y-31198665D01*
X-6072956Y-31158665D01*
X-5185000Y-31158665D01*
X-5185000Y-31441335D01*
X-5129853Y-31718574D01*
X-5021680Y-31979727D01*
X-4864637Y-32214759D01*
X-4664759Y-32414637D01*
X-4429727Y-32571680D01*
X-4168574Y-32679853D01*
X-3891335Y-32735000D01*
X-3608665Y-32735000D01*
X-3331426Y-32679853D01*
X-3070273Y-32571680D01*
X-2835241Y-32414637D01*
X-2635363Y-32214759D01*
X-2478320Y-31979727D01*
X-2370147Y-31718574D01*
X-2315000Y-31441335D01*
X-2315000Y-31158665D01*
X-2370147Y-30881426D01*
X-2478320Y-30620273D01*
X-2635363Y-30385241D01*
X-2835241Y-30185363D01*
X-3069128Y-30029085D01*
X-3008486Y-29996671D01*
X-2936903Y-29752702D01*
X-3750000Y-28939605D01*
X-4563097Y-29752702D01*
X-4491514Y-29996671D01*
X-4427008Y-30027194D01*
X-4429727Y-30028320D01*
X-4664759Y-30185363D01*
X-4864637Y-30385241D01*
X-5021680Y-30620273D01*
X-5129853Y-30881426D01*
X-5185000Y-31158665D01*
X-6072956Y-31158665D01*
X-6120147Y-30921426D01*
X-6228320Y-30660273D01*
X-6385363Y-30425241D01*
X-6585241Y-30225363D01*
X-6817759Y-30070000D01*
X-6585241Y-29914637D01*
X-6385363Y-29714759D01*
X-6228320Y-29479727D01*
X-6120147Y-29218574D01*
X-6065000Y-28941335D01*
X-6065000Y-28830512D01*
X-5190217Y-28830512D01*
X-5148787Y-29110130D01*
X-5053603Y-29376292D01*
X-4986671Y-29501514D01*
X-4742702Y-29573097D01*
X-3929605Y-28760000D01*
X-3570395Y-28760000D01*
X-2757298Y-29573097D01*
X-2513329Y-29501514D01*
X-2392429Y-29246004D01*
X-2323700Y-28971816D01*
X-2309783Y-28689488D01*
X-2351213Y-28409870D01*
X-2446397Y-28143708D01*
X-2513329Y-28018486D01*
X-2757298Y-27946903D01*
X-3570395Y-28760000D01*
X-3929605Y-28760000D01*
X-4742702Y-27946903D01*
X-4986671Y-28018486D01*
X-5107571Y-28273996D01*
X-5176300Y-28548184D01*
X-5190217Y-28830512D01*
X-6065000Y-28830512D01*
X-6065000Y-28658665D01*
X-6120147Y-28381426D01*
X-6228320Y-28120273D01*
X-6385363Y-27885241D01*
X-6503306Y-27767298D01*
X-4563097Y-27767298D01*
X-3750000Y-28580395D01*
X-2936903Y-27767298D01*
X-3008486Y-27523329D01*
X-3263996Y-27402429D01*
X-3538184Y-27333700D01*
X-3820512Y-27319783D01*
X-4100130Y-27361213D01*
X-4366292Y-27456397D01*
X-4491514Y-27523329D01*
X-4563097Y-27767298D01*
X-6503306Y-27767298D01*
X-6585241Y-27685363D01*
X-6820273Y-27528320D01*
X-7081426Y-27420147D01*
X-7358665Y-27365000D01*
X-7641335Y-27365000D01*
X-7918574Y-27420147D01*
X-8179727Y-27528320D01*
X-8414759Y-27685363D01*
X-8614637Y-27885241D01*
X-8771680Y-28120273D01*
X-8879853Y-28381426D01*
X-8935000Y-28658665D01*
X-9115000Y-28658665D01*
X-9115000Y-23611642D01*
X-8935000Y-23791643D01*
X-8935000Y-23841335D01*
X-8879853Y-24118574D01*
X-8771680Y-24379727D01*
X-8614637Y-24614759D01*
X-8414759Y-24814637D01*
X-8179727Y-24971680D01*
X-7918574Y-25079853D01*
X-7641335Y-25135000D01*
X-7591642Y-25135000D01*
X-6875822Y-25850821D01*
X-6842015Y-25892015D01*
X-6677640Y-26026914D01*
X-6490106Y-26127153D01*
X-6286619Y-26188880D01*
X-6128029Y-26204500D01*
X-6128022Y-26204500D01*
X-6075001Y-26209722D01*
X-6021979Y-26204500D01*
X-5066142Y-26204500D01*
X-4889607Y-26419608D01*
X-4671100Y-26598932D01*
X-4421807Y-26732182D01*
X-4151308Y-26814236D01*
X-3870000Y-26841943D01*
X-3588691Y-26814236D01*
X-3318192Y-26732182D01*
X-3068899Y-26598932D01*
X-2850392Y-26419608D01*
X-2671068Y-26201101D01*
X-2600000Y-26068142D01*
X-2528932Y-26201101D01*
X-2349607Y-26419608D01*
X-2131100Y-26598932D01*
X-1881807Y-26732182D01*
X-1611308Y-26814236D01*
X-1330000Y-26841943D01*
X-1048691Y-26814236D01*
X-778192Y-26732182D01*
X-528899Y-26598932D01*
X-310392Y-26419608D01*
X-131068Y-26201101D01*
X-60000Y-26068142D01*
X11068Y-26201101D01*
X190393Y-26419608D01*
X408900Y-26598932D01*
X658193Y-26732182D01*
X928692Y-26814236D01*
X1210000Y-26841943D01*
X1491309Y-26814236D01*
X1761808Y-26732182D01*
X2011101Y-26598932D01*
X2229608Y-26419608D01*
X2322419Y-26306518D01*
X2324188Y-26324482D01*
X2360498Y-26444180D01*
X2419463Y-26554494D01*
X2498815Y-26651185D01*
X2595506Y-26730537D01*
X2705820Y-26789502D01*
X2825518Y-26825812D01*
X2950000Y-26838072D01*
X4550000Y-26838072D01*
X4674482Y-26825812D01*
X4794180Y-26789502D01*
X4904494Y-26730537D01*
X5001185Y-26651185D01*
X5080537Y-26554494D01*
X5139502Y-26444180D01*
X5175812Y-26324482D01*
X5188072Y-26200000D01*
X5188072Y-24692702D01*
X6686903Y-24692702D01*
X6758486Y-24936671D01*
X7013996Y-25057571D01*
X7288184Y-25126300D01*
X7570512Y-25140217D01*
X7850130Y-25098787D01*
X8116292Y-25003603D01*
X8241514Y-24936671D01*
X8313097Y-24692702D01*
X7500000Y-23879605D01*
X6686903Y-24692702D01*
X5188072Y-24692702D01*
X5188072Y-23800000D01*
X5185168Y-23770512D01*
X6059783Y-23770512D01*
X6101213Y-24050130D01*
X6196397Y-24316292D01*
X6263329Y-24441514D01*
X6507298Y-24513097D01*
X7320395Y-23700000D01*
X7679605Y-23700000D01*
X8492702Y-24513097D01*
X8736671Y-24441514D01*
X8857571Y-24186004D01*
X8926300Y-23911816D01*
X8940217Y-23629488D01*
X8898787Y-23349870D01*
X8803603Y-23083708D01*
X8736671Y-22958486D01*
X8492702Y-22886903D01*
X7679605Y-23700000D01*
X7320395Y-23700000D01*
X6507298Y-22886903D01*
X6263329Y-22958486D01*
X6142429Y-23213996D01*
X6073700Y-23488184D01*
X6059783Y-23770512D01*
X5185168Y-23770512D01*
X5175812Y-23675518D01*
X5139502Y-23555820D01*
X5080537Y-23445506D01*
X5001185Y-23348815D01*
X4904494Y-23269463D01*
X4794180Y-23210498D01*
X4674482Y-23174188D01*
X4550000Y-23161928D01*
X2950000Y-23161928D01*
X2825518Y-23174188D01*
X2705820Y-23210498D01*
X2595506Y-23269463D01*
X2498815Y-23348815D01*
X2419463Y-23445506D01*
X2360498Y-23555820D01*
X2324188Y-23675518D01*
X2322419Y-23693483D01*
X2229607Y-23580392D01*
X2011100Y-23401068D01*
X1761807Y-23267818D01*
X1491308Y-23185764D01*
X1210000Y-23158057D01*
X928691Y-23185764D01*
X658192Y-23267818D01*
X408899Y-23401068D01*
X190392Y-23580393D01*
X11068Y-23798900D01*
X-60000Y-23931858D01*
X-131068Y-23798899D01*
X-310393Y-23580392D01*
X-528900Y-23401068D01*
X-778193Y-23267818D01*
X-1048692Y-23185764D01*
X-1330000Y-23158057D01*
X-1611309Y-23185764D01*
X-1881808Y-23267818D01*
X-2131101Y-23401068D01*
X-2349608Y-23580393D01*
X-2528932Y-23798900D01*
X-2600000Y-23931858D01*
X-2671068Y-23798899D01*
X-2850393Y-23580392D01*
X-3068900Y-23401068D01*
X-3318193Y-23267818D01*
X-3588692Y-23185764D01*
X-3870000Y-23158057D01*
X-4151309Y-23185764D01*
X-4421808Y-23267818D01*
X-4671101Y-23401068D01*
X-4889608Y-23580393D01*
X-5068932Y-23798900D01*
X-5200743Y-24045500D01*
X-5627857Y-24045500D01*
X-6065000Y-23608358D01*
X-6065000Y-23558665D01*
X-6120147Y-23281426D01*
X-6228320Y-23020273D01*
X-6385363Y-22785241D01*
X-6463306Y-22707298D01*
X6686903Y-22707298D01*
X7500000Y-23520395D01*
X8313097Y-22707298D01*
X8241514Y-22463329D01*
X7986004Y-22342429D01*
X7711816Y-22273700D01*
X7429488Y-22259783D01*
X7149870Y-22301213D01*
X6883708Y-22396397D01*
X6758486Y-22463329D01*
X6686903Y-22707298D01*
X-6463306Y-22707298D01*
X-6585241Y-22585363D01*
X-6820273Y-22428320D01*
X-7081426Y-22320147D01*
X-7358665Y-22265000D01*
X-7408357Y-22265000D01*
X-7944401Y-21728957D01*
X-7944401Y-20067999D01*
X-7711816Y-20126300D01*
X-7429488Y-20140217D01*
X-7149870Y-20098787D01*
X-6883708Y-20003603D01*
X-6758486Y-19936671D01*
X-6686903Y-19692702D01*
X-7500000Y-18879605D01*
X-7514143Y-18893748D01*
X-7693748Y-18714143D01*
X-7679605Y-18700000D01*
X-7320395Y-18700000D01*
X-6507298Y-19513097D01*
X-6263329Y-19441514D01*
X-6142429Y-19186004D01*
X-6073700Y-18911816D01*
X-6059783Y-18629488D01*
X-6101213Y-18349870D01*
X-6196397Y-18083708D01*
X-6263329Y-17958486D01*
X-6507298Y-17886903D01*
X-7320395Y-18700000D01*
X-7679605Y-18700000D01*
X-7693748Y-18685858D01*
X-7514143Y-18506253D01*
X-7500000Y-18520395D01*
X-6686903Y-17707298D01*
X-6758486Y-17463329D01*
X-7013996Y-17342429D01*
X-7288184Y-17273700D01*
X-7570512Y-17259783D01*
X-7850130Y-17301213D01*
X-7944401Y-17334926D01*
X-7944401Y-13563589D01*
X-7385000Y-13563589D01*
X-7385000Y-13836411D01*
X-7331775Y-14103989D01*
X-7227371Y-14356043D01*
X-7075799Y-14582886D01*
X-6882886Y-14775799D01*
X-6656043Y-14927371D01*
X-6403989Y-15031775D01*
X-6136411Y-15085000D01*
X-5863589Y-15085000D01*
X-5596011Y-15031775D01*
X-5343957Y-14927371D01*
X-5117114Y-14775799D01*
X-4924201Y-14582886D01*
X-4772629Y-14356043D01*
X-4668225Y-14103989D01*
X-4615000Y-13836411D01*
X-4615000Y-13563589D01*
X-4668225Y-13296011D01*
X-4772629Y-13043957D01*
X-4835409Y-12950000D01*
X-4388072Y-12950000D01*
X-4388072Y-14450000D01*
X-4375812Y-14574482D01*
X-4339502Y-14694180D01*
X-4280537Y-14804494D01*
X-4201185Y-14901185D01*
X-4104494Y-14980537D01*
X-3994180Y-15039502D01*
X-3874482Y-15075812D01*
X-3750000Y-15088072D01*
X-2250000Y-15088072D01*
X-2125518Y-15075812D01*
X-2005820Y-15039502D01*
X-1895506Y-14980537D01*
X-1798815Y-14901185D01*
X-1719463Y-14804494D01*
X-1660498Y-14694180D01*
X-1624188Y-14574482D01*
X-1611928Y-14450000D01*
X-1611928Y-13558665D01*
X-1435000Y-13558665D01*
X-1435000Y-13841335D01*
X-1379853Y-14118574D01*
X-1271680Y-14379727D01*
X-1114637Y-14614759D01*
X-914759Y-14814637D01*
X-679727Y-14971680D01*
X-418574Y-15079853D01*
X-141335Y-15135000D01*
X141335Y-15135000D01*
X418574Y-15079853D01*
X679727Y-14971680D01*
X914759Y-14814637D01*
X1114637Y-14614759D01*
X1271680Y-14379727D01*
X1379853Y-14118574D01*
X1435000Y-13841335D01*
X1435000Y-13558665D01*
X1379853Y-13281426D01*
X1271680Y-13020273D01*
X1114637Y-12785241D01*
X914759Y-12585363D01*
X679727Y-12428320D01*
X668435Y-12423643D01*
X737420Y-12391037D01*
X963414Y-12223519D01*
X1152385Y-12015131D01*
X1297070Y-11773881D01*
X1391909Y-11509040D01*
X1270624Y-11287000D01*
X127000Y-11287000D01*
X127000Y-11307000D01*
X-127000Y-11307000D01*
X-127000Y-11287000D01*
X-1270624Y-11287000D01*
X-1391909Y-11509040D01*
X-1297070Y-11773881D01*
X-1152385Y-12015131D01*
X-963414Y-12223519D01*
X-737420Y-12391037D01*
X-668435Y-12423643D01*
X-679727Y-12428320D01*
X-914759Y-12585363D01*
X-1114637Y-12785241D01*
X-1271680Y-13020273D01*
X-1379853Y-13281426D01*
X-1435000Y-13558665D01*
X-1611928Y-13558665D01*
X-1611928Y-12950000D01*
X-1624188Y-12825518D01*
X-1660498Y-12705820D01*
X-1719463Y-12595506D01*
X-1798815Y-12498815D01*
X-1895506Y-12419463D01*
X-2005820Y-12360498D01*
X-2125518Y-12324188D01*
X-2250000Y-12311928D01*
X-3750000Y-12311928D01*
X-3874482Y-12324188D01*
X-3994180Y-12360498D01*
X-4104494Y-12419463D01*
X-4201185Y-12498815D01*
X-4280537Y-12595506D01*
X-4339502Y-12705820D01*
X-4375812Y-12825518D01*
X-4388072Y-12950000D01*
X-4835409Y-12950000D01*
X-4924201Y-12817114D01*
X-5117114Y-12624201D01*
X-5343957Y-12472629D01*
X-5596011Y-12368225D01*
X-5863589Y-12315000D01*
X-6136411Y-12315000D01*
X-6403989Y-12368225D01*
X-6656043Y-12472629D01*
X-6882886Y-12624201D01*
X-7075799Y-12817114D01*
X-7227371Y-13043957D01*
X-7331775Y-13296011D01*
X-7385000Y-13563589D01*
X-7944401Y-13563589D01*
X-7944401Y-10810960D01*
X-1391909Y-10810960D01*
X-1270624Y-11033000D01*
X-127000Y-11033000D01*
X-127000Y-9890085D01*
X127000Y-9890085D01*
X127000Y-11033000D01*
X1270624Y-11033000D01*
X1278454Y-11018665D01*
X2315000Y-11018665D01*
X2315000Y-11301335D01*
X2370147Y-11578574D01*
X2478320Y-11839727D01*
X2635363Y-12074759D01*
X2835241Y-12274637D01*
X3067759Y-12430000D01*
X2835241Y-12585363D01*
X2635363Y-12785241D01*
X2478320Y-13020273D01*
X2370147Y-13281426D01*
X2315000Y-13558665D01*
X2315000Y-13841335D01*
X2370147Y-14118574D01*
X2478320Y-14379727D01*
X2635363Y-14614759D01*
X2835241Y-14814637D01*
X3070273Y-14971680D01*
X3331426Y-15079853D01*
X3608665Y-15135000D01*
X3891335Y-15135000D01*
X4168574Y-15079853D01*
X4429727Y-14971680D01*
X4664759Y-14814637D01*
X4864637Y-14614759D01*
X5021680Y-14379727D01*
X5129853Y-14118574D01*
X5185000Y-13841335D01*
X5185000Y-13558665D01*
X5129853Y-13281426D01*
X5021680Y-13020273D01*
X4864637Y-12785241D01*
X4664759Y-12585363D01*
X4432241Y-12430000D01*
X4664759Y-12274637D01*
X4864637Y-12074759D01*
X5021680Y-11839727D01*
X5129853Y-11578574D01*
X5185000Y-11301335D01*
X5185000Y-11018665D01*
X5129853Y-10741426D01*
X5021680Y-10480273D01*
X4864637Y-10245241D01*
X4664759Y-10045363D01*
X4429727Y-9888320D01*
X4168574Y-9780147D01*
X3891335Y-9725000D01*
X3608665Y-9725000D01*
X3331426Y-9780147D01*
X3070273Y-9888320D01*
X2835241Y-10045363D01*
X2635363Y-10245241D01*
X2478320Y-10480273D01*
X2370147Y-10741426D01*
X2315000Y-11018665D01*
X1278454Y-11018665D01*
X1391909Y-10810960D01*
X1297070Y-10546119D01*
X1152385Y-10304869D01*
X963414Y-10096481D01*
X737420Y-9928963D01*
X483087Y-9808754D01*
X349039Y-9768096D01*
X127000Y-9890085D01*
X-127000Y-9890085D01*
X-349039Y-9768096D01*
X-483087Y-9808754D01*
X-737420Y-9928963D01*
X-963414Y-10096481D01*
X-1152385Y-10304869D01*
X-1297070Y-10546119D01*
X-1391909Y-10810960D01*
X-7944401Y-10810960D01*
X-7944401Y-5330000D01*
X-7388072Y-5330000D01*
X-7388072Y-6830000D01*
X-7375812Y-6954482D01*
X-7339502Y-7074180D01*
X-7280537Y-7184494D01*
X-7201185Y-7281185D01*
X-7104494Y-7360537D01*
X-6994180Y-7419502D01*
X-6874482Y-7455812D01*
X-6750000Y-7468072D01*
X-5250000Y-7468072D01*
X-5125518Y-7455812D01*
X-5005820Y-7419502D01*
X-4895506Y-7360537D01*
X-4798815Y-7281185D01*
X-4719463Y-7184494D01*
X-4660498Y-7074180D01*
X-4624188Y-6954482D01*
X-4611928Y-6830000D01*
X-4611928Y-5330000D01*
X-4624188Y-5205518D01*
X-4660498Y-5085820D01*
X-4719463Y-4975506D01*
X-4798815Y-4878815D01*
X-4895506Y-4799463D01*
X-5005820Y-4740498D01*
X-5125518Y-4704188D01*
X-5250000Y-4691928D01*
X-6750000Y-4691928D01*
X-6874482Y-4704188D01*
X-6994180Y-4740498D01*
X-7104494Y-4799463D01*
X-7201185Y-4878815D01*
X-7280537Y-4975506D01*
X-7339502Y-5085820D01*
X-7375812Y-5205518D01*
X-7388072Y-5330000D01*
X-7944401Y-5330000D01*
X-7944401Y10307298D01*
X-813097Y10307298D01*
X-741514Y10063329D01*
X-486004Y9942429D01*
X-211816Y9873700D01*
X70512Y9859783D01*
X350130Y9901213D01*
X616292Y9996397D01*
X741514Y10063329D01*
X813097Y10307298D01*
X0Y11120395D01*
X-813097Y10307298D01*
X-7944401Y10307298D01*
X-7944401Y11229488D01*
X-1440217Y11229488D01*
X-1398787Y10949870D01*
X-1303603Y10683708D01*
X-1236671Y10558486D01*
X-992702Y10486903D01*
X-179605Y11300000D01*
X-193748Y11314143D01*
X-14143Y11493748D01*
X0Y11479605D01*
X14143Y11493748D01*
X193748Y11314143D01*
X179605Y11300000D01*
X992702Y10486903D01*
X1236671Y10558486D01*
X1357571Y10813996D01*
X1426300Y11088184D01*
X1440217Y11370512D01*
X1398787Y11650130D01*
X1303603Y11916292D01*
X1236671Y12041514D01*
X992704Y12113097D01*
X1108977Y12229370D01*
X1033872Y12304476D01*
X1114637Y12385241D01*
X1271680Y12620273D01*
X1379853Y12881426D01*
X1435000Y13158665D01*
X1435000Y13441335D01*
X1379853Y13718574D01*
X1271680Y13979727D01*
X1114637Y14214759D01*
X914759Y14414637D01*
X679727Y14571680D01*
X418574Y14679853D01*
X141335Y14735000D01*
X-141335Y14735000D01*
X-418574Y14679853D01*
X-679727Y14571680D01*
X-914759Y14414637D01*
X-1114637Y14214759D01*
X-1271680Y13979727D01*
X-1379853Y13718574D01*
X-1435000Y13441335D01*
X-1435000Y13158665D01*
X-1379853Y12881426D01*
X-1271680Y12620273D01*
X-1114637Y12385241D01*
X-1033872Y12304476D01*
X-1108977Y12229370D01*
X-992704Y12113097D01*
X-1236671Y12041514D01*
X-1357571Y11786004D01*
X-1426300Y11511816D01*
X-1440217Y11229488D01*
X-7944401Y11229488D01*
X-7944401Y17780000D01*
X-4078072Y17780000D01*
X-4078072Y15980000D01*
X-4065812Y15855518D01*
X-4029502Y15735820D01*
X-3970537Y15625506D01*
X-3891185Y15528815D01*
X-3794494Y15449463D01*
X-3684180Y15390498D01*
X-3564482Y15354188D01*
X-3440000Y15341928D01*
X-1640000Y15341928D01*
X-1515518Y15354188D01*
X-1395820Y15390498D01*
X-1285506Y15449463D01*
X-1188815Y15528815D01*
X-1109463Y15625506D01*
X-1056120Y15725303D01*
X-1018505Y15687688D01*
X-767095Y15519701D01*
X-487743Y15403989D01*
X-191184Y15345000D01*
X111184Y15345000D01*
X407743Y15403989D01*
X687095Y15519701D01*
X938505Y15687688D01*
X1152312Y15901495D01*
X1210000Y15987831D01*
X1267688Y15901495D01*
X1481495Y15687688D01*
X1732905Y15519701D01*
X2012257Y15403989D01*
X2308816Y15345000D01*
X2611184Y15345000D01*
X2907743Y15403989D01*
X3187095Y15519701D01*
X3438505Y15687688D01*
X3652312Y15901495D01*
X3820299Y16152905D01*
X3936011Y16432257D01*
X3995000Y16728816D01*
X3995000Y17031184D01*
X3936011Y17327743D01*
X3820299Y17607095D01*
X3652312Y17858505D01*
X3438505Y18072312D01*
X3187095Y18240299D01*
X2907743Y18356011D01*
X2611184Y18415000D01*
X2308816Y18415000D01*
X2012257Y18356011D01*
X1732905Y18240299D01*
X1481495Y18072312D01*
X1267688Y17858505D01*
X1210000Y17772169D01*
X1152312Y17858505D01*
X938505Y18072312D01*
X687095Y18240299D01*
X407743Y18356011D01*
X111184Y18415000D01*
X-191184Y18415000D01*
X-487743Y18356011D01*
X-767095Y18240299D01*
X-1018505Y18072312D01*
X-1056120Y18034697D01*
X-1109463Y18134494D01*
X-1188815Y18231185D01*
X-1285506Y18310537D01*
X-1395820Y18369502D01*
X-1515518Y18405812D01*
X-1640000Y18418072D01*
X-3440000Y18418072D01*
X-3564482Y18405812D01*
X-3684180Y18369502D01*
X-3794494Y18310537D01*
X-3891185Y18231185D01*
X-3970537Y18134494D01*
X-4029502Y18024180D01*
X-4065812Y17904482D01*
X-4078072Y17780000D01*
X-7944401Y17780000D01*
X-7944401Y24678957D01*
X-7885360Y24737998D01*
X-6835000Y24737998D01*
X-6835000Y24022003D01*
X-6806133Y23728913D01*
X-6692057Y23352854D01*
X-6506807Y23006275D01*
X-6257503Y22702497D01*
X-5953725Y22453193D01*
X-5607147Y22267943D01*
X-5231088Y22153867D01*
X-4840000Y22115348D01*
X-4448913Y22153867D01*
X-4072854Y22267943D01*
X-3726275Y22453193D01*
X-3422497Y22702497D01*
X-3173193Y23006275D01*
X-2987943Y23352853D01*
X-2873867Y23728912D01*
X-2845000Y24022002D01*
X-2845000Y24737997D01*
X-2845000Y24737998D01*
X2765000Y24737998D01*
X2765000Y24022003D01*
X2793867Y23728913D01*
X2907943Y23352854D01*
X3093193Y23006275D01*
X3342497Y22702497D01*
X3646275Y22453193D01*
X3992853Y22267943D01*
X4368912Y22153867D01*
X4760000Y22115348D01*
X5151087Y22153867D01*
X5527146Y22267943D01*
X5873725Y22453193D01*
X6177503Y22702497D01*
X6426807Y23006275D01*
X6612057Y23352853D01*
X6726133Y23728912D01*
X6755000Y24022002D01*
X6755000Y24737997D01*
X6726133Y25031087D01*
X6612057Y25407147D01*
X6426807Y25753725D01*
X6177503Y26057503D01*
X5873725Y26306807D01*
X5527147Y26492057D01*
X5151088Y26606133D01*
X4760000Y26644652D01*
X4368913Y26606133D01*
X3992854Y26492057D01*
X3646276Y26306807D01*
X3342498Y26057503D01*
X3093193Y25753725D01*
X2907943Y25407147D01*
X2793867Y25031088D01*
X2765000Y24737998D01*
X-2845000Y24737998D01*
X-2873867Y25031087D01*
X-2987943Y25407147D01*
X-3173193Y25753725D01*
X-3422497Y26057503D01*
X-3726275Y26306807D01*
X-4072853Y26492057D01*
X-4448912Y26606133D01*
X-4840000Y26644652D01*
X-5231087Y26606133D01*
X-5607146Y26492057D01*
X-5953724Y26306807D01*
X-6257502Y26057503D01*
X-6506807Y25753725D01*
X-6692057Y25407147D01*
X-6806133Y25031088D01*
X-6835000Y24737998D01*
X-7885360Y24737998D01*
X-2877857Y29745500D01*
X-2402347Y29745500D01*
X-2181043Y29597629D01*
X-1928989Y29493225D01*
X-1661411Y29440000D01*
X-1388589Y29440000D01*
X-1121011Y29493225D01*
X-868957Y29597629D01*
X-642114Y29749201D01*
X-449201Y29942114D01*
X-297629Y30168957D01*
X-193225Y30421011D01*
X-140000Y30688589D01*
X-140000Y30961411D01*
X-193225Y31228989D01*
X-297629Y31481043D01*
X-449201Y31707886D01*
X-642114Y31900799D01*
X-868957Y32052371D01*
X-1121011Y32156775D01*
X-1388589Y32210000D01*
X-1661411Y32210000D01*
X-1928989Y32156775D01*
X-2181043Y32052371D01*
X-2402347Y31904500D01*
X-2877857Y31904500D01*
X-4565000Y33591642D01*
X-4565000Y33641335D01*
X-4620147Y33918574D01*
X-4728320Y34179727D01*
X-4885363Y34414759D01*
X-5051943Y34581339D01*
X-4955820Y34610498D01*
X-4845506Y34669463D01*
X-4748815Y34748815D01*
X-4669463Y34845506D01*
X-4610498Y34955820D01*
X-4574188Y35075518D01*
X-4561928Y35200000D01*
X-4565000Y35714250D01*
X-4723750Y35873000D01*
X-5873000Y35873000D01*
X-5873000Y35853000D01*
X-6127000Y35853000D01*
X-6127000Y35873000D01*
X-7276250Y35873000D01*
X-7435000Y35714250D01*
X-7438072Y35200000D01*
X-7425812Y35075518D01*
X-7389502Y34955820D01*
X-7330537Y34845506D01*
X-7251185Y34748815D01*
X-7154494Y34669463D01*
X-7044180Y34610498D01*
X-6948057Y34581339D01*
X-7114637Y34414759D01*
X-7271680Y34179727D01*
X-7379853Y33918574D01*
X-7435000Y33641335D01*
X-7435000Y33358665D01*
X-7379853Y33081426D01*
X-7271680Y32820273D01*
X-7114637Y32585241D01*
X-6914759Y32385363D01*
X-6679727Y32228320D01*
X-6418574Y32120147D01*
X-6141335Y32065000D01*
X-6091642Y32065000D01*
X-4851643Y30825000D01*
X-9115000Y26561642D01*
X-9115000Y36800000D01*
X-7438072Y36800000D01*
X-7435000Y36285750D01*
X-7276250Y36127000D01*
X-6127000Y36127000D01*
X-6127000Y37276250D01*
X-5873000Y37276250D01*
X-5873000Y36127000D01*
X-4723750Y36127000D01*
X-4565000Y36285750D01*
X-4561928Y36800000D01*
X4561928Y36800000D01*
X4565000Y36285750D01*
X4723750Y36127000D01*
X5873000Y36127000D01*
X5873000Y37276250D01*
X6127000Y37276250D01*
X6127000Y36127000D01*
X7276250Y36127000D01*
X7435000Y36285750D01*
X7438072Y36800000D01*
X7425812Y36924482D01*
X7389502Y37044180D01*
X7330537Y37154494D01*
X7251185Y37251185D01*
X7154494Y37330537D01*
X7044180Y37389502D01*
X6924482Y37425812D01*
X6800000Y37438072D01*
X6285750Y37435000D01*
X6127000Y37276250D01*
X5873000Y37276250D01*
X5714250Y37435000D01*
X5200000Y37438072D01*
X5075518Y37425812D01*
X4955820Y37389502D01*
X4845506Y37330537D01*
X4748815Y37251185D01*
X4669463Y37154494D01*
X4610498Y37044180D01*
X4574188Y36924482D01*
X4561928Y36800000D01*
X-4561928Y36800000D01*
X-4574188Y36924482D01*
X-4610498Y37044180D01*
X-4669463Y37154494D01*
X-4748815Y37251185D01*
X-4845506Y37330537D01*
X-4955820Y37389502D01*
X-5075518Y37425812D01*
X-5200000Y37438072D01*
X-5714250Y37435000D01*
X-5873000Y37276250D01*
X-6127000Y37276250D01*
X-6285750Y37435000D01*
X-6800000Y37438072D01*
X-6924482Y37425812D01*
X-7044180Y37389502D01*
X-7154494Y37330537D01*
X-7251185Y37251185D01*
X-7330537Y37154494D01*
X-7389502Y37044180D01*
X-7425812Y36924482D01*
X-7438072Y36800000D01*
X-9115000Y36800000D01*
X-9115000Y46579104D01*
X-6664800Y46579104D01*
X-6664800Y46268896D01*
X-6604282Y45964648D01*
X-6485570Y45678052D01*
X-6313227Y45420123D01*
X-6093877Y45200773D01*
X-5979000Y45124014D01*
X-5978999Y44929986D01*
X-6093877Y44853227D01*
X-6313227Y44633877D01*
X-6485570Y44375948D01*
X-6604282Y44089352D01*
X-6664800Y43785104D01*
X-6664800Y43474896D01*
X-6604282Y43170648D01*
X-6485570Y42884052D01*
X-6313227Y42626123D01*
X-6093877Y42406773D01*
X-5978999Y42330014D01*
X-5978999Y42053670D01*
X-5983300Y42010000D01*
X-5966136Y41835726D01*
X-5915302Y41668148D01*
X-5832752Y41513709D01*
X-5753597Y41417259D01*
X-5721658Y41378341D01*
X-5687741Y41350506D01*
X-2913072Y38575837D01*
X-2913072Y37695000D01*
X-2900812Y37570518D01*
X-2864502Y37450820D01*
X-2805537Y37340506D01*
X-2726185Y37243815D01*
X-2629494Y37164463D01*
X-2519180Y37105498D01*
X-2399482Y37069188D01*
X-2275000Y37056928D01*
X-775000Y37056928D01*
X-650518Y37069188D01*
X-530820Y37105498D01*
X-420506Y37164463D01*
X-323815Y37243815D01*
X-244463Y37340506D01*
X-185498Y37450820D01*
X-149188Y37570518D01*
X-136928Y37695000D01*
X-136928Y38581411D01*
X115000Y38581411D01*
X115000Y38308589D01*
X168225Y38041011D01*
X272629Y37788957D01*
X424201Y37562114D01*
X617114Y37369201D01*
X843957Y37217629D01*
X1096011Y37113225D01*
X1363589Y37060000D01*
X1636411Y37060000D01*
X1903989Y37113225D01*
X2156043Y37217629D01*
X2382886Y37369201D01*
X2575799Y37562114D01*
X2727371Y37788957D01*
X2831775Y38041011D01*
X2885000Y38308589D01*
X2885000Y38572765D01*
X5667736Y41355501D01*
X5701659Y41383341D01*
X5812753Y41518709D01*
X5895303Y41673149D01*
X5915296Y41739058D01*
X5946136Y41840724D01*
X5949406Y41873924D01*
X5959000Y41971333D01*
X5959000Y41971339D01*
X5963300Y42014999D01*
X5959000Y42058659D01*
X5959000Y42330014D01*
X6073877Y42406773D01*
X6293227Y42626123D01*
X6465570Y42884052D01*
X6584282Y43170648D01*
X6644800Y43474896D01*
X6644800Y43785104D01*
X6584282Y44089352D01*
X6465570Y44375948D01*
X6293227Y44633877D01*
X6073877Y44853227D01*
X5959000Y44929986D01*
X5959000Y45124014D01*
X6073877Y45200773D01*
X6293227Y45420123D01*
X6465570Y45678052D01*
X6584282Y45964648D01*
X6644800Y46268896D01*
X6644800Y46579104D01*
X6584282Y46883352D01*
X6465570Y47169948D01*
X6293227Y47427877D01*
X6073877Y47647227D01*
X5815948Y47819570D01*
X5529352Y47938282D01*
X5225104Y47998800D01*
X4914896Y47998800D01*
X4610648Y47938282D01*
X4324052Y47819570D01*
X4066123Y47647227D01*
X3846773Y47427877D01*
X3755505Y47291286D01*
X3622476Y47336871D01*
X2709605Y46424000D01*
X3622476Y45511129D01*
X3755505Y45556714D01*
X3846773Y45420123D01*
X4066123Y45200773D01*
X4181000Y45124014D01*
X4181001Y44929986D01*
X4066123Y44853227D01*
X3846773Y44633877D01*
X3755505Y44497286D01*
X3622476Y44542871D01*
X2709605Y43630000D01*
X3622476Y42717129D01*
X3755505Y42762714D01*
X3846773Y42626123D01*
X4066123Y42406773D01*
X4149097Y42351332D01*
X1627765Y39830000D01*
X1363589Y39830000D01*
X1096011Y39776775D01*
X843957Y39672371D01*
X617114Y39520799D01*
X424201Y39327886D01*
X272629Y39101043D01*
X168225Y38848989D01*
X115000Y38581411D01*
X-136928Y38581411D01*
X-136928Y39195000D01*
X-149188Y39319482D01*
X-185498Y39439180D01*
X-244463Y39549494D01*
X-323815Y39646185D01*
X-420506Y39725537D01*
X-530820Y39784502D01*
X-650518Y39820812D01*
X-775000Y39833072D01*
X-1655837Y39833072D01*
X-4172094Y42349329D01*
X-4086123Y42406773D01*
X-3955372Y42537524D01*
X-3462871Y42537524D01*
X-3374377Y42279277D01*
X-3095024Y42144403D01*
X-2794725Y42066619D01*
X-2485023Y42048916D01*
X-2177816Y42091973D01*
X-1884914Y42194135D01*
X-1725623Y42279277D01*
X-1637129Y42537524D01*
X-922871Y42537524D01*
X-834377Y42279277D01*
X-555024Y42144403D01*
X-254725Y42066619D01*
X54977Y42048916D01*
X362184Y42091973D01*
X655086Y42194135D01*
X814377Y42279277D01*
X902871Y42537524D01*
X1617129Y42537524D01*
X1705623Y42279277D01*
X1984976Y42144403D01*
X2285275Y42066619D01*
X2594977Y42048916D01*
X2902184Y42091973D01*
X3195086Y42194135D01*
X3354377Y42279277D01*
X3442871Y42537524D01*
X2530000Y43450395D01*
X1617129Y42537524D01*
X902871Y42537524D01*
X-10000Y43450395D01*
X-922871Y42537524D01*
X-1637129Y42537524D01*
X-2550000Y43450395D01*
X-3462871Y42537524D01*
X-3955372Y42537524D01*
X-3866773Y42626123D01*
X-3775505Y42762714D01*
X-3642476Y42717129D01*
X-2729605Y43630000D01*
X-2370395Y43630000D01*
X-1457524Y42717129D01*
X-1280000Y42777961D01*
X-1102476Y42717129D01*
X-189605Y43630000D01*
X169605Y43630000D01*
X1082476Y42717129D01*
X1260000Y42777961D01*
X1437524Y42717129D01*
X2350395Y43630000D01*
X1437524Y44542871D01*
X1260000Y44482039D01*
X1082476Y44542871D01*
X169605Y43630000D01*
X-189605Y43630000D01*
X-1102476Y44542871D01*
X-1280000Y44482039D01*
X-1457524Y44542871D01*
X-2370395Y43630000D01*
X-2729605Y43630000D01*
X-3642476Y44542871D01*
X-3775505Y44497286D01*
X-3866773Y44633877D01*
X-4086123Y44853227D01*
X-4201000Y44929986D01*
X-4201000Y45124014D01*
X-4086123Y45200773D01*
X-3955372Y45331524D01*
X-3462871Y45331524D01*
X-3374377Y45073277D01*
X-3283398Y45029352D01*
X-3374377Y44980723D01*
X-3462871Y44722476D01*
X-2550000Y43809605D01*
X-1637129Y44722476D01*
X-1725623Y44980723D01*
X-1816602Y45024648D01*
X-1725623Y45073277D01*
X-1637129Y45331524D01*
X-922871Y45331524D01*
X-834377Y45073277D01*
X-743398Y45029352D01*
X-834377Y44980723D01*
X-922871Y44722476D01*
X-10000Y43809605D01*
X902871Y44722476D01*
X814377Y44980723D01*
X723398Y45024648D01*
X814377Y45073277D01*
X902871Y45331524D01*
X1617129Y45331524D01*
X1705623Y45073277D01*
X1796602Y45029352D01*
X1705623Y44980723D01*
X1617129Y44722476D01*
X2530000Y43809605D01*
X3442871Y44722476D01*
X3354377Y44980723D01*
X3263398Y45024648D01*
X3354377Y45073277D01*
X3442871Y45331524D01*
X2530000Y46244395D01*
X1617129Y45331524D01*
X902871Y45331524D01*
X-10000Y46244395D01*
X-922871Y45331524D01*
X-1637129Y45331524D01*
X-2550000Y46244395D01*
X-3462871Y45331524D01*
X-3955372Y45331524D01*
X-3866773Y45420123D01*
X-3775505Y45556714D01*
X-3642476Y45511129D01*
X-2729605Y46424000D01*
X-2370395Y46424000D01*
X-1457524Y45511129D01*
X-1280000Y45571961D01*
X-1102476Y45511129D01*
X-189605Y46424000D01*
X169605Y46424000D01*
X1082476Y45511129D01*
X1260000Y45571961D01*
X1437524Y45511129D01*
X2350395Y46424000D01*
X1437524Y47336871D01*
X1260000Y47276039D01*
X1082476Y47336871D01*
X169605Y46424000D01*
X-189605Y46424000D01*
X-1102476Y47336871D01*
X-1280000Y47276039D01*
X-1457524Y47336871D01*
X-2370395Y46424000D01*
X-2729605Y46424000D01*
X-3642476Y47336871D01*
X-3775505Y47291286D01*
X-3866773Y47427877D01*
X-3955372Y47516476D01*
X-3462871Y47516476D01*
X-2550000Y46603605D01*
X-1637129Y47516476D01*
X-922871Y47516476D01*
X-10000Y46603605D01*
X902871Y47516476D01*
X1617129Y47516476D01*
X2530000Y46603605D01*
X3442871Y47516476D01*
X3354377Y47774723D01*
X3075024Y47909597D01*
X2774725Y47987381D01*
X2465023Y48005084D01*
X2157816Y47962027D01*
X1864914Y47859865D01*
X1705623Y47774723D01*
X1617129Y47516476D01*
X902871Y47516476D01*
X814377Y47774723D01*
X535024Y47909597D01*
X234725Y47987381D01*
X-74977Y48005084D01*
X-382184Y47962027D01*
X-675086Y47859865D01*
X-834377Y47774723D01*
X-922871Y47516476D01*
X-1637129Y47516476D01*
X-1725623Y47774723D01*
X-2004976Y47909597D01*
X-2305275Y47987381D01*
X-2614977Y48005084D01*
X-2922184Y47962027D01*
X-3215086Y47859865D01*
X-3374377Y47774723D01*
X-3462871Y47516476D01*
X-3955372Y47516476D01*
X-4086123Y47647227D01*
X-4344052Y47819570D01*
X-4630648Y47938282D01*
X-4934896Y47998800D01*
X-5245104Y47998800D01*
X-5549352Y47938282D01*
X-5835948Y47819570D01*
X-6093877Y47647227D01*
X-6313227Y47427877D01*
X-6485570Y47169948D01*
X-6604282Y46883352D01*
X-6664800Y46579104D01*
X-9115000Y46579104D01*
X-9115000Y49115000D01*
X9115001Y49115000D01*
X9115001Y26561643D01*
G37*
G04 #@! TD.AperFunction*
M02*
