G04 #@! TF.GenerationSoftware,KiCad,Pcbnew,(5.1.10)-1*
G04 #@! TF.CreationDate,2021-10-20T09:32:21-05:00*
G04 #@! TF.ProjectId,Slew Limiter Front Panel,536c6577-204c-4696-9d69-746572204672,1.0*
G04 #@! TF.SameCoordinates,Original*
G04 #@! TF.FileFunction,Profile,NP*
%FSLAX46Y46*%
G04 Gerber Fmt 4.6, Leading zero omitted, Abs format (unit mm)*
G04 Created by KiCad (PCBNEW (5.1.10)-1) date 2021-10-20 09:32:21*
%MOMM*%
%LPD*%
G01*
G04 APERTURE LIST*
G04 #@! TA.AperFunction,Profile*
%ADD10C,0.200000*%
G04 #@! TD*
G04 APERTURE END LIST*
D10*
X10001241Y63999517D02*
X-10001241Y63999517D01*
X10001241Y-63998828D02*
X10001241Y63999517D01*
X-10001241Y-63998828D02*
X10001241Y-63998828D01*
X-10001241Y63999517D02*
X-10001241Y-63998828D01*
X-365761Y25838216D02*
X0Y25856001D01*
X-718819Y25784881D02*
X-365761Y25838216D01*
X-1059173Y25695976D02*
X-718819Y25784881D01*
X-1384303Y25576604D02*
X-1059173Y25695976D01*
X-1696709Y25426742D02*
X-1384303Y25576604D01*
X-1988810Y25248954D02*
X-1696709Y25426742D01*
X-2263126Y25045736D02*
X-1988810Y25248954D01*
X-2514596Y24814613D02*
X-2263126Y25045736D01*
X-2745741Y24563143D02*
X-2514596Y24814613D01*
X-2948937Y24288827D02*
X-2745741Y24563143D01*
X-3126725Y23996726D02*
X-2948937Y24288827D01*
X-3276587Y23684299D02*
X-3126725Y23996726D01*
X-3395981Y23359190D02*
X-3276587Y23684299D01*
X-3484864Y23018814D02*
X-3395981Y23359190D01*
X-3538220Y22665756D02*
X-3484864Y23018814D01*
X-3556006Y22299995D02*
X-3538220Y22665756D01*
X-3538220Y21936774D02*
X-3556006Y22299995D01*
X-3484864Y21583717D02*
X-3538220Y21936774D01*
X-3395981Y21243363D02*
X-3484864Y21583717D01*
X-3276587Y20915712D02*
X-3395981Y21243363D01*
X-3126725Y20605826D02*
X-3276587Y20915712D01*
X-2948937Y20313725D02*
X-3126725Y20605826D01*
X-2745741Y20039409D02*
X-2948937Y20313725D01*
X-2514596Y19785398D02*
X-2745741Y20039409D01*
X-2263126Y19556795D02*
X-2514596Y19785398D01*
X-1988810Y19351058D02*
X-2263126Y19556795D01*
X-1696709Y19173269D02*
X-1988810Y19351058D01*
X-1384303Y19023408D02*
X-1696709Y19173269D01*
X-1059173Y18904014D02*
X-1384303Y19023408D01*
X-718819Y18817671D02*
X-1059173Y18904014D01*
X-365761Y18764315D02*
X-718819Y18817671D01*
X0Y18744010D02*
X-365761Y18764315D01*
X363220Y18764315D02*
X0Y18744010D01*
X716278Y18817671D02*
X363220Y18764315D01*
X1056653Y18904014D02*
X716278Y18817671D01*
X1384303Y19023408D02*
X1056653Y18904014D01*
X1694190Y19173269D02*
X1384303Y19023408D01*
X1986291Y19351058D02*
X1694190Y19173269D01*
X2260607Y19556795D02*
X1986291Y19351058D01*
X2514596Y19785398D02*
X2260607Y19556795D01*
X2743200Y20039409D02*
X2514596Y19785398D01*
X2948937Y20313725D02*
X2743200Y20039409D01*
X3126747Y20605826D02*
X2948937Y20313725D01*
X3276608Y20915712D02*
X3126747Y20605826D01*
X3395981Y21243363D02*
X3276608Y20915712D01*
X3482345Y21583717D02*
X3395981Y21243363D01*
X3538220Y21936774D02*
X3482345Y21583717D01*
X3556006Y22299995D02*
X3538220Y21936774D01*
X3538220Y22665756D02*
X3556006Y22299995D01*
X3482345Y23018814D02*
X3538220Y22665756D01*
X3395981Y23359190D02*
X3482345Y23018814D01*
X3276608Y23684299D02*
X3395981Y23359190D01*
X3126747Y23996726D02*
X3276608Y23684299D01*
X2948937Y24288827D02*
X3126747Y23996726D01*
X2743200Y24563143D02*
X2948937Y24288827D01*
X2514596Y24814613D02*
X2743200Y24563143D01*
X2260607Y25045736D02*
X2514596Y24814613D01*
X1986291Y25248954D02*
X2260607Y25045736D01*
X1694190Y25426742D02*
X1986291Y25248954D01*
X1384303Y25576604D02*
X1694190Y25426742D01*
X1056653Y25695976D02*
X1384303Y25576604D01*
X716278Y25784881D02*
X1056653Y25695976D01*
X363220Y25838216D02*
X716278Y25784881D01*
X0Y25856001D02*
X363220Y25838216D01*
X-5123179Y61137805D02*
X-5123179Y61219066D01*
X-5110476Y60896498D02*
X-5123179Y61137805D01*
X-5069845Y60665353D02*
X-5110476Y60896498D01*
X-5008867Y60449454D02*
X-5069845Y60665353D01*
X-4925065Y60251339D02*
X-5008867Y60449454D01*
X-4820915Y60070988D02*
X-4925065Y60251339D01*
X-4653268Y59865251D02*
X-4820915Y60070988D01*
X-4462776Y59707768D02*
X-4653268Y59865251D01*
X-4246876Y59601099D02*
X-4462776Y59707768D01*
X-4015732Y59552846D02*
X-4246876Y59601099D01*
X-3954775Y59550305D02*
X-4015732Y59552846D01*
X-1541766Y59550305D02*
X-3954775Y59550305D01*
X-1305561Y59583313D02*
X-1541766Y59550305D01*
X-1087121Y59674759D02*
X-1305561Y59583313D01*
X-888985Y59822080D02*
X-1087121Y59674759D01*
X-716278Y60015113D02*
X-888985Y59822080D01*
X-604506Y60187842D02*
X-716278Y60015113D01*
X-515623Y60380875D02*
X-604506Y60187842D01*
X-444503Y60591693D02*
X-515623Y60380875D01*
X-396229Y60817756D02*
X-444503Y60591693D01*
X-375924Y61056522D02*
X-396229Y60817756D01*
X-373383Y61137805D02*
X-375924Y61056522D01*
X-386066Y61379091D02*
X-373383Y61137805D01*
X-426718Y61610235D02*
X-386066Y61379091D01*
X-487674Y61826135D02*
X-426718Y61610235D01*
X-574039Y62026791D02*
X-487674Y61826135D01*
X-678167Y62204601D02*
X-574039Y62026791D01*
X-843273Y62410337D02*
X-678167Y62204601D01*
X-1036306Y62567821D02*
X-843273Y62410337D01*
X-1249665Y62674490D02*
X-1036306Y62567821D01*
X-1480809Y62722764D02*
X-1249665Y62674490D01*
X-1541766Y62725305D02*
X-1480809Y62722764D01*
X-3954775Y62725305D02*
X-1541766Y62725305D01*
X-4191001Y62692275D02*
X-3954775Y62725305D01*
X-4409442Y62600830D02*
X-4191001Y62692275D01*
X-4607556Y62453509D02*
X-4409442Y62600830D01*
X-4780285Y62260476D02*
X-4607556Y62453509D01*
X-4892035Y62087747D02*
X-4780285Y62260476D01*
X-4983481Y61894714D02*
X-4892035Y62087747D01*
X-5052060Y61683896D02*
X-4983481Y61894714D01*
X-5100313Y61457833D02*
X-5052060Y61683896D01*
X-5123179Y61219066D02*
X-5100313Y61457833D01*
X-5325127Y-46359745D02*
X-5640073Y-46311492D01*
X-4999996Y-46374990D02*
X-5325127Y-46359745D01*
X-4674886Y-46359745D02*
X-4999996Y-46374990D01*
X-4359919Y-46311492D02*
X-4674886Y-46359745D01*
X-4057654Y-46232750D02*
X-4359919Y-46311492D01*
X-3765553Y-46126060D02*
X-4057654Y-46232750D01*
X-3486156Y-45993984D02*
X-3765553Y-46126060D01*
X-3224544Y-45833959D02*
X-3486156Y-45993984D01*
X-2980696Y-45651089D02*
X-3224544Y-45833959D01*
X-2754633Y-45445352D02*
X-2980696Y-45651089D01*
X-2551437Y-45221830D02*
X-2754633Y-45445352D01*
X-2368567Y-44975441D02*
X-2551437Y-45221830D01*
X-2208543Y-44713829D02*
X-2368567Y-44975441D01*
X-2073925Y-44436973D02*
X-2208543Y-44713829D01*
X-1967235Y-44144872D02*
X-2073925Y-44436973D01*
X-1891034Y-43840067D02*
X-1967235Y-44144872D01*
X-1842781Y-43525099D02*
X-1891034Y-43840067D01*
X-1824996Y-43199990D02*
X-1842781Y-43525099D01*
X-1842781Y-42877400D02*
X-1824996Y-43199990D01*
X-1891034Y-42559912D02*
X-1842781Y-42877400D01*
X-1967235Y-42257648D02*
X-1891034Y-42559912D01*
X-2073925Y-41965547D02*
X-1967235Y-42257648D01*
X-2208543Y-41688691D02*
X-2073925Y-41965547D01*
X-2368567Y-41427057D02*
X-2208543Y-41688691D01*
X-2551437Y-41180690D02*
X-2368567Y-41427057D01*
X-2754633Y-40957168D02*
X-2551437Y-41180690D01*
X-2980696Y-40751431D02*
X-2754633Y-40957168D01*
X-3224544Y-40568540D02*
X-2980696Y-40751431D01*
X-3486156Y-40408536D02*
X-3224544Y-40568540D01*
X-3765553Y-40276439D02*
X-3486156Y-40408536D01*
X-4057654Y-40169770D02*
X-3765553Y-40276439D01*
X-4359919Y-40091028D02*
X-4057654Y-40169770D01*
X-4674886Y-40042775D02*
X-4359919Y-40091028D01*
X-4999996Y-40024990D02*
X-4674886Y-40042775D01*
X-5325127Y-40042775D02*
X-4999996Y-40024990D01*
X-5640073Y-40091028D02*
X-5325127Y-40042775D01*
X-5944878Y-40169770D02*
X-5640073Y-40091028D01*
X-6236979Y-40276439D02*
X-5944878Y-40169770D01*
X-6513835Y-40408536D02*
X-6236979Y-40276439D01*
X-6775469Y-40568540D02*
X-6513835Y-40408536D01*
X-7019295Y-40751431D02*
X-6775469Y-40568540D01*
X-7245358Y-40957168D02*
X-7019295Y-40751431D01*
X-7451095Y-41180690D02*
X-7245358Y-40957168D01*
X-7633987Y-41427057D02*
X-7451095Y-41180690D01*
X-7791449Y-41688691D02*
X-7633987Y-41427057D01*
X-7926088Y-41965547D02*
X-7791449Y-41688691D01*
X-8032756Y-42257648D02*
X-7926088Y-41965547D01*
X-8111498Y-42559912D02*
X-8032756Y-42257648D01*
X-8159751Y-42877400D02*
X-8111498Y-42559912D01*
X-8174996Y-43199990D02*
X-8159751Y-42877400D01*
X-8159751Y-43525099D02*
X-8174996Y-43199990D01*
X-8111498Y-43840067D02*
X-8159751Y-43525099D01*
X-8032756Y-44144872D02*
X-8111498Y-43840067D01*
X-7926088Y-44436973D02*
X-8032756Y-44144872D01*
X-7791449Y-44713829D02*
X-7926088Y-44436973D01*
X-7633987Y-44975441D02*
X-7791449Y-44713829D01*
X-7451095Y-45221830D02*
X-7633987Y-44975441D01*
X-7245358Y-45445352D02*
X-7451095Y-45221830D01*
X-7019295Y-45651089D02*
X-7245358Y-45445352D01*
X-6775469Y-45833959D02*
X-7019295Y-45651089D01*
X-6513835Y-45993984D02*
X-6775469Y-45833959D01*
X-6236979Y-46126060D02*
X-6513835Y-45993984D01*
X-5944878Y-46232750D02*
X-6236979Y-46126060D01*
X-5640073Y-46311492D02*
X-5944878Y-46232750D01*
X-373383Y-61137784D02*
X-375924Y-61219066D01*
X-386066Y-60896498D02*
X-373383Y-61137784D01*
X-426718Y-60665353D02*
X-386066Y-60896498D01*
X-487674Y-60449454D02*
X-426718Y-60665353D01*
X-574039Y-60248798D02*
X-487674Y-60449454D01*
X-678167Y-60070988D02*
X-574039Y-60248798D01*
X-843273Y-59865251D02*
X-678167Y-60070988D01*
X-1036306Y-59707768D02*
X-843273Y-59865251D01*
X-1249665Y-59601099D02*
X-1036306Y-59707768D01*
X-1480809Y-59552824D02*
X-1249665Y-59601099D01*
X-1541766Y-59550284D02*
X-1480809Y-59552824D01*
X-3954775Y-59550284D02*
X-1541766Y-59550284D01*
X-4191001Y-59583313D02*
X-3954775Y-59550284D01*
X-4409442Y-59674759D02*
X-4191001Y-59583313D01*
X-4607556Y-59822080D02*
X-4409442Y-59674759D01*
X-4780285Y-60015113D02*
X-4607556Y-59822080D01*
X-4892035Y-60187842D02*
X-4780285Y-60015113D01*
X-4983481Y-60380875D02*
X-4892035Y-60187842D01*
X-5052060Y-60591693D02*
X-4983481Y-60380875D01*
X-5100313Y-60817756D02*
X-5052060Y-60591693D01*
X-5123179Y-61056522D02*
X-5100313Y-60817756D01*
X-5123179Y-61137784D02*
X-5123179Y-61056522D01*
X-5110476Y-61379091D02*
X-5123179Y-61137784D01*
X-5069845Y-61610235D02*
X-5110476Y-61379091D01*
X-5008867Y-61826135D02*
X-5069845Y-61610235D01*
X-4925065Y-62024250D02*
X-5008867Y-61826135D01*
X-4820915Y-62204601D02*
X-4925065Y-62024250D01*
X-4653268Y-62410337D02*
X-4820915Y-62204601D01*
X-4462776Y-62567821D02*
X-4653268Y-62410337D01*
X-4246876Y-62674490D02*
X-4462776Y-62567821D01*
X-4015732Y-62722743D02*
X-4246876Y-62674490D01*
X-3954775Y-62725284D02*
X-4015732Y-62722743D01*
X-1541766Y-62725284D02*
X-3954775Y-62725284D01*
X-1305561Y-62692275D02*
X-1541766Y-62725284D01*
X-1087121Y-62600830D02*
X-1305561Y-62692275D01*
X-888985Y-62453509D02*
X-1087121Y-62600830D01*
X-716278Y-62260476D02*
X-888985Y-62453509D01*
X-604506Y-62087747D02*
X-716278Y-62260476D01*
X-515623Y-61894714D02*
X-604506Y-62087747D01*
X-444503Y-61683896D02*
X-515623Y-61894714D01*
X-396229Y-61457833D02*
X-444503Y-61683896D01*
X-375924Y-61219066D02*
X-396229Y-61457833D01*
X1775473Y-2633990D02*
X1513839Y-2791474D01*
X2019299Y-2451099D02*
X1775473Y-2633990D01*
X2245362Y-2245362D02*
X2019299Y-2451099D01*
X2448558Y-2019299D02*
X2245362Y-2245362D01*
X2631450Y-1775473D02*
X2448558Y-2019299D01*
X2791453Y-1513839D02*
X2631450Y-1775473D01*
X2926091Y-1236983D02*
X2791453Y-1513839D01*
X3032760Y-944882D02*
X2926091Y-1236983D01*
X3108961Y-640077D02*
X3032760Y-944882D01*
X3157214Y-325130D02*
X3108961Y-640077D01*
X3174999Y0D02*
X3157214Y-325130D01*
X3157214Y325109D02*
X3174999Y0D01*
X3108961Y640077D02*
X3157214Y325109D01*
X3032760Y942341D02*
X3108961Y640077D01*
X2926091Y1234442D02*
X3032760Y942341D01*
X2791453Y1513839D02*
X2926091Y1234442D01*
X2631450Y1775451D02*
X2791453Y1513839D01*
X2448558Y2019299D02*
X2631450Y1775451D01*
X2245362Y2245362D02*
X2448558Y2019299D01*
X2019299Y2448558D02*
X2245362Y2245362D01*
X1775473Y2631428D02*
X2019299Y2448558D01*
X1513839Y2791453D02*
X1775473Y2631428D01*
X1234442Y2923529D02*
X1513839Y2791453D01*
X942341Y3032760D02*
X1234442Y2923529D01*
X640077Y3108961D02*
X942341Y3032760D01*
X322590Y3157214D02*
X640077Y3108961D01*
X0Y3174999D02*
X322590Y3157214D01*
X-325109Y3157214D02*
X0Y3174999D01*
X-640077Y3108961D02*
X-325109Y3157214D01*
X-944882Y3032760D02*
X-640077Y3108961D01*
X-1236983Y2923529D02*
X-944882Y3032760D01*
X-1513839Y2791453D02*
X-1236983Y2923529D01*
X-1775451Y2631428D02*
X-1513839Y2791453D01*
X-2019299Y2448558D02*
X-1775451Y2631428D01*
X-2245362Y2245362D02*
X-2019299Y2448558D01*
X-2451099Y2019299D02*
X-2245362Y2245362D01*
X-2633969Y1775451D02*
X-2451099Y2019299D01*
X-2791453Y1513839D02*
X-2633969Y1775451D01*
X-2926070Y1234442D02*
X-2791453Y1513839D01*
X-3032760Y942341D02*
X-2926070Y1234442D01*
X-3111502Y640077D02*
X-3032760Y942341D01*
X-3159755Y325109D02*
X-3111502Y640077D01*
X-3174999Y0D02*
X-3159755Y325109D01*
X-3159755Y-325130D02*
X-3174999Y0D01*
X-3111502Y-640077D02*
X-3159755Y-325130D01*
X-3032760Y-944882D02*
X-3111502Y-640077D01*
X-2926070Y-1236983D02*
X-3032760Y-944882D01*
X-2791453Y-1513839D02*
X-2926070Y-1236983D01*
X-2633969Y-1775473D02*
X-2791453Y-1513839D01*
X-2451099Y-2019299D02*
X-2633969Y-1775473D01*
X-2245362Y-2245362D02*
X-2451099Y-2019299D01*
X-2019299Y-2451099D02*
X-2245362Y-2245362D01*
X-1775451Y-2633990D02*
X-2019299Y-2451099D01*
X-1513839Y-2791474D02*
X-1775451Y-2633990D01*
X-1236983Y-2926091D02*
X-1513839Y-2791474D01*
X-944882Y-3032760D02*
X-1236983Y-2926091D01*
X-640077Y-3111502D02*
X-944882Y-3032760D01*
X-325109Y-3159755D02*
X-640077Y-3111502D01*
X0Y-3174999D02*
X-325109Y-3159755D01*
X322590Y-3159755D02*
X0Y-3174999D01*
X640077Y-3111502D02*
X322590Y-3159755D01*
X942341Y-3032760D02*
X640077Y-3111502D01*
X1234442Y-2926091D02*
X942341Y-3032760D01*
X1513839Y-2791474D02*
X1234442Y-2926091D01*
X8174996Y-43199990D02*
X8157210Y-43525099D01*
X8157210Y-42877400D02*
X8174996Y-43199990D01*
X8108958Y-42559912D02*
X8157210Y-42877400D01*
X8032756Y-42257648D02*
X8108958Y-42559912D01*
X7926066Y-41965547D02*
X8032756Y-42257648D01*
X7791449Y-41688691D02*
X7926066Y-41965547D01*
X7631424Y-41427057D02*
X7791449Y-41688691D01*
X7448554Y-41180690D02*
X7631424Y-41427057D01*
X7245358Y-40957168D02*
X7448554Y-41180690D01*
X7019295Y-40751431D02*
X7245358Y-40957168D01*
X6775447Y-40568540D02*
X7019295Y-40751431D01*
X6513835Y-40408536D02*
X6775447Y-40568540D01*
X6234438Y-40276439D02*
X6513835Y-40408536D01*
X5942337Y-40169770D02*
X6234438Y-40276439D01*
X5640073Y-40091028D02*
X5942337Y-40169770D01*
X5325105Y-40042775D02*
X5640073Y-40091028D01*
X4999996Y-40024990D02*
X5325105Y-40042775D01*
X4674865Y-40042775D02*
X4999996Y-40024990D01*
X4359919Y-40091028D02*
X4674865Y-40042775D01*
X4055114Y-40169770D02*
X4359919Y-40091028D01*
X3763013Y-40276439D02*
X4055114Y-40169770D01*
X3486156Y-40408536D02*
X3763013Y-40276439D01*
X3224523Y-40568540D02*
X3486156Y-40408536D01*
X2980696Y-40751431D02*
X3224523Y-40568540D01*
X2754633Y-40957168D02*
X2980696Y-40751431D01*
X2548896Y-41180690D02*
X2754633Y-40957168D01*
X2366005Y-41427057D02*
X2548896Y-41180690D01*
X2208543Y-41688691D02*
X2366005Y-41427057D01*
X2073904Y-41965547D02*
X2208543Y-41688691D01*
X1967235Y-42257648D02*
X2073904Y-41965547D01*
X1888493Y-42559912D02*
X1967235Y-42257648D01*
X1840240Y-42877400D02*
X1888493Y-42559912D01*
X1824996Y-43199990D02*
X1840240Y-42877400D01*
X1840240Y-43525099D02*
X1824996Y-43199990D01*
X1888493Y-43840067D02*
X1840240Y-43525099D01*
X1967235Y-44144872D02*
X1888493Y-43840067D01*
X2073904Y-44436973D02*
X1967235Y-44144872D01*
X2208543Y-44713829D02*
X2073904Y-44436973D01*
X2366005Y-44975441D02*
X2208543Y-44713829D01*
X2548896Y-45221830D02*
X2366005Y-44975441D01*
X2754633Y-45445352D02*
X2548896Y-45221830D01*
X2980696Y-45651089D02*
X2754633Y-45445352D01*
X3224523Y-45833959D02*
X2980696Y-45651089D01*
X3486156Y-45993984D02*
X3224523Y-45833959D01*
X3763013Y-46126060D02*
X3486156Y-45993984D01*
X4055114Y-46232750D02*
X3763013Y-46126060D01*
X4359919Y-46311492D02*
X4055114Y-46232750D01*
X4674865Y-46359745D02*
X4359919Y-46311492D01*
X4999996Y-46374990D02*
X4674865Y-46359745D01*
X5325105Y-46359745D02*
X4999996Y-46374990D01*
X5640073Y-46311492D02*
X5325105Y-46359745D01*
X5942337Y-46232750D02*
X5640073Y-46311492D01*
X6234438Y-46126060D02*
X5942337Y-46232750D01*
X6513835Y-45993984D02*
X6234438Y-46126060D01*
X6775447Y-45833959D02*
X6513835Y-45993984D01*
X7019295Y-45651089D02*
X6775447Y-45833959D01*
X7245358Y-45445352D02*
X7019295Y-45651089D01*
X7448554Y-45221830D02*
X7245358Y-45445352D01*
X7631424Y-44975441D02*
X7448554Y-45221830D01*
X7791449Y-44713829D02*
X7631424Y-44975441D01*
X7926066Y-44436973D02*
X7791449Y-44713829D01*
X8032756Y-44144872D02*
X7926066Y-44436973D01*
X8108958Y-43840067D02*
X8032756Y-44144872D01*
X8157210Y-43525099D02*
X8108958Y-43840067D01*
M02*
